<svg preserveAspectRatio="none" width="100%" height="100%" overflow="visible" style="display: block;" viewBox="0 0 50 50" fill="none" xmlns="http://www.w3.org/2000/svg">
<g id="Group 9">
<circle id="Ellipse 2" cx="25" cy="25" r="25" fill="var(--fill-0, #D9D9D9)" fill-opacity="0.15"/>
<g id="ArrowUpRight">
<path id="Vector" d="M30.625 20V28.125C30.625 28.2908 30.5592 28.4497 30.4419 28.5669C30.3247 28.6842 30.1658 28.75 30 28.75C29.8342 28.75 29.6753 28.6842 29.5581 28.5669C29.4408 28.4497 29.375 28.2908 29.375 28.125V21.5086L20.4422 30.4422C20.3249 30.5595 20.1659 30.6253 20 30.6253C19.8341 30.6253 19.6751 30.5595 19.5578 30.4422C19.4405 30.3249 19.3747 30.1659 19.3747 30C19.3747 29.8341 19.4405 29.6751 19.5578 29.5578L28.4914 20.625H21.875C21.7092 20.625 21.5503 20.5592 21.4331 20.4419C21.3158 20.3247 21.25 20.1658 21.25 20C21.25 19.8342 21.3158 19.6753 21.4331 19.5581C21.5503 19.4408 21.7092 19.375 21.875 19.375H30C30.1658 19.375 30.3247 19.4408 30.4419 19.5581C30.5592 19.6753 30.625 19.8342 30.625 20Z" fill="var(--fill-0, white)"/>
</g>
</g>
</svg>
