<svg width="341" height="68" viewBox="0 0 341 68" fill="none" xmlns="http://www.w3.org/2000/svg">
<path d="M65.8261 34.0002C65.8261 51.6965 51.5264 66.0434 33.8882 66.0434C16.25 66.0434 1.9502 51.6965 1.9502 34.0002C1.9502 16.3039 16.25 1.95703 33.8882 1.95703C51.5264 1.95703 65.8261 16.3039 65.8261 34.0002Z" fill="#0D9CA4"/>
<path fill-rule="evenodd" clip-rule="evenodd" d="M67.7767 34C67.7767 52.7775 52.6042 68 33.8884 68C15.1726 68 0 52.7775 0 34C0 15.2225 15.1726 0 33.8884 0C52.6042 0 67.7767 15.2225 67.7767 34ZM33.8884 66.0432C51.5266 66.0432 65.8263 51.6963 65.8263 34C65.8263 16.3037 51.5266 1.95683 33.8884 1.95683C16.2502 1.95683 1.95041 16.3037 1.95041 34C1.95041 51.6963 16.2502 66.0432 33.8884 66.0432Z" fill="#96CECE"/>
<path d="M57.5967 34.0638C57.5967 47.2529 46.9409 57.9437 33.7952 57.9437C20.6494 57.9437 9.99365 47.2529 9.99365 34.0638C9.99365 20.8748 20.651 10.1855 33.7952 10.1855C46.9393 10.1855 57.5967 20.8764 57.5967 34.0655V34.0638Z" fill="white"/>
<path d="M48.272 33.9185C48.272 41.8437 41.8682 48.2686 33.969 48.2686C26.0699 48.2686 19.666 41.8437 19.666 33.9185C19.666 25.9933 26.0699 19.5684 33.969 19.5684C41.8682 19.5684 48.272 25.9933 48.272 33.9185Z" fill="#E94C21"/>
<path fill-rule="evenodd" clip-rule="evenodd" d="M50.3851 33.9192C50.3851 43.0153 43.0353 50.3893 33.9692 50.3893C24.903 50.3893 17.5532 43.0153 17.5532 33.9192C17.5532 24.8232 24.903 17.4492 33.9692 17.4492C43.0353 17.4492 50.3851 24.8232 50.3851 33.9192ZM33.9692 48.2694C41.8683 48.2694 48.2722 41.8444 48.2722 33.9192C48.2722 25.9941 41.8683 19.5691 33.9692 19.5691C26.07 19.5691 19.6662 25.9941 19.6662 33.9192C19.6662 41.8444 26.07 48.2694 33.9692 48.2694Z" fill="#FD7311"/>
<path d="M185.025 49.5466H181.8L196.445 18.0938H199.132L213.777 49.5466H210.552L206.656 41.1442H188.921L185.025 49.5466ZM197.789 21.958L190.086 38.583H205.492L197.789 21.958Z" fill="#464646"/>
<path d="M155.917 49.5466H152.961V18.0938H167.203C170.189 18.0938 172.607 18.9332 174.458 20.61C176.308 22.2582 177.234 24.3843 177.234 26.9904C177.234 29.0267 176.652 30.7954 175.488 32.2925C174.323 33.7895 172.725 34.8393 170.696 35.4377C171.085 35.738 171.427 36.1567 171.726 36.6959L178.578 49.5466H175.488L168.904 37.3249C168.516 36.5754 167.844 36.2016 166.889 36.2016H155.917V49.5466ZM167.203 20.6998H155.917V33.5955H167.203C169.322 33.5955 171.024 32.9971 172.308 31.7982C173.621 30.5707 174.279 29.0124 174.279 27.1252C174.279 25.238 173.621 23.696 172.308 22.4971C171.024 21.2983 169.322 20.6998 167.203 20.6998Z" fill="#464646"/>
<path d="M117.396 36.8756V18.0938H120.351V36.6959C120.351 39.8412 121.337 42.3717 123.307 44.2895C125.278 46.1767 127.889 47.1202 131.145 47.1202C134.4 47.1202 137.056 46.1767 139.027 44.2895C140.997 42.3717 141.983 39.8412 141.983 36.6959V18.0938H144.938V36.8756C144.938 40.799 143.67 43.9607 141.132 46.3564C138.624 48.7235 135.295 49.9061 131.145 49.9061C126.994 49.9061 123.696 48.7072 121.157 46.3114C118.649 43.9157 117.396 40.7704 117.396 36.8756Z" fill="#464646"/>
<path d="M85.0014 49.5466H81.7769L96.4216 18.0938H99.1087L113.753 49.5466H110.529L106.633 41.1442H88.8977L85.0014 49.5466ZM97.7651 21.958L90.0621 38.583H105.468L97.7651 21.958Z" fill="#464646"/>
<path d="M331.333 39.9897H330.208V28.0156H331.333V33.4547H339.652V28.0156H340.777V39.9897H339.652V34.4463H331.333V39.9897Z" fill="#747474"/>
<path d="M328.057 29.0072H323.213V39.9897H322.089V29.0072H317.23V28.0156H328.057V29.0072Z" fill="#747474"/>
<path d="M310.194 39.9897V28.0156H311.318V38.9981H318.649V39.9897H310.194Z" fill="#747474"/>
<path d="M297.194 39.9897H295.966L301.542 28.0156H302.565L308.141 39.9897H306.913L305.429 36.7904H298.678L297.194 39.9897ZM302.054 29.4857L299.12 35.8148H304.987L302.054 29.4857Z" fill="#747474"/>
<path d="M285.487 39.9897V28.0156H294.454V29.0072H286.611V33.4708H293.737V34.4276H286.611V38.9954H294.624V39.987H285.487V39.9897Z" fill="#747474"/>
<path d="M272.841 39.9897H271.717V28.0156H272.841V33.4547H281.161V28.0156H282.285V39.9897H281.161V34.4463H272.841V39.9897Z" fill="#747474"/>
<path d="M251.727 39.9897H250.635V28.0156H252.204L257.133 37.937L262.043 28.0156H263.612V39.9897H262.519V29.5204L257.61 39.4257H256.637L251.727 29.5204V39.9897Z" fill="#747474"/>
<path d="M239.013 39.9897V28.0156H247.98V29.0072H240.137V33.4708H247.264V34.4276H240.137V38.9954H248.151V39.987H239.013V39.9897Z" fill="#747474"/>
<path d="M227.777 28.0134H236.659V29.005H228.901V33.4686H235.942V34.4254H228.901V39.9848H227.777V28.0107V28.0134Z" fill="#747474"/>
</svg>
