<svg width="133" height="69" viewBox="0 0 133 69" fill="none" xmlns="http://www.w3.org/2000/svg">
<g clip-path="url(#clip0_562_474)">
<path d="M3.10677 67.7546H1.46003L1.10204 68.917H0.0957031L1.72255 64.124H2.87607L4.50689 68.917H3.46476L3.10677 67.7546ZM1.67084 67.0022H2.89595L2.29533 65.0396H2.27147L1.67084 67.0022Z" fill="black"/>
<path d="M8.12671 67.5511C8.17046 67.9453 8.57618 68.204 9.09327 68.204C9.61037 68.204 9.97233 67.9492 9.97233 67.5949C9.97233 67.2805 9.74958 67.1093 9.18476 66.9819L8.57618 66.8465C7.71304 66.6555 7.28743 66.2096 7.28743 65.509C7.28743 64.6252 8.03522 64.04 9.08134 64.04C10.1275 64.04 10.8554 64.6133 10.8753 65.4811H9.95642C9.9246 65.0751 9.57457 64.8283 9.08532 64.8283C8.59607 64.8283 8.27786 65.0631 8.27786 65.4214C8.27786 65.716 8.50458 65.8832 9.04554 66.0106L9.61434 66.134C10.5531 66.341 10.9628 66.751 10.9628 67.4835C10.9628 68.415 10.2269 69.0002 9.06145 69.0002C7.89601 69.0002 7.21583 68.4508 7.18799 67.5511H8.13466H8.12671Z" fill="black"/>
<path d="M16.4595 66.5202C16.4595 68.0448 15.5844 69.0002 14.2002 69.0002C12.816 69.0002 11.9409 68.0448 11.9409 66.5202C11.9409 64.9955 12.812 64.0361 14.2002 64.0361C15.5884 64.0361 16.4595 64.9915 16.4595 66.5202ZM12.9393 66.5202C12.9393 67.5234 13.4286 68.1563 14.2002 68.1563C14.9719 68.1563 15.4571 67.5234 15.4571 66.5202C15.4571 65.517 14.9679 64.8761 14.2002 64.8761C13.4325 64.8761 12.9393 65.513 12.9393 66.5202Z" fill="black"/>
<path d="M18.5997 67.1217C18.5997 67.7347 18.9537 68.1368 19.5821 68.1368C20.2106 68.1368 20.5606 67.7347 20.5606 67.1217V64.1201H21.5431V67.2212C21.5431 68.2761 20.7794 69.0006 19.5821 69.0006C18.3849 69.0006 17.6172 68.2801 17.6172 67.2212V64.1201H18.5997V67.1217Z" fill="black"/>
<path d="M23.834 68.917H22.8516V64.124H24.7728C25.8507 64.124 26.4672 64.7052 26.4672 65.6527C26.4672 66.2657 26.157 66.7991 25.616 67.0141L26.6025 68.917H25.4927L24.6176 67.1614H23.8301V68.917H23.834ZM23.834 66.4369H24.6773C25.1705 66.4369 25.4609 66.1463 25.4609 65.6726C25.4609 65.1989 25.1546 64.9083 24.6693 64.9083H23.834V66.4369Z" fill="black"/>
<path d="M27.4932 66.5162C27.4932 64.9716 28.3523 64.0361 29.7127 64.0361C30.8383 64.0361 31.6975 64.7686 31.7731 65.8395H30.8185C30.727 65.2503 30.2855 64.8641 29.7127 64.8641C28.9728 64.8641 28.4955 65.4971 28.4955 66.5082C28.4955 67.5194 28.9649 68.1643 29.7167 68.1643C30.2974 68.1643 30.715 67.814 30.8224 67.2487H31.7771C31.6657 68.3195 30.8662 68.9963 29.7167 68.9963C28.3523 68.9963 27.4971 68.0608 27.4971 66.5122L27.4932 66.5162Z" fill="black"/>
<path d="M32.9072 68.917V64.124H33.8897V68.917H32.9072Z" fill="black"/>
<path d="M35.1982 68.917V64.124H36.0176L38.2053 67.249H38.2332V64.124H39.1719V68.917H38.3605L36.1688 65.7761H36.1409V68.917H35.2022H35.1982Z" fill="black"/>
<path d="M42.5883 69.0002C41.1882 69.0002 40.333 68.0647 40.333 66.5042C40.333 64.9437 41.1922 64.04 42.5684 64.04C43.6623 64.04 44.4896 64.7009 44.6288 65.6722H43.6464C43.5032 65.1706 43.1054 64.872 42.5764 64.872C41.8047 64.872 41.3393 65.4731 41.3393 66.4922C41.3393 67.5113 41.8326 68.1682 42.6122 68.1682C43.2526 68.1682 43.6981 67.7661 43.718 67.173V67.0973H42.6997V66.3649H44.6726V66.9063C44.6726 68.212 43.9009 69.0042 42.5963 69.0042L42.5883 69.0002Z" fill="black"/>
<path d="M50.4007 67.7546H48.754L48.396 68.917H47.3896L49.0165 64.124H50.17L51.8008 68.917H50.7587L50.4007 67.7546ZM48.9648 67.0022H50.1899L49.5893 65.0396H49.5654L48.9648 67.0022Z" fill="black"/>
<path d="M52.8076 68.917V64.124H53.627L55.8147 67.249H55.8426V64.124H56.7813V68.917H55.9698L53.7782 65.7761H53.7503V68.917H52.8116H52.8076Z" fill="black"/>
<path d="M59.8759 64.124C61.284 64.124 62.1113 64.9799 62.1113 66.5046C62.1113 68.0292 61.284 68.9209 59.8759 68.9209H58.0859V64.128H59.8759V64.124ZM59.0684 68.085H59.7605C60.6356 68.085 61.1129 67.5396 61.1129 66.5046C61.1129 65.4695 60.6276 64.9481 59.7605 64.9481H59.0684V68.085Z" fill="black"/>
<path d="M65.1182 68.917V64.124H67.1587C68.0377 64.124 68.5906 64.5858 68.5906 65.3183C68.5906 65.8437 68.2088 66.2816 67.7116 66.3573V66.3851C68.348 66.4329 68.8174 66.9106 68.8174 67.5436C68.8174 68.3875 68.1968 68.917 67.1985 68.917H65.1221H65.1182ZM66.0967 66.1144H66.8007C67.3218 66.1144 67.6241 65.8796 67.6241 65.4735C67.6241 65.0675 67.3615 64.8684 66.9041 64.8684H66.1006V66.1144H66.0967ZM66.9439 68.1686C67.5087 68.1686 67.815 67.9217 67.815 67.464C67.815 67.0062 67.5008 66.7753 66.924 66.7753H66.1006V68.1686H66.9439Z" fill="black"/>
<path d="M73.0059 68.917H69.9033V64.124H73.0059V64.952H70.8818V66.1065H72.8865V66.8788H70.8818V68.0889H73.0059V68.9209V68.917Z" fill="black"/>
<path d="M75.5752 68.917V67.1256L73.9443 64.124H75.0143L76.0644 66.1702H76.0883L77.1384 64.124H78.1924L76.5576 67.1256V68.917H75.5752Z" fill="black"/>
<path d="M83.292 66.5202C83.292 68.0448 82.4169 69.0002 81.0327 69.0002C79.6485 69.0002 78.7734 68.0448 78.7734 66.5202C78.7734 64.9955 79.6445 64.0361 81.0327 64.0361C82.4209 64.0361 83.292 64.9915 83.292 66.5202ZM79.7758 66.5202C79.7758 67.5234 80.265 68.1563 81.0367 68.1563C81.8084 68.1563 82.2936 67.5234 82.2936 66.5202C82.2936 65.517 81.8044 64.8761 81.0367 64.8761C80.269 64.8761 79.7758 65.513 79.7758 66.5202Z" fill="black"/>
<path d="M84.4531 68.917V64.124H85.2725L87.4602 67.249H87.4881V64.124H88.4268V68.917H87.6153L85.4237 65.7761H85.3958V68.917H84.4571H84.4531Z" fill="black"/>
<path d="M91.5214 64.124C92.9295 64.124 93.7568 64.9799 93.7568 66.5046C93.7568 68.0292 92.9295 68.9209 91.5214 68.9209H89.7314V64.128H91.5214V64.124ZM90.7139 68.085H91.406C92.2811 68.085 92.7584 67.5396 92.7584 66.5046C92.7584 65.4695 92.2732 64.9481 91.406 64.9481H90.7139V68.085Z" fill="black"/>
<path d="M96.7637 68.917V64.124H97.7461V68.917H96.7637Z" fill="black"/>
<path d="M99.0547 68.917V64.124H99.8741L102.062 67.249H102.09V64.124H103.028V68.917H102.217L100.025 65.7761H99.9974V68.917H99.0587H99.0547Z" fill="black"/>
<path d="M104.333 68.917V64.124H105.315V68.917H104.333Z" fill="black"/>
<path d="M107.746 68.917V64.9481H106.394V64.1201H110.085V64.9481H108.728V68.917H107.746Z" fill="black"/>
<path d="M111.155 68.917V64.124H112.138V68.917H111.155Z" fill="black"/>
<path d="M116.155 67.7546H114.508L114.15 68.917H113.144L114.77 64.124H115.924L117.555 68.917H116.513L116.155 67.7546ZM114.723 67.0022H115.948L115.347 65.0396H115.323L114.723 67.0022Z" fill="black"/>
<path d="M119.051 68.917V64.9481H117.698V64.1201H121.389V64.9481H120.033V68.917H119.051Z" fill="black"/>
<path d="M122.46 68.917V64.124H123.442V68.917H122.46Z" fill="black"/>
<path d="M126.027 68.917L124.452 64.124H125.55L126.62 67.8859H126.644L127.714 64.124H128.784L127.209 68.917H126.027Z" fill="black"/>
<path d="M132.896 68.917H129.794V64.124H132.896V64.952H130.772V66.1065H132.777V66.8788H130.772V68.0889H132.896V68.9209V68.917Z" fill="black"/>
<path d="M133 56.3652H0V56.7633H133V56.3652Z" fill="#B88046"/>
<path d="M28.5479 2.99741V2.71875H35.1149V2.99741C33.9574 3.73785 33.3131 4.80073 33.2653 6.23782V34.5576H37.4259C41.6343 34.5576 47.9666 34.3705 51.2959 31.7789L52.4057 35.0631H28.5479V34.7845C29.7491 34.044 30.3975 32.9811 30.4452 31.5441V6.32938C30.4452 5.63671 30.2582 4.98783 29.936 4.38672C29.6139 3.78562 29.1485 3.32384 28.5479 2.99741Z" fill="black"/>
<path d="M90.9247 2.71859V2.99725C89.6757 3.55457 89.5842 4.56969 89.5842 5.07924C89.5842 5.44945 89.6757 5.81967 89.8149 6.23766L98.2754 25.4413C99.3851 27.8497 101.927 33.6776 105.304 33.6776C106.736 33.6776 107.432 32.4276 107.432 31.0383C107.432 30.6681 107.432 30.2979 107.34 29.8799C106.784 26.3648 105.308 23.216 104.564 19.7447C104.333 18.634 104.055 17.1054 104.055 15.8116C104.055 15.7638 103.872 13.0369 105.443 11.5999C106.322 10.8117 107.384 10.3976 108.542 10.3976C110.161 10.3976 111.823 11.2774 112.794 13.6381C115.984 20.9509 119.87 29.6052 120.84 31.7788C120.888 31.8703 120.888 31.9659 120.932 32.0097L121.023 32.1928C121.071 32.2405 121.071 32.2843 121.071 32.3321C122.133 29.9715 123.151 27.6108 124.213 25.2064C126.063 21.1818 128.283 15.8594 130.224 11.5561C130.964 9.89208 131.103 8.87298 131.103 8.13254C131.103 7.67077 130.872 6.51234 130.315 5.959L129.945 5.58878C129.898 5.54101 129.806 5.49722 129.758 5.49722C129.85 5.26634 129.945 5.07924 130.08 4.89612C130.263 4.57367 130.542 4.15568 130.773 3.73769C130.912 3.41524 131.051 3.18435 131.19 2.99725C131.238 2.85792 131.329 2.76636 131.377 2.6748C131.934 2.85792 132.348 3.23212 132.67 3.73769C132.901 4.24724 132.992 4.80058 132.992 5.31012C132.992 5.63257 132.992 6.83877 131.93 9.19543C130.868 11.5561 129.619 14.3785 128.37 17.2009L126.473 21.5042C125.824 22.9373 125.224 24.3266 124.623 25.6682C123.283 28.7692 121.895 31.8703 120.506 35.063H119.257C111.35 17.384 110.61 15.6723 110.61 15.5807C109.687 13.1763 108.343 12.0656 107.098 12.0656C106.406 12.0656 105.805 12.4358 105.387 13.1285C104.926 13.9167 104.648 14.888 104.648 15.9509C104.648 16.0425 104.556 17.1094 105.109 19.6053C105.387 20.8553 105.757 22.1491 106.171 23.4469C107.05 26.0862 107.838 28.6777 108.021 30.0192C108.16 30.7119 108.204 31.2692 108.204 31.5917C108.204 32.1012 108.112 32.563 107.973 32.981C107.464 34.231 106.032 34.9714 104.321 34.9714C100.022 34.9714 97.802 31.4085 96.3223 27.8457C93.0408 20.6244 89.8945 13.5465 86.7044 6.28145C86.1038 5.03147 85.4117 3.59836 84.3457 2.99725V2.71859H90.9128H90.9247Z" fill="black"/>
<path d="M65.1095 1.41329C64.3538 1.31376 63.6338 1.06297 62.9059 0.859948C62.2218 0.664886 61.5058 0.585269 60.8256 0.366323C60.1773 0.195146 59.5448 -0.0675893 58.8448 0.0160084C58.3038 0.143395 57.8146 -0.111379 57.2696 0.0916445C56.9952 0.290687 56.7048 0.230974 56.4184 0.270783C55.7223 0.449921 55.3445 1.36153 54.8035 1.89099C54.0597 3.12505 53.475 4.47456 52.8903 5.81212C52.5243 6.61625 52.0748 7.38853 51.876 8.27228C51.514 9.72927 50.9134 11.1345 50.6986 12.6194C50.3486 14.0286 50.1855 15.4577 50.0582 16.8829C49.8991 17.8502 50.098 18.7538 50.1696 19.6734C50.269 20.9234 50.6349 22.0978 51.2475 23.0094C51.689 23.6582 52.0748 24.3708 52.4249 25.1073C53.0693 26.3493 53.821 27.4958 54.6762 28.5029C55.5235 29.3986 56.4542 30.1868 57.1941 31.2258C58.0294 32.4997 58.9601 33.7457 60.2131 34.4105C60.5154 34.6295 60.8893 34.6732 61.2154 34.8404C62.1939 35.3261 63.2679 35.5689 64.3777 35.565C65.5988 35.5769 66.8319 35.565 68.0689 35.2465C69.2701 35.0514 70.4594 35.2465 71.6647 34.8643C72.3966 34.6414 73.0608 34.096 73.7211 33.5944C74.0632 33.3038 74.4291 33.053 74.7394 32.7067C75.2923 32.1175 75.7577 31.409 76.3026 30.8039C76.9589 30.0236 77.7306 29.4265 78.4107 28.6781C79.3296 27.7068 80.1609 26.612 80.9644 25.4894C81.7321 24.12 82.3923 22.663 83.0248 21.206C83.4782 19.6296 84.1862 18.0771 84.2459 16.433C84.2976 14.9959 84.4329 13.5509 84.4726 12.1178C84.5045 11.0469 84.234 10.0517 83.7845 9.23963C83.3987 8.6226 82.8498 8.20859 82.3048 7.82245C81.2388 7.11784 80.149 6.47294 79.0352 5.87581C78.5062 5.58521 77.9732 5.29461 77.3964 5.1314C76.7123 4.80497 75.9327 4.78108 75.2525 4.44669C74.5803 4.10832 73.8205 4.0287 73.1563 3.67042C72.6551 3.40769 72.0943 3.33205 71.5851 3.0932C70.3918 2.512 69.0792 2.30499 67.7905 2.06614C66.8597 1.99847 66.0164 1.56456 65.1056 1.41727L65.1095 1.41329ZM69.4929 2.73095C70.1134 2.8026 70.6901 3.04145 71.259 3.29224C71.8397 3.54702 72.4841 3.62664 73.0489 3.94112C73.5978 4.22774 74.2104 4.31532 74.7752 4.55019C75.9008 5.09955 77.1777 5.20305 78.2874 5.79222C79.5523 6.42517 80.7814 7.14968 81.9866 7.92197C82.3804 8.1648 82.7463 8.46336 83.1043 8.77785C83.876 9.53023 84.2738 10.7802 84.2658 12.0859C84.2578 13.3558 84.1067 14.6456 84.0749 15.9195C84.0391 17.2929 83.7487 18.6981 83.1998 19.9879C82.7861 21.5922 81.9667 23.0094 81.2866 24.4823C81.0877 24.9082 80.845 25.3023 80.5825 25.6765C79.5762 27.026 78.5301 28.3517 77.3407 29.4384C76.581 30.1231 75.8889 30.9273 75.2406 31.7792C74.4689 32.8301 73.4745 33.5467 72.496 34.2035C70.8811 35.2266 69.2025 34.6135 67.5558 35.0793C66.2949 35.3142 65.0499 35.2903 63.8128 35.2505C63.3514 35.1629 62.8662 35.1629 62.4286 34.9957C61.3069 34.522 60.0858 34.2354 59.1908 33.272C58.1049 32.3246 57.4645 30.8039 56.4144 29.8087C55.8417 29.1916 55.2291 28.6343 54.6603 28.0133C53.825 26.9345 53.0613 25.7641 52.4328 24.4664C52.1743 23.909 51.868 23.3915 51.5379 22.9019C51.0088 22.1177 50.6349 21.1543 50.4878 20.0994C50.4003 19.3032 50.3048 18.507 50.2412 17.7029C50.2968 16.9625 50.4003 16.2181 50.4599 15.4776C50.5673 14.1759 50.9452 12.894 51.1441 11.6003C51.4384 10.5095 51.8083 9.44265 52.0987 8.3519C52.3533 7.32484 52.942 6.45304 53.3119 5.47773C53.825 4.32328 54.3341 3.1569 54.9825 2.09003C55.3246 1.69194 55.6468 1.26599 55.9809 0.855967C56.1996 0.577308 56.5099 0.601193 56.7764 0.553423C57.0548 0.569346 57.3293 0.362342 57.6117 0.350399C58.0771 0.342438 58.5345 0.422055 59.0118 0.326514C60.3125 0.338457 61.466 0.995296 62.7269 1.19434C63.4389 1.28988 64.1191 1.51281 64.8033 1.71583C65.7937 2.03032 66.8358 2.1577 67.8342 2.44831C68.4149 2.43238 68.936 2.6991 69.5088 2.74289L69.4929 2.73095Z" fill="black"/>
<path d="M63.1367 1.96651C62.8623 1.90282 62.5679 1.92272 62.2975 1.84311C61.0564 1.45298 59.6842 1.62814 58.3636 2.03817C57.9062 2.1974 57.4487 2.36062 56.9953 2.51189C56.3748 2.75074 55.6866 3.05726 55.2849 3.78178C54.3422 5.48956 53.7814 7.40833 53.1211 9.25544C52.7671 10.171 52.4131 11.0866 52.1028 12.0181C51.2755 13.9568 50.8379 16.1503 51.0607 18.1646C51.1283 18.8095 51.4107 19.327 51.5976 19.9002C51.9159 20.8636 52.3971 21.6996 52.6756 22.6868C53.0177 23.4909 53.3597 24.307 53.8092 25.0196C54.1234 25.8436 54.6644 26.4527 55.1059 27.1493C55.8815 28.1406 56.7129 29.0602 57.6078 29.8842C58.0215 30.2743 58.5028 30.545 58.9284 30.9152C60.0223 31.8467 61.307 32.3961 62.552 32.9972C63.3396 33.2281 64.1272 33.4669 64.9108 33.7257C65.4517 33.9287 66.0643 33.8292 66.6013 34.0521C67.4445 34.1994 68.3355 34.0044 69.2066 33.9247C69.8947 33.873 70.567 33.5267 71.2392 33.2679C71.7443 33.1166 72.2535 32.9375 72.7308 32.6389C73.4388 32.1811 74.1866 31.8268 74.8429 31.2178C75.8492 30.3898 76.788 29.4065 77.6193 28.2958C77.7068 28.1804 77.7943 28.0689 77.8818 27.9575C77.9733 27.8301 78.0688 27.7067 78.1642 27.5793C78.2517 27.4678 78.3432 27.3563 78.4307 27.2449C78.6296 26.9662 78.8285 26.6836 79.0154 26.393C79.1467 26.178 79.2819 25.967 79.4251 25.764C80.3559 24.1677 80.9685 22.3763 81.7282 20.6725C81.9589 19.952 82.2652 19.2633 82.5714 18.5826C82.7982 17.9138 82.9732 17.2291 83.188 16.5563C83.4306 15.8398 83.4266 15.0953 83.4744 14.3668C83.4704 14.2872 83.4585 14.132 83.4505 14.0524C83.3988 13.5269 83.3351 13.0014 83.2476 12.4919C83.1323 11.8111 83.0965 11.0787 82.8419 10.4696C82.6709 10.0237 82.4004 9.66547 82.1419 9.30719C81.9828 9.10417 81.8157 8.90513 81.6447 8.72201C81.2469 8.37567 80.865 7.99749 80.4315 7.71485C79.3893 7.02617 78.1324 6.93461 76.9869 6.54847C76.4141 6.46885 75.8453 6.34942 75.3441 6.0429C74.5167 5.81201 73.753 5.40596 72.9774 5.03574C72.1103 4.78097 71.3108 4.33512 70.4794 3.99276C69.7317 3.79372 69.0157 3.46729 68.24 3.38767C67.9099 3.21252 67.5519 3.12096 67.178 3.113C65.8177 2.77861 64.4852 2.35664 63.1407 1.97846L63.1367 1.96651ZM68.7372 3.78576C69.7993 3.98082 70.7937 4.41075 71.7642 4.88447C72.1739 5.13527 72.6711 5.14721 73.0768 5.40994C73.3235 5.57316 73.6138 5.62491 73.8684 5.76822C74.3497 6.09863 74.9503 6.11455 75.4435 6.41312C76.0203 6.75149 76.7084 6.72362 77.3249 6.92665C78.3711 7.23317 79.4967 7.36454 80.4235 8.01342C80.702 8.2045 80.9525 8.45131 81.2191 8.67026C81.4259 8.8693 81.6287 9.06834 81.8237 9.28729C81.9589 9.47041 82.0902 9.65751 82.2254 9.84461C82.9095 10.7403 82.9414 12.1017 83.1442 13.3079C83.2874 14.1877 83.2556 15.1312 83.1005 16.0627C82.7504 17.3366 82.3805 18.6064 81.8157 19.7927C81.3742 21.0467 80.7974 22.241 80.3241 23.483C79.8985 24.311 79.5604 25.2067 79.0274 25.9511C78.8921 26.1541 78.7609 26.3611 78.6256 26.5681C78.0648 27.3325 77.4801 28.0729 76.8993 28.8173C76.072 29.8245 75.1293 30.6565 74.1667 31.4248C73.6655 31.803 73.1166 32.01 72.6075 32.3643C72.1341 32.7066 71.6091 32.7982 71.1119 32.9892C70.5152 33.2042 69.9186 33.5187 69.31 33.5744C68.1804 33.7018 67.0149 33.9247 65.9529 33.5744C64.9346 33.5346 64.0078 33.1047 63.0453 32.838C61.6133 32.2249 60.1694 31.6039 58.9244 30.5689C58.4948 30.2027 57.9976 29.9519 57.6118 29.5219C57.0987 29.0482 56.6134 28.5347 56.156 27.9853C56.0446 27.85 55.9372 27.7186 55.8259 27.5912C55.6628 27.3922 55.4957 27.1971 55.3247 27.01C54.9866 26.4408 54.5729 25.9511 54.2507 25.3659C53.9604 24.6454 53.5069 24.0721 53.2444 23.3238C52.8745 22.6868 52.7551 21.8668 52.4131 21.2059C52.0272 20.3899 51.7209 19.5101 51.4107 18.6423C51.1124 17.3923 51.1999 15.9592 51.5181 14.6176C51.6334 13.8852 51.8562 13.1646 52.1625 12.4919C52.8426 10.5333 53.6302 8.62249 54.2706 6.64401C54.6883 5.61297 55.0423 4.51823 55.6747 3.63051C56.2992 2.90599 57.1425 2.79055 57.8902 2.488C58.2641 2.36858 58.6341 2.23721 59.008 2.14963C60.3166 1.79136 61.6133 1.91874 62.8265 2.27702C64.2306 2.67908 65.6665 2.96969 67.0627 3.4036C67.6553 3.4036 68.1247 3.84547 68.7253 3.78576H68.7372Z" fill="#B88046"/>
<path d="M57.6792 4.10829C57.1143 4.38695 56.6012 4.8527 56.1518 5.39012C55.7261 5.9753 55.5034 6.70778 55.1971 7.37656C54.8232 8.33196 54.68 9.37893 54.2226 10.2985C53.5981 12.1337 52.5878 13.8056 52.1622 15.7164C51.9554 16.7992 52.2417 17.7905 52.4008 18.7817C52.6316 19.7928 52.8304 20.8836 53.4072 21.6399C53.7373 22.0858 53.9481 22.6511 54.2743 23.1049C54.68 23.6542 54.9784 24.319 55.4159 24.8326C55.8892 25.4217 56.291 26.0905 56.7961 26.6399C57.0944 26.9981 57.3808 27.3644 57.6911 27.7107C58.5662 28.6223 59.664 29.1438 60.722 29.7171C61.1317 30.0156 61.6528 30.0355 62.0784 30.3142C63.2399 30.8317 64.3298 31.5363 65.5071 32.022C65.9049 32.3245 66.4021 32.3166 66.8715 32.3842C67.6272 32.6151 68.4506 32.3882 69.2461 32.3205C70.1252 32.2648 71.0281 32.0459 71.8753 31.5682C72.2015 31.397 72.472 31.0905 72.7862 30.8795C73.7408 30.2187 74.5841 29.319 75.4035 28.4034C76.3979 27.1733 77.5633 26.19 78.518 24.9042C78.7049 24.6694 78.8879 24.4305 79.0708 24.1877C79.6397 23.3597 80.0255 22.3923 80.4034 21.4409C80.6022 20.6129 81.0119 19.8685 81.2267 19.0444C81.4296 18.4075 81.4813 17.7506 81.6643 17.1097C81.7955 16.0906 82.07 15.0636 82.0063 14.0524C81.9984 13.9768 81.9825 13.8295 81.9785 13.7579C81.9149 13.2682 81.8353 12.7865 81.7637 12.3048C81.6643 11.4529 81.3142 10.7284 80.9205 10.0875C80.6341 9.58593 80.1289 9.39883 79.7112 9.10027C78.8362 8.55489 77.9173 8.09709 76.9587 7.77465C76.2984 7.46812 75.5387 7.50395 74.8983 7.14169C74.4687 6.8909 73.9715 6.81924 73.526 6.61224C72.5794 6.1624 71.5531 5.94346 70.5587 5.63295C68.6932 4.99203 66.7641 4.57405 64.8946 3.94905C63.3831 3.5032 61.8676 2.92199 60.2209 3.14492C59.3617 3.33998 58.5065 3.69428 57.6752 4.11227L57.6792 4.10829ZM62.5518 3.56689C63.6933 3.87342 64.8349 4.18392 65.9288 4.64172C67.2652 4.89649 68.558 5.31448 69.8547 5.70062C71.4895 6.46097 73.2993 6.71176 74.9341 7.48404C76.0081 7.85028 77.1576 8.00155 78.16 8.58276C78.9635 8.90122 79.6834 9.42272 80.4193 9.89246C80.463 9.94421 80.5505 10.0397 80.5943 10.0915C80.9761 10.6409 81.2983 11.2738 81.4694 11.9983C81.5807 12.8064 81.7438 13.5986 81.7836 14.4346C81.7637 15.3462 81.537 16.2618 81.4216 17.1774C81.1591 18.1408 81.0636 19.1519 80.6142 20.0595C80.2363 21.2657 79.7988 22.464 79.1902 23.5507C78.0566 25.3899 76.4933 26.6837 75.1648 28.272C74.2619 29.2752 73.3073 30.2147 72.2572 30.9312C71.7083 31.4049 71.0758 31.5881 70.4672 31.799C69.7831 31.9543 69.0989 31.9782 68.4148 32.0817C67.4045 32.2489 66.4379 32.0021 65.5191 31.6756C64.4809 31.1621 63.4547 30.6247 62.4245 30.0913C62.1102 29.8922 61.7363 29.8564 61.4022 29.7051C60.197 29.0284 58.9162 28.487 57.882 27.4758C57.7706 27.3405 57.6593 27.2052 57.5439 27.0778C57.3848 26.8747 57.2217 26.6757 57.0507 26.4886C55.8733 25.0635 54.7874 23.5229 53.8606 21.823C53.6498 21.4528 53.3754 21.1463 53.2004 20.7403C52.7469 19.4823 52.5003 18.101 52.3173 16.7037C52.3292 15.7841 52.548 14.8327 52.9458 13.9887C53.5623 12.5278 54.2027 11.0748 54.7437 9.58195C55.1176 8.22448 55.5551 6.85507 56.2552 5.64887C57.1581 4.46258 58.423 4.02071 59.5844 3.61068C60.5948 3.22852 61.5852 3.44348 62.5518 3.56689Z" fill="black"/>
<path d="M66.1989 5.54112C64.8266 5.23459 63.3828 5.33411 61.9866 5.1709C61.3025 5.22265 60.6143 5.20275 59.9302 5.46946C58.5977 5.84764 57.126 6.5841 56.2867 8.13265C55.702 8.91687 55.3678 9.8882 54.9144 10.768C54.6558 11.2337 54.5803 11.7831 54.3376 12.2568C54.0234 12.8818 53.9359 13.5944 53.7887 14.2751C53.5779 15.0394 53.5222 15.8276 53.4745 16.5999C53.4029 17.7663 53.6734 18.8411 53.9916 19.8483C54.5127 20.8276 54.6121 22.1532 55.3082 22.9732C55.6503 23.3833 55.8452 23.9724 56.2668 24.2829C56.7362 24.6452 56.9668 25.302 57.3925 25.716C57.7186 25.9071 58.0368 26.1221 58.3153 26.4047C58.8761 26.9541 59.5125 27.3761 60.1529 27.7781C61.0161 28.3872 61.8275 29.1037 62.7583 29.5894C63.3032 29.888 63.7766 30.4254 64.4329 30.4095C64.7988 30.3975 65.1329 30.5607 65.4949 30.5687C66.0319 30.5806 66.5092 30.8434 67.0462 30.8593C67.5354 30.8832 68.0326 30.8673 68.5338 30.7837C68.6531 30.7359 68.7725 30.6921 68.8958 30.6523C69.5362 30.708 70.2203 30.4453 70.809 29.9795C71.163 29.7088 71.5687 29.6213 71.9148 29.3227C72.7501 28.5504 73.7405 28.1842 74.5798 27.4159C74.9776 27.0257 75.4469 26.767 75.8089 26.3132C75.9839 26.0146 76.1669 25.724 76.3459 25.4254C76.3936 25.3617 76.4851 25.2383 76.5328 25.1746C76.7874 24.8602 77.0499 24.5576 77.3164 24.2591C77.5232 23.9366 77.7142 23.5982 77.8892 23.2479C78.4341 22.4637 78.7603 21.5123 79.174 20.6325C79.3609 20.1946 79.5956 19.7726 79.6791 19.2949C79.8104 18.5266 80.057 17.7782 80.1007 17.002C80.3275 15.752 80.4548 14.4702 80.2917 13.264C80.232 12.6589 80.0013 12.1453 79.8661 11.5801C79.7587 11.2616 79.5837 10.979 79.3689 10.7719C78.0642 9.66129 76.6004 8.78949 74.9895 8.39538C74.1343 8.12469 73.2552 7.92166 72.4597 7.47979C71.5767 6.97024 70.63 6.63187 69.751 6.11834C69.023 5.86755 68.2832 5.63268 67.5155 5.54112C67.0859 5.46946 66.6365 5.60083 66.2069 5.53714L66.1989 5.54112ZM67.5871 5.79191C68.673 6.0427 69.7509 6.34525 70.7175 6.94238C71.6284 7.28871 72.4557 7.85001 73.3706 8.1844C74.19 8.43917 75.0094 8.70191 75.8367 8.92882C77.0817 9.4105 78.2511 10.1191 79.2853 11.0546C79.695 11.4328 79.7348 12.1374 79.9416 12.6907C80.3871 14.3428 79.9695 16.2177 79.7348 17.9892C79.6553 18.3157 79.5518 18.6421 79.4882 18.9725C79.3569 19.8841 78.8637 20.6683 78.5336 21.5083C78.1994 22.3283 77.7221 23.0409 77.3244 23.8132C77.2766 23.8769 77.1851 24.0083 77.1374 24.072C76.5845 24.693 76.0555 25.3538 75.6418 26.1221C75.3395 26.5162 74.9338 26.7073 74.5957 27.0417C74.1184 27.5154 73.5735 27.8378 73.0325 28.1563C72.3404 28.5743 71.7159 29.2033 70.996 29.5297C70.5107 29.892 70.0015 30.2025 69.4606 30.3099C69.1384 30.3259 68.8162 30.3259 68.498 30.4732C68.0605 30.5408 67.6229 30.5568 67.1973 30.5488C66.1472 30.29 65.0494 30.2144 63.9953 30.0114C63.0447 29.3744 62.0383 28.845 61.1434 28.1085C60.2564 27.396 59.2421 26.9143 58.4227 26.0823C58.0169 25.6563 57.4243 25.513 57.1419 24.9159C56.8754 24.4024 56.4537 24.0839 56.0918 23.6938C55.8452 23.2599 55.5747 22.8498 55.2843 22.4637C54.9621 21.8626 54.7434 21.1779 54.5644 20.4772C54.1785 19.5855 53.8563 18.6301 53.737 17.5832C53.6734 16.5681 53.7529 15.5131 53.9717 14.4781C54.1586 13.885 54.2064 13.264 54.4092 12.6788C54.6002 12.3046 54.7354 11.9025 54.8587 11.4925C55.1332 10.7839 55.511 10.135 55.8014 9.43836C55.9605 9.0562 56.1833 8.70987 56.414 8.38344C56.8873 7.48775 57.6033 6.81101 58.3789 6.4169C58.9596 6.01882 59.5881 5.89143 60.2007 5.68045C60.7774 5.49733 61.3542 5.52121 61.9309 5.46548C63.0765 5.59287 64.2499 5.58491 65.3994 5.69637C66.0876 5.95114 66.8552 5.84764 67.5951 5.79191H67.5871Z" fill="#B88046"/>
<path d="M65.8458 6.96243C64.931 7.01418 64.0082 7.15749 63.0894 7.24507C62.7234 7.35255 62.3614 7.40828 61.9955 7.51179C61.9358 7.53169 61.8125 7.5715 61.7529 7.5914C60.3846 8.0691 59.0123 8.6304 57.7156 9.46638C57.2661 9.80475 56.7411 9.98389 56.3672 10.4895C55.8461 11.2617 55.5 12.1694 55.2654 13.0929C54.8994 14.108 54.8795 15.1789 54.7363 16.2219C54.7443 18.0411 55.1381 19.7688 55.7864 21.2776C56.2478 22.0419 56.6973 22.8301 57.2661 23.479C57.3099 23.5267 57.3934 23.6223 57.4371 23.67C57.6082 23.8571 57.7752 24.0482 57.9343 24.2552C58.1531 24.5936 58.4156 24.8802 58.6861 25.1509C59.1475 25.8038 59.9351 25.8197 60.4442 26.3969C60.6153 26.588 60.8102 26.7512 61.025 26.8706C61.7966 27.3125 62.4171 28.0808 63.3041 28.2639C63.9604 28.7456 64.7838 28.7098 65.5396 28.8571C65.8498 28.8173 66.1601 28.7854 66.4624 28.8292C67.5085 28.8292 68.5825 28.6023 69.6087 28.0888C69.8831 27.9057 70.1656 27.7305 70.4559 27.619C70.7741 27.5474 71.0884 27.428 71.3986 27.2886C72.5561 26.8388 73.7932 26.4447 74.7796 25.4097C75.1257 24.9598 75.5592 24.6254 75.8695 24.1318C76.2434 23.3993 76.5656 22.631 76.8321 21.8468C77.0508 21.3731 77.2298 20.8834 77.3531 20.3739C77.556 19.2712 77.7867 18.1685 78.1009 17.0817C78.2163 16.1423 78.3714 15.159 78.1964 14.2673C78.0452 13.3796 77.8941 12.4361 77.4009 11.7872C76.6849 10.7323 75.6388 10.1352 74.5807 9.68931C74.0079 9.36288 73.3198 9.43852 72.7232 9.18772C71.9992 8.85731 71.3032 8.46321 70.5434 8.24028C69.5132 7.70287 68.5069 7.04205 67.3454 6.88281C66.8403 6.95845 66.351 6.79921 65.8379 6.96243H65.8458ZM67.8148 7.30478C68.7455 7.47198 69.5291 8.05716 70.3724 8.47913C71.1281 8.714 71.8322 9.09616 72.5521 9.43055C73.4272 9.72514 74.3659 9.82864 75.1933 10.2665C75.6905 10.581 76.1996 10.8676 76.657 11.2617C76.7326 11.3613 76.8082 11.4608 76.8877 11.5603C77.6952 12.3326 77.8941 13.6861 78.0611 14.9321C78.0293 15.8477 78.0094 16.7991 77.7111 17.7028C77.3293 19.0124 77.2616 20.4137 76.673 21.6597C76.2473 22.8142 75.8416 24.096 74.9467 24.8563C73.817 26.2934 72.2339 26.6119 70.8298 27.209C70.4281 27.2966 70.0343 27.4717 69.6604 27.7305C68.5506 28.3356 67.3693 28.5585 66.2396 28.4988C65.8737 28.4709 65.4839 28.6063 65.1299 28.4829C64.8196 28.3595 64.4775 28.3993 64.1593 28.3236C63.4792 27.9216 62.6757 27.7902 62.0751 27.221C61.8125 26.9781 61.5182 26.803 61.2278 26.6198C60.7266 26.3531 60.3766 25.7879 59.8396 25.5968C59.4697 25.4654 59.1396 25.2305 58.8691 24.916C58.4554 24.5578 58.1611 24.0442 57.7911 23.6262C57.6758 23.4949 57.5604 23.3675 57.4451 23.2441C57.3695 23.1485 57.2939 23.053 57.2184 22.9614C56.749 22.3842 56.3592 21.7115 55.9694 21.0467C55.5557 20.0395 55.2216 18.9567 55.0744 17.7983C55.0347 17.3564 54.9989 16.9106 54.9591 16.4727C55.0108 15.6486 55.1222 14.8166 55.2455 13.9926C55.4046 13.3477 55.6035 12.7108 55.8063 12.0818C55.9933 11.6638 56.216 11.2697 56.403 10.8517C56.5899 10.6328 56.7769 10.3939 57.0076 10.2546C57.7673 9.77689 58.5151 9.24345 59.3106 8.89712C60.0146 8.58661 60.7107 8.25222 61.4267 8.00541C61.6256 7.94172 61.8205 7.882 62.0194 7.81831C62.1467 7.78248 62.2779 7.74666 62.4092 7.71083C62.6399 7.6551 62.8746 7.61131 63.1092 7.55159C63.8093 7.45207 64.5094 7.42819 65.2094 7.30478C65.826 7.30478 66.4703 7.08982 67.071 7.23313C67.3136 7.29682 67.5682 7.2809 67.8188 7.31672L67.8148 7.30478Z" fill="black"/>
<path d="M64.5528 8.78147C63.7214 8.86507 62.8821 9.08003 62.0548 9.37063C61.3746 9.6055 60.7422 10.0713 60.0739 10.3897C59.5887 10.6405 59.0795 10.7878 58.6142 11.1182C58.0772 11.4805 57.5044 11.7552 57.0112 12.2249C56.7248 12.6827 56.5458 13.2122 56.3588 13.7257C56.1242 14.8602 55.9651 16.0744 56.2276 17.1333C56.4145 17.822 56.4424 18.5823 56.5895 19.2909C56.7486 19.9358 57.0947 20.4533 57.5163 20.8395C57.7709 21.1858 57.9101 21.6356 58.1527 21.9979C58.5306 22.3243 58.9244 22.6428 59.179 23.1324C59.5529 23.8569 60.2768 24.052 60.7859 24.5934C61.2036 25.0392 61.7644 25.2104 62.2577 25.509C63.2481 26.1778 64.3181 26.7192 65.4756 26.9461C66.4739 26.958 67.4803 27.2008 68.4946 26.7391C68.7372 26.6953 68.9759 26.6435 69.2185 26.5838C70.2169 26.1698 71.2471 25.9946 72.2495 25.5886C72.862 25.3338 73.5661 25.298 74.0672 24.6611C74.3298 24.3346 74.6639 24.1236 74.9224 23.7932C75.8254 22.4318 76.239 20.6762 76.1635 19.068C76.1475 18.9247 76.1316 18.7814 76.1197 18.638C76.0919 18.0927 76.0799 17.5433 76.0481 16.9979C76.0362 16.4486 76.0083 15.9072 75.9765 15.3658C75.9646 15.2105 75.9566 15.0513 75.9487 14.9C75.8373 14.3427 75.718 13.7854 75.6663 13.2002C75.6185 12.4279 75.3162 11.6875 74.7275 11.4447C74.0712 11.174 73.4547 10.7162 72.7109 10.7599C71.8557 10.7361 71.2352 10.0195 70.4317 9.82843C70.1095 9.74483 69.839 9.51394 69.5685 9.3149C69.0793 8.8372 68.3872 8.8372 67.7905 8.6302C67.2257 8.41523 66.5893 8.51873 65.9807 8.61825C65.5193 8.50281 65.034 8.73768 64.5607 8.78545L64.5528 8.78147ZM68.6219 9.14373C69.3299 9.32684 69.847 9.97174 70.555 10.1549C71.3028 10.3459 71.8756 11.0784 72.7069 10.9988C73.4626 11.0705 74.1627 11.3889 74.815 11.783C75.2645 12.0458 75.4316 12.6946 75.4634 13.3077C75.539 13.9247 75.6663 14.5218 75.7617 15.1309C75.7816 15.6763 75.8174 16.2217 75.8293 16.771C75.8492 17.2726 75.8691 17.7702 75.893 18.2718C76.0322 19.4899 75.9606 20.7917 75.5589 22.0257C75.3759 22.5632 75.0935 23.0488 74.8469 23.5504C74.2184 24.1197 73.6615 24.9636 72.8819 25.1029C72.7666 25.1388 72.6512 25.1746 72.5398 25.2104C72.158 25.3139 71.7841 25.4811 71.4062 25.6045C70.5868 25.8155 69.7674 26.0544 68.952 26.337C68.3713 26.4206 67.7905 26.7391 67.2138 26.7032C66.649 26.6754 66.0802 26.6953 65.5233 26.6117C65.0181 26.6117 64.6005 26.3012 64.1391 26.1499C63.2282 25.8951 62.5083 25.1706 61.6411 24.8084C61.1996 24.6451 60.8973 24.2072 60.5115 23.9405C60.1137 23.6579 59.6603 23.4389 59.4057 22.9413C59.1392 22.4318 58.7375 22.0855 58.3357 21.7511C58.1567 21.4525 58.0135 21.1181 57.8504 20.8076C57.6197 20.4772 57.3135 20.2423 57.1186 19.8721C56.7685 19.3705 56.7447 18.642 56.6412 17.9892C56.5856 17.3721 56.3588 16.8307 56.3389 16.2018C56.2952 14.9199 56.5259 13.5346 57.1703 12.3762C57.9618 11.8029 58.7573 11.2217 59.6086 10.8674C60.6308 10.4455 61.5894 9.68114 62.6395 9.44229C63.5941 9.10392 64.5528 9.08799 65.5114 8.84516C65.7659 8.8571 66.0245 8.88497 66.291 8.84516C67.1104 8.57446 67.8661 8.94866 68.6179 9.13178L68.6219 9.14373Z" fill="#B88046"/>
<path d="M64.0479 10.7568C63.0176 11.1191 61.9715 11.0832 60.9453 11.5251C60.8817 11.545 60.7544 11.5848 60.6907 11.6047C60.3805 11.6445 60.0702 11.6684 59.7639 11.6804C59.0877 11.8157 58.4473 12.2735 57.8507 12.7472C57.5245 13.1453 57.3615 13.6907 57.1308 14.1644C56.908 14.6063 56.9478 15.1158 56.9597 15.5736C56.9597 15.9797 56.9597 16.3817 56.9915 16.7798C57.0353 17.0943 57.087 17.4128 57.2103 17.6835C57.4808 18.2647 57.6757 18.9136 58.0257 19.4231C58.4434 20.0043 58.7815 20.693 59.3065 21.1468C59.9429 21.6802 60.6708 22.0584 61.2595 22.6715C61.9437 23.2646 62.771 23.5711 63.5506 23.9573C63.9564 24.1961 64.3382 24.5504 64.8394 24.5265C65.2133 24.5066 65.5514 24.6539 65.9054 24.7296C66.4742 24.857 67.0748 24.8171 67.6357 24.9605C67.9738 25.0361 68.3357 24.9764 68.6858 24.9246C69.0955 24.8689 69.5052 25.0082 69.9188 24.7933C70.245 24.6261 70.5831 24.6261 70.9132 24.5982C71.0803 24.5146 71.2474 24.435 71.4184 24.3554C71.5815 24.3315 71.7446 24.3076 71.9116 24.2996C72.2736 24.1404 72.5958 23.8418 72.9458 23.6309C73.5822 23.2328 73.8646 22.361 74.1908 21.6404C74.3539 20.5895 74.6085 19.5385 74.6562 18.4836C74.6244 17.5879 74.5329 16.7082 74.5011 15.8125C74.4772 15.1238 74.2823 14.5068 74.151 13.8619C74.0317 13.3483 73.9601 12.7751 73.622 12.4367C73.2561 12.0784 72.8106 11.8237 72.3333 11.7162C71.3866 11.4933 70.4677 11.1589 69.6126 10.6732C69.4574 10.5856 69.3023 10.4861 69.1233 10.4861C68.0692 10.4901 67.0629 10.0721 65.977 10.3746C65.3366 10.5379 64.6922 10.5737 64.0518 10.7528L64.0479 10.7568ZM69.5887 10.9598C70.4916 11.4614 71.4582 11.8038 72.4566 12.0386C72.9975 12.2496 73.6061 12.5641 73.7771 13.2966C73.9999 14.3356 74.3101 15.3507 74.2982 16.4813C74.3221 16.8276 74.3459 17.1739 74.3778 17.5123C74.5448 18.8379 74.1988 20.2193 73.976 21.5728C73.793 22.0425 73.5464 22.4844 73.3436 22.9422C72.9816 23.3442 72.5441 23.5711 72.1423 23.8816C71.9037 24.0329 71.6451 24.021 71.4025 24.0727C71.2354 24.1523 71.0644 24.228 70.8973 24.3076C70.2967 24.2399 69.7001 24.7256 69.1074 24.6101C68.4909 24.634 67.8624 24.7773 67.2777 24.5902C66.4861 24.5504 65.7383 24.3195 64.9547 24.232C64.7042 24.2399 64.4536 24.216 64.2547 24.0528C63.2643 23.3562 62.0471 23.1133 61.176 22.1898C60.643 21.7121 60.0344 21.3658 59.4895 20.9119C58.9803 20.478 58.6582 19.8132 58.2564 19.2519C57.9024 18.7185 57.6677 18.0696 57.4012 17.4566C57.1148 16.74 57.2421 15.8523 57.1705 15.0481C57.2183 14.3356 57.5882 13.6907 57.8865 13.0657C58.34 12.584 58.9008 12.2974 59.4338 12.0147C59.6327 11.9789 59.8355 11.9511 60.0384 11.9192C60.5117 11.9431 60.9891 11.7759 61.4624 11.6087C61.6255 11.5569 61.7886 11.5052 61.9516 11.4495C62.5085 11.3778 63.0654 11.2902 63.6262 11.1469C63.8251 11.0832 64.028 11.0235 64.2268 10.9558C64.5411 10.8961 64.8513 10.8484 65.1656 10.8006C65.3644 10.7687 65.5633 10.7329 65.7622 10.6851C66.4742 10.4781 67.1862 10.4901 67.8584 10.6533C68.4511 10.7011 69.0438 10.7687 69.5966 10.9638L69.5887 10.9598Z" fill="black"/>
<path d="M67.2814 11.8789C66.5694 12.0342 65.8574 12.1576 65.1534 12.2014C64.4295 12.1138 63.6777 12.3486 62.9379 12.4283C62.0628 12.6592 61.1758 12.7228 60.3206 13.1767C59.6126 13.316 59.0477 13.9489 58.5187 14.566C58.2482 15.2507 58.1408 15.9752 58.1289 16.6917C58.4789 17.5277 58.8727 18.3279 59.2864 19.1121C59.4853 19.4863 59.8194 19.6734 60.1217 19.8963C60.9093 20.7124 61.9275 21.0985 62.8384 21.6837C62.9259 21.7633 63.0174 21.839 63.1089 21.9146C63.3993 22.2172 63.6379 22.6272 64.0357 22.7426C64.9704 23.2164 65.9768 23.5786 67.0507 23.5269C67.4803 23.499 67.89 23.6184 68.3236 23.5547C68.4946 23.4671 68.6656 23.3915 68.8367 23.3039C69.2981 23.2243 69.7476 23.284 70.209 23.2283C70.4914 23.1248 70.7738 23.0332 71.0562 22.9417C71.2193 22.9258 71.3863 22.9058 71.5494 22.8939C71.9551 22.7625 72.3012 22.3923 72.6035 22.0221C72.9734 20.9911 73.2797 19.9123 73.2916 18.8295C73.2797 18.1487 73.4229 17.4362 73.3234 16.7753C73.2359 16.1902 73.1842 15.5692 72.9336 15.0715C72.6791 14.5461 72.5438 13.9171 72.2097 13.4633C71.454 12.8144 70.6107 12.2173 69.6163 12.1894C68.8606 11.9705 68.0372 12.0819 67.2775 11.8789H67.2814ZM69.6521 12.4163C70.5152 12.5158 71.267 12.9856 71.9472 13.5509C72.2574 13.8255 72.3529 14.3231 72.5279 14.7332C72.6433 15.0357 72.8501 15.2706 72.9177 15.6129C73.0052 16.0747 73.0729 16.5445 73.1445 17.0142C73.1206 18.0373 73.0927 19.0683 72.9575 20.0994C72.8143 20.7005 72.6274 21.2896 72.4325 21.8788C72.1819 22.1415 71.9313 22.46 71.621 22.5834C71.2551 22.6391 70.8852 22.675 70.5272 22.8422C70.03 23.0651 69.5407 22.9496 69.0475 23.0133C68.6975 23.0452 68.3594 23.3358 68.0093 23.3119C67.4286 23.2243 66.828 23.284 66.2393 23.2243C65.404 23.0492 64.5965 22.7665 63.8487 22.3406C63.4629 21.9266 63.089 21.4887 62.6117 21.2299C61.9912 20.8995 61.3786 20.5372 60.786 20.1471C60.424 19.8048 60.0461 19.4863 59.6404 19.2196C59.179 18.3597 58.6619 17.5317 58.3556 16.5484C58.3318 15.9195 58.4511 15.2467 58.7176 14.6536C59.0875 14.3072 59.4137 13.8375 59.8472 13.6345C60.5473 13.3558 61.2394 13.0095 61.9554 12.9298C62.8344 12.687 63.7175 12.5795 64.5965 12.4641C65.1812 12.4999 65.7819 12.4442 66.3785 12.3407C66.5814 12.3049 66.7842 12.265 66.9871 12.2093C67.2178 12.2133 67.4485 12.2133 67.6553 12.3208C68.3395 12.1615 68.9878 12.3725 69.6521 12.4243V12.4163Z" fill="#B88046"/>
<path d="M65.9689 13.3841C65.595 13.4598 65.237 13.3682 64.8711 13.4439C64.0954 13.6668 63.3198 13.8181 62.5481 14.0609C62.1782 14.1604 61.864 14.4749 61.5299 14.7058C61.0844 15.0442 60.5474 15.295 60.265 15.8961C60.1098 16.3419 59.9348 16.8077 59.9507 17.2774C59.9189 17.8029 60.1974 18.1811 60.4002 18.5632C60.5792 18.7384 60.7622 18.9056 60.9491 19.0688C61.1321 19.3315 61.2912 19.6261 61.4662 19.8968C62.1862 20.2869 62.8663 20.7965 63.6579 21.0075C64.0716 21.1428 64.5091 21.2145 64.8751 21.4812C65.3524 21.732 65.9013 21.7718 66.3826 22.0106C66.7008 22.1898 67.0707 22.1858 67.4168 22.2575C67.9696 22.1619 68.4907 22.3012 69.0317 22.2893C69.2306 22.2256 69.4334 22.1659 69.6363 22.1062C69.9227 22.0226 70.2369 21.9589 70.4676 21.6763C70.7142 21.3498 70.9091 20.9557 71.2114 20.693C71.4739 20.3944 71.5535 19.9724 71.6728 19.5903C71.82 19.0449 72.0467 18.5075 72.0467 17.9462C72.0547 17.357 72.2018 16.7042 71.987 16.1867C71.7205 15.3586 71.5416 14.4192 70.9847 13.8419C70.3443 13.3563 69.5567 13.2448 68.8169 13.0259C68.4112 12.8786 67.9577 12.994 67.5281 12.9662C67.0468 13.3802 66.486 13.4558 65.9689 13.3921V13.3841ZM69.5686 13.4996C70.0897 13.6429 70.6347 13.8141 71.0165 14.2679C71.2233 14.5585 71.3705 14.9088 71.4739 15.287C71.6171 15.7806 71.8319 16.2464 71.8797 16.7957C71.8757 17.3371 71.8439 17.8865 71.7842 18.4319C71.6132 19.0569 71.4421 19.6898 71.2233 20.2989C71.0444 20.5298 70.8455 20.7368 70.6705 20.9756C70.4875 21.2463 70.3284 21.6165 70.038 21.7041C69.5368 21.8872 69.0197 22.0624 68.5265 21.9947C67.8861 21.8673 67.1741 22.0783 66.5695 21.7957C66.0842 21.529 65.5274 21.4692 65.0222 21.2503C64.4176 20.8323 63.6778 20.7806 63.0294 20.482C62.568 20.1994 62.0828 19.9685 61.6373 19.65C61.3827 19.3554 61.2315 18.9255 60.9292 18.6906C60.4997 18.3284 60.1019 17.7472 60.1735 17.0067C60.269 16.4016 60.4758 15.709 60.977 15.4104C61.6213 15.0044 62.21 14.3595 62.9141 14.2361C63.5982 14.0529 64.2864 13.8937 64.9745 13.7026C65.5512 13.7106 66.132 13.6628 66.7048 13.6827C67.0946 13.6947 67.4247 13.2488 67.8105 13.2289C68.435 13.0975 68.9879 13.3921 69.5686 13.4996Z" fill="black"/>
<path d="M66.9633 13.957C66.6252 13.9849 66.2871 14.18 65.957 14.3352C65.4995 14.5979 65.0143 14.6179 64.5489 14.789C63.9443 14.8925 63.3635 15.2269 62.7589 15.3583C62.3373 15.4698 61.9634 15.8081 61.6094 16.1346C61.3548 16.3495 61.3707 16.7476 61.3747 17.0541C61.3946 17.1935 61.4105 17.3368 61.4304 17.4801C61.3787 17.8224 61.3548 18.2126 61.5577 18.4434C61.8282 18.6942 62.0987 18.9649 62.4487 19.0525C63.0374 19.2197 63.5385 19.6098 64.0556 19.9363C64.5886 20.2229 65.233 20.1871 65.7382 20.5413C66.2752 20.9235 66.9752 20.7484 67.5878 20.8718C68.089 21.0071 68.6339 20.8718 69.155 20.8837C69.5209 20.8996 69.8431 20.5453 70.1176 20.2348C70.567 19.6138 70.6426 18.7619 70.6506 18.0255C70.6187 17.5955 70.6506 17.1497 70.6506 16.7158C70.7341 16.0111 70.6784 15.2389 70.213 14.8487C69.7397 14.4228 69.1192 14.1561 68.4947 14.2237C67.9816 14.1322 67.4605 14.0804 66.9593 13.961L66.9633 13.957ZM69.4414 14.6616C69.68 14.7134 69.8789 14.8686 70.0738 15.0239C70.3005 15.3065 70.5034 15.6768 70.4755 16.1266C70.4517 16.8471 70.4238 17.5716 70.4557 18.2802C70.4278 18.953 70.3164 19.7611 69.8312 20.2428C69.3419 20.8678 68.6856 20.5652 68.1168 20.6926C67.3849 20.5095 66.5655 20.6767 65.8814 20.3184C65.3126 19.8646 64.529 19.988 63.9562 19.5382C63.4431 19.1799 62.8982 18.8813 62.3095 18.6982C62.0271 18.4872 61.5855 18.3001 61.6213 17.7786C61.689 17.297 61.5139 16.8551 61.6492 16.3734C62.0827 15.9395 62.576 15.5852 63.105 15.5334C63.3516 15.4498 63.5982 15.3463 63.8409 15.2389C63.9005 15.2229 64.0238 15.1911 64.0875 15.1712C64.529 15.0677 64.9705 14.9045 65.416 14.8368C65.9132 14.6776 66.3786 14.3432 66.8798 14.2237C67.1582 14.2516 67.4167 14.4188 67.7151 14.3312C67.9497 14.371 68.1804 14.4347 68.4112 14.4905C68.7811 14.3671 69.1033 14.582 69.4414 14.6616Z" fill="#B88046"/>
<path d="M62.8578 16.8945C62.7504 17.221 62.651 17.5474 62.5635 17.8818C62.6152 18.0012 62.6669 18.1206 62.7186 18.244C63.5499 18.4311 64.3017 18.8491 65.0694 19.2114C65.5268 19.2154 65.9842 19.299 66.386 19.5259C66.8911 19.916 67.5713 19.6612 68.1401 19.8523C68.4782 20.0235 68.8561 19.6254 69.0749 19.2631C69.2737 18.666 69.4488 18.0569 69.6198 17.4479C69.5641 16.9503 69.588 16.3929 69.3493 15.9909C68.9913 15.5211 68.4384 15.4336 67.9731 15.1748C67.2849 15.2504 66.5968 15.1231 65.9126 15.4933C64.8705 15.7162 63.7607 16.0227 62.8578 16.8985V16.8945ZM67.9929 15.4654C68.3708 15.6485 68.7567 15.8038 69.1067 16.0546C69.2976 16.3213 69.3374 16.6955 69.3891 17.0577C69.4328 17.7942 69.043 18.4988 68.88 19.2154C68.7328 19.3587 68.5896 19.498 68.4424 19.6373C67.9571 19.4701 67.4241 19.5139 66.915 19.4701C66.5888 19.4064 66.3422 19.1318 66.0161 19.0681C65.7098 18.9447 65.3717 18.9686 65.0535 18.9128C64.3335 18.5028 63.5738 18.1803 62.7862 17.9455C62.8578 17.6469 62.9414 17.3483 63.0328 17.0538C63.6772 16.4248 64.4608 16.17 65.2046 15.9351C65.6183 15.8396 66.0439 15.7918 66.4456 15.5609C66.9667 15.4535 67.4759 15.545 67.9969 15.4654H67.9929Z" fill="black"/>
<path d="M64.3102 16.9744C64.0835 17.1177 64.0477 17.4442 63.9482 17.695C64.3142 18.0254 64.7756 18.1687 65.2529 18.1607C65.6785 18.4752 66.1399 18.7061 66.6371 18.8494C67.1264 19.0922 67.7707 19.3311 68.2998 18.8176C68.785 18.2364 68.7174 17.3606 68.6936 16.6679C68.3117 16.3813 67.8264 16.3972 67.3889 16.2738C66.7962 16.2061 66.1717 16.1743 65.5632 16.441C65.1455 16.6241 64.6921 16.6201 64.3102 16.9705V16.9744ZM68.2123 16.6958C68.3117 16.7674 68.4151 16.8431 68.5185 16.9187C68.4668 17.4283 68.5066 17.9537 68.3236 18.4513C68.0014 18.9131 67.4764 18.9489 67.1025 18.7778C66.653 18.5509 66.1518 18.4553 65.7342 18.1528C65.2688 17.8263 64.6761 17.8821 64.1829 17.6313C64.2744 17.2451 64.533 16.9943 64.8353 16.9426C65.1932 16.8391 65.5552 16.7356 65.9052 16.5764C66.3388 16.4689 66.7564 16.5405 67.1821 16.5206C67.5241 16.5883 67.8583 16.6918 68.2123 16.6958Z" fill="#B88046"/>
<path d="M65.9608 17.2254C65.8852 17.5001 65.9727 17.723 66.0921 17.918C66.3506 17.9897 66.6092 18.0693 66.8319 18.2405C67.1103 18.3878 67.4484 18.7301 67.7786 18.3559C67.9019 18.0892 67.9655 17.7946 68.0491 17.508C67.9257 17.3368 67.8343 17.0741 67.6155 17.0701C67.3052 17.0462 66.987 17.1856 66.6768 17.2214C66.4461 17.1617 66.2074 17.1577 65.9648 17.2254H65.9608ZM67.7706 17.3607C67.7865 17.7031 67.7826 18.1768 67.4285 18.3082C66.991 18.0096 66.5177 17.7907 66.0682 17.5279C66.633 17.5677 67.2177 17.2612 67.7706 17.3647V17.3607Z" fill="black"/>
<path d="M1.85358 31.4761V6.25344C1.85358 4.90791 1.15749 3.65792 0 2.96128V2.68262H23.9533C23.8141 3.05284 23.6749 3.42305 23.5356 3.79725C23.3049 4.4939 23.0265 5.28211 22.7003 5.97478C19.4108 3.28771 13.1103 3.19217 8.80249 3.19217H4.72542V18.399C7.17962 17.9332 9.40312 17.5192 11.3959 17.145C14.8684 16.5439 18.2971 15.7995 19.0409 15.6602L18.484 17.145C18.3448 17.4237 18.2533 17.7023 18.1579 17.981C17.0919 17.2406 16.2128 16.9619 15.3298 16.9141C15.1906 16.9619 15.0036 16.9619 14.8644 16.9619C12.6886 17.3799 10.1867 17.8894 8.19392 18.2597C7.03643 18.4906 5.87894 18.6777 4.72145 18.9085V31.5199C4.72145 32.8654 5.41753 34.1154 6.57502 34.812V35.0907H0V34.812C1.15749 34.1154 1.85358 32.9092 1.85358 31.4721V31.4761Z" fill="black"/>
<path d="M46.6895 43.7088C46.4946 43.7048 46.3276 43.6173 46.1327 43.6133C45.719 43.6372 45.3133 43.6212 44.8996 43.6531C44.7047 43.6611 44.5098 43.7805 44.3149 43.8561C44.0524 43.9755 43.758 44.0392 43.5472 44.306C43.4199 44.513 43.2767 44.7239 43.233 44.9588C43.1574 45.2176 43.2529 45.4405 43.3125 45.6555C43.3801 45.7629 43.4557 45.8704 43.5273 45.9699C43.591 46.1212 43.6347 46.2884 43.6904 46.4437C44.0046 46.7223 44.287 47.0567 44.6609 47.2518C44.8519 47.3672 45.0627 47.4548 45.2178 47.63C45.4286 47.8091 45.6991 47.8927 45.9139 48.0678C46.0531 48.1913 46.2361 48.235 46.4031 48.3107C46.6895 48.3266 46.9362 48.458 47.2066 48.5137C47.314 48.5057 47.4214 48.4978 47.5328 48.4898C47.6839 48.4819 47.851 48.4898 47.9982 48.3704C48.1613 48.235 48.3005 48.0599 48.4834 47.9643C48.6465 47.8449 48.738 47.6419 48.8414 47.4667C48.9767 47.212 49.1517 46.9652 49.2153 46.6865C49.2869 46.3919 49.4381 46.0814 49.3864 45.7988C49.3466 45.3529 49.3665 44.8633 49.1557 44.509C48.8892 44.1905 48.5073 44.0432 48.1652 43.8521C47.9783 43.7327 47.7396 43.7367 47.5248 43.673C47.2345 43.8243 46.9481 43.7964 46.6975 43.7088H46.6895ZM48.4795 44.1825C48.7261 44.3139 48.9767 44.4612 49.1159 44.7359C49.1835 44.9031 49.2193 45.0981 49.2273 45.2972C49.2432 45.5599 49.2949 45.8187 49.2551 46.0973C49.1915 46.368 49.1119 46.6387 49.0204 46.9054C48.8613 47.2 48.7062 47.4946 48.5232 47.7772C48.4079 47.8728 48.2846 47.9524 48.1692 48.0519C48.0459 48.1674 47.9226 48.3346 47.7675 48.3465C47.497 48.3784 47.2186 48.4102 46.9759 48.3186C46.6696 48.1833 46.2918 48.2032 46.0173 47.9922C45.8065 47.8011 45.532 47.7096 45.3053 47.5424C45.0508 47.2637 44.6848 47.1523 44.3944 46.9293C44.1956 46.7343 43.9808 46.5631 43.7938 46.3521C43.6984 46.173 43.6745 45.9421 43.5512 45.7908C43.3762 45.5599 43.2449 45.2215 43.3682 44.8593C43.4875 44.5687 43.6705 44.2462 43.9529 44.1507C44.3228 44.0233 44.6888 43.7646 45.0587 43.7884C45.4247 43.7765 45.7866 43.7765 46.1486 43.7606C46.435 43.8322 46.7333 43.876 47.0197 43.9477C47.2146 43.9994 47.4294 43.8123 47.6243 43.8482C47.9504 43.8561 48.1931 44.0631 48.4755 44.1865L48.4795 44.1825Z" fill="#B88046"/>
<path d="M47.1864 48.749L47.1545 48.741C47.0392 48.7171 46.9278 48.6813 46.8164 48.6455C46.6693 48.5977 46.5261 48.5499 46.3829 48.542L46.2993 48.5221C46.2556 48.5022 46.2118 48.4863 46.1641 48.4664C46.0328 48.4146 45.8777 48.3589 45.7504 48.2394C45.6669 48.1718 45.5635 48.116 45.4561 48.0603C45.3248 47.9887 45.1856 47.913 45.0583 47.8055C44.9469 47.6821 44.8236 47.6145 44.6924 47.5428C44.6407 47.5149 44.585 47.4831 44.5333 47.4512C44.2509 47.3 44.0122 47.0731 43.7855 46.8541C43.702 46.7745 43.6184 46.6949 43.5309 46.6192L43.4673 46.5237C43.4434 46.456 43.4195 46.3844 43.3957 46.3167C43.3678 46.2291 43.34 46.1415 43.3042 46.0579C43.2525 45.9982 43.1769 45.8907 43.1053 45.7793L43.0775 45.7156L43.0496 45.6161C42.99 45.421 42.9184 45.1782 43.0019 44.8955C43.0496 44.6527 43.1928 44.4258 43.3201 44.2228L43.3599 44.1631C43.5627 43.9043 43.8173 43.8048 44.044 43.7172C44.0997 43.6933 44.1594 43.6734 44.2151 43.6455C44.2708 43.6217 44.3225 43.5978 44.3702 43.5779C44.5213 43.5062 44.6964 43.4266 44.8833 43.4226C45.1061 43.4067 45.3368 43.4027 45.5635 43.3987C45.7465 43.3987 45.9294 43.3948 46.1124 43.3828C46.2516 43.3828 46.363 43.4147 46.4584 43.4385C46.538 43.4584 46.6136 43.4784 46.6852 43.4784L46.7568 43.4903C46.9954 43.5739 47.2102 43.5699 47.4011 43.4664L47.4847 43.4226L47.5762 43.4505C47.6438 43.4704 47.7114 43.4823 47.783 43.4943C47.9381 43.5221 48.1131 43.554 48.2722 43.6535C48.3359 43.6893 48.4115 43.7291 48.491 43.769C48.7814 43.9202 49.0837 44.0755 49.3184 44.3581C49.5411 44.7204 49.565 45.1224 49.5849 45.5126C49.5888 45.6001 49.5928 45.6877 49.6008 45.7753C49.6445 46.0181 49.561 46.2769 49.4894 46.5078C49.4655 46.5834 49.4417 46.663 49.4218 46.7387C49.3701 46.9735 49.2507 47.1805 49.1354 47.3756C49.0996 47.4393 49.0598 47.503 49.028 47.5707L48.9723 47.6702C48.8808 47.8334 48.7774 48.0205 48.5984 48.1479C48.4791 48.2156 48.3916 48.2992 48.2961 48.3907C48.2404 48.4425 48.1847 48.4942 48.1291 48.542C47.9302 48.6972 47.7233 48.7052 47.5722 48.7132L47.1784 48.741L47.1864 48.749ZM45.0345 44.0118C44.8276 44.0118 44.6208 44.1073 44.402 44.2068C44.2787 44.2626 44.1554 44.3183 44.0321 44.3621C43.869 44.4139 43.7139 44.6129 43.5826 44.9393C43.4832 45.2379 43.6383 45.5086 43.7377 45.6439C43.8332 45.7594 43.8809 45.9067 43.9247 46.038C43.9486 46.1057 43.9685 46.1774 44.0003 46.2371C44.0838 46.3207 44.2071 46.4361 44.3344 46.5476C44.41 46.6153 44.4855 46.6829 44.5611 46.7546C44.6486 46.8223 44.768 46.886 44.8873 46.9536C45.0901 47.0651 45.301 47.1845 45.48 47.3796C45.5356 47.4154 45.6311 47.4672 45.7305 47.5229C45.8817 47.6065 46.0328 47.6901 46.176 47.8175C46.2834 47.9011 46.4505 47.9369 46.6295 47.9767C46.7767 48.0086 46.9278 48.0404 47.071 48.1041C47.242 48.1678 47.4767 48.1479 47.7392 48.116C47.783 48.1121 47.8745 48.0165 47.9182 47.9727C47.9501 47.9409 47.9779 47.909 48.0097 47.8812C48.0813 47.8175 48.1529 47.7657 48.2205 47.714C48.2643 47.6821 48.3041 47.6503 48.3478 47.6184C48.5109 47.3557 48.6581 47.081 48.8052 46.8103C48.8888 46.5794 48.9644 46.3127 49.028 46.042C49.0479 45.8947 49.028 45.7275 49.0121 45.5484C49.0041 45.4688 48.9962 45.3892 48.9922 45.3095C48.9842 45.1185 48.9524 44.9552 48.8967 44.8199C48.8013 44.6328 48.6024 44.5134 48.3717 44.386C48.2842 44.3462 48.1967 44.3024 48.1131 44.2546C47.9421 44.1591 47.791 44.0755 47.6199 44.0715C47.5523 44.0596 47.4727 44.0874 47.4051 44.1113C47.2818 44.1551 47.1307 44.2108 46.9596 44.1631C46.8125 44.1272 46.6653 44.0954 46.5141 44.0675C46.3829 44.0396 46.2556 44.0158 46.1283 43.9839C45.9215 43.9919 45.7146 43.9959 45.5078 44.0038L45.0663 44.0158C45.0663 44.0158 45.0464 44.0158 45.0345 44.0158V44.0118Z" fill="#B88046"/>
<path d="M99.0867 48.3031C99.2816 48.2752 99.4606 48.3349 99.6515 48.3031C100.053 48.2115 100.459 48.1598 100.861 48.0563C101.052 48.0165 101.227 47.8652 101.402 47.7577C101.64 47.5985 101.923 47.487 102.086 47.1845C102.177 46.9616 102.281 46.7267 102.289 46.4878C102.321 46.2171 102.189 46.0181 102.098 45.8151C102.014 45.7195 101.923 45.628 101.831 45.5404C101.744 45.4011 101.672 45.2458 101.593 45.0985C101.235 44.8756 100.9 44.593 100.503 44.4616C100.296 44.378 100.073 44.3302 99.8942 44.1829C99.6595 44.0396 99.3771 44.0038 99.1384 43.8645C98.9833 43.7649 98.7924 43.753 98.6134 43.7092C98.327 43.741 98.0644 43.6535 97.786 43.6455C97.6826 43.6734 97.5752 43.6973 97.4718 43.7211C97.3246 43.753 97.1575 43.7769 97.0303 43.9162C96.895 44.0754 96.7837 44.2705 96.6206 44.3979C96.4774 44.5452 96.4217 44.7562 96.3501 44.9512C96.2586 45.2259 96.1273 45.4966 96.1075 45.7832C96.0836 46.0858 95.9881 46.4162 96.0836 46.6869C96.195 47.1208 96.2586 47.6064 96.5291 47.9209C96.8433 48.1916 97.2451 48.2713 97.615 48.4066C97.8178 48.4942 98.0565 48.4504 98.2753 48.4743C98.5338 48.2792 98.8242 48.2553 99.0867 48.3031ZM97.2451 48.1359C96.9825 48.0443 96.7081 47.9408 96.5251 47.698C96.4296 47.5428 96.362 47.3596 96.3222 47.1606C96.2626 46.9018 96.1671 46.659 96.1592 46.3764C96.1791 46.0977 96.2109 45.8191 96.2586 45.5404C96.366 45.2259 96.4734 44.9074 96.6047 44.6009C96.7041 44.4855 96.8115 44.3859 96.9109 44.2705C97.0144 44.1391 97.1058 43.952 97.257 43.9162C97.5195 43.8366 97.79 43.761 98.0406 43.8127C98.3667 43.8963 98.7367 43.8127 99.039 43.9759C99.2816 44.1272 99.564 44.175 99.8146 44.3023C100.113 44.5332 100.491 44.585 100.813 44.7562C101.04 44.9154 101.282 45.0468 101.501 45.2259C101.624 45.3851 101.688 45.6081 101.835 45.7394C102.046 45.9385 102.229 46.249 102.173 46.6272C102.106 46.9337 101.978 47.284 101.712 47.4233C101.37 47.6104 101.048 47.9249 100.682 47.9647C100.324 48.0364 99.9658 48.1001 99.6117 48.1757C99.3174 48.1558 99.0191 48.1598 98.7247 48.1359C98.5259 48.116 98.3429 48.3349 98.144 48.3349C97.8178 48.3827 97.5474 48.2155 97.249 48.1439L97.2451 48.1359Z" fill="#B88046"/>
<path d="M98.3385 48.7174L98.247 48.7054C98.0203 48.6776 97.7777 48.7253 97.5231 48.6179C97.4555 48.594 97.3719 48.5661 97.2884 48.5422C96.9782 48.4427 96.656 48.3392 96.3736 48.1003C96.0951 47.7819 96.0036 47.3878 95.9161 47.0056C95.8962 46.918 95.8764 46.8344 95.8565 46.7508C95.7729 46.5199 95.8127 46.2493 95.8445 46.0104C95.8565 45.9308 95.8644 45.8512 95.8724 45.7755C95.8843 45.5327 95.9678 45.3098 96.0474 45.0948C96.0752 45.0271 96.0991 44.9555 96.123 44.8878L96.1627 44.7763C96.2224 44.6012 96.294 44.4021 96.4491 44.2469C96.5525 44.1633 96.6281 44.0638 96.7037 43.9603C96.7514 43.8966 96.7992 43.8369 96.8469 43.7771C97.014 43.59 97.2208 43.5463 97.368 43.5144L97.7498 43.4229H97.7856C97.901 43.4268 98.0163 43.4467 98.1317 43.4627C98.2868 43.4865 98.434 43.5064 98.5772 43.4905H98.6209L98.6607 43.4945C98.7084 43.5064 98.7522 43.5144 98.7999 43.5264C98.9431 43.5542 99.1022 43.5861 99.2534 43.6816C99.3488 43.7334 99.4602 43.7732 99.5716 43.809C99.7148 43.8568 99.8619 43.9085 100.005 43.9961C100.136 44.0996 100.268 44.1474 100.411 44.1951C100.467 44.215 100.526 44.2349 100.582 44.2588C100.884 44.3583 101.155 44.5415 101.417 44.7206C101.513 44.7883 101.608 44.852 101.708 44.9117L101.787 44.9953C101.823 45.059 101.859 45.1227 101.891 45.1903C101.934 45.2739 101.974 45.3536 102.022 45.4292C102.081 45.477 102.173 45.5725 102.264 45.672L102.3 45.7278L102.348 45.8233C102.435 46.0024 102.547 46.2293 102.515 46.5239C102.511 46.7707 102.408 47.0176 102.316 47.2365L102.288 47.3042C102.133 47.5908 101.895 47.7341 101.688 47.8575C101.636 47.8894 101.584 47.9212 101.533 47.9531C101.477 47.9849 101.433 48.0167 101.385 48.0486C101.246 48.1441 101.091 48.2476 100.908 48.2874C100.689 48.3432 100.459 48.383 100.232 48.4268C100.057 48.4586 99.8779 48.4944 99.7028 48.5303C99.5636 48.5502 99.4522 48.5422 99.3528 48.5303C99.2693 48.5223 99.1897 48.5183 99.1221 48.5303H99.0863H99.0505C98.7999 48.4825 98.5931 48.5303 98.4181 48.6577L98.3425 48.7134L98.3385 48.7174ZM97.3083 47.9132C97.4038 47.9371 97.4952 47.969 97.5867 48.0008C97.7737 48.0685 97.9368 48.1202 98.1038 48.0964C98.1754 48.0964 98.243 48.0566 98.3067 48.0207C98.422 47.957 98.5692 47.8814 98.7402 47.8933C98.8914 47.9053 99.0505 47.9132 99.2016 47.9172C99.3329 47.9172 99.4602 47.9252 99.5915 47.9332C99.7824 47.8933 99.9733 47.8575 100.164 47.8217C100.319 47.7938 100.474 47.762 100.634 47.7301C100.848 47.7062 101.047 47.5709 101.262 47.4236C101.373 47.348 101.485 47.2723 101.6 47.2086C101.708 47.1529 101.851 46.9977 101.946 46.5677C101.994 46.2572 101.795 46.0144 101.676 45.8989C101.564 45.7994 101.493 45.6641 101.429 45.5446C101.393 45.4809 101.362 45.4133 101.318 45.3615C101.222 45.2938 101.083 45.2023 100.94 45.1107C100.852 45.055 100.765 44.9993 100.681 44.9396C100.586 44.8878 100.455 44.844 100.327 44.8002C100.109 44.7206 99.8818 44.641 99.675 44.4778C99.6153 44.4539 99.5079 44.4181 99.4045 44.3783C99.2454 44.3225 99.0783 44.2668 98.9153 44.1633C98.7959 44.0996 98.6249 44.0916 98.4419 44.0837C98.2948 44.0757 98.1396 44.0717 97.9845 44.0279C97.8055 43.9921 97.5907 44.0518 97.3242 44.1314C97.2805 44.1434 97.2089 44.2469 97.1731 44.3026C97.1492 44.3384 97.1214 44.3743 97.0975 44.4101C97.0378 44.4857 96.9742 44.5454 96.9185 44.6091C96.8827 44.645 96.8469 44.6848 96.8111 44.7246C96.6878 45.0112 96.5883 45.3177 96.4889 45.6123C96.4531 45.8392 96.4213 46.1139 96.4014 46.3886C96.4054 46.5399 96.4491 46.6991 96.4969 46.8703C96.5168 46.9499 96.5406 47.0295 96.5565 47.1051C96.5963 47.2922 96.656 47.4475 96.7315 47.5709C96.8588 47.7381 97.0736 47.8257 97.3202 47.9093L97.3083 47.9132Z" fill="#B88046"/>
<path d="M0 49.1234V43.1123H3.93388V44.1513H1.26091V45.7635H3.70317V46.7588H1.26091V49.1234H0Z" fill="black"/>
<path d="M8.86239 49.1237H7.68899V48.3195H7.66513C7.44636 48.8808 7.00484 49.2073 6.32864 49.2073C5.36208 49.2073 4.72168 48.5783 4.72168 47.5393V44.6611H5.93883V47.2845C5.93883 47.8816 6.23318 48.1961 6.77016 48.1961C7.30714 48.1961 7.64921 47.81 7.64921 47.2168V44.6611H8.86239V49.1237Z" fill="black"/>
<path d="M9.8208 44.6605H10.9942V45.4647H11.0181C11.1772 44.8994 11.555 44.5889 12.0801 44.5889C12.2233 44.5889 12.3426 44.6088 12.4261 44.6366V45.7075C12.3267 45.6677 12.1596 45.6358 11.9846 45.6358C11.384 45.6358 11.038 46.0021 11.038 46.631V49.127H9.8208V44.6645V44.6605Z" fill="black"/>
<path d="M13.0942 44.6607H14.2676V45.4569H14.2915C14.5302 44.9036 14.9995 44.5771 15.6877 44.5771C16.6781 44.5771 17.235 45.2021 17.235 46.2451V49.1233H16.0218V46.4999C16.0218 45.9187 15.7473 45.5843 15.2024 45.5843C14.6574 45.5843 14.3114 45.9824 14.3114 46.5636V49.1233H13.0942V44.6607Z" fill="black"/>
<path d="M18.1538 43.5421C18.1538 43.1878 18.4362 42.9131 18.8022 42.9131C19.1681 42.9131 19.4505 43.1878 19.4505 43.5421C19.4505 43.8964 19.1681 44.171 18.8022 44.171C18.4362 44.171 18.1538 43.8924 18.1538 43.5421ZM18.1936 44.6607H19.4068V49.1232H18.1936V44.6607Z" fill="black"/>
<path d="M21.9246 43.6338V44.6608H22.748V45.5764H21.9246V47.7102C21.9246 48.0525 22.0917 48.2157 22.4497 48.2157C22.5571 48.2157 22.6724 48.2078 22.744 48.1958V49.0915C22.6207 49.1194 22.4099 49.1393 22.1673 49.1393C21.1172 49.1393 20.7115 48.789 20.7115 47.9212V45.5764H20.083V44.6608H20.7115V43.6338H21.9286H21.9246Z" fill="black"/>
<path d="M27.7042 49.1237H26.5308V48.3195H26.5069C26.2882 48.8808 25.8466 49.2073 25.1704 49.2073C24.2079 49.2073 23.5635 48.5783 23.5635 47.5393V44.6611H24.7806V47.2845C24.7806 47.8816 25.075 48.1961 25.612 48.1961C26.1489 48.1961 26.491 47.81 26.491 47.2168V44.6611H27.7042V49.1237Z" fill="black"/>
<path d="M28.667 44.6605H29.8404V45.4647H29.8643C30.0234 44.8994 30.4012 44.5889 30.9263 44.5889C31.0695 44.5889 31.1888 44.6088 31.2723 44.6366V45.7075C31.1729 45.6677 31.0058 45.6358 30.8308 45.6358C30.2302 45.6358 29.8841 46.0021 29.8841 46.631V49.127H28.667V44.6645V44.6605Z" fill="black"/>
<path d="M35.8582 47.7581C35.7269 48.6339 34.9274 49.219 33.8216 49.219C32.4493 49.219 31.626 48.3393 31.626 46.9141C31.626 45.489 32.4573 44.5654 33.7779 44.5654C35.0984 44.5654 35.894 45.4452 35.894 46.8027V47.1729H32.8193V47.2485C32.8193 47.8855 33.225 48.3233 33.8415 48.3233C34.287 48.3233 34.6291 48.1044 34.7405 47.7621H35.8542L35.8582 47.7581ZM32.8352 46.4245H34.7285C34.7047 45.8552 34.3308 45.4611 33.7938 45.4611C33.2568 45.4611 32.8789 45.8632 32.8352 46.4245Z" fill="black"/>
<path d="M60.5794 48.3314H56.6973V42.3203H57.9542V47.2884H60.5794V48.3274V48.3314Z" fill="black"/>
<path d="M61.3711 42.7462C61.3711 42.3919 61.6535 42.1172 62.0194 42.1172C62.3854 42.1172 62.6678 42.3919 62.6678 42.7462C62.6678 43.1005 62.3854 43.3751 62.0194 43.3751C61.6535 43.3751 61.3711 43.0965 61.3711 42.7462ZM61.4109 43.8688H62.6241V48.3313H61.4109V43.8688Z" fill="black"/>
<path d="M63.5786 48.6495H64.7679C64.8634 48.9561 65.2134 49.171 65.6748 49.171C66.3033 49.171 66.6533 48.8207 66.6533 48.3032V47.519H66.6294C66.4226 47.9927 65.8976 48.3191 65.2532 48.3191C64.1633 48.3191 63.4434 47.4792 63.4434 46.0819C63.4434 44.6846 64.1434 43.7969 65.2731 43.7969C65.9135 43.7969 66.4186 44.1352 66.6493 44.6488H66.6692V43.8685H67.8665V48.2713C67.8665 49.3382 66.9755 50.015 65.639 50.015C64.4656 50.015 63.6701 49.4457 63.5746 48.6495H63.5786ZM66.6573 46.0898C66.6573 45.2857 66.2715 44.7682 65.6629 44.7682C65.0543 44.7682 64.6844 45.2778 64.6844 46.0898C64.6844 46.9019 65.0583 47.3796 65.6629 47.3796C66.2675 47.3796 66.6573 46.898 66.6573 46.0898Z" fill="black"/>
<path d="M68.8613 42.3204H70.0546V44.6611H70.0785C70.3132 44.0998 70.8024 43.7814 71.4826 43.7814C72.473 43.7814 73.0378 44.4223 73.0378 45.4533V48.3275H71.8247V45.7121C71.8247 45.1348 71.5423 44.7885 70.9894 44.7885C70.4365 44.7885 70.0785 45.1906 70.0785 45.7797V48.3275H68.8653V42.3164L68.8613 42.3204Z" fill="black"/>
<path d="M75.5194 42.8379V43.8649H76.3427V44.7805H75.5194V46.9143C75.5194 47.2566 75.6864 47.4198 76.0444 47.4198C76.1518 47.4198 76.2632 47.4119 76.3388 47.3999V48.2956C76.2155 48.3235 76.0047 48.3434 75.762 48.3434C74.7119 48.3434 74.3062 47.9931 74.3062 47.1253V44.7805H73.6777V43.8649H74.3062V42.8379H75.5234H75.5194Z" fill="black"/>
<path d="M77.1582 42.7462C77.1582 42.3919 77.4406 42.1172 77.8066 42.1172C78.1725 42.1172 78.4549 42.3919 78.4549 42.7462C78.4549 43.1005 78.1725 43.3751 77.8066 43.3751C77.4406 43.3751 77.1582 43.0965 77.1582 42.7462ZM77.202 43.8688H78.4191V48.3313H77.202V43.8688Z" fill="black"/>
<path d="M79.3936 43.8688H80.567V44.6649H80.5908C80.8295 44.1116 81.2988 43.7852 81.987 43.7852C82.9774 43.7852 83.5343 44.4102 83.5343 45.4531V48.3313H82.3211V45.7079C82.3211 45.1267 82.0466 44.7923 81.5017 44.7923C80.9568 44.7923 80.6107 45.1904 80.6107 45.7716V48.3313H79.3936V43.8688Z" fill="black"/>
<path d="M84.4487 48.6495H85.638C85.7335 48.9561 86.0835 49.171 86.5449 49.171C87.1734 49.171 87.5234 48.8207 87.5234 48.3032V47.519H87.4996C87.2927 47.9927 86.7677 48.3191 86.1233 48.3191C85.0334 48.3191 84.3135 47.4792 84.3135 46.0819C84.3135 44.6846 85.0135 43.7969 86.1432 43.7969C86.7836 43.7969 87.2887 44.1352 87.5194 44.6488H87.5393V43.8685H88.7366V48.2713C88.7366 49.3382 87.8456 50.015 86.5091 50.015C85.3357 50.015 84.5402 49.4457 84.4447 48.6495H84.4487ZM87.5274 46.0898C87.5274 45.2857 87.1416 44.7682 86.533 44.7682C85.9244 44.7682 85.5545 45.2778 85.5545 46.0898C85.5545 46.9019 85.9284 47.3796 86.533 47.3796C87.1376 47.3796 87.5274 46.898 87.5274 46.0898Z" fill="black"/>
<path d="M111.895 43.0128C113.697 43.0128 114.759 44.0876 114.759 45.9944C114.759 47.9012 113.697 49.0199 111.895 49.0199H109.604V43.0088H111.895V43.0128ZM110.856 47.9809H111.743C112.865 47.9809 113.474 47.2962 113.474 45.9984C113.474 44.7006 112.849 44.0518 111.743 44.0518H110.856V47.9809Z" fill="black"/>
<path d="M119.699 47.6585C119.568 48.5342 118.768 49.1194 117.662 49.1194C116.29 49.1194 115.467 48.2397 115.467 46.8145C115.467 45.3894 116.298 44.4658 117.619 44.4658C118.939 44.4658 119.735 45.3456 119.735 46.7031V47.0733H116.66V47.1489C116.66 47.7858 117.066 48.2237 117.682 48.2237C118.128 48.2237 118.47 48.0048 118.581 47.6624H119.695L119.699 47.6585ZM116.676 46.3249H118.569C118.545 45.7556 118.172 45.3615 117.635 45.3615C117.098 45.3615 116.72 45.7636 116.676 46.3249Z" fill="black"/>
<path d="M123.458 46.2215C123.386 45.7518 123.076 45.4174 122.575 45.4174C121.974 45.4174 121.6 45.9269 121.6 46.7868C121.6 47.6467 121.974 48.1642 122.579 48.1642C123.064 48.1642 123.382 47.8736 123.458 47.3839H124.591C124.528 48.4389 123.74 49.1156 122.571 49.1156C121.226 49.1156 120.375 48.2398 120.375 46.7828C120.375 45.3258 121.226 44.458 122.563 44.458C123.768 44.458 124.536 45.2024 124.587 46.2136H123.462L123.458 46.2215Z" fill="black"/>
<path d="M125.184 46.7867C125.184 45.3417 126.059 44.4619 127.391 44.4619C128.724 44.4619 129.599 45.3377 129.599 46.7867C129.599 48.2358 128.736 49.1195 127.391 49.1195C126.047 49.1195 125.184 48.2517 125.184 46.7867ZM128.366 46.7907C128.366 45.903 127.984 45.3934 127.391 45.3934C126.799 45.3934 126.413 45.907 126.413 46.7907C126.413 47.6745 126.791 48.188 127.391 48.188C127.992 48.188 128.366 47.6824 128.366 46.7907Z" fill="black"/>
<path d="M130.395 44.557H131.568V45.3611H131.592C131.751 44.7959 132.129 44.4854 132.654 44.4854C132.797 44.4854 132.916 44.5053 133 44.5331V45.604C132.9 45.5642 132.733 45.5323 132.558 45.5323C131.958 45.5323 131.612 45.8986 131.612 46.5275V49.0235H130.395V44.561V44.557Z" fill="black"/>
</g>
<defs>
<clipPath id="clip0_562_474">
<rect width="133" height="69" fill="white"/>
</clipPath>
</defs>
</svg>
