<svg width="308" height="68" viewBox="0 0 308 68" fill="none" xmlns="http://www.w3.org/2000/svg">
<path d="M14.1559 12.6635C12.8224 12.1887 11.4519 11.9522 10.0425 11.9522C8.63315 11.9522 7.39912 12.3577 6.33704 13.1704C5.27497 13.9832 4.74393 15.1879 4.74393 16.788C4.74393 18.3374 5.39804 19.5235 6.70793 20.3481C7.42441 20.7975 8.01108 21.1236 8.46794 21.323C8.9248 21.5224 9.59239 21.786 10.469 22.1104C11.3457 22.4348 11.9441 22.6663 12.2661 22.8031C12.5864 22.9417 13.0635 23.1529 13.6923 23.4401C14.3228 23.7274 14.7915 23.9842 15.1 24.2089C15.4085 24.4337 15.7861 24.7462 16.2295 25.1467C16.6746 25.5471 17.0084 25.9476 17.2292 26.3463C17.772 27.372 18.0452 28.4821 18.0452 29.6817C18.0452 31.8056 17.1938 33.5426 15.4877 34.8926C13.7817 36.2426 11.5716 36.9168 8.85568 36.9168C6.78042 36.9168 4.84171 36.567 3.03787 35.8675C2.14944 35.5431 1.41947 35.0937 0.851345 34.5175C0.28322 33.943 0 33.2807 0 32.5305C0 31.3072 0.876632 30.4691 2.63158 30.0196C2.903 31.5184 3.42224 32.7315 4.18761 33.6558C4.95298 34.58 5.74869 35.1934 6.57812 35.4924C7.40586 35.7932 8.41905 35.9419 9.61599 35.9419C10.8129 35.9419 11.9441 35.5482 13.0062 34.7608C14.0683 33.9734 14.5993 32.6808 14.5993 30.8814C14.5993 29.5077 13.9823 28.3824 12.7466 27.5071C11.7587 26.833 10.5415 26.196 9.09675 25.5944C7.65199 24.9946 6.68264 24.5891 6.18869 24.3762C5.69474 24.1633 5.05918 23.8271 4.28033 23.3641C3.50147 22.9011 2.92829 22.4449 2.55741 21.9955C1.59311 20.8212 1.11265 19.4711 1.11265 17.9471C1.11265 15.5985 1.94039 13.8243 3.59588 12.6247C5.25137 11.425 7.53567 10.8252 10.4505 10.8252C12.2037 10.8252 14.2419 11.0263 16.565 11.425V16.935H15.4169L14.1559 12.6635Z" fill="#184376"/>
<path d="M45.7621 17.9102C49.7137 17.9102 51.6911 19.8347 51.6911 23.682C51.6911 26.4547 51.6035 30.3544 51.4315 35.3761L54.0631 35.5636V36.4625H45.8008V35.5636L47.8019 35.4133C47.9739 28.8169 48.0615 24.8124 48.0615 23.3998C48.0615 21.989 47.8019 20.9329 47.2827 20.2334C46.7634 19.5339 45.9239 19.1842 44.7624 19.1842C43.6008 19.1842 42.527 19.6775 41.5391 20.6643C40.5512 21.651 39.8836 22.7071 39.538 23.8324C39.538 26.5308 39.4503 30.3798 39.2784 35.3778L41.9099 35.5653V36.4642H33.6477V35.5653L35.6488 35.415C35.8207 28.8186 35.9084 24.8141 35.9084 23.4015C35.9084 21.9907 35.6488 20.9346 35.1295 20.2351C34.6103 19.5356 33.7151 19.1858 32.444 19.1858C31.1712 19.1858 29.9793 19.8668 28.8683 21.2286C27.7574 22.5905 27.201 23.7969 27.201 24.8462V35.3795L29.9793 35.567V36.4659H21.159V35.567L23.5681 35.4166V19.5238L20.4189 19.3734V18.5117L27.051 18.0622L26.8656 21.9231H27.2365C27.904 20.5984 28.7992 19.5998 29.9237 18.9239C31.0481 18.2498 32.2771 17.9118 33.6106 17.9118C36.9452 17.9118 38.8721 19.2619 39.3913 21.9603V21.9231C40.0589 20.5984 40.9541 19.5998 42.0768 18.9239C43.1996 18.2481 44.4286 17.9102 45.7621 17.9102Z" fill="#184376"/>
<path d="M67.7353 32.5662C67.7353 32.6406 67.7218 32.7284 67.6982 32.8281C67.302 34.0531 66.6429 35.0331 65.7157 35.7715C64.7902 36.5082 63.7078 36.8765 62.4738 36.8765C61.2381 36.8765 60.2064 36.52 59.3803 35.8087C58.5526 35.0973 58.1395 33.7033 58.1395 31.6285C58.1395 31.054 58.2002 26.894 58.325 19.147H55.7676V18.1721H58.3621L58.3992 12.6621H62.0304L61.9192 18.1721H67.2178V19.147H61.9192C61.7944 27.2185 61.7337 31.941 61.7337 33.3164C61.7337 34.9909 62.2766 35.8272 63.3639 35.8272C64.0315 35.8272 64.7278 35.4403 65.4577 34.6648C66.186 33.8909 66.6985 33.0157 66.9952 32.0407C67.4875 32.0424 67.7353 32.2165 67.7353 32.5662Z" fill="#184376"/>
<path d="M74.8125 34.6855C74.8125 35.2988 74.6017 35.8226 74.182 36.2602C73.7622 36.6979 73.2379 36.9158 72.6074 36.9158C71.9769 36.9158 71.4526 36.7029 71.0328 36.2788C70.6131 35.8547 70.4023 35.3225 70.4023 34.6855C70.4023 34.0485 70.6114 33.5112 71.0328 33.0736C71.4526 32.6359 71.9719 32.418 72.5889 32.418C73.2059 32.418 73.7319 32.6427 74.1634 33.0921C74.5967 33.5416 74.8125 34.0721 74.8125 34.6855Z" fill="#184376"/>
<path d="M102.898 11.4268H110.42V12.2885L107.382 13.3006L97.785 22.521L109.938 35.1529L112.902 35.4148V36.464H102.156V35.4148L104.788 35.19L94.8213 24.4692V35.2272L98.0446 35.5651V36.464H87.7812V35.5651L91.0046 35.2272V12.6636L87.7812 12.3257V11.4268H98.0446V12.3257L94.8213 12.6636V23.3844L105.53 13.1519L102.898 12.3273V11.4268Z" fill="#184376"/>
<path d="M125.428 17.7227C126.07 17.7227 126.576 17.8798 126.947 18.1907C127.318 18.5033 127.503 18.9341 127.503 19.4833C127.503 20.4329 127.144 21.058 126.429 21.3571C126.033 21.0327 125.318 20.8705 124.28 20.8705C123.241 20.8705 122.248 21.2152 121.298 21.9012C120.347 22.5889 119.871 23.3695 119.871 24.243V35.3761L123.206 35.5637V36.4626H113.794V35.5637L116.24 35.4133V19.4072L113.313 19.2569V18.3951L119.871 17.9829L119.649 22.5939H119.797C120.217 21.2439 120.989 20.0949 122.114 19.1453C123.235 18.1991 124.341 17.7227 125.428 17.7227Z" fill="#184376"/>
<path d="M129.429 36.4664V35.5675L131.875 35.3799V19.4499L128.614 19.3367V18.475L135.506 17.9883V35.3799L137.952 35.5675V36.4664H129.429ZM135.728 12.0458C135.728 12.6592 135.518 13.183 135.098 13.6206C134.678 14.0582 134.152 14.2762 133.523 14.2762C132.893 14.2762 132.369 14.0633 131.949 13.6392C131.529 13.2151 131.318 12.6828 131.318 12.0458C131.318 11.4088 131.527 10.8715 131.949 10.4339C132.369 9.99628 132.888 9.77832 133.505 9.77832C134.122 9.77832 134.648 10.003 135.079 10.4525C135.511 10.9019 135.728 11.4325 135.728 12.0458Z" fill="#184376"/>
<path d="M147.213 35.9404C148.201 35.9404 149.059 35.6667 149.789 35.1159C150.518 34.5667 150.883 33.6425 150.883 32.3415C150.883 31.4662 150.494 30.7431 149.717 30.1669C148.938 29.5924 147.969 29.0737 146.809 28.6107C145.647 28.1477 144.863 27.8233 144.455 27.6358C144.047 27.4482 143.51 27.1424 142.844 26.7166C141.633 25.8921 141.028 24.7059 141.028 23.1565C141.028 21.6071 141.633 20.3213 142.844 19.2957C144.054 18.2717 145.821 17.7598 148.142 17.7598C149.624 17.7598 150.89 18.0909 151.941 18.7533C152.991 19.4156 153.515 20.2098 153.515 21.134C153.515 22.0582 153.169 22.6952 152.478 23.0467C152.107 23.2224 151.743 23.3086 151.386 23.3086C151.027 23.3086 150.676 23.2342 150.331 23.0839C150.428 22.6344 150.479 22.1478 150.479 21.6223C150.479 21.0968 150.356 20.573 150.108 20.0476C149.688 19.1487 148.886 18.6975 147.699 18.6975C146.514 18.6975 145.612 19.0219 144.993 19.6725C144.376 20.323 144.068 21.1712 144.068 22.2204C144.068 23.2951 144.513 24.0943 145.401 24.6198C146.069 25.0455 146.895 25.4325 147.884 25.7805C148.872 26.1303 149.545 26.3736 149.904 26.5122C150.261 26.649 150.739 26.8805 151.33 27.2049C151.924 27.5293 152.367 27.8673 152.664 28.217C153.429 29.0669 153.812 30.2159 153.812 31.6656C153.812 33.1153 153.169 34.3454 151.885 35.3575C150.6 36.3696 149.032 36.8765 147.18 36.8765C145.327 36.8765 143.702 36.5892 142.308 36.0148C140.912 35.4403 140.214 34.6039 140.214 33.5039C140.214 32.48 140.967 31.8058 142.475 31.4797C142.915 34.4535 144.496 35.9404 147.213 35.9404Z" fill="#184376"/>
<path d="M168.927 17.9101C172.879 17.9101 174.857 19.8347 174.857 23.682C174.857 26.4547 174.769 30.3544 174.597 35.3761L177.227 35.5636V36.4625H168.965V35.5636L170.966 35.4132C171.139 28.8168 171.225 24.8124 171.225 23.3998C171.225 21.989 170.966 20.9329 170.448 20.2334C169.929 19.5339 169.034 19.1841 167.761 19.1841C166.488 19.1841 165.296 19.7975 164.185 21.0208C163.074 22.2458 162.518 23.3694 162.518 24.395V35.3778L164.964 35.5653V36.4642H156.442V35.5653L158.888 35.3778V9.55143L155.628 9.40106L155.591 8.53933L162.52 7.75195C162.371 16.3236 162.285 20.8958 162.26 21.4702H162.557C163.224 20.3213 164.119 19.441 165.244 18.8276C166.365 18.2177 167.594 17.9101 168.927 17.9101Z" fill="#184376"/>
<path d="M185.527 22.1463C186.638 19.2469 188.874 17.7988 192.233 17.7988C193.913 17.7988 195.271 18.304 196.31 19.3161C197.347 20.3282 197.866 21.7712 197.866 23.645C197.866 26.8689 197.766 30.7787 197.569 35.378L200.127 35.5655V36.4644H191.937V35.5655L193.938 35.4151C194.135 29.7683 194.235 26.5309 194.235 25.7064C194.235 24.8818 194.221 24.2516 194.197 23.814C194.172 23.3764 194.105 22.8391 193.993 22.2021C193.882 21.5651 193.715 21.0582 193.493 20.6831C192.948 19.7588 192.097 19.2959 190.935 19.2959C189.354 19.2959 188.058 19.9582 187.044 21.2829C186.031 22.6076 185.526 24.0438 185.526 25.5932V35.3763L188.304 35.5638V36.4627H179.448V35.5638L181.894 35.3763V19.5206L178.745 19.3702V18.5085L185.377 18.059L185.192 22.1074L185.527 22.1463Z" fill="#184376"/>
<path d="M207.573 36.9156C206.165 36.9156 204.962 36.5219 203.96 35.7345C202.961 34.9472 202.46 33.8421 202.46 32.4178C202.484 30.4932 203.441 29.057 205.331 28.1075C207.221 27.1579 209.92 26.6831 213.426 26.6831V23.4592C213.426 20.2861 212.29 18.6995 210.018 18.6995C208.856 18.6995 207.917 19.1861 207.202 20.161C206.708 20.8352 206.46 21.6733 206.46 22.6718C206.46 23.0976 206.509 23.5471 206.609 24.0219C206.262 24.2719 205.911 24.397 205.552 24.397C205.193 24.397 204.842 24.3226 204.496 24.1723C203.706 23.8715 203.311 23.297 203.311 22.4471C203.311 21.2982 203.719 20.3486 204.534 19.5984C205.867 18.3751 207.708 17.7617 210.055 17.7617C212.401 17.7617 214.106 18.2669 215.168 19.279C216.23 20.2911 216.761 21.8845 216.761 24.0591V35.4169L219.873 35.5673L219.91 36.429L213.723 36.8784L213.389 33.5431C212.255 35.7903 210.316 36.9156 207.573 36.9156ZM206.091 32.4178C206.091 34.0432 206.745 35.0046 208.055 35.3037C208.352 35.378 208.635 35.4169 208.907 35.4169C209.846 35.4169 210.82 35.0114 211.833 34.1987C212.846 33.3859 213.377 32.2927 213.426 30.919V27.6952C208.537 27.7442 206.091 29.3189 206.091 32.4178Z" fill="#184376"/>
<path d="M253.704 35.7898C251.332 36.3896 248.615 36.6887 245.551 36.6887C240.413 36.6887 236.633 35.44 234.212 32.941C233.322 32.0421 232.613 30.8729 232.082 29.4367C231.551 28.0005 231.284 26.2449 231.284 24.17C231.284 22.0968 231.685 20.1774 232.488 18.4168C233.29 16.6545 234.383 15.2622 235.767 14.2366C238.51 12.1887 241.77 11.1631 245.548 11.1631L253.181 11.501L253.404 18.3221H252.219L250.96 13.412C249.626 12.8375 248.045 12.5503 246.217 12.5503C243.228 12.5503 240.752 13.5438 238.788 15.5308C236.824 17.5179 235.843 20.4106 235.843 24.2072C235.843 28.0055 236.8 30.8104 238.714 32.6234C240.627 34.4347 243.08 35.3403 246.069 35.3403C247.527 35.3403 248.861 35.1899 250.071 34.8909V26.9073L246.996 26.5693V25.6704H255.926V26.5693L253.702 26.9073V35.7898H253.704Z" fill="#184376"/>
<path d="M277.233 27.3201C277.233 30.0928 276.406 32.3806 274.75 34.1801C273.095 35.9795 270.841 36.8784 267.988 36.8784C265.136 36.8784 262.88 35.9795 261.226 34.1801C259.571 32.3806 258.743 30.0945 258.743 27.3201C258.743 24.5457 259.571 22.2596 261.226 20.4601C262.88 18.6606 265.136 17.7617 267.988 17.7617C270.841 17.7617 273.095 18.6606 274.75 20.4601C276.406 22.2596 277.233 24.5457 277.233 27.3201ZM262.782 27.3201C262.782 33.0919 264.517 35.9779 267.988 35.9779C271.459 35.9779 273.194 33.0919 273.194 27.3201C273.194 24.522 272.798 22.3846 272.009 20.9095C271.218 19.4362 269.885 18.6978 268.007 18.6978C266.129 18.6978 264.789 19.4345 263.986 20.9095C263.184 22.3846 262.782 24.5203 262.782 27.3201Z" fill="#184376"/>
<path d="M282.94 34.2544C281.384 32.5056 280.605 30.1942 280.605 27.3201C280.605 24.446 281.426 22.1345 283.07 20.3857C284.712 18.637 286.781 17.7617 289.276 17.7617C291.771 17.7617 293.635 18.3311 294.871 19.4666C296.105 20.6037 296.724 22.1835 296.724 24.2077C296.724 24.8076 296.673 25.4074 296.575 26.0072H284.608V27.3201C284.608 30.1181 285.002 32.237 285.793 33.6732C286.583 35.1111 287.88 35.8292 289.684 35.8292C292.228 35.8292 294.192 34.7039 295.576 32.4549C296.119 32.6307 296.392 32.8926 296.392 33.2423C296.392 33.8675 295.823 34.5923 294.687 35.4169C294.144 35.8173 293.377 36.1603 292.389 36.4476C291.402 36.7348 290.302 36.8784 289.092 36.8784C286.546 36.8768 284.496 36.0032 282.94 34.2544ZM293.204 23.4204C293.204 22.2714 292.969 21.283 292.499 20.4584C291.857 19.3584 290.818 18.8093 289.387 18.8093C286.718 18.8093 285.162 20.7575 284.717 24.6572H293.128C293.178 24.2331 293.204 23.8208 293.204 23.4204Z" fill="#184376"/>
<path d="M307.912 36.4659H299.39V35.567L301.837 35.3795V9.55143L298.539 9.40106V8.53933L305.468 7.75195V35.3778L307.914 35.5653V36.4659H307.912Z" fill="#184376"/>
<path d="M212.595 52.7205H210.215L208.012 63.0629C207.646 64.7711 207.111 66.0198 206.407 66.8122C205.702 67.6047 204.706 68 203.416 68C203.016 68 202.605 67.9409 202.184 67.8243L202.381 66.8494C202.733 66.9457 203.057 66.9947 203.354 66.9947C204.036 66.9947 204.574 66.7007 204.969 66.1127C205.363 65.5247 205.714 64.5143 206.024 63.0832L208.249 52.7205H206.324L206.449 51.9534L208.487 51.5073L208.715 50.3449C209.212 47.807 210.554 46.5381 212.74 46.5381C213.644 46.5381 214.325 46.6817 214.785 46.9689C215.244 47.2562 215.473 47.6381 215.473 48.1145C215.473 49.0337 214.886 49.4933 213.713 49.4933C213.713 48.172 213.354 47.5113 212.636 47.5113C212.118 47.5113 211.717 47.7259 211.43 48.1551C211.144 48.5843 210.918 49.2483 210.753 50.1472L210.473 51.5057H212.823L212.595 52.7205Z" fill="#184376"/>
<path d="M218.587 51.2979C219.836 51.2979 220.819 51.6746 221.537 52.4282C222.256 53.1818 222.615 54.2716 222.615 55.696C222.615 57.5834 222.038 59.2899 220.887 60.8157C219.734 62.3397 218.22 63.1035 216.343 63.1035C215.067 63.1035 214.069 62.7165 213.353 61.941C212.634 61.1671 212.275 60.0908 212.275 58.7154C212.275 56.8061 212.857 55.0928 214.019 53.5755C215.18 52.0582 216.704 51.2979 218.587 51.2979ZM216.579 62.066C217.744 62.066 218.675 61.3732 219.369 59.986C220.062 58.5988 220.41 57.0629 220.41 55.375C220.41 53.4032 219.72 52.4181 218.339 52.4181C217.186 52.4181 216.256 53.1125 215.544 54.5031C214.833 55.8937 214.479 57.4381 214.479 59.1395C214.479 61.0911 215.178 62.066 216.579 62.066Z" fill="#184376"/>
<path d="M224.401 51.5059H228.344L226.946 57.8657C226.663 59.1515 226.522 60.0065 226.522 60.4272C226.522 61.2923 226.867 61.7249 227.557 61.7249C228.282 61.7249 229.062 61.2011 229.902 60.1535C230.739 59.1059 231.287 57.9874 231.542 56.7979L232.65 51.5076H234.698L233.238 58.3337C233.024 59.3374 232.918 60.1214 232.918 60.6891C232.918 61.4089 233.152 61.7688 233.622 61.7688C234.022 61.7688 234.474 61.6134 234.978 61.3025L235.36 61.9243C234.463 62.7133 233.567 63.107 232.67 63.107C232.139 63.107 231.709 62.9161 231.382 62.5359C231.053 62.1557 230.889 61.6759 230.889 61.0946C230.889 60.728 230.923 60.3106 230.992 59.8392H230.827C230.062 61.1048 229.376 61.9631 228.772 62.4126C228.169 62.862 227.486 63.0867 226.727 63.0867C225.217 63.0867 224.46 62.3011 224.46 60.7314C224.46 60.2819 224.588 59.5047 224.842 58.398L225.67 54.674C225.795 54.113 225.857 53.6923 225.857 53.4084C225.857 52.7376 225.363 52.4031 224.377 52.4031H224.212L224.401 51.5059Z" fill="#184376"/>
<path d="M238.082 62.8959H236.104L237.885 54.358C237.967 53.9644 238.009 53.645 238.009 53.4034C238.009 52.7326 237.516 52.398 236.529 52.398H236.364L236.55 51.5059H240.472L239.903 54.1823H240.11C241.255 52.273 242.543 51.3184 243.971 51.3184C245.481 51.3184 246.236 52.104 246.236 53.6737C246.236 54.1232 246.108 54.9004 245.854 56.0071L245.304 58.518C245.119 59.3679 245.024 60.1113 245.024 60.7483C245.024 61.4259 245.272 61.7655 245.769 61.7655C246.176 61.7655 246.627 61.6033 247.125 61.2789L247.507 61.9007C246.582 62.7032 245.72 63.1037 244.92 63.1037C244.333 63.1037 243.866 62.9128 243.517 62.5326C243.168 62.1524 242.994 61.6371 242.994 60.9866C242.994 60.336 243.129 59.378 243.397 58.1125L243.885 55.9142C244.092 55.0559 244.195 54.3952 244.195 53.9323C244.195 53.0959 243.871 52.6768 243.222 52.6768C242.435 52.6768 241.629 53.2091 240.805 54.2736C239.98 55.338 239.451 56.4008 239.217 57.4586L238.082 62.8959Z" fill="#184376"/>
<path d="M255.085 59.6899H254.95C253.935 61.9642 252.615 63.103 250.987 63.103C250.124 63.103 249.453 62.7617 248.974 62.0807C248.493 61.3998 248.254 60.4469 248.254 59.2235C248.254 57.2737 248.859 55.4658 250.07 53.7981C251.28 52.1321 252.779 51.2974 254.567 51.2974C255.361 51.2974 256.054 51.4664 256.648 51.806C256.757 51.1555 256.836 50.7584 256.885 50.6131L257.093 49.5959C257.189 49.1194 257.238 48.8001 257.238 48.6413C257.238 47.9772 256.744 47.646 255.758 47.646H255.592L255.779 46.7539H259.682L257.219 58.3314C257.012 59.3063 256.909 60.092 256.909 60.6868C256.909 61.4066 257.14 61.7665 257.602 61.7665C258.001 61.7665 258.512 61.5823 259.134 61.2173L259.517 61.8391C258.504 62.6823 257.506 63.1047 256.526 63.1047C255.422 63.1047 254.871 62.5167 254.871 61.3407C254.867 60.8895 254.94 60.3404 255.085 59.6899ZM256.285 53.0208C255.962 52.5089 255.427 52.2537 254.68 52.2537C253.473 52.2537 252.46 53.0242 251.642 54.5618C250.825 56.1011 250.417 57.6826 250.417 59.308C250.417 60.947 250.862 61.7665 251.752 61.7665C252.457 61.7665 253.193 61.2444 253.967 60.2002C254.739 59.156 255.25 58.0154 255.5 56.7769L256.285 53.0208Z" fill="#184376"/>
<path d="M266.83 59.6904H266.695C265.68 61.9646 264.36 63.1035 262.732 63.1035C261.869 63.1035 261.198 62.7621 260.719 62.0812C260.238 61.4003 259.999 60.4473 259.999 59.224C259.999 57.2742 260.604 55.4662 261.815 53.7985C263.025 52.1325 264.524 51.2979 266.312 51.2979C267.272 51.2979 268.099 51.5547 268.797 52.0649L269.73 51.526H270.412L268.963 58.3302C268.755 59.3051 268.652 60.0908 268.652 60.6856C268.652 61.4054 268.883 61.7652 269.345 61.7652C269.745 61.7652 270.256 61.5811 270.878 61.2161L271.26 61.8379C270.247 62.681 269.249 63.1035 268.27 63.1035C267.166 63.1035 266.614 62.5155 266.614 61.3395C266.613 60.89 266.685 60.3409 266.83 59.6904ZM268.03 53.0213C267.707 52.5093 267.172 52.2542 266.425 52.2542C265.218 52.2542 264.205 53.0247 263.388 54.5623C262.57 56.1015 262.162 57.6831 262.162 59.3085C262.162 60.9475 262.607 61.7669 263.497 61.7669C264.202 61.7669 264.939 61.2448 265.712 60.2006C266.484 59.1564 266.995 58.0159 267.245 56.7774L268.03 53.0213Z" fill="#184376"/>
<path d="M277.208 61.299L277.57 62.088C276.618 62.7656 275.665 63.1052 274.713 63.1052C273.174 63.1052 272.405 62.279 272.405 60.6248C272.405 60.0926 272.474 59.4978 272.612 58.8405L273.907 52.7206H272.292L272.489 51.8707C273.87 51.8707 274.949 50.8789 275.729 48.8936H276.702L276.153 51.5074H278.72L278.46 52.7206H275.893L274.61 58.778C274.438 59.5941 274.35 60.2024 274.35 60.6045C274.35 61.3784 274.726 61.7653 275.478 61.7653C276.053 61.7653 276.628 61.6099 277.208 61.299Z" fill="#184376"/>
<path d="M279.422 52.3977L279.607 51.5056H283.405L281.967 58.3318C281.753 59.349 281.647 60.133 281.647 60.6872C281.647 61.407 281.882 61.7669 282.352 61.7669C282.758 61.7669 283.266 61.5827 283.872 61.2177L284.255 61.8395C283.276 62.6827 282.32 63.1051 281.388 63.1051C280.863 63.1051 280.438 62.9141 280.115 62.534C279.791 62.1538 279.628 61.6739 279.628 61.0927C279.628 60.4557 279.786 59.3422 280.103 57.7523L280.921 53.8525C280.969 53.6244 280.993 53.4369 280.993 53.2916C280.993 52.6968 280.562 52.3994 279.7 52.3994H279.422V52.3977ZM282.858 49.38C282.064 49.38 281.667 48.9931 281.667 48.2192C281.667 47.7698 281.784 47.4082 282.015 47.1345C282.246 46.8608 282.554 46.7256 282.94 46.7256C283.734 46.7256 284.13 47.1159 284.13 47.8982C284.13 48.3831 284.011 48.7498 283.773 49.0032C283.535 49.2533 283.23 49.38 282.858 49.38Z" fill="#184376"/>
<path d="M291.249 51.2979C292.498 51.2979 293.481 51.6746 294.199 52.4282C294.918 53.1818 295.277 54.2716 295.277 55.696C295.277 57.5834 294.7 59.2899 293.549 60.8157C292.396 62.3397 290.882 63.1035 289.005 63.1035C287.729 63.1035 286.731 62.7165 286.015 61.941C285.297 61.1671 284.938 60.0908 284.938 58.7154C284.938 56.8061 285.519 55.0928 286.681 53.5755C287.842 52.0582 289.364 51.2979 291.249 51.2979ZM289.241 62.066C290.406 62.066 291.337 61.3732 292.031 59.986C292.726 58.5988 293.072 57.0629 293.072 55.375C293.072 53.4032 292.382 52.4181 291.001 52.4181C289.848 52.4181 288.918 53.1125 288.206 54.5031C287.495 55.8937 287.141 57.4381 287.141 59.1395C287.141 61.0911 287.84 62.066 289.241 62.066Z" fill="#184376"/>
<path d="M298.574 62.8959H296.597L298.377 54.358C298.46 53.9644 298.502 53.645 298.502 53.4034C298.502 52.7326 298.008 52.398 297.022 52.398H296.856L297.042 51.5059H300.965L300.395 54.1823H300.602C301.747 52.273 303.035 51.3184 304.463 51.3184C305.973 51.3184 306.729 52.104 306.729 53.6737C306.729 54.1232 306.6 54.9004 306.346 56.0071L305.796 58.518C305.611 59.3679 305.516 60.1113 305.516 60.7483C305.516 61.4259 305.764 61.7655 306.262 61.7655C306.668 61.7655 307.12 61.6033 307.617 61.2789L308 61.9007C307.074 62.7032 306.213 63.1037 305.412 63.1037C304.825 63.1037 304.358 62.9128 304.009 62.5326C303.66 62.1524 303.487 61.6371 303.487 60.9866C303.487 60.336 303.622 59.378 303.89 58.1125L304.377 55.9142C304.584 55.0559 304.687 54.3952 304.687 53.9323C304.687 53.0959 304.363 52.6768 303.714 52.6768C302.927 52.6768 302.121 53.2091 301.297 54.2736C300.472 55.338 299.943 56.4008 299.709 57.4586L298.574 62.8959Z" fill="#184376"/>
<path d="M119.325 9.83885C118.991 9.83885 118.665 9.66481 118.487 9.35392C118.22 8.89095 118.379 8.29788 118.841 8.03092L132.744 0L146.188 8.03768C146.647 8.3114 146.797 8.90616 146.524 9.36575C146.251 9.82533 145.657 9.97571 145.199 9.70198L132.727 2.24555L119.805 9.70874C119.653 9.7983 119.488 9.83885 119.325 9.83885Z" fill="#DA7E2B"/>
</svg>
