<svg width="102" height="52" viewBox="0 0 102 52" fill="none" xmlns="http://www.w3.org/2000/svg">
<g clip-path="url(#clip0_558_31)">
<path d="M14.7429 32.7949C22.419 32.7949 30.8438 28.8246 30.8438 21.7433C30.8438 19.0977 29.3804 17.594 26.4518 17.594C22.3099 17.594 18.9186 22.0994 14.8858 27.4641L10.7797 32.793H14.7429V32.7949ZM36.449 50.534V51.284H20.3838V50.534H25.3458L10.2813 33.5467H10.2455V50.534H14.6375V51.284H0V50.534H4.39013V0.751848H1.46338V0H10.2455V32.3314L13.9585 27.4679C18.3505 21.5662 21.992 16.8459 26.4536 16.8459C29.2732 16.8459 31.5585 18.2761 31.5585 21.7452C31.5585 28.3969 24.7401 32.6178 17.2069 33.4035L32.6288 50.534H36.449Z" fill="#57747C"/>
<path d="M44.2718 21.1721C42.3081 23.569 41.1306 27.0739 40.7018 31.6867H50.5542C52.8038 31.6867 54.5173 31.1139 55.6948 29.9343C56.8742 28.7905 57.4798 27.0381 57.4798 24.6412C57.4798 22.2443 56.8723 20.5635 55.6948 19.3839C54.5173 18.2043 52.9806 17.6315 51.0902 17.6315C48.4851 17.6315 46.1998 18.8129 44.2718 21.1721ZM59.0147 49.1394C60.5495 48.1746 61.6931 46.9573 62.4418 45.4197C63.1904 43.8821 63.5835 42.2729 63.5835 40.5562C63.5835 39.0186 63.2261 37.6242 62.5114 36.3711C61.7966 35.1557 60.6906 34.1891 59.2272 33.4749C57.7638 32.7589 55.8716 32.4009 53.5881 32.4009H40.6284C40.5927 33.0453 40.5927 33.7237 40.5927 34.4397C40.5927 37.7655 41.1645 40.6618 42.2705 43.0586C43.3765 45.4913 44.8756 47.3511 46.8036 48.6381C48.6958 49.9609 50.8721 50.6054 53.2646 50.6054C55.6572 50.6054 57.4779 50.1041 59.0128 49.1394M59.5865 18.9901C61.8004 20.4203 62.9064 22.3875 62.9064 24.9257C62.9064 26.8214 62.3345 28.359 61.1571 29.4688C59.9796 30.5768 58.3375 31.3645 56.2666 31.8299C59.0166 32.2595 61.0517 33.2601 62.3722 34.7977C63.6569 36.3353 64.3001 38.2668 64.3001 40.5562C64.3001 42.5951 63.7998 44.4907 62.8368 46.2074C61.8737 47.9598 60.3727 49.3184 58.3394 50.3566C56.3042 51.393 53.7687 51.9659 50.699 52.0017H50.5918C45.7013 51.8943 41.8097 50.2492 38.8829 47.0666C35.9204 43.884 34.457 39.6631 34.457 34.4416C34.457 30.9367 35.2056 27.8615 36.6709 25.214C38.1343 22.6042 40.098 20.5296 42.5978 19.0636C45.0975 17.5976 47.9171 16.8457 51.0225 16.8457C54.4854 16.8457 57.3406 17.5617 59.5902 18.992" fill="#57747C"/>
<path d="M95.8608 34.4045C95.8608 24.0331 91.7189 17.5604 84.9005 17.5604C78.082 17.5604 73.9402 24.0331 73.9402 34.4045C73.9402 44.7758 77.6532 51.2485 84.9005 51.2485C92.1478 51.2485 95.8608 44.7758 95.8608 34.4045ZM102 34.4045C102 44.8832 94.6814 51.9646 84.9005 51.9646C75.1195 51.9646 67.8008 44.8832 67.8008 34.4045C67.8008 23.9257 75.1195 16.8086 84.9005 16.8086C94.6814 16.8086 102 23.9257 102 34.4045Z" fill="#57747C"/>
</g>
<defs>
<clipPath id="clip0_558_31">
<rect width="102" height="52" fill="white"/>
</clipPath>
</defs>
</svg>
