<svg width="378" height="84" viewBox="0 0 378 84" fill="none" xmlns="http://www.w3.org/2000/svg">
<path d="M10.898 41.4022L0.812032 26.1406H6.63626L13.9053 37.652H13.9502L21.2864 26.1406H27.0883L17.0247 41.3207L27.9003 57.354H21.6617L13.9502 45.1796H13.9053L6.26105 57.354H0L10.898 41.4076V41.4022Z" fill="#BEBEBE"/>
<path d="M28.645 26.1406H34.3572L42.6848 40.6359H42.7744L51.1411 26.1406H56.8533L45.4289 44.9459V57.354H40.0919V44.9459L28.645 26.1406Z" fill="#BEBEBE"/>
<path d="M68.4514 57.3486V26.1406H82.1383C83.7176 26.1406 85.1457 26.32 86.4113 26.6841C87.677 27.0483 88.7914 27.5972 89.749 28.3364C90.7067 29.0755 91.4459 30.0539 91.9667 31.2659C92.4876 32.4779 92.7452 33.8856 92.7452 35.478C92.7452 37.5977 92.2859 39.3695 91.3619 40.7989C90.4379 42.2283 89.2002 43.261 87.649 43.9023C86.0977 44.5437 84.2608 44.8643 82.1327 44.8643H73.8052V57.3595H68.4458L68.4514 57.3486ZM73.8108 30.5539V40.4022H81.8975C83.7288 40.4022 85.1009 40.0054 86.0137 39.2173C86.9265 38.4292 87.3857 37.1792 87.3857 35.478C87.3857 33.7769 86.9265 32.5594 86.0137 31.755C85.1009 30.9506 83.7232 30.5484 81.8975 30.5484H73.8108V30.5539Z" fill="#BEBEBE"/>
<path d="M101.644 39.0162H117.331V43.473H101.644V52.9408H119.985V57.354H96.2793V26.1406H119.543V30.5539H101.639V39.0162H101.644Z" fill="#BEBEBE"/>
<path d="M124.342 57.3486V26.1406H138.074C141.411 26.1406 144.06 26.9287 146.015 28.5049C147.969 30.081 148.949 32.2768 148.949 35.0921C148.949 37.2227 148.428 38.9347 147.387 40.2282C146.345 41.5218 144.872 42.3968 142.974 42.8534V42.9403C144.144 43.1523 145.124 43.6414 145.908 44.4132C146.692 45.185 147.247 46.0709 147.566 47.0764C147.885 48.0873 148.143 49.1634 148.322 50.3048C148.507 51.4516 148.608 52.5006 148.63 53.4626C148.652 54.4246 148.725 55.2398 148.848 55.9138C148.972 56.5877 149.162 56.9682 149.408 57.0551V57.354H143.786C143.567 57.1692 143.416 56.7236 143.338 56.0225C143.259 55.3213 143.226 54.5278 143.237 53.6582C143.254 52.7832 143.181 51.8483 143.019 50.8537C142.856 49.8591 142.615 48.9569 142.296 48.1471C141.971 47.3373 141.411 46.6633 140.605 46.1198C139.798 45.5817 138.79 45.31 137.575 45.31H129.712V57.354H124.353L124.342 57.3486ZM129.701 30.5539V40.8533H136.931C137.676 40.8533 138.337 40.8207 138.908 40.7554C139.479 40.6902 140.073 40.5543 140.7 40.3424C141.322 40.1304 141.837 39.8424 142.251 39.4782C142.66 39.1141 142.996 38.614 143.259 37.9727C143.523 37.3314 143.657 36.5705 143.657 35.69C143.657 34.8095 143.523 34.0703 143.259 33.429C142.996 32.7877 142.66 32.2877 142.251 31.9235C141.842 31.5594 141.327 31.2713 140.711 31.0593C140.095 30.8474 139.502 30.7061 138.919 30.6408C138.342 30.5756 137.676 30.543 136.931 30.543H129.701V30.5539Z" fill="#BEBEBE"/>
<path d="M175.746 36.8644C175.612 36.1796 175.432 35.5382 175.197 34.9349C174.962 34.3316 174.615 33.712 174.156 33.0816C173.696 32.4511 173.159 31.9076 172.554 31.4619C171.943 31.0163 171.176 30.6467 170.235 30.3641C169.3 30.0814 168.259 29.9401 167.116 29.9401C165.766 29.9401 164.551 30.1521 163.459 30.5815C162.367 31.0054 161.454 31.5869 160.715 32.3207C159.976 33.0544 159.354 33.924 158.861 34.9349C158.363 35.9458 157.999 37.0111 157.775 38.1416C157.545 39.2721 157.433 40.4678 157.433 41.7342C157.433 43.3429 157.618 44.8321 157.993 46.2126C158.369 47.5931 158.929 48.8432 159.673 49.9628C160.418 51.0879 161.432 51.9683 162.703 52.6042C163.974 53.2456 165.447 53.5662 167.116 53.5662C168.55 53.5662 169.815 53.3543 170.919 52.9249C172.022 52.4955 172.896 51.914 173.556 51.164C174.217 50.4194 174.721 49.615 175.085 48.7562C175.444 47.8975 175.668 46.9627 175.757 45.9518H181.117C180.753 49.5606 179.347 52.4738 176.911 54.6913C174.475 56.9088 171.255 58.0175 167.256 58.0175C164.226 58.0175 161.555 57.3164 159.248 55.9087C156.94 54.5011 155.182 52.5716 153.967 50.1204C152.752 47.6692 152.141 44.8702 152.141 41.7287C152.141 39.3971 152.494 37.2339 153.205 35.2393C153.916 33.2446 154.913 31.5272 156.201 30.0923C157.489 28.6575 159.085 27.5324 160.989 26.7117C162.894 25.8965 164.982 25.4834 167.25 25.4834C169.244 25.4834 171.07 25.7769 172.733 26.3693C174.396 26.9617 175.802 27.7715 176.961 28.7988C178.121 29.8314 179.05 31.0326 179.761 32.4022C180.473 33.7718 180.921 35.261 181.111 36.8698H175.752L175.746 36.8644Z" fill="#BEBEBE"/>
<path d="M190.396 39.0162H206.082V43.473H190.396V52.9408H208.737V57.354H185.031V26.1406H208.295V30.5539H190.391V39.0162H190.396Z" fill="#BEBEBE"/>
<path d="M213.088 57.3486V26.1406H219.064L233.563 49.5711H233.652V26.1406H239.012V57.354H233.059L218.537 33.9888H218.448V57.354H213.088V57.3486Z" fill="#BEBEBE"/>
<path d="M251.954 57.3486V30.5539H241.649V26.1406H267.573V30.5539H257.313V57.354H251.954V57.3486Z" fill="#BEBEBE"/>
<path d="M298.462 0L347.999 60.8174H378L354.747 30.4087L378 0H347.999L338.233 10.7897L328.462 0H298.462Z" fill="#BEBEBE"/>
<path d="M280.319 83.7923H310.32L334.58 54.445C335.588 50.6815 323.114 38.3391 320.086 35.1689L280.314 83.7877L280.319 83.7923Z" fill="#BEBEBE"/>
</svg>
