<svg width="180" height="102" viewBox="0 0 180 102" fill="none" xmlns="http://www.w3.org/2000/svg">
<path d="M46.7804 75.2949L45.8786 77.7042H45.5186L44.6167 75.2949H44.9495L45.7004 77.3718L46.4514 75.2949H46.7804Z" fill="#203E43"/>
<path d="M49.4973 77.1673H48.4548L48.2627 77.7028H47.9336L48.798 75.3086H49.158L50.0186 77.7028H49.6895L49.4973 77.1673ZM49.4083 76.9123L48.9761 75.6958L48.5439 76.9123H49.4083Z" fill="#203E43"/>
<path d="M51.3977 75.8634C51.5027 75.6755 51.6462 75.5291 51.828 75.4233C52.0099 75.3175 52.2115 75.2646 52.4337 75.2646C52.6943 75.2646 52.9221 75.3279 53.1162 75.4545C53.3102 75.581 53.4527 75.7614 53.5418 75.9938H53.1677C53.1012 75.8483 53.0055 75.7369 52.8809 75.6585C52.7562 75.5801 52.6071 75.5404 52.4337 75.5404C52.2668 75.5404 52.1168 75.5801 51.9846 75.6585C51.8524 75.7369 51.7484 75.8483 51.6724 75.9919C51.5974 76.1354 51.559 76.3045 51.559 76.4981C51.559 76.6889 51.5965 76.857 51.6724 77.0005C51.7484 77.1441 51.8524 77.2555 51.9846 77.3339C52.1168 77.4123 52.2668 77.451 52.4337 77.451C52.6071 77.451 52.7562 77.4123 52.8809 77.3349C53.0055 77.2574 53.1012 77.146 53.1677 77.0015H53.5418C53.4527 77.2319 53.3112 77.4104 53.1162 77.536C52.9221 77.6616 52.6943 77.724 52.4337 77.724C52.2115 77.724 52.0099 77.672 51.828 77.5672C51.6462 77.4624 51.5027 77.3169 51.3977 77.1299C51.2927 76.9439 51.2402 76.7323 51.2402 76.4981C51.2402 76.2629 51.2927 76.0514 51.3977 75.8634Z" fill="#203E43"/>
<path d="M56.3782 77.1673H55.3357L55.1435 77.7028H54.8145L55.6788 75.3086H56.0388L56.8995 77.7028H56.5704L56.3782 77.1673ZM56.2891 76.9123L55.857 75.6958L55.4248 76.9123H56.2891Z" fill="#203E43"/>
<path d="M59.7094 75.2949V75.5509H59.0569V77.7042H58.7456V75.5509H58.0903V75.2949H59.7094Z" fill="#203E43"/>
<path d="M61.3659 75.2949H61.0537V77.7033H61.3659V75.2949Z" fill="#203E43"/>
<path d="M63.3347 77.571C63.1518 77.4662 63.0075 77.3198 62.9006 77.1319C62.7946 76.9439 62.7412 76.7324 62.7412 76.4972C62.7412 76.262 62.7946 76.0514 62.9006 75.8625C63.0065 75.6746 63.1518 75.5282 63.3347 75.4234C63.5175 75.3185 63.72 75.2666 63.9421 75.2666C64.1662 75.2666 64.3696 75.3195 64.5525 75.4234C64.7353 75.5282 64.8796 75.6737 64.9846 75.8607C65.0896 76.0467 65.1421 76.2592 65.1421 76.4963C65.1421 76.7333 65.0896 76.9458 64.9846 77.1319C64.8796 77.3189 64.7353 77.4643 64.5525 77.5692C64.3696 77.674 64.1662 77.7259 63.9421 77.7259C63.72 77.7278 63.5175 77.6759 63.3347 77.571ZM64.3931 77.3378C64.5271 77.2594 64.6321 77.1479 64.709 77.0025C64.7859 76.857 64.8243 76.6889 64.8243 76.4982C64.8243 76.3045 64.7859 76.1355 64.709 75.9919C64.6321 75.8484 64.5281 75.7369 64.395 75.6585C64.2618 75.5802 64.1109 75.5405 63.9421 75.5405C63.7725 75.5405 63.6225 75.5802 63.4893 75.6585C63.3562 75.7369 63.2521 75.8484 63.1753 75.9919C63.0984 76.1355 63.06 76.3045 63.06 76.4982C63.06 76.6899 63.0984 76.857 63.1753 77.0025C63.2521 77.1479 63.3571 77.2594 63.4912 77.3378C63.6253 77.4162 63.7753 77.4549 63.9421 77.4549C64.109 77.4549 64.259 77.4162 64.3931 77.3378Z" fill="#203E43"/>
<path d="M68.3943 77.7041H68.0822L66.8268 75.7859V77.7041H66.5146V75.292H66.8268L68.0822 77.2064V75.292H68.3943V77.7041Z" fill="#203E43"/>
<path d="M73.2338 75.2949V75.5509H72.5822V77.7042H72.2701V75.5509H71.6147V75.2949H73.2338Z" fill="#203E43"/>
<path d="M76.4204 75.2949V77.7042H76.1082V76.6115H74.8913V77.7042H74.5791V75.2949H74.8913V76.3527H76.1082V75.2949H76.4204Z" fill="#203E43"/>
<path d="M79.3255 77.1673H78.283L78.0908 77.7028H77.7617L78.6261 75.3086H78.9861L79.8467 77.7028H79.5177L79.3255 77.1673ZM79.2364 76.9123L78.8042 75.6958L78.372 76.9123H79.2364Z" fill="#203E43"/>
<path d="M82.6567 75.2949V75.5509H82.0051V77.7042H81.6929V75.5509H81.0376V75.2949H82.6567Z" fill="#203E43"/>
<path d="M86.1901 75.5508V76.3564H87.0611V76.6152H86.1901V77.4444H87.1642V77.7041H85.8779V75.292H87.1642V75.5508H86.1901Z" fill="#203E43"/>
<path d="M88.9324 77.6426C88.8077 77.586 88.7102 77.5076 88.639 77.4075C88.5677 77.3074 88.5312 77.1912 88.5293 77.0599H88.8621C88.8734 77.1723 88.9202 77.2677 89.0009 77.3451C89.0824 77.4226 89.2005 77.4613 89.3562 77.4613C89.5052 77.4613 89.6224 77.4235 89.7077 77.3489C89.793 77.2734 89.8362 77.178 89.8362 77.0599C89.8362 76.9674 89.8109 76.8927 89.7612 76.8351C89.7105 76.7775 89.6477 76.7341 89.5727 76.7039C89.4977 76.6736 89.3955 76.6415 89.2671 76.6066C89.1096 76.565 88.983 76.5235 88.8884 76.4819C88.7937 76.4404 88.7121 76.3752 88.6446 76.2864C88.5771 76.1976 88.5434 76.0786 88.5434 75.9285C88.5434 75.7972 88.5762 75.681 88.6427 75.579C88.7093 75.478 88.8021 75.3996 88.9221 75.3439C89.0421 75.2891 89.1799 75.2607 89.3355 75.2607C89.5596 75.2607 89.7434 75.3174 89.8859 75.4298C90.0284 75.5422 90.109 75.6924 90.1277 75.8794H89.7846C89.7734 75.7868 89.7255 75.7065 89.6402 75.6357C89.5559 75.5658 89.4434 75.5299 89.3037 75.5299C89.1734 75.5299 89.0665 75.5639 88.9849 75.6319C88.9024 75.6999 88.8612 75.7953 88.8612 75.9171C88.8612 76.005 88.8855 76.0758 88.9352 76.1315C88.9849 76.1863 89.0449 76.2288 89.1171 76.2571C89.1893 76.2864 89.2905 76.3185 89.4209 76.3554C89.5784 76.3988 89.7059 76.4422 89.8015 76.4847C89.8971 76.5272 89.9796 76.5934 90.048 76.6821C90.1165 76.7709 90.1512 76.8909 90.1512 77.0429C90.1512 77.161 90.1202 77.2705 90.0584 77.3744C89.9965 77.4783 89.9055 77.5624 89.7837 77.6266C89.6627 77.6917 89.5193 77.7239 89.3543 77.7239C89.1977 77.7276 89.0571 77.6993 88.9324 77.6426Z" fill="#203E43"/>
<path d="M91.6126 75.8634C91.7176 75.6755 91.861 75.5291 92.0429 75.4233C92.2248 75.3175 92.4263 75.2646 92.6485 75.2646C92.9091 75.2646 93.137 75.3279 93.331 75.4545C93.5251 75.581 93.6676 75.7614 93.7566 75.9938H93.3826C93.316 75.8483 93.2204 75.7369 93.0957 75.6585C92.971 75.5801 92.822 75.5404 92.6485 75.5404C92.4816 75.5404 92.3316 75.5801 92.1995 75.6585C92.0673 75.7369 91.9632 75.8483 91.8873 75.9919C91.8123 76.1354 91.7738 76.3045 91.7738 76.4981C91.7738 76.6889 91.8113 76.857 91.8873 77.0005C91.9632 77.1441 92.0673 77.2555 92.1995 77.3339C92.3316 77.4123 92.4816 77.451 92.6485 77.451C92.822 77.451 92.971 77.4123 93.0957 77.3349C93.2204 77.2574 93.316 77.146 93.3826 77.0015H93.7566C93.6676 77.2319 93.526 77.4104 93.331 77.536C93.137 77.6616 92.9091 77.724 92.6485 77.724C92.4263 77.724 92.2248 77.672 92.0429 77.5672C91.861 77.4624 91.7176 77.3169 91.6126 77.1299C91.5076 76.9439 91.4551 76.7323 91.4551 76.4981C91.4551 76.2629 91.5076 76.0514 91.6126 75.8634Z" fill="#203E43"/>
<path d="M96.5935 77.1673H95.551L95.3588 77.7028H95.0298L95.8942 75.3086H96.2542L97.1148 77.7028H96.7857L96.5935 77.1673ZM96.5045 76.9123L96.0723 75.6958L95.6401 76.9123H96.5045Z" fill="#203E43"/>
<path d="M99.8467 76.4991C99.7108 76.6313 99.5036 76.6974 99.2242 76.6974H98.7648V77.7033H98.4526V75.2949H99.2242C99.4942 75.2949 99.6995 75.361 99.8401 75.4923C99.9808 75.6236 100.051 75.7926 100.051 76.0004C100.051 76.2006 99.9826 76.3669 99.8467 76.4991ZM99.6086 76.3253C99.6911 76.2488 99.7323 76.1411 99.7323 76.0004C99.7323 75.7029 99.5626 75.5546 99.2242 75.5546H98.7648V76.4396H99.2242C99.3976 76.4386 99.5261 76.4009 99.6086 76.3253Z" fill="#203E43"/>
<path d="M101.711 75.5508V76.3564H102.582V76.6152H101.711V77.4444H102.685V77.7041H101.399V75.292H102.685V75.5508H101.711Z" fill="#203E43"/>
<path d="M104.453 77.6426C104.329 77.586 104.231 77.5076 104.16 77.4075C104.089 77.3074 104.052 77.1912 104.05 77.0599H104.383C104.394 77.1723 104.441 77.2677 104.522 77.3451C104.603 77.4226 104.722 77.4613 104.877 77.4613C105.026 77.4613 105.143 77.4235 105.229 77.3489C105.315 77.2734 105.357 77.178 105.357 77.0599C105.357 76.9674 105.332 76.8927 105.282 76.8351C105.232 76.7775 105.169 76.7341 105.094 76.7039C105.019 76.6736 104.917 76.6415 104.788 76.6066C104.631 76.565 104.504 76.5235 104.409 76.4819C104.315 76.4404 104.233 76.3752 104.166 76.2864C104.098 76.1976 104.064 76.0786 104.064 75.9285C104.064 75.7972 104.097 75.681 104.164 75.579C104.23 75.478 104.323 75.3996 104.443 75.3439C104.563 75.2891 104.701 75.2607 104.857 75.2607C105.081 75.2607 105.264 75.3174 105.407 75.4298C105.549 75.5422 105.63 75.6924 105.649 75.8794H105.306C105.294 75.7868 105.247 75.7065 105.161 75.6357C105.077 75.5658 104.964 75.5299 104.825 75.5299C104.694 75.5299 104.587 75.5639 104.506 75.6319C104.423 75.6999 104.382 75.7953 104.382 75.9171C104.382 76.005 104.407 76.0758 104.456 76.1315C104.506 76.1863 104.566 76.2288 104.638 76.2571C104.71 76.2864 104.812 76.3185 104.942 76.3554C105.099 76.3988 105.227 76.4422 105.322 76.4847C105.418 76.5272 105.501 76.5934 105.569 76.6821C105.637 76.7709 105.672 76.8909 105.672 77.0429C105.672 77.161 105.641 77.2705 105.579 77.3744C105.517 77.4783 105.427 77.5624 105.305 77.6266C105.184 77.6917 105.04 77.7239 104.876 77.7239C104.719 77.7276 104.578 77.6993 104.453 77.6426Z" fill="#203E43"/>
<path d="M110.228 77.7042L109.659 76.7192H109.282V77.7042H108.97V75.2959H109.742C109.923 75.2959 110.075 75.3271 110.199 75.3894C110.324 75.4517 110.417 75.5358 110.479 75.6416C110.541 75.7473 110.571 75.8682 110.571 76.0042C110.571 76.1695 110.524 76.3159 110.429 76.4434C110.334 76.57 110.192 76.654 110.002 76.6956L110.602 77.7042H110.228ZM109.281 76.467H109.741C109.91 76.467 110.037 76.4245 110.121 76.3414C110.206 76.2573 110.248 76.145 110.248 76.0042C110.248 75.8616 110.206 75.7511 110.122 75.6727C110.039 75.5943 109.911 75.5556 109.74 75.5556H109.281V76.467H109.281Z" fill="#203E43"/>
<path d="M112.327 75.5508V76.3564H113.198V76.6152H112.327V77.4444H113.301V77.7041H112.015V75.292H113.301V75.5508H112.327Z" fill="#203E43"/>
<path d="M116.149 77.1673H115.106L114.914 77.7028H114.585L115.449 75.3086H115.809L116.67 77.7028H116.341L116.149 77.1673ZM116.059 76.9123L115.627 75.6958L115.194 76.9123H116.059Z" fill="#203E43"/>
<path d="M118.32 77.4483H119.156V77.7042H118.008V75.2949H118.32V77.4483Z" fill="#203E43"/>
<path d="M120.762 75.2949H120.45V77.7033H120.762V75.2949Z" fill="#203E43"/>
<path d="M123.726 75.2949V75.5509H123.074V77.7042H122.762V75.5509H122.106V75.2949H123.726Z" fill="#203E43"/>
<path d="M126.744 75.2949L125.965 76.7947V77.7042H125.653V76.7947L124.871 75.2949H125.218L125.808 76.5151L126.397 75.2949H126.744Z" fill="#203E43"/>
<path d="M41.8406 61.6425C41.7309 61.5991 41.5771 61.567 41.384 61.5424C41.1909 61.5179 40.9762 61.5018 40.739 61.4962C40.4999 61.4933 40.2824 61.499 40.0781 61.5179C39.8737 61.5396 39.7078 61.5717 39.5784 61.6236C39.4471 61.6699 39.3899 61.7294 39.4115 61.7965C39.3824 62.5492 39.3468 63.4039 39.3093 64.3701C39.2718 65.3334 39.2371 66.3043 39.2071 67.279H38.5978C38.4365 67.279 38.2706 67.279 38.1009 67.2846C38.0287 67.2846 37.9528 67.2847 37.8806 67.2875C37.6331 67.2932 37.3893 67.3007 37.1474 67.3149C36.9056 67.3309 36.6778 67.3442 36.4649 67.3527C36.4753 66.7492 36.4921 66.1513 36.5156 65.561C36.5399 64.9708 36.5643 64.4277 36.5878 63.9243C36.6121 63.4238 36.6412 62.9855 36.674 62.6096C36.7087 62.2366 36.749 61.9627 36.7978 61.7974C36.8465 61.7379 36.8109 61.6813 36.6984 61.6246C36.5803 61.5651 36.4274 61.5141 36.2334 61.4706C36.0431 61.4244 35.8256 61.3923 35.5865 61.3677C35.3446 61.3432 35.1243 61.3328 34.9228 61.3384C34.7212 61.3441 34.5553 61.363 34.4259 61.3979C34.2946 61.43 34.2403 61.4848 34.259 61.5519C34.2299 62.144 34.2028 62.807 34.1784 63.538C34.154 64.2681 34.1324 65.0095 34.1137 65.7594C34.0949 66.5093 34.079 67.2422 34.0631 67.959C34.0471 68.6758 34.0415 69.3143 34.0415 69.8724C34.0415 70.4353 34.0518 70.8868 34.0706 71.2334C34.0893 71.58 34.1193 71.7613 34.1568 71.7802C34.1568 71.8208 34.2187 71.8746 34.3368 71.9426C34.4578 72.0106 34.6078 72.0862 34.7906 72.1703C34.9734 72.2515 35.1721 72.3327 35.3812 72.4111C35.5931 72.4895 35.7843 72.5518 35.9587 72.6C36.1303 72.6491 36.2699 72.6755 36.3693 72.6812C36.4715 72.684 36.5062 72.6538 36.479 72.5868C36.4574 72.5754 36.4471 72.4706 36.4415 72.2647C36.4359 72.0588 36.4303 71.7887 36.4284 71.4525C36.4228 71.1172 36.4199 70.7243 36.4199 70.2757C36.4199 69.8271 36.4256 69.3558 36.4331 68.8581C36.5296 68.8685 36.6796 68.8685 36.8812 68.8581C37.0856 68.8496 37.3162 68.8364 37.5712 68.8231C37.7353 68.8156 37.8993 68.8043 38.0709 68.791C38.1703 68.7854 38.2696 68.7797 38.3718 68.7721C38.6456 68.7504 38.909 68.7287 39.1612 68.6994C39.1509 69.2056 39.1424 69.6817 39.1368 70.1255C39.134 70.5694 39.134 70.9557 39.1368 71.2948C39.1424 71.63 39.1528 71.8983 39.1687 72.0985C39.1818 72.2987 39.2034 72.4016 39.2334 72.412C39.2334 72.4498 39.2924 72.4876 39.4134 72.5206C39.5343 72.5556 39.6871 72.5887 39.8699 72.6179C40.0556 72.6453 40.2515 72.667 40.4662 72.6831C40.6781 72.6963 40.8721 72.702 41.0465 72.6963C41.2209 72.6906 41.3578 72.6746 41.4599 72.6453C41.5621 72.6179 41.5968 72.5669 41.5706 72.4989C41.549 72.48 41.5387 72.3308 41.5331 72.055C41.5274 71.7764 41.5246 71.4138 41.5246 70.9642C41.5246 70.5175 41.5303 70.0009 41.5378 69.4219C41.549 68.843 41.5649 68.2395 41.5837 67.6171C41.6024 66.9947 41.6212 66.3723 41.6428 65.7528C41.6615 65.136 41.6831 64.5618 41.7149 64.0376C41.7421 63.5097 41.7768 63.0498 41.8143 62.655C41.8546 62.2602 41.8921 61.9759 41.9324 61.8003C41.9831 61.737 41.954 61.6879 41.8406 61.6425Z" fill="#203E43"/>
<path d="M46.1061 61.6226C45.9936 61.5631 45.8371 61.5121 45.6439 61.4687C45.4508 61.4224 45.2333 61.3903 44.9914 61.3657C44.7467 61.3412 44.5264 61.3308 44.323 61.3365C44.1214 61.3421 43.9555 61.361 43.8233 61.396C43.6921 61.4281 43.6377 61.4829 43.6564 61.5499C43.6274 62.1421 43.6002 62.8051 43.5758 63.5361C43.5514 64.2661 43.5299 65.0075 43.5111 65.7574C43.4924 66.5073 43.4736 67.2402 43.4596 67.957C43.4464 68.6739 43.438 69.3123 43.438 69.8705C43.438 70.4334 43.4455 70.8848 43.4652 71.2314C43.4867 71.578 43.5139 71.7594 43.5542 71.7782C43.5542 71.8189 43.6133 71.8727 43.7371 71.9407C43.8552 72.0087 44.008 72.0842 44.1936 72.1683C44.3764 72.2495 44.5752 72.3307 44.7871 72.4091C44.9989 72.4875 45.193 72.5499 45.3674 72.598C45.5417 72.6471 45.6786 72.6736 45.7808 72.6792C45.883 72.6821 45.9205 72.6519 45.8886 72.5848C45.8699 72.5631 45.8595 72.4167 45.8539 72.1381C45.8483 71.8595 45.8483 71.4911 45.8483 71.034C45.8483 70.5769 45.8483 70.0546 45.8539 69.47C45.8595 68.8854 45.8671 68.2819 45.8755 67.6576C45.8867 67.0352 45.8999 66.41 45.9214 65.7876C45.9402 65.1652 45.9617 64.5863 45.9936 64.048C46.0208 63.5125 46.0527 63.0469 46.0846 62.6521C46.1192 62.2573 46.1596 61.973 46.2111 61.7974C46.2561 61.7369 46.2242 61.6802 46.1061 61.6226Z" fill="#203E43"/>
<path d="M55.7427 71.618C55.7108 71.4122 55.6705 71.193 55.6161 70.9607C55.5655 70.7284 55.5036 70.514 55.4361 70.3166C55.3658 70.122 55.2993 69.97 55.2318 69.8567C55.1643 69.7462 55.1024 69.7103 55.0433 69.748C54.8202 69.8047 54.5277 69.8774 54.1649 69.9672C53.8021 70.0531 53.4074 70.14 52.9752 70.2212C52.5458 70.3053 52.0996 70.3752 51.6318 70.4347C51.5858 70.4403 51.5408 70.446 51.4949 70.4507C51.4011 70.462 51.3093 70.4696 51.2183 70.4781C50.9071 70.5083 50.6033 70.5215 50.3136 70.5215C50.2649 70.0427 50.233 69.5119 50.2114 68.9283C50.1927 68.3437 50.1824 67.7487 50.1824 67.1395C50.1824 66.5275 50.1955 65.9278 50.2283 65.3318C50.2555 64.7397 50.3005 64.1872 50.3652 63.6762C50.4271 63.1624 50.5105 62.7129 50.6118 62.3209C50.7139 61.9337 50.8349 61.6419 50.9793 61.4445C51.0008 61.4256 50.9118 61.3878 50.713 61.3312C50.5114 61.2717 50.2808 61.2225 50.0146 61.1848C49.7483 61.1442 49.4886 61.1224 49.2299 61.1168C48.9749 61.1111 48.8033 61.1489 48.7171 61.2254C48.583 61.4983 48.4677 61.8667 48.3758 62.3294C48.2821 62.7922 48.2089 63.3088 48.1583 63.8717C48.1049 64.4374 48.0693 65.0381 48.0477 65.6709C48.0289 66.3037 48.0205 66.9289 48.0261 67.5484C48.0318 68.168 48.0477 68.7602 48.0693 69.3315C48.0936 69.902 48.1227 70.4082 48.1583 70.8521C48.193 71.2932 48.223 71.6502 48.2521 71.9184C48.2811 72.1866 48.3111 72.3302 48.3383 72.3481C48.4058 72.4076 48.5455 72.4671 48.7602 72.5238C48.9721 72.5833 49.2036 72.6352 49.4474 72.6777C49.6968 72.7212 49.9358 72.7504 50.1749 72.7646C50.4111 72.7807 50.5827 72.7731 50.6877 72.7429C50.878 72.74 51.0721 72.7372 51.268 72.7297C51.4049 72.724 51.5446 72.7183 51.6843 72.7108C52.1539 72.6862 52.6321 72.6484 53.1186 72.5974C53.9539 72.5105 54.7996 72.4085 55.6518 72.2886C55.708 72.3103 55.7455 72.2537 55.7586 72.1233C55.7783 71.992 55.7699 71.8239 55.7427 71.618Z" fill="#203E43"/>
<path d="M64.4909 71.618C64.459 71.4122 64.4187 71.193 64.3643 70.9607C64.3137 70.7284 64.2518 70.514 64.1843 70.3166C64.1308 70.1598 64.0765 70.0352 64.023 69.9322V69.9294C64.0099 69.902 63.9958 69.8784 63.9827 69.8567C63.9133 69.7462 63.8515 69.7103 63.7924 69.748C63.5693 69.8047 63.2768 69.8774 62.914 69.9672C62.5512 70.0531 62.1565 70.14 61.7271 70.2212C61.4824 70.2703 61.233 70.3128 60.978 70.3506C60.7849 70.3808 60.5862 70.4073 60.3846 70.4347C59.9196 70.4913 59.4799 70.5215 59.0627 70.5215C59.014 70.0427 58.9821 69.5119 58.9633 68.9283C58.9418 68.3437 58.9315 67.7487 58.9315 67.1395C58.9315 66.7334 58.9399 66.3329 58.953 65.9353C58.9587 65.7323 58.9662 65.532 58.9774 65.3318C59.0046 64.7397 59.0496 64.1872 59.1143 63.6762C59.1762 63.1624 59.2596 62.7129 59.3618 62.3209C59.464 61.9337 59.5849 61.6419 59.7293 61.4445C59.7508 61.4256 59.6618 61.3878 59.463 61.3312C59.2643 61.2717 59.0308 61.2225 58.7646 61.1848C58.5012 61.1442 58.2387 61.1224 57.9827 61.1168C57.7277 61.1111 57.5552 61.1489 57.4671 61.2254C57.333 61.4983 57.2196 61.8667 57.1259 62.3294C57.0349 62.7922 56.9618 63.3088 56.9084 63.8717C56.8868 64.1125 56.868 64.3619 56.8493 64.6159C56.8277 64.9569 56.8118 65.3082 56.7987 65.6709C56.7799 66.3037 56.7743 66.9289 56.7799 67.5484C56.7855 68.168 56.7987 68.7602 56.8202 69.3315C56.8474 69.902 56.8737 70.4082 56.9084 70.8521C56.943 71.2932 56.9759 71.6502 57.0021 71.9184C57.0312 72.1866 57.0612 72.3302 57.0912 72.3481C57.1587 72.4076 57.2983 72.4671 57.5102 72.5238C57.7221 72.5833 57.9537 72.6352 58.2002 72.6777C58.4468 72.7212 58.6859 72.7504 58.9249 72.7646C59.1612 72.7807 59.3337 72.7731 59.4377 72.7429C59.9805 72.7372 60.5365 72.7136 61.1055 72.6673C61.3577 72.6484 61.6137 72.6239 61.8715 72.5965C62.629 72.5181 63.394 72.4265 64.1646 72.3207C64.2424 72.3094 64.323 72.299 64.4008 72.2886C64.4571 72.3103 64.4946 72.2537 64.5105 72.1233C64.5265 71.992 64.518 71.8239 64.4909 71.618Z" fill="#203E43"/>
<path d="M78.259 68.3524C78.2374 68.0171 78.1999 67.7603 78.1409 67.5836C78.0659 67.3428 77.8343 67.1133 77.4537 66.9046C77.0721 66.6959 76.6156 66.5013 76.0812 66.32C75.5815 66.1519 75.0499 65.9951 74.4856 65.8572C74.4509 65.8468 74.4134 65.8383 74.3777 65.8298C73.773 65.6834 73.2171 65.5512 72.7099 65.4294C72.2027 65.3047 71.7809 65.197 71.4452 65.0997C71.1124 65.0025 70.9455 64.9184 70.9455 64.8504C70.9455 64.7635 71.0262 64.6634 71.1846 64.5529C71.3459 64.4396 71.5502 64.3281 71.8024 64.2148C72.0518 64.1043 72.3284 63.99 72.6293 63.8795C72.9274 63.7681 73.2227 63.6661 73.5124 63.5707C73.639 63.5301 73.7599 63.4951 73.8724 63.4621C74.0234 63.4158 74.1621 63.378 74.2971 63.3459C74.5305 63.2864 74.6974 63.2486 74.8052 63.2297C74.9796 63.2109 75.0902 63.2354 75.138 63.3081C75.1868 63.3809 75.2102 63.4791 75.2102 63.6028C75.2102 63.7218 75.1971 63.8512 75.1671 63.9872C75.1381 64.1251 75.1324 64.2412 75.154 64.3395C75.1437 64.3876 75.2102 64.4018 75.3555 64.3744C75.5009 64.3527 75.6856 64.3017 75.9143 64.228C76.1421 64.1553 76.3896 64.0599 76.6559 63.9437C76.9221 63.8276 77.1687 63.7029 77.3946 63.5707C77.6224 63.4413 77.8137 63.3081 77.9693 63.1787C78.1221 63.0465 78.1999 62.9219 78.1999 62.8057C78.1999 62.5516 78.1493 62.3212 78.0471 62.1106C77.9477 61.9019 77.8081 61.7234 77.6337 61.5779C77.4621 61.4315 77.2549 61.3182 77.0187 61.2341C76.7824 61.1529 76.5321 61.1123 76.2715 61.1123C75.963 61.1123 75.5674 61.1444 75.0949 61.2124C74.7434 61.2634 74.3721 61.3314 73.9887 61.4183C73.8602 61.4476 73.728 61.4806 73.594 61.5127C73.068 61.6421 72.5384 61.7999 72.0068 61.9812C71.4724 62.1625 70.9887 62.3627 70.5537 62.5875C70.1187 62.8123 69.7559 63.0503 69.4662 63.3044C69.1765 63.5565 69.0124 63.8238 68.9721 64.1081C68.9637 64.2734 68.9834 64.4622 69.0312 64.6766C69.079 64.8929 69.1493 65.1092 69.2402 65.3292C69.334 65.5484 69.439 65.7571 69.5599 65.9573C69.6837 66.1575 69.8102 66.3256 69.9471 66.4635C70.0999 66.6288 70.369 66.7856 70.7505 66.9367C71.1349 67.0878 71.5643 67.2399 72.0424 67.3891C72.5206 67.5402 73.0174 67.6894 73.5302 67.8358C74.0431 67.9822 74.5052 68.1257 74.9159 68.2665C75.0846 68.326 75.2412 68.3855 75.3827 68.445C75.5815 68.5262 75.7502 68.6102 75.8927 68.6915C76.1187 68.8218 76.2181 68.9569 76.1909 69.0948C76.1881 69.1033 76.1852 69.1136 76.1824 69.124C76.1074 69.3271 75.9546 69.5056 75.7259 69.6539C75.4999 69.8059 75.2262 69.9268 74.9065 70.0222C74.5868 70.1138 74.2399 70.1818 73.8612 70.2252C73.4824 70.2715 73.1149 70.2847 72.7521 70.2715C72.3865 70.2555 72.0452 70.212 71.7209 70.1393C71.3984 70.0666 71.1321 69.9665 70.9315 69.839C70.7646 69.7417 70.6521 69.6416 70.5827 69.533C70.5152 69.4244 70.4618 69.3224 70.4243 69.2241C70.384 69.1269 70.3465 69.0428 70.309 68.9701C70.2687 68.8974 70.1909 68.8407 70.0755 68.802C69.9977 68.7727 69.9143 68.8237 69.8234 68.9559C69.7296 69.0853 69.6462 69.2591 69.5684 69.4725C69.5627 69.4943 69.5552 69.5131 69.5496 69.5349C69.5009 69.6916 69.4605 69.8541 69.4315 70.0269C69.3968 70.2243 69.3752 70.3896 69.3668 70.5246C69.3555 70.6899 69.3612 70.8571 69.3855 71.0224C69.4127 71.1876 69.4605 71.3472 69.5337 71.504C69.6059 71.6608 69.708 71.7959 69.843 71.913C69.859 71.9262 69.8749 71.9404 69.8918 71.9479C70.0202 72.0509 70.1787 72.1264 70.3671 72.1774C70.7731 72.2832 71.2512 72.3644 71.7959 72.4239C72.3434 72.4834 72.9021 72.4995 73.4721 72.4749C74.044 72.4504 74.6055 72.3748 75.1559 72.2501C75.6255 72.1415 76.0531 71.9744 76.4318 71.7524C76.4965 71.7146 76.5584 71.674 76.6202 71.6334C77.0665 71.3416 77.4068 71.0006 77.6431 70.6049C77.8793 70.2101 78.049 69.8201 78.1427 69.4338C78.2374 69.0485 78.2777 68.6886 78.259 68.3524Z" fill="#203E43"/>
<path d="M87.5137 62.3544C87.4733 62.1192 87.433 61.9029 87.3824 61.7027C87.3346 61.5025 87.2802 61.3325 87.2155 61.1908C87.1508 61.0492 87.0918 60.9793 87.0355 60.9793C86.7533 60.95 86.4149 60.9254 86.0202 60.9065C85.7165 60.8933 85.4024 60.882 85.0724 60.8744C84.9674 60.8716 84.8624 60.8688 84.7555 60.8688C84.3121 60.8659 83.8508 60.8659 83.3727 60.8773C83.3512 60.8773 83.3296 60.8773 83.308 60.8801C82.8515 60.8886 82.4108 60.899 81.9862 60.9122C81.5399 60.9283 81.1218 60.95 80.7318 60.9802C80.3399 61.0076 80.0043 61.0397 79.7221 61.0671C79.663 61.0671 79.6068 61.1351 79.5505 61.273C79.4915 61.408 79.438 61.5733 79.3893 61.7707C79.3405 61.9624 79.3012 62.174 79.274 62.3988C79.2449 62.6235 79.228 62.8266 79.228 63.0127C79.228 63.1968 79.2496 63.3375 79.2871 63.4348C79.3274 63.5321 79.3893 63.5566 79.4774 63.5075C79.6893 63.4509 79.9021 63.3989 80.114 63.3536C80.3287 63.3101 80.5405 63.2639 80.7533 63.2157V63.2318C80.9652 63.2129 81.178 63.1968 81.3899 63.1855C81.6046 63.177 81.8165 63.1666 82.0293 63.1581C82.0002 63.7616 81.973 64.3944 81.943 65.0574C81.914 65.7204 81.8868 66.3673 81.8624 67.0001C81.838 67.6329 81.8193 68.2364 81.8062 68.8134C81.8005 68.9976 81.7949 69.1733 81.793 69.3433V69.3461C81.7846 69.7059 81.7771 70.0355 81.7743 70.334C81.7687 70.7722 81.7743 71.1264 81.7902 71.3918C81.8062 71.66 81.8305 71.8007 81.8708 71.8111C81.8605 71.8489 81.914 71.898 82.0377 71.9575C82.1587 72.0142 82.3087 72.0765 82.4943 72.1445C82.6021 72.1851 82.7118 72.2229 82.8299 72.2606C82.9133 72.2852 82.9987 72.3116 83.0877 72.3362C83.3024 72.3957 83.5012 72.4392 83.6924 72.4684C83.8799 72.4958 84.0365 72.5062 84.1546 72.4958C84.2755 72.4873 84.343 72.442 84.3533 72.3636C84.3318 72.3447 84.3158 72.1719 84.3074 71.847C84.299 71.5193 84.2943 71.0999 84.2943 70.5833C84.2943 70.0667 84.2999 69.4821 84.3074 68.8276C84.3158 68.1759 84.329 67.5129 84.3449 66.8414C84.358 66.1709 84.3768 65.5126 84.4012 64.8742C84.4255 64.2357 84.4574 63.67 84.4977 63.1723C84.9599 63.2015 85.4268 63.2431 85.8974 63.2969C86.3643 63.3508 86.848 63.4216 87.3393 63.5085C87.4283 63.5576 87.4874 63.533 87.5221 63.4273C87.554 63.3272 87.5727 63.1808 87.5727 62.989C87.5727 62.7983 87.5512 62.5867 87.5137 62.3544Z" fill="#203E43"/>
<path d="M96.0017 71.7429C95.9239 71.367 95.8114 70.8825 95.6605 70.2893C95.5105 69.6943 95.3305 69.0257 95.1233 68.2786C94.9161 67.5316 94.7014 66.7741 94.4783 65.9978C94.2552 65.2243 94.0349 64.4744 93.8174 63.7491C93.5999 63.0209 93.4039 62.3796 93.2296 61.8252C93.2296 61.8064 93.2211 61.7875 93.1996 61.7686C93.2399 61.7166 93.208 61.6628 93.1058 61.5976C93.0308 61.5514 92.9314 61.5032 92.8105 61.4541C92.773 61.438 92.7299 61.4248 92.6867 61.4078C92.5067 61.3426 92.308 61.2888 92.0849 61.2397C92.0549 61.234 92.0286 61.2283 92.0014 61.2208C91.8083 61.183 91.6283 61.1528 91.4586 61.1292C91.2655 61.1046 91.1014 61.1018 90.9674 61.116C90.8305 61.1292 90.7574 61.1726 90.7499 61.2406C90.5164 61.7875 90.253 62.4174 89.9577 63.1314C89.6624 63.8482 89.3642 64.5896 89.0577 65.3556C88.7539 66.1187 88.453 66.8761 88.1577 67.6279C87.8624 68.3778 87.6074 69.0484 87.3899 69.6434C87.1724 70.2384 87.0008 70.7228 86.8742 71.0968C86.7477 71.4727 86.6999 71.6758 86.7289 71.7032C86.7102 71.7438 86.7561 71.7948 86.8658 71.8571C86.9783 71.9223 87.1208 71.9922 87.2952 72.0687C87.4696 72.1471 87.658 72.2198 87.8614 72.2878C88.063 72.3577 88.2561 72.4125 88.4333 72.4502C88.6133 72.488 88.7586 72.5069 88.8683 72.5012C88.9808 72.4956 89.0352 72.4606 89.0352 72.3926C89.0267 72.3822 89.0408 72.3142 89.0811 72.1952C89.1158 72.0734 89.1721 71.9081 89.2396 71.7032C89.3071 71.5001 89.3896 71.2621 89.4842 70.9892C89.5752 70.7399 89.6699 70.4669 89.7739 70.1722C89.7852 70.143 89.7955 70.1127 89.8058 70.0835C89.9886 70.0835 90.2305 70.075 90.5361 70.0617C90.8427 70.0485 91.1539 70.0268 91.4821 70.0022C91.6321 69.9919 91.783 69.9777 91.9283 69.9645C92.0952 69.9484 92.2583 69.9323 92.4167 69.9163C92.7149 69.8813 92.9539 69.8511 93.1255 69.8218C93.2033 70.1817 93.2755 70.5141 93.3374 70.823C93.3992 71.129 93.4527 71.3962 93.4958 71.6267C93.5389 71.8562 93.5708 72.0375 93.5924 72.1763C93.6111 72.3114 93.6196 72.3851 93.6196 72.3955C93.6008 72.4635 93.6514 72.5145 93.7724 72.5466C93.8933 72.5815 94.0461 72.6032 94.2289 72.6146C94.4117 72.6231 94.6133 72.6202 94.8308 72.6061C95.0483 72.59 95.2499 72.5711 95.4402 72.5466C95.6286 72.522 95.7842 72.4956 95.9052 72.4606C96.0261 72.4257 96.0796 72.3898 96.0721 72.3492C96.103 72.3218 96.0767 72.1197 96.0017 71.7429ZM92.4261 68.4987C92.3183 68.4959 92.2002 68.493 92.0746 68.4959C91.9911 68.4959 91.9058 68.4959 91.8139 68.4987C91.588 68.5044 91.3517 68.5091 91.1052 68.5147C90.8577 68.5176 90.6139 68.5261 90.3721 68.5336C90.4527 68.3221 90.5333 68.1115 90.6167 67.898V67.8952C90.7883 67.4485 90.9608 66.9998 91.1352 66.5399C91.363 65.9336 91.5917 65.349 91.8177 64.7946C91.8449 64.7294 91.8683 64.6652 91.8955 64.6029C92.0164 65.0467 92.1374 65.5067 92.2555 65.9912V65.994C92.2986 66.165 92.3389 66.3406 92.3821 66.5191C92.5433 67.1925 92.6933 67.8555 92.8386 68.5081C92.743 68.5072 92.6033 68.5044 92.4261 68.4987Z" fill="#203E43"/>
<path d="M114.117 62.3544C114.077 62.1192 114.034 61.9029 113.986 61.7027C113.934 61.5025 113.881 61.3325 113.816 61.1908C113.754 61.0501 113.695 60.9793 113.636 60.9793C113.354 60.95 113.016 60.9254 112.621 60.9065C112.223 60.8877 111.802 60.8744 111.359 60.8688C110.913 60.8659 110.452 60.8659 109.973 60.8773C109.917 60.8773 109.861 60.8801 109.807 60.8801C109.742 60.8829 109.68 60.8829 109.621 60.8858C109.267 60.8943 108.922 60.9018 108.587 60.9132C108.141 60.9292 107.724 60.9509 107.332 60.9812C106.941 61.0085 106.605 61.0406 106.323 61.068C106.267 61.068 106.207 61.136 106.151 61.2739C106.092 61.409 106.039 61.5743 105.99 61.7716C105.941 61.9634 105.904 62.1749 105.875 62.3997C105.846 62.6245 105.832 62.8275 105.832 63.0136C105.832 63.1978 105.85 63.3385 105.888 63.4358C105.928 63.533 105.99 63.5576 106.078 63.5085C106.29 63.4518 106.503 63.3999 106.715 63.3545C106.927 63.3111 107.141 63.2648 107.354 63.2166V63.2327C107.566 63.2138 107.779 63.1978 107.991 63.1864C108.205 63.1779 108.417 63.1675 108.63 63.159C108.603 63.7625 108.571 64.3953 108.544 65.0583C108.515 65.7213 108.487 66.3683 108.463 67.001C108.439 67.6338 108.42 68.2373 108.407 68.8144C108.391 69.3877 108.38 69.8967 108.378 70.3349C108.372 70.7731 108.378 71.1273 108.391 71.3927C108.407 71.6609 108.431 71.8016 108.472 71.812C108.46 71.8498 108.517 71.8989 108.638 71.9584C108.759 72.0151 108.912 72.0774 109.098 72.1454C109.151 72.1672 109.208 72.186 109.265 72.2049C109.334 72.2295 109.404 72.254 109.479 72.2758C109.547 72.2975 109.619 72.3192 109.691 72.3381C109.903 72.3976 110.102 72.441 110.293 72.4703C110.482 72.4977 110.637 72.5081 110.755 72.4977C110.879 72.4892 110.944 72.4439 110.954 72.3655C110.932 72.3466 110.919 72.1738 110.908 71.8489C110.9 71.5212 110.895 71.1018 110.895 70.5852C110.895 70.0686 110.901 69.484 110.908 68.8295C110.918 68.1778 110.932 67.5148 110.946 66.8433C110.959 66.1728 110.977 65.5145 111.005 64.876C111.026 64.2376 111.058 63.6719 111.098 63.1742C111.561 63.2034 112.027 63.245 112.498 63.2988C112.966 63.3526 113.446 63.4235 113.941 63.5104C114.03 63.5595 114.089 63.5349 114.124 63.4291C114.158 63.329 114.174 63.1827 114.174 62.9909C114.174 62.7983 114.153 62.5867 114.117 62.3544Z" fill="#203E43"/>
<path d="M117.679 61.6226C117.561 61.5631 117.408 61.5121 117.211 61.4687C117.018 61.4224 116.8 61.3903 116.558 61.3657C116.319 61.3412 116.096 61.3308 115.893 61.3365C115.688 61.3421 115.522 61.361 115.39 61.396C115.261 61.4281 115.205 61.4829 115.223 61.5499C115.196 62.1421 115.17 62.8051 115.146 63.5361C115.121 64.2661 115.1 65.0075 115.078 65.7574C115.059 66.5073 115.043 67.2402 115.027 67.957C115.014 68.6739 115.006 69.3123 115.006 69.8705C115.006 70.4334 115.016 70.8848 115.035 71.2314C115.054 71.578 115.084 71.7594 115.123 71.7782C115.123 71.8189 115.182 71.8727 115.303 71.9407C115.424 72.0087 115.577 72.0842 115.76 72.1683C115.945 72.2495 116.141 72.3307 116.356 72.4091C116.444 72.4412 116.53 72.4715 116.611 72.4979C116.726 72.5357 116.834 72.5706 116.936 72.598C117.111 72.6471 117.247 72.6736 117.35 72.6792C117.452 72.6821 117.486 72.6519 117.459 72.5848C117.438 72.5631 117.427 72.4167 117.422 72.1381C117.416 71.8595 117.413 71.4911 117.413 71.034C117.413 70.5769 117.416 70.0546 117.422 69.47C117.427 68.9695 117.43 68.4557 117.438 67.9249C117.441 67.8352 117.441 67.7464 117.443 67.6567C117.455 67.0343 117.468 66.4091 117.486 65.7867C117.505 65.1643 117.532 64.5854 117.559 64.047C117.589 63.5115 117.618 63.0459 117.652 62.6511C117.687 62.2564 117.727 61.9721 117.776 61.7964C117.827 61.7369 117.792 61.6802 117.679 61.6226Z" fill="#203E43"/>
<path d="M128.689 63.726C128.56 63.0904 128.323 62.5115 127.987 61.9864C127.646 61.4669 127.19 61.0448 126.615 60.7227C126.217 60.5008 125.751 60.3572 125.211 60.2949C124.972 60.2656 124.714 60.2514 124.445 60.2543C123.945 60.2656 123.475 60.3572 123.035 60.5385C123.007 60.547 122.978 60.5603 122.951 60.5707C122.486 60.7709 122.064 61.0363 121.681 61.3744C121.299 61.7096 120.958 62.1054 120.657 62.5568C120.356 63.0111 120.104 63.4899 119.897 63.9961C119.688 64.5052 119.529 65.0294 119.419 65.5762C119.306 66.1202 119.247 66.6529 119.236 67.1704C119.217 67.8712 119.287 68.5635 119.445 69.2425C119.606 69.9273 119.864 70.5336 120.221 71.0634C120.578 71.5942 121.048 72.0183 121.628 72.3356C121.983 72.5301 122.386 72.6576 122.84 72.72C123.127 72.7634 123.436 72.7766 123.764 72.7663C124.209 72.753 124.65 72.6473 125.091 72.447C125.26 72.3715 125.429 72.2818 125.599 72.176C126.201 71.8001 126.745 71.291 127.229 70.6469C127.716 70.0028 128.107 69.251 128.413 68.3878C128.717 67.5274 128.875 66.599 128.883 65.6036C128.885 64.9916 128.82 64.3645 128.689 63.726ZM126.043 67.9496C125.887 68.6371 125.68 69.2189 125.425 69.6978C125.272 69.9849 125.1 70.2333 124.915 70.4392C124.794 70.5742 124.666 70.6932 124.534 70.7933C124.195 71.0474 123.838 71.1692 123.459 71.1588C123.199 71.1588 122.974 71.0965 122.788 70.9747C122.767 70.9614 122.745 70.9473 122.726 70.9312C122.527 70.7801 122.366 70.5874 122.24 70.3551C122.116 70.1228 122.019 69.8574 121.957 69.5646C121.893 69.2728 121.848 68.98 121.821 68.6881C121.792 68.3963 121.777 68.1196 121.783 67.8627C121.789 67.603 121.793 67.3895 121.805 67.2101C121.834 66.48 121.95 65.7925 122.153 65.1427C122.355 64.4958 122.602 63.9281 122.895 63.4408C122.927 63.387 122.962 63.3322 122.994 63.2784C123.255 62.8666 123.532 62.5313 123.821 62.2716C124.149 61.9798 124.455 61.8277 124.734 61.8202C124.864 61.8145 124.982 61.8305 125.092 61.8711C125.172 61.8957 125.244 61.9363 125.315 61.9845C125.482 62.1063 125.621 62.2688 125.737 62.469C125.852 62.6692 125.948 62.9015 126.026 63.1698C126.104 63.438 126.16 63.7166 126.201 64.0028C126.238 64.2899 126.265 64.5713 126.278 64.8499C126.294 65.1285 126.303 65.3826 126.303 65.6187C126.282 66.4857 126.196 67.2649 126.043 67.9496Z" fill="#203E43"/>
<path d="M137.307 64.9892C137.288 64.5132 137.189 64.0636 137.017 63.6443C136.843 63.2278 136.636 62.8594 136.391 62.543C136.152 62.2238 135.894 61.9698 135.618 61.7743C135.341 61.5797 135.086 61.4626 134.855 61.4248C134.541 61.371 134.256 61.4768 133.995 61.7384C133.968 61.7658 133.939 61.7979 133.912 61.83C133.632 62.1624 133.369 62.6007 133.13 63.1475C133.157 62.7659 133.186 62.4363 133.216 62.1549C133.243 61.8706 133.278 61.6628 133.315 61.524C133.364 61.4645 133.331 61.4078 133.216 61.3512C133.098 61.2917 132.945 61.2397 132.751 61.1972C132.558 61.1509 132.34 61.1188 132.096 61.0943C131.857 61.0697 131.633 61.0593 131.43 61.065C131.226 61.0707 131.06 61.0895 130.93 61.1245C130.802 61.1566 130.743 61.2114 130.763 61.2784C130.733 61.8706 130.707 62.5336 130.683 63.2646C130.658 63.9956 130.637 64.737 130.618 65.4859C130.597 66.2358 130.583 66.9687 130.567 67.6855C130.552 68.4024 130.546 69.0408 130.546 69.598C130.546 70.1609 130.554 70.6124 130.573 70.959C130.592 71.3056 130.624 71.4869 130.661 71.5058C130.661 71.5464 130.723 71.6003 130.841 71.6683C130.962 71.7363 131.115 71.8118 131.298 71.8959C131.483 71.9771 131.682 72.0583 131.894 72.1367C132.106 72.2151 132.3 72.2774 132.474 72.3256C132.584 72.3558 132.682 72.3794 132.761 72.3908C132.807 72.3993 132.849 72.404 132.888 72.4068C132.99 72.4097 133.025 72.3794 132.997 72.3124C132.979 72.301 132.966 72.2038 132.96 72.0177V71.9988C132.954 71.7986 132.952 71.5304 132.947 71.1923C132.941 70.857 132.938 70.4698 132.938 70.0315C132.938 69.5933 132.944 69.1249 132.952 68.6272C132.983 68.3457 133.027 68.0152 133.091 67.6345C133.153 67.2558 133.228 66.8658 133.314 66.4653C133.402 66.0649 133.497 65.6729 133.599 65.28C133.699 64.8928 133.804 64.5415 133.911 64.2298C134.016 63.9163 134.122 63.6613 134.23 63.461C134.268 63.393 134.302 63.3364 134.335 63.2882C134.403 63.1938 134.464 63.1362 134.521 63.1173C134.695 63.0682 134.825 63.2117 134.913 63.5498C134.999 63.8823 135.055 64.329 135.08 64.8862C135.104 65.4406 135.098 66.0658 135.064 66.7638C135.032 67.4617 134.983 68.1464 134.918 68.8255C134.857 69.5017 134.782 70.1298 134.695 70.7087C134.606 71.2905 134.524 71.7344 134.448 72.0479C134.41 72.1046 134.445 72.1669 134.556 72.2368C134.668 72.3048 134.819 72.3719 135.015 72.4399C135.208 72.5079 135.421 72.5693 135.652 72.624C135.882 72.6779 136.101 72.7185 136.297 72.7487C136.495 72.7789 136.662 72.7865 136.791 72.7789C136.922 72.7676 136.976 72.727 136.957 72.6599C136.949 71.8619 136.966 71.0988 137.008 70.3734C137.054 69.6481 137.097 68.9662 137.148 68.3278C137.194 67.6893 137.239 67.0915 137.276 66.5362C137.316 65.9855 137.326 65.4689 137.307 64.9892Z" fill="#203E43"/>
<path d="M104.481 61.7968C104.433 61.9715 104.391 62.2624 104.357 62.6666C104.323 63.0708 104.295 63.544 104.271 64.0833C104.246 64.6254 104.225 65.2119 104.205 65.8447C104.185 66.4793 104.171 67.114 104.163 67.7525C104.153 68.3909 104.145 69.0105 104.139 69.6102C104.138 69.7896 104.139 70.0361 104.139 70.2977C104.139 71.6455 102.809 72.503 102.805 72.5049C100.296 73.9981 98.3429 73.082 97.7851 72.657C97.6463 72.5512 97.5638 72.3868 97.561 72.2112L97.5348 70.5754C97.5329 70.4668 97.6707 70.4205 97.7345 70.5074C98.5079 71.5661 99.5907 71.568 100.434 71.3376C101.198 71.1298 101.724 70.4271 101.724 69.63V69.6168C101.463 69.9285 101.158 70.0843 100.809 70.0843C100.317 70.1041 99.8682 70.0097 99.4613 69.7991C99.0545 69.5903 98.7076 69.3108 98.417 68.9595C98.1263 68.6081 97.8967 68.2077 97.727 67.7525C97.5573 67.3001 97.4635 66.8345 97.4438 66.3566C97.4242 66.0355 97.4213 65.7616 97.4298 65.5311C97.4382 65.3026 97.4513 65.0872 97.4673 64.888C97.4813 64.6887 97.501 64.4866 97.5235 64.2816C97.5488 64.0767 97.5695 63.8377 97.5891 63.5648C97.6088 63.2918 97.6267 62.9679 97.6407 62.5939C97.6548 62.2199 97.6566 61.7628 97.6482 61.2263C97.6285 61.1583 97.6857 61.1196 97.8141 61.1102C97.9454 61.0998 98.1113 61.1064 98.3148 61.1319C98.5182 61.1565 98.7357 61.198 98.9673 61.2566C99.1988 61.3151 99.4135 61.3765 99.6057 61.4388C99.7988 61.5031 99.9507 61.5711 100.062 61.6438C100.174 61.7165 100.211 61.7779 100.172 61.8261C100.094 62.1491 100.016 62.5231 99.9404 62.9528C99.8626 63.3806 99.7951 63.8245 99.737 64.2826C99.6788 64.7406 99.6376 65.1968 99.6132 65.6501C99.5888 66.1025 99.5935 66.5115 99.6273 66.877C99.661 67.2425 99.7248 67.5475 99.8166 67.7912C99.9085 68.0358 100.042 68.1765 100.215 68.2152C100.341 68.2436 100.464 68.1888 100.585 68.0462C100.707 67.9055 100.821 67.7128 100.927 67.4691C101.033 67.2264 101.136 66.9393 101.231 66.6078C101.329 66.2763 101.415 65.9363 101.493 65.585C101.571 65.2336 101.638 64.8823 101.696 64.5319C101.753 64.1825 101.802 63.8595 101.842 63.5676C101.85 63.1983 101.861 62.8442 101.87 62.5089C101.878 62.1717 101.894 61.8525 101.914 61.5512C101.894 61.4832 101.951 61.4322 102.087 61.3982C102.223 61.3642 102.392 61.3444 102.595 61.3397C102.799 61.334 103.022 61.3453 103.263 61.368C103.505 61.3926 103.723 61.4266 103.915 61.471C104.109 61.5135 104.264 61.5654 104.38 61.624C104.495 61.6816 104.529 61.7382 104.481 61.7968Z" fill="#203E43"/>
<path d="M85.6802 90.1032C76.5049 90.1032 68.0318 87.0564 61.2096 81.9101H54.9546C58.8415 85.5925 63.289 88.5146 68.2015 90.6066C73.7383 92.9658 79.6202 94.1615 85.6802 94.1615C91.7421 94.1615 97.6212 92.9658 103.163 90.6056C108.072 88.5137 112.526 85.5887 116.412 81.9092H110.152C103.329 87.0564 94.8574 90.1032 85.6802 90.1032Z" fill="#0C977C"/>
<path d="M127.056 31.3124C124.795 25.9253 121.557 21.0869 117.435 16.9341C113.313 12.7814 108.51 9.52026 103.163 7.23943C97.6211 4.87926 91.742 3.68359 85.6801 3.68359C79.6211 3.68359 73.7392 4.87926 68.2004 7.23848C62.8501 9.52026 58.0501 12.7805 53.9279 16.9332C49.8048 21.0869 46.5658 25.9243 44.3045 31.3114C41.9626 36.8903 40.7729 42.8167 40.7729 48.9234C40.7729 51.3393 40.9586 53.7259 41.3289 56.0748H45.2045C45.3395 56.0748 45.4689 56.0181 45.5598 55.918C46.3473 55.0595 50.1104 50.9625 50.1104 50.9625C50.1142 50.9587 50.1198 50.9568 50.1245 50.9587L52.4486 51.77C52.4608 51.7738 52.4739 51.769 52.4795 51.7568L56.7301 43.1226C56.7564 43.0698 56.8276 43.0631 56.8623 43.1104L58.9117 45.8625C58.9445 45.9069 59.0101 45.9059 59.042 45.8606L66.1201 35.7277C66.1511 35.6833 66.2158 35.6833 66.2467 35.7267L69.5561 40.5349C69.5842 40.5755 69.647 40.5642 69.6592 40.5169L71.9373 31.7289C71.9505 31.6883 72.0011 31.6741 72.0329 31.7024L77.2154 36.2188C77.2333 36.2339 77.2539 36.2443 77.2773 36.249L80.6486 36.895C80.6776 36.9006 80.7039 36.9158 80.7226 36.9384L84.6536 41.4538C84.6686 41.4708 84.6873 41.4831 84.7079 41.4906L89.447 43.2256C89.4723 43.235 89.4948 43.252 89.5098 43.2747L92.6476 47.808C92.6683 47.8383 92.7001 47.8581 92.7358 47.8638L96.2936 48.4125C96.3142 48.4153 96.3339 48.4238 96.3508 48.4361L106.91 56.0738L93.9864 41.4652L87.3826 37.5495L71.9673 25.1697L58.187 37.8234L54.6817 37.7412L44.8248 50.2825C44.8108 49.831 44.8004 49.3787 44.8004 48.9234C44.8004 26.1784 63.1042 7.74187 85.6792 7.74187C108.257 7.74187 126.558 26.1793 126.558 48.9234C126.558 50.1767 126.502 51.4177 126.393 52.6436L116.185 40.0645L111.205 38.0463L99.392 25.1697L87.812 34.4347L88.9108 35.3168L91.892 37.0839L99.4258 30.5795L108.791 41.4812L115.541 45.191L125.8 55.9265C125.891 56.0219 126.018 56.0757 126.149 56.0757H130.031C130.402 53.7269 130.587 51.3403 130.587 48.9244C130.587 42.8167 129.4 36.8912 127.056 31.3124Z" fill="#0C977C"/>
<path d="M85.6801 16.0713L85.2085 16.3867L71.9673 25.1691L85.6801 18.2633L99.3929 25.1691L86.1517 16.3867L85.6801 16.0713Z" fill="#203E43"/>
<path d="M85.3791 21.5615H83.8594V23.0925H85.3791V21.5615Z" fill="#203E43"/>
<path d="M85.3791 23.6387H83.8594V25.1696H85.3791V23.6387Z" fill="#203E43"/>
<path d="M87.4406 21.5615H85.9209V23.0925H87.4406V21.5615Z" fill="#203E43"/>
<path d="M87.4406 23.6387H85.9209V25.1696H87.4406V23.6387Z" fill="#203E43"/>
<path d="M103.327 58.7471C102.509 59.7142 101.079 59.8407 101.079 59.8407C101.079 59.8407 99.6494 59.7132 98.8301 58.7471C98.0135 57.7781 98.1176 56.335 98.1176 56.335C98.1176 56.335 99.5501 56.4625 100.367 57.4315C100.933 58.0992 101.057 58.9964 101.079 59.4847C101.102 58.9964 101.225 58.0992 101.792 57.4315C102.608 56.4625 104.038 56.335 104.038 56.335C104.038 56.335 104.144 57.7781 103.327 58.7471Z" fill="#203E43"/>
<path d="M141.094 59.5312H140.242V61.9131H139.894V59.5312H139.043V59.2432H141.094V59.5312Z" fill="#203E43"/>
<path d="M141.938 59.2432L142.804 61.4211L143.671 59.2432H144.124V61.9131H143.774V60.8733L143.807 59.7513L142.937 61.9131H142.669L141.801 59.7569L141.836 60.8733V61.9131H141.486V59.2432H141.938Z" fill="#203E43"/>
</svg>
