<svg width="202" height="83" viewBox="0 0 202 83" fill="none" xmlns="http://www.w3.org/2000/svg">
<g clip-path="url(#clip0_555_39)">
<path d="M0 53.8171V49.751L0.186124 49.7412C0.35667 49.7322 0.25582 48.8851 0.352876 48.4959L0.564761 47.6465L0.78783 46.7512C0.824775 46.6027 0.921831 46.352 0.98294 46.1778L1.19922 45.5607C1.36577 45.0853 1.86363 44.0757 2.14002 43.6161L2.45975 43.0845C2.53364 42.9617 2.63149 42.7488 2.70658 42.6444L3.20464 41.9507C3.84888 41.0536 5.00177 39.7718 5.85231 39.0931L6.65212 38.4548C6.95008 38.2171 7.25802 37.9862 7.57495 37.7744L8.19783 37.3578L8.90737 36.8989C9.12006 36.7614 9.35331 36.6905 9.47014 36.4132C8.54351 35.3267 7.79742 34.1619 7.2748 32.8573C7.15597 32.5609 6.99222 32.2573 6.90135 31.9765L6.71762 31.4084C6.64893 31.196 6.29905 29.7987 6.29166 29.7244C6.17523 28.535 6.21477 27.3638 6.26889 26.1505C6.27828 25.9403 6.44583 25.533 6.51772 25.3144C6.85142 24.2977 7.26861 23.3282 7.96717 22.5446C8.59164 21.844 9.20373 21.1825 9.9636 20.6397C11.3118 19.6768 13.1764 18.8921 14.7247 18.4902L15.5126 18.2857L16.3349 18.1476C16.4913 18.1213 16.7705 17.963 16.9127 18.0122C17.2809 18.1396 17.5627 17.8331 17.8535 17.8317L24.114 17.8018C24.399 17.8004 24.6756 17.9642 24.9563 17.9828L26.02 18.0535L26.9011 18.2815L27.7552 18.5022C28.4703 18.687 29.8449 19.2704 30.576 19.6425C30.8847 19.7996 32.1816 20.6523 32.4444 20.8675C32.8764 21.2213 33.2993 21.623 33.6438 22.0579L34.3546 22.9556C34.6907 23.3802 35.3311 24.6504 35.5428 25.2103L35.7393 25.7302C35.8302 25.9708 35.9047 26.2123 35.968 26.4683L36.1761 27.3078C36.2649 27.6666 36.3742 27.9887 36.3342 28.3873C36.3059 28.6704 36.4407 28.9416 36.4732 29.1888C36.5335 29.6458 36.5455 30.081 36.5457 30.5697L36.5515 54.1972L36.5795 56.5241C36.6126 56.614 36.7285 56.8406 36.738 56.9349C36.759 57.3742 36.7303 57.9734 36.8099 58.396L37.002 59.4159C37.0957 59.913 37.3288 60.4599 37.5061 60.9259C37.7589 61.5907 38.2544 61.9138 38.893 62.1261C40.0062 62.496 41.453 61.6682 42.1448 60.7214C43.1282 59.3756 43.48 58.5933 44.1456 57.0705L44.3346 56.6381C44.4318 56.4155 44.563 56.1695 44.6709 55.9852L45.1032 56.4839C45.2891 56.6981 45.1899 56.8713 45.0946 57.1215L44.8588 57.7404C44.5884 58.4502 44.1269 59.561 43.7758 60.2164C43.3612 60.9901 42.2648 62.6144 41.61 63.1266L40.7942 63.7649C40.1154 64.2959 38.3381 65.02 37.568 65.138C36.7894 65.2574 34.1617 65.2654 33.3938 65.1246C32.6803 64.9941 31.0852 64.4176 30.5814 63.9722C29.9691 63.4308 29.3642 62.9122 28.9454 62.2616C28.3791 61.3814 28.0459 60.4647 27.758 59.506C27.7005 59.3146 27.6523 59.1348 27.6421 58.921C27.6298 58.6622 27.5519 58.4398 27.503 58.1992C27.3887 57.6383 27.456 57.1205 27.3596 56.4825L26.5602 57.7683C25.5942 59.3222 23.805 60.9756 22.2516 61.9985C21.4695 62.5133 19.8086 63.3812 18.9239 63.6794L18.3877 63.8601L17.7229 64.0736L16.9271 64.3072L16.4156 64.3836C16.1055 64.4982 15.8367 64.5895 15.4918 64.5544C15.2555 64.5305 14.9732 64.7087 14.7777 64.7206C13.4536 64.8025 12.1785 64.8015 10.8559 64.7222C10.663 64.7107 10.3844 64.5145 10.1451 64.5498C9.78766 64.6024 9.48192 64.4581 9.16539 64.3919C7.8799 64.1229 6.11592 63.3571 5.02094 62.6048C2.9634 61.1916 1.49758 59.0635 0.805803 56.7131L0.569554 55.91L0.353675 55.0792C0.257617 54.7093 0.347883 53.8307 0.187322 53.8243L0 53.8169L0 53.8171ZM15.2216 34.2322L15.8133 34.0357L16.5057 33.8158C16.7445 33.7399 16.9884 33.6799 17.2532 33.6225L18.2661 33.403L19.2468 33.2003L20.4339 32.9629C20.6919 32.9113 20.9613 32.8206 21.2443 32.8266C21.665 32.8356 21.9947 32.6723 22.3856 32.6518L24.0036 32.5667C24.3337 32.5494 24.6464 32.4128 24.9783 32.4092L27.4025 32.3829L27.4043 30.8531L27.2399 30.5292C27.214 29.8428 27.2793 29.119 27.1599 28.4511L26.9484 27.2673L26.7259 26.2408C26.679 26.0244 26.5921 25.7523 26.5198 25.5382L26.3467 25.026C26.0208 24.0619 25.447 22.9889 24.8193 22.1699C23.8502 20.9052 22.4802 19.9766 20.9483 19.5217L20.2743 19.3216L19.5108 19.2468C19.2488 19.2211 19.0295 19.1247 18.7753 19.1005C18.0654 19.0332 17.4377 19.2179 16.7519 19.257L15.6579 19.3196L14.7026 19.5638C13.7278 19.8129 14.16 19.7286 13.4095 20.0061C11.7919 20.6044 10.5234 21.3583 9.33554 22.6297C9.11307 22.8679 8.82829 23.1187 8.65335 23.3712L8.21899 23.9983C8.15289 24.0937 8.05703 24.2817 8.00132 24.3989L7.56357 25.3204C7.52103 25.4099 7.16875 26.7577 7.15238 26.8691C7.04474 27.6026 7.0689 28.3626 7.15537 29.0736C7.17435 29.2301 7.28937 29.47 7.28997 29.6566C7.29097 29.9149 7.57176 30.8677 7.65084 31.0857L7.91225 31.8059L8.3518 32.947C8.487 33.2978 8.69309 33.6155 8.88281 33.94L9.50588 35.0062C9.54483 35.0728 10.3528 36.2492 10.3714 36.1513C11.1566 35.7855 11.8512 35.4515 12.6191 35.1635L14.4451 34.4784L15.2222 34.2316L15.2216 34.2322ZM9.8977 52.5243C10.1551 53.3942 9.98198 53.1448 10.3125 54.2252C10.3812 54.45 10.4603 54.7436 10.5395 54.9288L11.2319 56.5449C11.3414 56.8002 11.5399 57.0308 11.6914 57.2798C12.7195 58.97 14.546 60.5014 16.417 60.8994L17.4321 61.1153C17.764 61.1858 18.2587 61.1962 18.5768 61.1127C19.7615 60.802 19.0555 61.1454 20.2188 60.8034L20.8432 60.6198C22.5909 60.1061 24.5999 58.781 25.7316 57.3156C26.4569 56.3764 26.7225 55.9315 27.084 54.8092C27.4476 53.68 27.0009 54.0862 27.4059 53.3202L27.4055 33.4435C26.5558 33.429 25.8412 33.4365 25.075 33.5141C24.8781 33.534 24.6007 33.6901 24.3684 33.6699C23.9658 33.6353 23.6687 33.7329 23.3004 33.8495L22.6444 33.9261L21.9009 34.1485L21.1885 34.3674L20.6158 34.5565L19.9775 34.7746C19.1092 35.0712 18.185 35.4854 17.4175 35.957L16.3146 36.6344C15.1124 37.3729 14.7633 37.763 13.7801 38.7106C12.5566 39.89 11.6285 41.2756 10.9597 42.8335C10.7153 43.4028 10.473 43.9599 10.2947 44.5435L10.1038 45.1682C10.0649 45.2954 10.0497 45.5868 10.0173 45.7245C9.88991 46.0665 9.81083 46.3426 9.84498 46.7351C9.85876 46.8933 9.70718 47.1552 9.69281 47.3027C9.58656 48.3896 9.64448 49.513 9.64588 50.6256C9.64627 50.8863 9.73075 51.1088 9.78966 51.3533C9.87334 51.7007 9.79146 52.1654 9.8977 52.5241V52.5243Z" fill="#BEBEBE"/>
<path d="M59.8251 0.000199321L59.8659 52.808L59.902 54.4396L60.0532 54.8746C60.166 55.1991 60.0276 55.7715 60.1175 56.1106C60.3805 57.1036 60.2241 56.8979 60.5427 57.9878L60.7629 58.741C60.8758 59.1269 61.4761 60.397 61.7179 60.7842L62.0287 61.2821C62.1279 61.441 62.331 61.6333 62.4802 61.7892C63.2201 62.5626 63.5608 62.9459 64.622 63.2401L65.3585 63.4442C65.5996 63.511 65.8979 63.4942 66.2143 63.5062C66.2224 63.8201 66.2184 64.1243 66.1683 64.5175L44.6639 64.5197C44.5478 64.5197 44.266 64.4332 44.2147 64.3525C44.166 64.1456 44.1694 63.7531 44.1882 63.5163C45.3956 63.4789 44.6667 63.4974 45.6871 63.2801C46.2311 63.1643 46.7266 62.8721 47.1765 62.555C47.3996 62.3977 47.658 62.2471 47.8286 62.0256L48.59 61.0374C48.8694 60.6748 49.2772 59.9351 49.4434 59.492L49.6365 58.9768L49.852 58.4025C49.9163 58.2311 50.0081 57.9706 50.0477 57.7988L50.2661 56.8488L50.4618 55.8754C50.5751 55.3119 50.5379 54.7209 50.5601 54.1291L50.7279 53.7916V13.9734L50.5629 13.6292C50.5389 12.9389 50.5759 12.2489 50.4599 11.5678L50.2548 10.3649C50.1865 9.96427 49.9686 9.24672 49.8316 8.83412L49.6353 8.24313L49.1708 7.21643C48.6254 6.01113 47.3888 4.54931 46.0849 4.07174L45.5555 3.8778C45.2602 3.76956 44.267 3.94756 44.2073 3.58838C44.1618 3.31551 44.171 3.06337 44.1838 2.79648C45.0964 2.75542 45.9609 2.84332 46.8522 2.73947C47.6199 2.64998 48.3272 2.52859 49.1284 2.56606C49.3741 2.57742 49.6135 2.47836 49.8462 2.42275C50.207 2.33684 50.662 2.38588 50.9988 2.27585C52.0425 1.93501 51.2263 2.38129 52.4565 1.98325C52.6923 1.90691 53.0913 1.95056 53.3408 1.88359L54.1232 1.6733L55.0203 1.45166L55.8962 1.24078C56.1372 1.18277 56.415 1.10843 56.6552 1.03627L57.3396 0.830373L58.0536 0.615504L58.8025 0.390072L59.3552 0.227226C59.483 0.189555 59.5753 0.123779 59.5849 0H59.8245L59.8251 0.000199321Z" fill="#BEBEBE"/>
<path d="M202 54.8866V54.9908C201.682 55.1164 201.355 55.0255 201.029 54.8628L200.542 54.7791C200.285 54.6787 200.053 54.6318 199.787 54.5565L199.049 54.348L198.277 54.1341L197.526 53.9268C197.306 53.8662 197.067 53.7807 196.821 53.6906C196.529 53.5834 196.411 52.7957 196.711 52.6099L200.754 50.103C200.919 50.001 201.299 49.7913 201.408 50.0763L201.441 51.3237L200.613 51.758C200.478 52.812 200.783 52.6085 200.833 53.519C200.872 53.5268 201.169 53.5563 201.268 53.5936L201.835 53.8082C201.862 54.1965 201.886 54.5764 202 54.8864V54.8866ZM199.519 53.169L199.498 52.4309L199.01 52.6579L198.741 52.7726C198.679 52.7989 198.707 53.0817 198.773 53.0889L199.519 53.1692V53.169Z" fill="#BEBEBE"/>
<path d="M134.004 64.5168L112.64 64.5188C112.528 64.5188 112.26 64.392 112.243 64.3021C112.211 64.1227 112.216 63.7663 112.221 63.5146C112.54 63.4829 112.943 63.5337 113.239 63.4446L113.933 63.2361C114.886 62.9497 115.659 62.3785 116.269 61.6077C117.18 60.4578 117.888 58.821 118.186 57.4187C118.249 57.1214 118.363 56.8579 118.356 56.5168C118.353 56.391 118.498 56.1367 118.506 56.0181L118.622 54.2529C118.628 54.1614 118.739 53.9543 118.771 53.8784L118.735 49.6707L117.094 52.1551L116.781 52.6386L116.364 53.2525L115.846 54.0098L115.278 54.7911L114.805 55.4453L114.226 56.2214L113.098 57.64C112.529 58.356 111.965 59.0221 111.307 59.6699C110.464 60.5003 109.671 61.3163 108.78 62.102C108.585 62.2746 108.317 62.4325 108.095 62.6031C107.064 63.3974 104.923 64.6545 103.754 64.9284L102.9 65.1285C102.306 65.2676 100.102 65.262 99.4053 65.1407C99.1809 65.1016 98.8633 64.9722 98.6405 64.9015C97.5051 64.5409 96.2356 63.6912 95.5275 62.7368C94.6488 61.5527 94.0832 60.5208 93.8188 59.0733L93.6273 58.0245C93.5396 57.5449 93.5754 57.0414 93.4979 56.5104C92.5116 58.3745 91.26 59.7763 89.6131 61.1235C88.6892 61.8794 87.7802 62.4062 86.726 62.9702C86.265 63.2168 85.784 63.3884 85.2971 63.6119C85.1623 63.6738 84.9304 63.7121 84.7788 63.7641L84.2003 63.9629L83.4632 64.1971C83.1874 64.2848 82.9078 64.3304 82.6051 64.3902C82.2913 64.4522 81.9822 64.5989 81.6285 64.5556C81.3889 64.5263 81.1117 64.7095 80.9152 64.7211C79.5909 64.7994 78.3162 64.8012 76.995 64.7195C76.7989 64.7073 76.5207 64.514 76.2803 64.5489C75.947 64.5973 75.6684 64.4757 75.3772 64.3986L74.6036 64.1935C74.2836 64.1088 73.38 63.7711 73.1248 63.6489L72.116 63.1662C71.6759 62.9555 71.0502 62.4817 70.6348 62.165C69.3182 61.1602 68.2831 59.8116 67.6201 58.3195C67.272 57.5359 66.8752 56.4805 66.7057 55.6846L66.49 54.6727C66.4027 54.2633 66.4177 53.7827 66.4015 53.3404C66.3704 52.4903 66.0564 52.0859 66.2613 50.5479C66.3097 50.1846 66.4471 49.8318 66.4293 49.4335C66.4145 49.0987 66.5473 48.8523 66.5905 48.5324L66.6871 47.8129L66.9 47.054L67.1141 46.3245C67.3677 45.4605 68.2029 43.6863 68.7083 42.9309L69.582 41.6249C70.247 40.6309 72.3447 38.5464 73.3271 37.8777L75.5627 36.3555L74.9536 35.5155C74.2481 34.5424 73.4217 33.0178 73.0579 31.8634L72.8368 31.1613C72.7713 30.9537 72.4284 29.3854 72.4158 29.2642C72.3191 28.3256 72.3341 27.4097 72.4132 26.4797C72.424 26.3517 72.7851 25.0581 72.8565 24.871C73.4698 23.2668 74.547 21.7671 75.9332 20.7982L76.3647 20.4967C77.4603 19.7309 78.6535 19.1875 79.9219 18.7835L80.4966 18.6003L81.3066 18.3729C81.5311 18.3099 81.7683 18.2296 82.0108 18.2296C82.3229 18.2296 82.6356 18.1166 82.9096 18.0675L84.0911 17.8566C85.3324 17.6352 91.1496 17.7749 92.6426 18.1622L93.4651 18.3755C93.7248 18.4428 93.9606 18.5102 94.2032 18.5913L94.8125 18.795C96.0681 19.2146 97.1585 19.8 98.2373 20.5682C98.7932 20.9641 99.2492 21.4636 99.7452 21.9517C100.36 22.5564 101.21 23.9264 101.519 24.7067L102.071 26.102C102.186 26.3906 102.226 26.6938 102.294 27.0061C102.371 27.3607 102.489 27.675 102.468 28.0717C102.459 28.2522 102.574 28.4839 102.596 28.6409C102.669 29.1657 102.701 29.6682 102.701 30.2403L102.707 54.8363C102.742 54.9838 102.86 55.2278 102.864 55.3392C102.901 56.2059 102.831 57.0791 102.925 57.9272C102.962 58.2519 103.135 58.5563 103.103 58.9228C103.082 59.169 103.185 59.4219 103.245 59.6497C103.435 60.3697 103.727 61.2226 104.254 61.7478C104.35 61.8435 104.668 61.9533 104.797 62.0245C105.935 62.6549 107.965 61.4263 108.886 60.6743C110.158 59.636 111.315 58.4783 112.316 57.174L112.976 56.3137L113.603 55.509L114.24 54.6282L114.666 54.0255C115.595 52.7094 116.488 51.4126 117.305 50.0323L117.901 49.0259L119.46 46.3604L122.37 41.0658L124.677 36.5091L126.609 32.5315C126.823 32.0924 127.01 31.6644 127.189 31.2233C128.39 28.2626 129.659 26.0832 131.571 23.5469L132.019 22.9529C132.565 22.2286 133.22 21.6053 133.923 21.0456L134.919 20.2531C135.124 20.09 135.393 19.923 135.615 19.7795L136.12 19.4534C136.985 18.8941 138.306 18.3129 139.306 18.0598L140.117 17.8545C141.53 17.4967 141.286 17.6097 142.766 17.5802C143.48 17.5658 144.169 17.5782 144.895 17.6352C145.058 17.648 145.327 17.8102 145.525 17.7992C145.834 17.7819 146.093 17.8859 146.368 17.9537C147.511 18.236 149.002 18.9736 149.992 19.7095C150.655 20.2019 151.723 21.3105 152.177 21.9952L152.496 22.4769C153.045 23.3055 153.483 24.3224 153.796 25.2648L154.025 25.9537C154.368 26.987 153.969 26.3374 154.352 27.197C154.38 27.2939 154.387 27.5453 154.386 27.6553L154.383 27.8576C154.38 28.0665 154.556 28.3838 154.565 28.5971L154.603 29.4183C154.604 29.4394 154.622 29.5612 154.627 29.5863C154.633 29.6172 154.725 29.6786 154.742 29.6543C154.759 29.63 154.82 29.5437 154.836 29.5138L155.79 27.7685L156.204 27.0816C156.346 26.846 156.478 26.6222 156.629 26.3968L156.984 25.8648C157.198 25.5445 157.412 25.2459 157.646 24.9401L158.273 24.1183C158.752 23.4921 159.99 22.0129 160.566 21.5381L161.608 20.6784L162.476 20.0273C163.477 19.2762 164.724 18.6611 165.888 18.2459L166.404 18.0621L166.892 17.9623C167.214 17.8965 167.473 17.7907 167.827 17.7945C167.948 17.7957 168.204 17.682 168.318 17.6366C169.495 17.5614 170.681 17.5385 171.865 17.6428C172.004 17.6551 172.271 17.822 172.441 17.8032C172.751 17.7689 172.997 17.9029 173.259 17.9599C175.126 18.3653 176.906 19.5377 178.217 20.9555C179.466 22.3059 180.508 24.2905 180.942 26.0591L181.137 26.8518C181.224 27.2074 181.333 27.5028 181.304 27.914C181.293 28.0599 181.41 28.3079 181.427 28.4388C181.512 29.0754 181.539 29.6746 181.539 30.4183L181.542 53.7472C181.542 53.8999 181.685 54.1078 181.694 54.1985C181.739 54.6418 181.674 55.3691 181.769 55.8393C181.824 56.1064 181.921 56.3394 181.936 56.5993C181.954 56.8957 182.192 57.8899 182.288 58.168L182.531 58.8694C182.94 60.0502 183.928 61.9256 184.947 62.5549L185.389 62.8273C186.163 63.3059 185.5 62.8869 186.101 63.165C186.72 63.4516 186.355 63.1036 186.979 63.4678L187.969 63.5164L188.063 64.0276C188.085 64.149 187.884 64.4817 187.726 64.513L166.245 64.5146C165.929 64.5146 165.792 64.1544 165.808 63.9665L165.846 63.5347C166.144 63.5004 166.492 63.5068 166.765 63.4367L167.34 63.2884C168.599 62.9635 169.578 62.1377 170.275 61.0586C170.892 60.1046 171.35 59.1064 171.684 57.9988C171.728 57.8511 172.138 56.0378 172.135 56.0717L172.241 54.7779C172.261 54.5238 172.391 54.3346 172.391 54.0369L172.391 32.6258L172.374 30.4508L172.21 30.1338C172.184 29.4109 172.236 28.6866 172.121 27.976L171.915 26.6995C171.836 26.2078 171.654 25.3876 171.493 24.9152L171.313 24.3878C171.133 23.8608 170.87 23.3077 170.557 22.8488L170.195 22.3169C169.844 21.802 168.963 21.163 168.342 21.0141L167.559 20.8263C167.004 20.6932 166.319 20.7253 165.777 20.852C164.919 21.053 165.2 20.8951 164.744 21.0723L164.583 21.1349C162.431 21.8704 160.515 23.4494 159.078 25.1636L158.1 26.329L157.697 26.8845L157.024 27.8141C156.631 28.3583 155.762 29.8813 155.429 30.5269L154.798 31.7485L154.802 55.1475C155.246 56.061 154.814 55.8505 155.15 56.876C155.213 57.0687 155.235 57.3518 155.292 57.5601L155.505 58.341C155.717 59.1168 156.151 60.1233 156.625 60.8271L156.955 61.3159C157.543 62.1889 158.362 62.9242 159.435 63.2182L160.311 63.4586C160.549 63.5238 160.863 63.4895 161.167 63.5086L161.181 64.3061C161.182 64.3651 161.145 64.5162 160.805 64.516H139.271C139.039 64.1219 139.112 63.8305 139.141 63.5056C139.426 63.4909 139.771 63.5144 139.995 63.4456L140.718 63.2236L141.28 63.0304C141.973 62.7925 142.877 61.8373 143.315 61.2639C143.699 60.7592 144.181 59.8499 144.41 59.2463L144.58 58.7984C144.654 58.6043 144.728 58.3835 144.786 58.1897L145.025 57.3986L145.081 56.8561C145.214 56.5961 145.301 56.3554 145.272 56.0478C145.244 55.7592 145.385 55.4943 145.419 55.2436C145.49 54.7048 145.507 54.1903 145.507 53.6217L145.506 32.3212C145.506 31.6222 145.469 30.9714 145.426 30.2873C145.416 30.1293 145.247 29.851 145.27 29.6692C145.328 29.2164 145.164 28.8588 145.095 28.4593C145.038 28.1237 144.989 27.8285 144.901 27.5309L144.675 26.7701C144.046 24.6559 142.565 22.0896 140.407 21.2192C140.249 21.1552 139.996 21.0508 139.855 21.0167L139.174 20.8514C138.59 20.7097 137.851 20.7047 137.261 20.8409L136.495 21.0177C135.997 21.1329 135.377 21.4305 134.94 21.7155L134.354 22.0976C133.818 22.4474 133.4 22.9425 132.944 23.3962C132.479 23.8594 132.064 24.3236 131.708 24.8688L130.67 26.4576L130.195 27.2562C129.492 28.4386 128.45 30.6457 127.882 31.9762L127.897 54.0289C127.897 54.633 128.273 55.0923 128.087 55.7564C128.04 55.9218 128.222 56.2685 128.254 56.4484L128.38 57.1513L128.556 57.8754C128.697 58.454 128.943 58.993 129.177 59.5595C129.599 60.5876 130.229 61.5377 131.046 62.2943C131.666 62.8682 132.45 63.1367 133.223 63.393C134.156 63.7022 134.411 63.1761 134.457 63.865C134.475 64.1335 134.397 64.515 134.003 64.515L134.004 64.5168ZM82.5641 33.3005L83.3002 33.0924L84.0407 32.8853L84.8723 32.6557C85.0359 32.6104 85.3548 32.607 85.5359 32.5717C85.7856 32.4486 87.1771 32.1896 87.3824 32.1914C87.7223 32.1944 87.9821 32.0415 88.3064 32.019L89.5939 31.9303C89.8725 31.9112 90.1261 31.7792 90.4119 31.7763L93.5526 31.742L93.5307 29.7599C93.2251 29.4404 93.4522 28.8391 93.2858 27.9854L93.0689 26.8733L92.8612 26.0009C92.8674 26.0268 92.3949 24.6208 92.4519 24.7464L91.9845 23.7179C91.3617 22.3468 90.1954 21.1586 88.9361 20.2939C88.4025 19.9276 87.0029 19.4319 86.4328 19.3406L85.227 19.1474C83.6631 18.8971 83.5738 19.3053 82.263 19.2872C81.8849 19.282 80.4656 19.6661 80.0361 19.8251C78.8998 20.2463 77.8146 20.7235 76.8436 21.4695L76.2633 21.9154C75.107 22.804 74.1337 24.2264 73.6811 25.5903L73.4728 26.218C73.3624 26.5506 73.4866 27.0689 73.356 27.376C73.1831 27.783 73.3275 28.0067 73.3628 28.4167L73.4766 29.7406L73.6901 30.5317L73.8986 31.253C73.9455 31.4157 74.0132 31.6447 74.0805 31.7996L74.8011 33.4533C74.9802 33.8647 75.1973 34.2466 75.4615 34.624L75.9206 35.2799C76.0334 35.441 76.2255 35.9445 76.5219 35.8029L78.7226 34.7531L80.8361 33.8875C80.9823 33.8277 81.1986 33.7679 81.3451 33.7208L81.984 33.5163C82.1609 33.4597 82.3804 33.3525 82.5639 33.3007L82.5641 33.3005ZM75.7854 48.0443L75.8076 49.8344L75.9549 50.5479C76.061 51.0612 75.9138 51.6243 76.02 52.1168L76.2327 53.1042L76.4422 54.007C76.7036 55.1335 77.557 56.8993 78.2865 57.8752C79.3431 59.289 80.4403 60.1247 82.094 60.7755C82.4697 60.8822 82.778 60.9507 83.158 60.9976C84.0172 61.3805 84.8156 61.0486 85.0716 61.0201L86.1634 60.8985L86.8831 60.6804L87.3205 60.5379C88.1191 60.2778 88.84 59.8459 89.5508 59.4102C91.0693 58.4791 92.1657 57.2988 92.9439 55.6848C93.0398 55.4859 93.3883 54.6097 93.3473 54.4819C93.2583 54.2051 93.5506 54.0209 93.5506 53.811L93.557 32.6242C92.1928 32.4661 91.8917 32.844 91.2169 32.8342C90.9531 32.8305 90.7388 32.9435 90.4842 32.9772L89.6195 33.0914L88.8178 33.3037C88.6143 33.3575 88.3589 33.4476 88.147 33.5195L87.5264 33.7304L86.9151 33.9303C86.1482 34.1811 85.1587 34.6688 84.398 35.0511C84.1618 35.1699 83.9481 35.3357 83.7198 35.4816C83.199 35.8145 83.2843 35.6748 82.7231 36.0906L81.855 36.734C81.1151 37.2823 79.9081 38.4344 79.3507 39.1659L78.7568 39.9454C77.8735 41.1047 77.2784 42.37 76.7604 43.7288C76.6883 43.9177 76.6164 44.1057 76.5551 44.3179L76.324 45.1158C76.0886 45.9291 76.2721 45.4926 76.0015 46.5119C75.9294 46.7834 75.9761 47.2952 75.9502 47.5685C75.9406 47.6685 75.7844 47.9243 75.786 48.0447L75.7854 48.0443Z" fill="#BEBEBE"/>
<path d="M112.223 21.1968L114.577 21.1735C115.003 21.1693 115.416 21.0272 115.848 21.0075L117.631 20.9257C117.753 20.9202 117.991 20.7874 118.117 20.7812C118.532 20.7609 118.943 20.7858 119.298 20.6983C119.531 20.6409 119.727 20.5624 119.968 20.5604C120.324 20.5574 120.622 20.4559 120.945 20.3878L121.895 20.1873L122.837 19.9692L123.682 19.7687C123.95 19.7051 124.194 19.6371 124.443 19.552C125.318 19.2526 125.175 19.3567 125.843 19.1364L126.52 18.9132L127.111 18.7151L127.88 18.4219L127.867 27.8277L118.816 45.7708L118.764 32.3094C118.764 32.2063 118.659 31.9831 118.621 31.8864L118.505 29.8087C118.494 29.6122 118.329 29.3437 118.351 29.1027C118.382 28.773 118.263 28.5061 118.192 28.2167C118.124 27.9437 118.069 27.6837 117.985 27.4356L117.763 26.7776C117.211 25.14 116.219 23.7007 114.798 22.7003C114.313 22.3585 112.983 22.082 112.239 22.0041L112.223 21.1968H112.223Z" fill="#BEBEBE"/>
<path d="M162.312 77.9397C162.12 78.5803 161.712 78.9766 161.016 78.9672C160.574 78.9614 160.224 78.8546 159.837 78.6052L159.259 78.2325L158.537 77.7471C158.334 77.6106 158.07 77.4916 157.961 77.2775L159.814 74.6056L160.203 74.0447C160.419 73.7342 160.596 73.4884 160.868 73.1406L162.588 74.3473C162.897 74.5644 163.15 74.8805 163.343 75.1829C163.561 75.5229 163.546 75.7994 163.339 76.1382C162.688 77.2068 162.532 76.6561 162.274 76.9602C162.026 77.2516 162.497 77.3208 162.312 77.9397H162.312ZM161.384 75.8727C161.491 75.9588 161.774 76.0182 161.914 75.9632C162.036 75.915 162.092 75.5739 162.022 75.4374C161.896 75.1898 161.588 75.0041 161.298 74.8805C161.117 74.9784 160.927 75.2724 160.89 75.4765L161.384 75.8727H161.384ZM161.137 77.491C161.259 77.1536 160.842 76.9042 160.655 76.7691L160.171 76.4195C160.003 76.6409 159.81 76.9299 159.662 77.1787L160.264 77.5544C160.492 77.6971 160.993 77.8887 161.137 77.4908V77.491Z" fill="#BEBEBE"/>
<path d="M191.908 41.4132L192.501 41.0464C193.129 41.7365 193.25 42.1539 193.875 42.7716C194.059 42.6364 194.213 42.5374 194.25 42.4405C194.293 42.3297 194.157 42.0731 194.083 41.9747L193.176 40.7728C193.453 40.4293 193.813 40.1828 194.169 40.0199L195.381 41.7152L195.962 41.1945L195.616 40.7206L194.911 39.7513C194.83 39.64 194.559 39.3536 194.675 39.2777C194.882 39.1405 195.092 39.0283 195.26 38.8615C195.383 38.7393 195.643 38.6867 195.757 38.8428L196.299 39.585L196.867 40.364C197.146 40.7457 197.41 41.1039 197.673 41.5388C197.426 41.884 197.085 42.0714 196.778 42.293L195.947 42.8936L194.259 44.1138C194.067 44.2531 193.787 44.63 193.499 44.4281L192.83 43.5248L192.462 43.0126L191.897 42.229C191.811 42.1086 191.664 41.9352 191.646 41.8212C191.628 41.7076 191.804 41.4774 191.908 41.4132H191.908Z" fill="#BEBEBE"/>
<path d="M181.972 77.8477L182.314 78.7067L182.516 79.3033L182.714 79.8427C182.865 80.2551 183.077 80.4751 183.56 80.4598C183.856 80.4504 184.073 80.3507 184.262 80.1253C184.528 79.8084 184.45 79.5576 184.329 79.2132L184.101 78.563C183.831 77.7941 183.79 77.8764 183.584 77.1933C183.493 76.8895 183.235 76.5545 183.519 76.2595L184.004 76.119C184.1 76.0911 184.287 75.9731 184.38 75.9766C184.489 75.981 184.616 76.1823 184.66 76.3045L185.662 79.0685C185.854 79.5981 185.762 80.205 185.478 80.696C185.203 81.1731 184.684 81.4121 184.151 81.6232C183.468 81.8937 182.063 81.7597 181.622 80.6079L180.444 77.5276C180.665 77.3113 180.903 77.2706 181.173 77.1682L181.539 77.0295C181.637 76.9924 181.758 77.2254 181.801 77.3506L181.972 77.8473L181.972 77.8477Z" fill="#BEBEBE"/>
<path d="M200.401 61.0138L199.051 60.9169C198.982 60.8779 198.791 60.7892 198.719 60.7581C197.148 60.8007 197.827 60.6397 196.446 60.4876C196.739 59.4089 196.376 59.6466 196.7 58.4312C196.781 58.1292 196.846 57.8669 196.988 57.5546C197.156 57.1844 197.642 56.8713 198.103 56.8711C199.102 56.8707 199.525 57.1073 199.853 58.0309C200.205 59.0204 199.528 59.1709 199.819 59.6558L201.024 59.7381C201.172 59.7483 201.414 59.8816 201.609 59.9209C201.672 60.2484 201.692 60.829 201.399 61.0893C201.089 61.3638 200.692 61.0345 200.401 61.0136L200.401 61.0138ZM198.68 59.4754L198.674 58.5155C198.673 58.3885 198.407 58.1942 198.287 58.1878C197.796 58.1619 197.764 59.0381 197.841 59.4645L198.68 59.4754Z" fill="#BEBEBE"/>
<path d="M194.48 74.6664C194.667 74.5629 193.663 74.9526 193.65 74.8715L193.611 74.6263L193.471 73.7477C193.946 73.1296 193.802 73.7957 194.47 73.1372C194.626 72.9837 194.774 72.549 194.586 72.4431C194.159 72.2033 193.881 72.4792 193.592 72.6809C193.194 72.9586 192.885 73.0437 192.394 73.1639C192.12 73.231 191.343 72.7038 191.09 72.3588C190.929 71.3419 190.918 70.8956 191.563 70.1848C191.797 69.9271 192.717 69.1898 193.124 69.4728L193.186 70.6467C192.73 70.6909 192.163 71.1027 192.322 71.6116C192.497 72.1736 193.47 71.2432 193.712 71.1733L194.42 70.969C195.073 71.0812 195.645 71.6092 195.893 72.1854C196.05 72.5488 195.836 73.2739 195.652 73.5591C195.372 73.9933 194.905 74.4308 194.48 74.6666V74.6664Z" fill="#BEBEBE"/>
<path d="M167.962 79.1886C167.207 79.7573 167.193 79.6485 166.944 80.4205L166.725 81.0983C166.666 81.2815 166.61 81.4599 166.521 81.6162C166.449 81.7422 166.107 81.716 165.957 81.6568L165.344 81.4149C165.351 81.1053 165.454 80.7013 165.579 80.3728L165.778 79.8494C165.904 79.5175 165.862 78.9879 165.77 78.6453L165.568 77.8891L165.344 76.9521C165.27 76.6415 165.139 76.2803 165.205 75.9756L165.885 76.2389L166.548 76.4747C166.695 76.5271 166.688 76.9433 166.718 77.096L166.906 78.0326L166.934 78.2716C166.942 78.3365 167.176 78.2823 167.229 78.2329C167.961 77.5596 168.506 76.8695 169.369 77.4356C169.605 77.4452 169.818 77.5947 169.823 77.7786L168.801 78.5566L167.962 79.1882L167.962 79.1886Z" fill="#BEBEBE"/>
<path d="M194.767 46.8132C194.652 46.5339 194.608 46.2292 194.674 45.9788C195.003 46.0071 195.539 45.5543 195.638 45.7912L195.879 46.3631C195.946 46.5222 196.041 46.9724 196.247 46.8933L197.128 46.5546L198.086 46.1751L199.688 45.5371C199.781 45.6298 200.33 46.5443 200.124 46.7442C199.947 46.9168 199.651 46.97 199.454 47.0474L196.754 48.1068C196.59 48.7478 197.222 49.0751 196.934 49.4689C196.72 49.7623 196.199 49.8636 195.95 49.6924L194.767 46.8132H194.767Z" fill="#BEBEBE"/>
<path d="M176.456 83.0003L176.4 81.4351L176.223 80.5985L176.195 79.2192C175.423 78.9796 175.816 79.4833 174.744 79.3245L174.748 78.124L176.579 78.0574C176.651 78.0191 176.862 77.9232 176.939 77.8975L178.745 77.8848L178.769 78.8866L177.485 79.1933C177.366 80.1526 177.684 80.7221 177.689 81.106L177.713 82.9507L176.456 83.0003H176.456Z" fill="#BEBEBE"/>
<path d="M191.676 77.3581L190.764 77.991L190.105 78.4396C189.861 78.6051 189.714 78.7085 189.415 78.9505C189.203 78.7301 188.966 78.3862 188.762 78.1032L188.133 77.2276L187.191 75.9192C186.949 75.5826 186.691 75.2969 186.531 74.8612C186.738 74.5762 187.267 74.1315 187.506 74.0592C187.579 74.037 187.636 74.2593 187.681 74.3209L188.223 75.0568L189.608 77.0466C190.126 77.2126 190.535 76.4658 191.348 76.1249C191.555 76.3464 191.754 76.5668 191.897 76.8154C192.035 77.0574 191.862 77.2292 191.677 77.3579L191.676 77.3581Z" fill="#BEBEBE"/>
<path d="M190.045 40.0838C189.573 39.8783 189.24 39.6038 189.002 39.2741L190.137 37.9016L191.029 36.8111L191.425 36.2978L189.914 35.0017C190.204 34.6449 190.441 34.3897 190.721 34.123L191.549 34.8231L192.855 35.9311C192.935 35.9993 193.142 36.0704 193.157 36.1621C193.177 36.2801 193.034 36.4603 192.949 36.5639L191.795 37.9622L190.757 39.2205L190.045 40.0834V40.0838Z" fill="#BEBEBE"/>
<path d="M198.393 69.5252C198.295 69.7094 197.998 69.6693 197.825 69.5733L196.365 68.7628L195.085 68.0574C194.641 67.8128 194.206 67.5814 193.775 67.2765L194.357 66.1836L196.037 67.0971L198.078 68.1822C198.354 68.3289 198.644 68.5356 198.849 68.6651L198.393 69.5254L198.393 69.5252Z" fill="#BEBEBE"/>
</g>
<defs>
<clipPath id="clip0_555_39">
<rect width="202" height="83" fill="white"/>
</clipPath>
</defs>
</svg>
