<svg width="311" height="68" viewBox="0 0 311 68" fill="none" xmlns="http://www.w3.org/2000/svg">
<path d="M14.2938 12.6635C12.9473 12.1887 11.5634 11.9522 10.1403 11.9522C8.71724 11.9522 7.47119 12.3577 6.39877 13.1704C5.32635 13.9832 4.79014 15.1879 4.79014 16.788C4.79014 18.3374 5.45061 19.5235 6.77326 20.3481C7.49672 20.7975 8.08911 21.1236 8.55042 21.323C9.01173 21.5224 9.68582 21.786 10.571 22.1104C11.4562 22.4348 12.0605 22.6663 12.3856 22.8031C12.709 22.9417 13.1908 23.1529 13.8257 23.4401C14.4623 23.7274 14.9356 23.9842 15.2471 24.2089C15.5586 24.4337 15.9399 24.7462 16.3876 25.1467C16.837 25.5471 17.174 25.9476 17.397 26.3463C17.9451 27.372 18.2209 28.4821 18.2209 29.6817C18.2209 31.8056 17.3613 33.5426 15.6386 34.8926C13.9159 36.2426 11.6843 36.9168 8.94193 36.9168C6.84646 36.9168 4.88887 36.567 3.06746 35.8675C2.17037 35.5431 1.4333 35.0937 0.859638 34.5175C0.285978 33.943 0 33.2807 0 32.5305C0 31.3072 0.885171 30.4691 2.65722 30.0196C2.93128 31.5184 3.45557 32.7315 4.2284 33.6558C5.00122 34.58 5.80468 35.1934 6.64219 35.4924C7.478 35.7932 8.50105 35.9419 9.70965 35.9419C10.9182 35.9419 12.0605 35.5482 13.1329 34.7608C14.2053 33.9734 14.7415 32.6808 14.7415 30.8814C14.7415 29.5077 14.1185 28.3824 12.8707 27.5071C11.8732 26.833 10.6442 26.196 9.18536 25.5944C7.72653 24.9946 6.74773 24.5891 6.24897 24.3762C5.75021 24.1633 5.10846 23.8271 4.32202 23.3641C3.53558 22.9011 2.95681 22.4449 2.58232 21.9955C1.60863 20.8212 1.12349 19.4711 1.12349 17.9471C1.12349 15.5985 1.95929 13.8243 3.63091 12.6247C5.30252 11.425 7.60907 10.8252 10.5523 10.8252C12.3226 10.8252 14.3806 11.0263 16.7263 11.425V16.935H15.5671L14.2938 12.6635Z" fill="#BEBEBE"/>
<path d="M46.2081 17.9102C50.1982 17.9102 52.195 19.8347 52.195 23.682C52.195 26.4547 52.1064 30.3544 51.9328 35.3761L54.59 35.5636V36.4625H46.2473V35.5636L48.2679 35.4133C48.4415 28.8169 48.53 24.8124 48.53 23.3998C48.53 21.989 48.2679 20.9329 47.7436 20.2334C47.2193 19.5339 46.3716 19.1842 45.1987 19.1842C44.0258 19.1842 42.9415 19.6775 41.944 20.6643C40.9465 21.651 40.2724 22.7071 39.9234 23.8324C39.9234 26.5308 39.8349 30.3798 39.6613 35.3778L42.3185 35.5653V36.4642H33.9757V35.5653L35.9963 35.415C36.1699 28.8186 36.2585 24.8141 36.2585 23.4015C36.2585 21.9907 35.9963 20.9346 35.472 20.2351C34.9477 19.5356 34.0438 19.1858 32.7603 19.1858C31.4751 19.1858 30.2716 19.8668 29.1499 21.2286C28.0281 22.5905 27.4663 23.7969 27.4663 24.8462V35.3795L30.2716 35.567V36.4659H21.3655V35.567L23.798 35.4166V19.5238L20.6182 19.3734V18.5117L27.3148 18.0622L27.1276 21.9231H27.5021C28.1762 20.5984 29.0801 19.5998 30.2155 18.9239C31.3509 18.2498 32.5918 17.9118 33.9383 17.9118C37.3053 17.9118 39.251 19.2619 39.7753 21.9603V21.9231C40.4494 20.5984 41.3533 19.5998 42.487 18.9239C43.6207 18.2481 44.8617 17.9102 46.2081 17.9102Z" fill="#BEBEBE"/>
<path d="M68.3948 32.5662C68.3948 32.6406 68.3812 32.7284 68.3574 32.8281C67.9574 34.0531 67.2918 35.0331 66.3555 35.7715C65.421 36.5082 64.3282 36.8765 63.0821 36.8765C61.8344 36.8765 60.7926 36.52 59.9585 35.8087C59.1227 35.0973 58.7056 33.7033 58.7056 31.6285C58.7056 31.054 58.7669 26.894 58.8929 19.147H56.3105V18.1721H58.9303L58.9678 12.6621H62.6344L62.5221 18.1721H67.8722V19.147H62.5221C62.3961 27.2185 62.3348 31.941 62.3348 33.3164C62.3348 34.9909 62.8829 35.8272 63.9809 35.8272C64.655 35.8272 65.358 35.4403 66.0951 34.6648C66.8305 33.8909 67.348 33.0157 67.6476 32.0407C68.1446 32.0424 68.3948 32.2165 68.3948 32.5662Z" fill="#BEBEBE"/>
<path d="M75.541 34.6855C75.541 35.2988 75.3282 35.8226 74.9043 36.2602C74.4805 36.6979 73.9511 36.9158 73.3144 36.9158C72.6778 36.9158 72.1484 36.7029 71.7245 36.2788C71.3007 35.8547 71.0879 35.3225 71.0879 34.6855C71.0879 34.0485 71.299 33.5112 71.7245 33.0736C72.1484 32.6359 72.6727 32.418 73.2957 32.418C73.9187 32.418 74.4498 32.6427 74.8856 33.0921C75.3231 33.5416 75.541 34.0721 75.541 34.6855Z" fill="#BEBEBE"/>
<path d="M103.901 11.4268H111.496V12.2885L108.429 13.3006L98.7379 22.521L111.009 35.1529L114.002 35.4148V36.464H103.152V35.4148L105.809 35.19L95.7453 24.4692V35.2272L99 35.5651V36.464H88.6367V35.5651L91.8914 35.2272V12.6636L88.6367 12.3257V11.4268H99V12.3257L95.7453 12.6636V23.3844L106.558 13.1519L103.901 12.3273V11.4268Z" fill="#BEBEBE"/>
<path d="M126.649 17.7227C127.298 17.7227 127.809 17.8798 128.183 18.1907C128.558 18.5033 128.745 18.9341 128.745 19.4833C128.745 20.4329 128.382 21.058 127.661 21.3571C127.26 21.0327 126.539 20.8705 125.49 20.8705C124.442 20.8705 123.439 21.2152 122.479 21.9012C121.519 22.5889 121.039 23.3695 121.039 24.243V35.3761L124.406 35.5637V36.4626H114.902V35.5637L117.372 35.4133V19.4072L114.417 19.2569V18.3951L121.039 17.9829L120.814 22.5939H120.964C121.388 21.2439 122.167 20.0949 123.303 19.1453C124.435 18.1991 125.551 17.7227 126.649 17.7227Z" fill="#BEBEBE"/>
<path d="M130.688 36.4664V35.5675L133.158 35.3799V19.4499L129.866 19.3367V18.475L136.825 17.9883V35.3799L139.295 35.5675V36.4664H130.688ZM137.05 12.0458C137.05 12.6592 136.837 13.183 136.413 13.6206C135.989 14.0582 135.458 14.2762 134.823 14.2762C134.187 14.2762 133.657 14.0633 133.233 13.6392C132.809 13.2151 132.597 12.6828 132.597 12.0458C132.597 11.4088 132.808 10.8715 133.233 10.4339C133.657 9.99628 134.181 9.77832 134.804 9.77832C135.427 9.77832 135.959 10.003 136.394 10.4525C136.83 10.9019 137.05 11.4325 137.05 12.0458Z" fill="#BEBEBE"/>
<path d="M148.648 35.9404C149.645 35.9404 150.512 35.6667 151.249 35.1159C151.984 34.5667 152.354 33.6425 152.354 32.3415C152.354 31.4662 151.96 30.7431 151.176 30.1669C150.389 29.5924 149.41 29.0737 148.239 28.6107C147.066 28.1477 146.275 27.8233 145.863 27.6358C145.451 27.4482 144.908 27.1424 144.236 26.7166C143.013 25.8921 142.402 24.7059 142.402 23.1565C142.402 21.6071 143.013 20.3213 144.236 19.2957C145.458 18.2717 147.242 17.7598 149.586 17.7598C151.082 17.7598 152.36 18.0909 153.421 18.7533C154.481 19.4156 155.011 20.2098 155.011 21.134C155.011 22.0582 154.662 22.6952 153.964 23.0467C153.589 23.2224 153.222 23.3086 152.861 23.3086C152.498 23.3086 152.144 23.2342 151.795 23.0839C151.894 22.6344 151.945 22.1478 151.945 21.6223C151.945 21.0968 151.821 20.573 151.571 20.0476C151.147 19.1487 150.336 18.6975 149.138 18.6975C147.941 18.6975 147.031 19.0219 146.406 19.6725C145.783 20.323 145.471 21.1712 145.471 22.2204C145.471 23.2951 145.921 24.0943 146.818 24.6198C147.492 25.0455 148.326 25.4325 149.325 25.7805C150.323 26.1303 151.002 26.3736 151.365 26.5122C151.726 26.649 152.207 26.8805 152.805 27.2049C153.404 27.5293 153.852 27.8673 154.151 28.217C154.924 29.0669 155.31 30.2159 155.31 31.6656C155.31 33.1153 154.662 34.3454 153.365 35.3575C152.068 36.3696 150.485 36.8765 148.614 36.8765C146.743 36.8765 145.102 36.5892 143.694 36.0148C142.285 35.4403 141.58 34.6039 141.58 33.5039C141.58 32.48 142.341 31.8058 143.863 31.4797C144.307 34.4535 145.904 35.9404 148.648 35.9404Z" fill="#BEBEBE"/>
<path d="M170.573 17.9101C174.563 17.9101 176.56 19.8347 176.56 23.682C176.56 26.4547 176.471 30.3544 176.298 35.3761L178.953 35.5636V36.4625H170.61V35.5636L172.631 35.4132C172.806 28.8168 172.893 24.8124 172.893 23.3998C172.893 21.989 172.631 20.9329 172.108 20.2334C171.584 19.5339 170.68 19.1841 169.395 19.1841C168.11 19.1841 166.906 19.7975 165.785 21.0208C164.663 22.2458 164.101 23.3694 164.101 24.395V35.3778L166.571 35.5653V36.4642H157.966V35.5653L160.436 35.3778V9.55143L157.144 9.40106L157.106 8.53933L164.103 7.75195C163.953 16.3236 163.866 20.8958 163.841 21.4702H164.14C164.814 20.3213 165.718 19.441 166.854 18.8276C167.986 18.2177 169.226 17.9101 170.573 17.9101Z" fill="#BEBEBE"/>
<path d="M187.334 22.1463C188.456 19.2469 190.713 17.7988 194.106 17.7988C195.801 17.7988 197.174 18.304 198.222 19.3161C199.269 20.3282 199.793 21.7712 199.793 23.645C199.793 26.8689 199.693 30.7787 199.494 35.378L202.076 35.5655V36.4644H193.806V35.5655L195.827 35.4151C196.026 29.7683 196.127 26.5309 196.127 25.7064C196.127 24.8818 196.113 24.2516 196.089 23.814C196.064 23.3764 195.996 22.8391 195.883 22.2021C195.771 21.5651 195.602 21.0582 195.378 20.6831C194.828 19.7588 193.968 19.2959 192.795 19.2959C191.199 19.2959 189.89 19.9582 188.867 21.2829C187.843 22.6076 187.333 24.0438 187.333 25.5932V35.3763L190.138 35.5638V36.4627H181.196V35.5638L183.666 35.3763V19.5206L180.486 19.3702V18.5085L187.183 18.059L186.996 22.1074L187.334 22.1463Z" fill="#BEBEBE"/>
<path d="M209.595 36.9156C208.173 36.9156 206.958 36.5219 205.947 35.7345C204.937 34.9472 204.432 33.8421 204.432 32.4178C204.455 30.4932 205.422 29.057 207.331 28.1075C209.239 27.1579 211.964 26.6831 215.505 26.6831V23.4592C215.505 20.2861 214.357 18.6995 212.063 18.6995C210.89 18.6995 209.942 19.1861 209.22 20.161C208.721 20.8352 208.471 21.6733 208.471 22.6718C208.471 23.0976 208.52 23.5471 208.621 24.0219C208.27 24.2719 207.916 24.397 207.554 24.397C207.191 24.397 206.837 24.3226 206.488 24.1723C205.69 23.8715 205.291 23.297 205.291 22.4471C205.291 21.2982 205.703 20.3486 206.525 19.5984C207.872 18.3751 209.731 17.7617 212.1 17.7617C214.47 17.7617 216.191 18.2669 217.263 19.279C218.336 20.2911 218.872 21.8845 218.872 24.0591V35.4169L222.014 35.5673L222.052 36.429L215.804 36.8784L215.467 33.5431C214.322 35.7903 212.364 36.9156 209.595 36.9156ZM208.098 32.4178C208.098 34.0432 208.759 35.0046 210.081 35.3037C210.381 35.378 210.667 35.4169 210.941 35.4169C211.889 35.4169 212.873 35.0114 213.896 34.1987C214.919 33.3859 215.455 32.2927 215.505 30.919V27.6952C210.568 27.7442 208.098 29.3189 208.098 32.4178Z" fill="#BEBEBE"/>
<path d="M256.175 35.7898C253.78 36.3896 251.036 36.6887 247.943 36.6887C242.755 36.6887 238.938 35.44 236.494 32.941C235.595 32.0421 234.878 30.8729 234.342 29.4367C233.806 28.0005 233.537 26.2449 233.537 24.17C233.537 22.0968 233.942 20.1774 234.753 18.4168C235.563 16.6545 236.666 15.2622 238.063 14.2366C240.833 12.1887 244.125 11.1631 247.94 11.1631L255.648 11.501L255.872 18.3221H254.676L253.404 13.412C252.058 12.8375 250.461 12.5503 248.616 12.5503C245.598 12.5503 243.097 13.5438 241.114 15.5308C239.131 17.5179 238.14 20.4106 238.14 24.2072C238.14 28.0055 239.107 30.8104 241.039 32.6234C242.971 34.4347 245.448 35.3403 248.466 35.3403C249.938 35.3403 251.285 35.1899 252.507 34.8909V26.9073L249.402 26.5693V25.6704H258.419V26.5693L256.174 26.9073V35.7898H256.175Z" fill="#BEBEBE"/>
<path d="M279.934 27.3201C279.934 30.0928 279.098 32.3806 277.427 34.1801C275.755 35.9795 273.479 36.8784 270.599 36.8784C267.719 36.8784 265.441 35.9795 263.771 34.1801C262.099 32.3806 261.264 30.0945 261.264 27.3201C261.264 24.5457 262.099 22.2596 263.771 20.4601C265.441 18.6606 267.719 17.7617 270.599 17.7617C273.479 17.7617 275.755 18.6606 277.427 20.4601C279.098 22.2596 279.934 24.5457 279.934 27.3201ZM265.342 27.3201C265.342 33.0919 267.094 35.9779 270.599 35.9779C274.104 35.9779 275.855 33.0919 275.855 27.3201C275.855 24.522 275.455 22.3846 274.659 20.9095C273.86 19.4362 272.514 18.6978 270.618 18.6978C268.721 18.6978 267.368 19.4345 266.558 20.9095C265.747 22.3846 265.342 24.5203 265.342 27.3201Z" fill="#BEBEBE"/>
<path d="M285.696 34.2544C284.124 32.5056 283.338 30.1942 283.338 27.3201C283.338 24.446 284.167 22.1345 285.827 20.3857C287.485 18.637 289.573 17.7617 292.093 17.7617C294.612 17.7617 296.495 18.3311 297.742 19.4666C298.988 20.6037 299.613 22.1835 299.613 24.2077C299.613 24.8076 299.562 25.4074 299.463 26.0072H287.379V27.3201C287.379 30.1181 287.777 32.237 288.576 33.6732C289.374 35.1111 290.683 35.8292 292.505 35.8292C295.073 35.8292 297.056 34.7039 298.454 32.4549C299.002 32.6307 299.278 32.8926 299.278 33.2423C299.278 33.8675 298.704 34.5923 297.557 35.4169C297.009 35.8173 296.234 36.1603 295.237 36.4476C294.239 36.7348 293.129 36.8784 291.907 36.8784C289.337 36.8768 287.267 36.0032 285.696 34.2544ZM296.059 23.4204C296.059 22.2714 295.822 21.283 295.347 20.4584C294.699 19.3584 293.65 18.8093 292.205 18.8093C289.51 18.8093 287.939 20.7575 287.49 24.6572H295.982C296.033 24.2331 296.059 23.8208 296.059 23.4204Z" fill="#BEBEBE"/>
<path d="M310.912 36.4659H302.307V35.567L304.777 35.3795V9.55143L301.447 9.40106V8.53933L308.444 7.75195V35.3778L310.913 35.5653V36.4659H310.912Z" fill="#BEBEBE"/>
<path d="M214.666 52.7205H212.263L210.038 63.0629C209.669 64.7711 209.129 66.0198 208.417 66.8122C207.706 67.6047 206.7 68 205.398 68C204.994 68 204.579 67.9409 204.153 67.8243L204.352 66.8494C204.708 66.9457 205.035 66.9947 205.335 66.9947C206.024 66.9947 206.567 66.7007 206.965 66.1127C207.364 65.5247 207.718 64.5143 208.031 63.0832L210.278 52.7205H208.334L208.46 51.9534L210.518 51.5073L210.748 50.3449C211.25 47.807 212.605 46.5381 214.813 46.5381C215.725 46.5381 216.413 46.6817 216.878 46.9689C217.341 47.2562 217.572 47.6381 217.572 48.1145C217.572 49.0337 216.98 49.4933 215.795 49.4933C215.795 48.172 215.432 47.5113 214.707 47.5113C214.185 47.5113 213.78 47.7259 213.49 48.1551C213.201 48.5843 212.973 49.2483 212.806 50.1472L212.523 51.5057H214.896L214.666 52.7205Z" fill="#BEBEBE"/>
<path d="M220.716 51.2979C221.977 51.2979 222.97 51.6746 223.695 52.4282C224.42 53.1818 224.783 54.2716 224.783 55.696C224.783 57.5834 224.201 59.2899 223.038 60.8157C221.874 62.3397 220.345 63.1035 218.45 63.1035C217.162 63.1035 216.154 62.7165 215.431 61.941C214.705 61.1671 214.343 60.0908 214.343 58.7154C214.343 56.8061 214.93 55.0928 216.103 53.5755C217.276 52.0582 218.815 51.2979 220.716 51.2979ZM218.689 62.066C219.865 62.066 220.805 61.3732 221.506 59.986C222.205 58.5988 222.556 57.0629 222.556 55.375C222.556 53.4032 221.86 52.4181 220.466 52.4181C219.301 52.4181 218.362 53.1125 217.643 54.5031C216.925 55.8937 216.568 57.4381 216.568 59.1395C216.568 61.0911 217.274 62.066 218.689 62.066Z" fill="#BEBEBE"/>
<path d="M226.587 51.5059H230.569L229.158 57.8657C228.872 59.1515 228.729 60.0065 228.729 60.4272C228.729 61.2923 229.078 61.7249 229.774 61.7249C230.506 61.7249 231.294 61.2011 232.142 60.1535C232.988 59.1059 233.541 57.9874 233.798 56.7979L234.916 51.5076H236.985L235.51 58.3337C235.294 59.3374 235.187 60.1214 235.187 60.6891C235.187 61.4089 235.424 61.7688 235.898 61.7688C236.302 61.7688 236.758 61.6134 237.267 61.3025L237.653 61.9243C236.748 62.7133 235.842 63.107 234.937 63.107C234.4 63.107 233.966 62.9161 233.636 62.5359C233.304 62.1557 233.139 61.6759 233.139 61.0946C233.139 60.728 233.173 60.3106 233.243 59.8392H233.076C232.303 61.1048 231.61 61.9631 231.001 62.4126C230.392 62.862 229.702 63.0867 228.936 63.0867C227.411 63.0867 226.647 62.3011 226.647 60.7314C226.647 60.2819 226.776 59.5047 227.033 58.398L227.869 54.674C227.995 54.113 228.058 53.6923 228.058 53.4084C228.058 52.7376 227.559 52.4031 226.563 52.4031H226.396L226.587 51.5059Z" fill="#BEBEBE"/>
<path d="M240.401 62.8959H238.404L240.202 54.358C240.285 53.9644 240.328 53.645 240.328 53.4034C240.328 52.7326 239.829 52.398 238.833 52.398H238.666L238.854 51.5059H242.815L242.239 54.1823H242.449C243.605 52.273 244.905 51.3184 246.347 51.3184C247.872 51.3184 248.635 52.104 248.635 53.6737C248.635 54.1232 248.505 54.9004 248.248 56.0071L247.693 58.518C247.506 59.3679 247.411 60.1113 247.411 60.7483C247.411 61.4259 247.661 61.7655 248.163 61.7655C248.574 61.7655 249.03 61.6033 249.532 61.2789L249.918 61.9007C248.984 62.7032 248.114 63.1037 247.305 63.1037C246.713 63.1037 246.241 62.9128 245.889 62.5326C245.537 62.1524 245.361 61.6371 245.361 60.9866C245.361 60.336 245.498 59.378 245.768 58.1125L246.26 55.9142C246.47 55.0559 246.573 54.3952 246.573 53.9323C246.573 53.0959 246.247 52.6768 245.591 52.6768C244.796 52.6768 243.983 53.2091 243.15 54.2736C242.318 55.338 241.783 56.4008 241.547 57.4586L240.401 62.8959Z" fill="#BEBEBE"/>
<path d="M257.57 59.6899H257.434C256.409 61.9642 255.077 63.103 253.432 63.103C252.561 63.103 251.883 62.7617 251.4 62.0807C250.915 61.3998 250.673 60.4469 250.673 59.2235C250.673 57.2737 251.284 55.4658 252.506 53.7981C253.728 52.1321 255.242 51.2974 257.048 51.2974C257.85 51.2974 258.549 51.4664 259.148 51.806C259.259 51.1555 259.339 50.7584 259.388 50.6131L259.598 49.5959C259.695 49.1194 259.744 48.8001 259.744 48.6413C259.744 47.9772 259.245 47.646 258.25 47.646H258.083L258.272 46.7539H262.212L259.725 58.3314C259.516 59.3063 259.412 60.092 259.412 60.6868C259.412 61.4066 259.645 61.7665 260.112 61.7665C260.515 61.7665 261.031 61.5823 261.659 61.2173L262.046 61.8391C261.023 62.6823 260.015 63.1047 259.026 63.1047C257.911 63.1047 257.354 62.5167 257.354 61.3407C257.351 60.8895 257.424 60.3404 257.57 59.6899ZM258.782 53.0208C258.456 52.5089 257.916 52.2537 257.162 52.2537C255.943 52.2537 254.92 53.0242 254.094 54.5618C253.269 56.1011 252.857 57.6826 252.857 59.308C252.857 60.947 253.306 61.7665 254.205 61.7665C254.917 61.7665 255.66 61.2444 256.442 60.2002C257.221 59.156 257.737 58.0154 257.989 56.7769L258.782 53.0208Z" fill="#BEBEBE"/>
<path d="M269.43 59.6904H269.294C268.269 61.9646 266.936 63.1035 265.292 63.1035C264.42 63.1035 263.743 62.7621 263.259 62.0812C262.774 61.4003 262.532 60.4473 262.532 59.224C262.532 57.2742 263.143 55.4662 264.366 53.7985C265.588 52.1325 267.101 51.2979 268.907 51.2979C269.876 51.2979 270.712 51.5547 271.416 52.0649L272.358 51.526H273.047L271.583 58.3302C271.374 59.3051 271.27 60.0908 271.27 60.6856C271.27 61.4054 271.503 61.7652 271.97 61.7652C272.373 61.7652 272.889 61.5811 273.517 61.2161L273.903 61.8379C272.88 62.681 271.872 63.1035 270.883 63.1035C269.769 63.1035 269.212 62.5155 269.212 61.3395C269.21 60.89 269.283 60.3409 269.43 59.6904ZM270.642 53.0213C270.315 52.5093 269.775 52.2542 269.021 52.2542C267.802 52.2542 266.779 53.0247 265.954 54.5623C265.128 56.1015 264.716 57.6831 264.716 59.3085C264.716 60.9475 265.166 61.7669 266.064 61.7669C266.776 61.7669 267.52 61.2448 268.301 60.2006C269.081 59.1564 269.597 58.0159 269.849 56.7774L270.642 53.0213Z" fill="#BEBEBE"/>
<path d="M279.909 61.299L280.275 62.088C279.313 62.7656 278.352 63.1052 277.39 63.1052C275.836 63.1052 275.059 62.279 275.059 60.6248C275.059 60.0926 275.129 59.4978 275.269 58.8405L276.576 52.7206H274.945L275.144 51.8707C276.539 51.8707 277.628 50.8789 278.416 48.8936H279.398L278.843 51.5074H281.436L281.174 52.7206H278.581L277.286 58.778C277.112 59.5941 277.024 60.2024 277.024 60.6045C277.024 61.3784 277.403 61.7653 278.163 61.7653C278.743 61.7653 279.323 61.6099 279.909 61.299Z" fill="#BEBEBE"/>
<path d="M282.144 52.3977L282.331 51.5056H286.166L284.714 58.3318C284.498 59.349 284.391 60.133 284.391 60.6872C284.391 61.407 284.627 61.7669 285.102 61.7669C285.512 61.7669 286.025 61.5827 286.638 61.2177L287.024 61.8395C286.035 62.6827 285.07 63.1051 284.128 63.1051C283.599 63.1051 283.17 62.9141 282.843 62.534C282.516 62.1538 282.351 61.6739 282.351 61.0927C282.351 60.4557 282.511 59.3422 282.831 57.7523L283.657 53.8525C283.706 53.6244 283.73 53.4369 283.73 53.2916C283.73 52.6968 283.294 52.3994 282.424 52.3994H282.144V52.3977ZM285.613 49.38C284.811 49.38 284.411 48.9931 284.411 48.2192C284.411 47.7698 284.528 47.4082 284.762 47.1345C284.995 46.8608 285.306 46.7256 285.696 46.7256C286.498 46.7256 286.898 47.1159 286.898 47.8982C286.898 48.3831 286.777 48.7498 286.537 49.0032C286.297 49.2533 285.989 49.38 285.613 49.38Z" fill="#BEBEBE"/>
<path d="M294.087 51.2979C295.348 51.2979 296.341 51.6746 297.066 52.4282C297.791 53.1818 298.154 54.2716 298.154 55.696C298.154 57.5834 297.572 59.2899 296.409 60.8157C295.245 62.3397 293.716 63.1035 291.821 63.1035C290.533 63.1035 289.525 62.7165 288.802 61.941C288.076 61.1671 287.714 60.0908 287.714 58.7154C287.714 56.8061 288.301 55.0928 289.474 53.5755C290.647 52.0582 292.184 51.2979 294.087 51.2979ZM292.06 62.066C293.236 62.066 294.176 61.3732 294.877 59.986C295.578 58.5988 295.927 57.0629 295.927 55.375C295.927 53.4032 295.231 52.4181 293.837 52.4181C292.673 52.4181 291.733 53.1125 291.015 54.5031C290.296 55.8937 289.939 57.4381 289.939 59.1395C289.939 61.0911 290.645 62.066 292.06 62.066Z" fill="#BEBEBE"/>
<path d="M301.483 62.8959H299.486L301.284 54.358C301.367 53.9644 301.41 53.645 301.41 53.4034C301.41 52.7326 300.911 52.398 299.915 52.398H299.748L299.936 51.5059H303.897L303.322 54.1823H303.531C304.687 52.273 305.987 51.3184 307.429 51.3184C308.954 51.3184 309.717 52.104 309.717 53.6737C309.717 54.1232 309.588 54.9004 309.33 56.0071L308.776 58.518C308.588 59.3679 308.493 60.1113 308.493 60.7483C308.493 61.4259 308.743 61.7655 309.245 61.7655C309.656 61.7655 310.112 61.6033 310.614 61.2789L311 61.9007C310.066 62.7032 309.196 63.1037 308.387 63.1037C307.795 63.1037 307.324 62.9128 306.971 62.5326C306.619 62.1524 306.443 61.6371 306.443 60.9866C306.443 60.336 306.58 59.378 306.85 58.1125L307.342 55.9142C307.552 55.0559 307.655 54.3952 307.655 53.9323C307.655 53.0959 307.329 52.6768 306.673 52.6768C305.878 52.6768 305.065 53.2091 304.232 54.2736C303.4 55.338 302.865 56.4008 302.629 57.4586L301.483 62.8959Z" fill="#BEBEBE"/>
<path d="M120.487 9.83885C120.15 9.83885 119.822 9.66481 119.641 9.35392C119.372 8.89095 119.532 8.29788 119.999 8.03092L134.037 0L147.613 8.03768C148.076 8.3114 148.227 8.90616 147.951 9.36575C147.676 9.82533 147.076 9.97571 146.613 9.70198L134.02 2.24555L120.972 9.70874C120.819 9.7983 120.652 9.83885 120.487 9.83885Z" fill="#BEBEBE"/>
</svg>
