<svg width="503" height="53" viewBox="0 0 503 53" fill="none" xmlns="http://www.w3.org/2000/svg">
<g clip-path="url(#clip0_555_77)">
<path d="M0 2.73424V2.45588C2.09328 2.30835 4.17821 2.32505 6.41624 2.3668L38.9067 43.0633L38.9234 5.90478C38.9234 4.57978 37.9129 3.53314 36.7577 3.36612L36.4264 2.64795C36.3596 2.5032 36.8885 2.32227 37.0611 2.32227L43.096 2.35289C43.2352 2.78156 43.3382 3.11003 43.1572 3.17127L42.3027 3.46077C41.5567 3.71408 40.6909 5.09197 40.6882 6.22768L40.6715 52.2019L38.8371 52.0962L4.87412 8.78026C4.76277 12.1818 4.87412 15.1993 4.89082 18.4199L4.91309 22.1778L4.86298 26.1333L4.85463 29.1675L4.82958 33.0757L4.8936 45.2067L4.99938 49.2318C5.05227 51.2555 7.96394 51.133 7.43505 51.8707C7.3237 52.0238 6.90338 52.2854 6.71409 52.2827L0.565075 52.2186C0.606829 51.5784 0.570642 51.3056 0.737659 51.2722C0.904676 51.2388 1.52264 51.1497 1.68966 51.0774C2.4468 50.7461 3.07033 49.3877 3.07033 48.3494L3.0759 6.45872C1.97637 5.06413 1.03551 3.88944 0 2.73424Z" fill="#BEBEBE"/>
<path d="M312.044 52.5607H305.92C305.92 52.5384 305.497 52.2879 305.352 52.2629C301.605 51.6115 297.628 50.4201 294.073 48.9392C293.491 49.6184 293.803 50.6066 292.575 50.7736L292.542 40.4687C292.542 40.2237 293.16 39.9119 293.255 40.0344C293.349 40.1569 293.6 40.4603 293.681 40.6051C297.605 47.5975 303.81 51.6811 312.077 50.4201C315.195 49.9441 318.11 48.9002 320.381 46.6817C322.989 44.1319 324.501 39.5306 322.413 36.36C321.185 34.4978 319.493 33.0921 317.55 31.9981C314.296 30.1665 310.992 28.7274 307.562 27.2103C303.312 25.3258 297.049 22.2304 294.883 17.9464C292.737 13.7014 293.811 8.64632 297.11 5.34495C300.194 2.25792 304.097 0.746412 308.428 0.164636C316.133 -0.868087 322.46 3.32961 322.831 2.46947L323.234 1.53139C323.32 1.33097 323.688 1.01921 323.902 0.977453C324.061 0.946833 324.256 1.43397 324.256 1.66779L324.264 9.65121C324.264 9.92122 324.055 10.4 323.869 10.4028C322.58 10.4195 320.094 1.53974 310.379 1.82367C306.958 1.92388 303.663 2.86475 301.21 5.21134C297.753 8.52106 297.605 13.7376 301.043 17.1002C307.869 23.7781 323.059 25.7016 327.763 33.749C330.151 37.8326 329.046 42.9851 325.829 46.2669C321.458 50.7235 317.544 51.2218 312.047 52.5579L312.044 52.5607Z" fill="#BEBEBE"/>
<path d="M503 1.36943V1.89832C501.683 2.09874 500.255 3.04795 500.255 4.79885L500.244 47.4439C500.244 49.1753 501.681 50.08 503 50.3082V50.6896C502.83 50.7703 502.17 51.0153 501.903 51.0153L492.982 51.0236C492.751 51.0236 492.197 50.3416 492.419 50.2693L493.324 49.9798C494.09 49.7348 494.911 48.3486 494.911 47.2156V4.57337C494.866 3.16208 493.525 2.17389 492.67 2.07647C492.503 2.05698 492.336 1.35273 492.495 1.29149C492.653 1.23025 493.065 1.08828 493.263 1.08828L501.054 1.07715C501.745 1.07715 502.46 1.21355 502.997 1.36664L503 1.36943Z" fill="#BEBEBE"/>
<path d="M486.674 51.013H477.31C477.051 51.013 476.534 50.5148 476.684 50.434L477.463 50.0109C478.351 49.855 479.262 48.5106 479.264 47.3609L479.309 26.9653H448.706L448.711 47.4945C448.962 48.6859 449.41 49.83 450.71 49.9831L451.289 50.448C451.428 50.5593 450.805 51.0047 450.618 51.0075L441.783 51.0464C441.454 51.0464 441.179 51.0047 441.037 50.9212C440.895 50.8377 440.797 50.3171 440.953 50.2642L441.83 49.9636C442.523 49.727 443.383 48.441 443.383 47.4027L443.392 4.77712C443.392 2.67548 441.248 2.10763 440.853 1.77638C440.683 1.63441 441.318 1.07769 441.571 1.07769L450.924 1.09439C451.153 1.09439 451.253 1.92391 451.178 2.07979C449.491 2.22175 448.856 3.44933 448.711 4.98032V25.2506L479.303 25.2423L479.278 4.83001C479.278 3.68037 478.387 2.3832 477.424 2.26351L476.706 1.74854C476.522 1.61771 477.171 1.06934 477.413 1.06934L486.724 1.09439L487.139 1.5008C487.729 2.07979 484.631 2.04082 484.631 4.52381V47.7144C484.631 48.9086 485.714 49.9135 486.482 50.0777L487.12 50.2141C487.281 50.2475 486.869 51.0075 486.683 51.0075L486.674 51.013Z" fill="#BEBEBE"/>
<path d="M138.232 52.2705C137.82 52.2705 137.422 52.1926 137.271 52.1174C137.121 52.0423 137.107 51.4577 137.266 51.402L138.131 51.107C138.925 50.837 139.693 49.4229 139.693 48.2788V5.95666C139.693 3.79657 137.672 3.47089 137.115 2.85849C136.985 2.71652 137.608 2.35465 137.942 2.35744L160.339 2.53837C169.528 2.61353 177.545 9.06874 181.35 17.3055C183.883 22.7864 184.178 29.0523 182.31 34.7615C179.053 44.7074 170.046 51.3436 159.716 52.2482L138.234 52.2733L138.232 52.2705ZM174.884 15.446C173.238 12.192 171.014 9.56701 168.128 7.44033C165.163 5.34704 161.817 4.06101 158.101 4.06101L145.018 4.06658L145.001 50.5475C147.568 50.3498 149.945 50.4194 152.403 50.4361L157.054 50.4667C161.127 50.4946 164.902 49.5426 168.192 47.0651C177.915 39.7414 180.217 26.0015 174.884 15.446Z" fill="#BEBEBE"/>
<path d="M392.357 50.011C396.084 51.748 385.631 50.8099 385.116 50.6986C382.965 50.2282 381.091 48.8864 379.496 47.3889L357.918 27.1213L357.957 47.5002C357.959 48.9366 359.095 50.05 360.398 50.114C360.423 50.3618 360.426 51.0076 360.203 51.0215C359.964 51.0382 359.554 51.0465 359.187 51.0465L350.797 51.002C350.574 51.002 350.143 50.8322 350.004 50.757C348.929 50.1836 352.459 50.114 352.459 47.5002L352.451 4.71598C352.451 2.37495 350.252 2.08824 349.982 1.72915C349.834 1.53152 350.427 1.05273 350.739 1.05273L359.847 1.07222C359.991 1.07222 360.565 1.40347 360.481 1.52595C360.367 1.69018 360.172 1.87947 359.841 2.17732C358.925 2.14948 357.957 3.35479 357.954 4.42091L357.92 24.2987L377.99 6.09108C379.279 4.92196 380.329 3.72501 381.192 2.37495L380.226 1.98246C380.033 1.90452 380.031 1.40069 380.125 1.07779H387.499C387.727 1.07779 387.936 1.96298 387.755 1.98803L386.878 2.11051C385.083 2.84539 383.404 3.85584 381.89 5.22816L361.954 23.3078L387.285 47.1021C388.752 48.48 390.483 49.4042 392.351 50.0082L392.357 50.011Z" fill="#BEBEBE"/>
<path d="M129.38 52.0103C128.72 52.2803 127.913 52.3109 127.403 52.0437L93.4933 8.80019L93.5155 48.8314C93.5155 49.8836 94.5009 50.9442 95.1551 51.1474L95.851 51.2615C96.0124 51.2894 95.979 51.7013 95.979 52.2219L89.7326 52.2775C89.457 52.2775 88.9254 51.6958 89.059 51.5287C89.2872 51.242 91.6004 51.0527 91.6004 48.8259L91.6171 6.48143L88.5356 2.35332L94.9881 2.33662L127.473 43.0025L127.484 5.8746C127.484 4.52455 126.443 3.39718 125.227 3.34708L125.009 2.63169C124.965 2.48972 125.463 2.33105 125.627 2.33105H131.197C131.406 2.33105 131.79 2.53426 131.924 2.60942C133.001 3.21625 129.399 3.15222 129.399 5.63799L129.38 52.0131V52.0103Z" fill="#BEBEBE"/>
<path d="M400.042 39.3944C404.925 49.0981 415.297 53.4545 425.117 48.444C429.295 46.3117 432.388 43.3861 435.456 39.3861L435.598 46.9853C430.273 51.1747 420.438 52.9228 413.969 52.1879C404.502 51.1135 396.491 45.0479 392.627 36.3241C390.344 31.1716 390.058 25.4708 391.41 19.9425C393.028 13.3453 397.381 8.00911 403.004 4.3236C406.826 1.81834 411.077 0.601901 415.684 0.340241C421.073 0.0368265 426.284 1.38688 431.188 3.59986C432.252 4.08143 433.376 4.49618 434.384 4.77455L434.679 3.54419C434.735 3.31593 435.032 3.22964 435.586 3.17675L435.645 11.9201C435.645 12.1428 435.005 12.5575 434.79 12.2903C432.516 9.43154 429.156 6.261 425.618 4.39041C420.316 1.5873 414.164 1.21708 408.825 4.1204C403.965 6.76483 400.619 11.2465 398.712 16.4657C395.964 23.9843 396.468 32.2823 400.048 39.3944H400.042Z" fill="#BEBEBE"/>
<path d="M263.013 34.5394L245.131 34.5088L240.321 47.9258C240.032 48.7359 239.695 50.3309 240.21 50.8375C240.742 51.2522 241.223 51.5529 241.652 52.0066C239.264 52.3573 237.176 52.4882 234.852 51.8897C236.669 50.7957 237.847 50.2501 238.473 48.4909L254.763 2.79778C254.974 2.20209 256.269 2.11023 256.636 2.56118L272.572 47.4164C274.451 52.7081 277.215 50.5341 276.122 52.1848C273.485 52.31 269.547 52.3128 266.997 52.1708C266.841 52.1569 266.638 51.4499 266.771 51.4109L267.893 51.0797C268.174 50.2919 268.035 49.0226 267.679 47.9982L263.016 34.5394H263.013ZM262.429 32.8609L254.031 9.57033L245.708 32.8859L262.429 32.8609Z" fill="#BEBEBE"/>
<path d="M72.5245 34.5416L54.6342 34.5166L49.7517 48.2593C49.4984 48.9691 49.4567 50.3804 49.7517 50.9121C50.3112 51.26 50.8902 51.4299 51.1074 52.0784C48.7691 52.3039 46.6341 52.5099 44.3042 51.8641C46.1386 50.8843 47.3912 50.2691 48.0342 48.4653L64.3964 2.53279C64.6079 2.17092 65.8299 2.2767 66.1612 2.56898L82.3368 48.0617C83.6952 51.8808 86.5094 50.9288 85.7773 52.1786C85.0814 52.1731 75.7535 52.624 76.2128 51.8196C76.803 50.7868 76.8781 51.5495 77.4877 50.8564C77.677 50.6421 77.7577 49.7931 77.6241 49.4117L72.519 34.5416H72.5245ZM71.9622 32.8798L63.5752 9.55586L55.1993 32.8854H71.965L71.9622 32.8798Z" fill="#BEBEBE"/>
<path d="M217.885 52.1964L217.704 51.5951C217.635 51.3641 220.193 51.0634 220.193 48.8115L220.218 4.08986L214.612 4.03976C212.157 4.01749 209.771 4.6271 207.647 5.77117C205.821 6.75379 205.855 7.77538 205.1 8.93614C204.986 9.10873 204.399 8.54365 204.449 8.29035L205.618 2.32227H240.09L241.245 8.3488C241.273 8.49355 241.001 8.98903 240.9 8.93893C239.712 8.35715 240.307 6.97369 238.003 5.75725C235.92 4.65772 233.702 4.02584 231.327 4.04811L225.474 4.101L225.485 48.547C225.485 50.4371 226.743 50.8324 228.257 52.0488C224.597 52.3912 221.248 52.3049 217.891 52.1992L217.885 52.1964Z" fill="#BEBEBE"/>
<path d="M198.976 52.2513L189.245 52.2401C189.103 52.2401 188.693 51.9367 188.705 51.8421C188.796 51.0098 191.229 51.1796 191.229 48.7578L191.24 5.87895C191.24 3.64927 188.986 3.45998 188.691 2.86985C188.618 2.72511 189.089 2.34375 189.267 2.34375L198.606 2.3688C198.79 2.3688 199.377 2.80861 199.263 2.89212C198.829 3.20946 196.602 3.92206 196.599 6.02648L196.582 48.5129C196.582 51.6667 200.348 51.0348 198.973 52.254L198.976 52.2513Z" fill="#BEBEBE"/>
<path d="M344.665 50.9181L335.003 51.0267C334.755 51.0294 334.26 50.4866 334.343 50.4059C335.741 50.0969 336.834 49.0781 336.834 47.4831L336.848 4.71837C336.848 3.29594 335.916 2.42467 334.83 1.99321L334.31 1.78722C331.866 0.815734 344.952 1.24441 344.682 1.32235C343.568 2.63065 342.07 2.75592 342.068 4.47341L342.054 47.2465C341.898 49.1533 343.134 49.4511 344.665 50.9153V50.9181Z" fill="#BEBEBE"/>
</g>
<defs>
<clipPath id="clip0_555_77">
<rect width="503" height="52.5603" fill="white"/>
</clipPath>
</defs>
</svg>
