<svg width="115" height="85" viewBox="0 0 115 85" fill="none" xmlns="http://www.w3.org/2000/svg">
<g clip-path="url(#clip0_558_35)">
<path d="M85.0842 72.2066C83.5297 72.7566 82.1809 73.4455 80.826 74.2553C79.9066 74.8113 79.2292 75.5607 78.6365 76.437C75.2372 81.447 73.2291 83.3506 67.0234 84.2752C65.856 84.4505 64.7249 84.6983 63.5213 84.7466C59.7107 84.8856 57.6361 82.5287 51.2247 84.2088C49.6581 84.6197 48.0613 85.0246 46.4161 85.0004C43.4766 84.9461 40.6701 84.4868 37.8031 83.9187L33.176 83.0001C31.0288 82.571 29.1356 81.5134 27.4239 80.1899C26.2747 79.3016 25.1073 78.5945 23.8432 77.8934C22.6395 77.2287 21.4056 76.7392 20.2322 75.9777C16.8632 73.8021 13.6575 71.5237 10.5244 69.0157C8.84895 67.6741 7.70578 65.9457 6.71383 64.0904C6.09083 62.924 5.31663 61.945 4.60895 60.8391C4.35492 60.4402 4.15531 59.9749 3.86499 59.576L1.85084 55.8593C1.10687 54.4875 0.502025 53.1338 0 51.6592H4.46379C6.96182 59.6183 12.1877 65.3897 18.9197 70.1035C24.7081 74.1586 31.9179 78.2017 38.6801 80.2987C48.3577 83.3023 58.9789 83.0726 68.1 78.4857C71.7896 76.6304 76.2654 72.7566 79.0901 71.427L85.2293 68.5504C89.052 66.7555 92.5782 64.598 95.9533 62.0477C97.8646 60.7001 99.4009 59.1167 100.726 57.2009L104.5 51.7257L114.571 51.78C113.379 53.1761 112.079 54.0161 110.724 54.9951L106.732 57.5877C100.278 61.7818 98.8626 67.2994 91.671 69.8618L85.0842 72.2066Z" fill="#BEBEBE"/>
<path d="M64.1565 18.1966C65.0577 18.2268 64.8157 19.7376 64.6948 20.3541L59.7834 45.9417C59.6503 46.6427 59.1846 47.1141 58.483 47.1927C57.3217 47.3196 56.1301 47.2894 54.9627 47.2108C54.3277 47.0597 53.9285 46.7213 53.8075 46.0626L50.3659 27.4792L47.1118 46.0323C46.9908 46.7213 46.5493 47.0718 45.9021 47.2229C44.7226 47.2894 43.525 47.3135 42.3637 47.1927C41.6863 47.1202 41.269 46.6669 41.1419 45.99L36.1277 19.4657C36.0733 19.1817 36.2003 18.7103 36.3152 18.535C36.4302 18.3598 36.8233 18.1785 37.0532 18.1785H39.7871C40.1984 18.2993 40.4948 18.4806 40.5734 18.9339L44.3053 41.1433L48.2066 19.1091C48.2973 18.5954 48.7207 18.2449 49.2227 18.2087C50.1179 18.1543 51.007 18.1543 51.9143 18.1966C52.4708 18.2208 52.876 18.5954 52.9728 19.1394L57.0011 41.3125L60.7633 19.0547C60.9629 17.8702 62.7774 18.1362 64.1625 18.1905L64.1565 18.1966Z" fill="#BEBEBE"/>
<path d="M15.0425 47.2109C14.0989 47.2894 11.5041 47.5735 11.2259 46.6065L9.07868 39.2759C8.80649 38.3453 8.44963 37.469 7.9718 36.641C7.1613 35.239 5.93951 35.2692 4.44553 35.384V46.4857C4.44553 47.5493 1.57854 47.2894 0.816433 47.1384C0.471669 47.0658 0.175293 46.7455 0.175293 46.3527V19.7015C0.175293 19.0911 0.610785 18.3236 1.20959 18.3175C3.62293 18.2873 5.93951 18.2511 8.31657 18.3417C11.2501 18.4565 13.5606 20.3118 14.2864 23.116C15.2421 26.8085 14.6614 31.9393 10.6815 33.6979C12.2481 34.9912 12.6836 36.2482 13.3429 38.025L15.4598 44.8661C15.611 45.3556 15.6957 45.8572 15.7683 46.3829C15.8288 46.7999 15.4659 47.1867 15.0546 47.2169L15.0425 47.2109ZM9.99805 28.5006C10.3368 27.3101 10.3005 26.1256 9.992 24.9894C9.27223 22.3485 6.5625 22.8259 4.44553 22.7957V30.93L6.84073 30.924C8.33471 30.924 9.5807 29.9933 10.0041 28.5006H9.99805Z" fill="#BEBEBE"/>
<path d="M30.4421 40.5993L22.561 40.5872L21.1819 46.4795C21.067 46.8058 20.8371 47.0234 20.5166 47.2047C19.4702 47.2711 18.4601 47.392 17.4258 47.1201C17.0447 47.0234 16.954 46.2619 17.0629 45.8389L23.813 19.0788C23.934 18.5893 24.3574 18.2327 24.8352 18.2086C26.0812 18.1542 27.2727 18.1481 28.5127 18.2207C29.0086 18.2448 29.432 18.5893 29.5591 19.0849L36.3636 45.9356C36.4967 46.4613 36.3152 47.1503 35.8072 47.1986C34.7426 47.3074 33.7446 47.2772 32.6801 47.247C32.2809 47.1442 31.9845 46.9267 31.8756 46.5399L30.4482 40.5932L30.4421 40.5993ZM29.4139 36.0546L26.4743 23.8833L23.5287 36.0546H29.4139Z" fill="#BEBEBE"/>
<path d="M99.6911 51.8521C99.9089 51.6043 100.435 51.6648 100.768 51.8038C97.1205 56.7352 90.939 61.6182 85.4348 64.2652L78.594 67.5528C75.0435 69.257 71.8197 72.4237 68.1785 74.3214C60.134 78.5094 50.5229 78.7632 41.9764 75.9833C36.7747 74.2911 31.9238 71.626 27.3693 68.6466C20.8732 64.3981 15.1755 59.2492 12.4658 51.701C12.7924 51.6587 13.1251 51.6527 13.5062 51.701C15.6292 57.4362 19.8268 62.0835 24.714 65.6914C28.6092 68.5741 32.7162 71.0579 37.1134 73.1248C42.0067 75.4213 47.1116 76.7991 52.525 76.9563C58.9424 77.1436 65.6986 75.4998 70.9305 71.7529L74.5838 69.1361C76.0657 68.0786 77.5718 67.1962 79.217 66.4166L83.5356 64.3861C87.6304 62.4582 91.3563 59.9804 94.7858 57.0313C96.6125 55.46 98.058 53.7135 99.673 51.8642L99.6911 51.8521Z" fill="#BEBEBE"/>
<path d="M114.607 43.3855C113.79 46.1413 111.316 47.3077 108.619 47.3197L104.748 47.3318C104.385 47.3318 104.052 46.9753 104.052 46.6006V34.9187C104.052 34.5441 104.385 34.1875 104.748 34.1875H108.746C111.54 34.1996 114.044 35.5352 114.734 38.3997C115.127 40.0435 115.091 41.7659 114.607 43.3855ZM111.97 38.9134C111.323 36.3873 108.988 36.1637 106.726 36.3148V45.1985C107.609 45.2106 108.401 45.2106 109.224 45.0958C112.163 44.6969 112.562 41.2039 111.97 38.9134Z" fill="#BEBEBE"/>
<path d="M89.0037 47.1743C88.1085 47.4825 87.2798 47.4342 86.3544 47.2226L86.3302 41.6688H81.4128L81.3947 47.2166C80.4934 47.4402 79.6587 47.4644 78.7515 47.1985V34.2657C79.7797 34.0783 80.5055 34.0723 81.3947 34.2898L81.4128 39.3784H86.3242L86.3544 34.2838C87.2738 34.0602 88.0903 34.0421 88.9976 34.308V47.1683L89.0037 47.1743Z" fill="#BEBEBE"/>
<path d="M105.818 31.0146C103.314 29.9207 103.266 26.1255 103.907 23.9801C104.312 22.6385 105.328 21.6474 106.508 21.3512C107.978 20.9826 109.224 21.2968 110.397 22.3605L110.433 17.3143C111.341 17.0302 112.206 17.0061 113.064 17.3505V31.0388C112.284 31.2019 111.685 31.1898 110.911 31.0931L110.712 29.8966C109.423 31.2019 107.603 31.7881 105.818 31.0085V31.0146ZM110.427 27.6605L110.409 24.7839C110.01 24.3185 109.538 23.8351 109.006 23.5631C108.026 23.0736 106.974 23.5631 106.599 24.5542C106.175 25.6722 106.181 26.9172 106.599 28.0473C106.943 29.0021 107.929 29.4373 108.897 29.0263C109.49 28.7725 110.04 28.2105 110.427 27.6545V27.6605Z" fill="#BEBEBE"/>
<path d="M101.899 52.0874C102.153 51.7369 102.546 51.5556 102.861 51.8336L99.9452 55.925C98.8867 57.4116 97.7799 58.7895 96.3706 59.974C92.4391 63.2677 88.1325 65.8784 83.5054 68.0661L79.0779 70.1632C76.6948 71.2933 72.3883 74.8649 69.5032 76.5147C60.7691 81.5066 49.8819 81.8631 40.3978 78.8112C36.2727 77.4817 32.4803 75.6566 28.7484 73.487C19.7967 68.2716 11.5223 62.0348 8.23193 51.7127C8.46178 51.6765 8.70976 51.6765 8.98195 51.7127C11.3469 58.9769 16.3188 64.3132 22.458 68.6765C27.2907 72.1152 33.3453 75.6082 38.928 77.6388C44.0027 79.482 49.3193 80.4127 54.7146 80.1105C59.9103 79.8205 64.9003 78.503 69.4003 75.9467C72.7633 74.037 76.0355 70.9971 79.4227 69.4017C85.8764 66.3498 89.6567 64.5972 95.3665 60.0828C96.7819 58.9648 97.9311 57.6715 98.9775 56.203L101.899 52.0995V52.0874Z" fill="#BEBEBE"/>
<path d="M15.865 14.1055L15.7985 7.86274C15.7985 7.3974 15.4295 6.87163 15.1453 6.66011C14.1714 5.94095 12.9436 6.90185 12.3206 7.83857L12.3085 14.0451C11.4617 14.2808 10.6996 14.2687 9.75 14.0693V0.21788C10.6391 -0.0722015 11.4254 -0.0782448 12.2964 0.21788L12.3388 5.37892C13.742 4.06146 15.6231 3.71699 17.1352 4.78062C17.9276 5.33662 18.3691 6.40025 18.3751 7.39136L18.3993 14.0391C17.5767 14.2748 16.8812 14.2506 15.859 14.1055H15.865Z" fill="#BEBEBE"/>
<path d="M95.566 41.5546V45.2168L100.489 45.241C100.762 45.9239 100.762 46.5645 100.502 47.3199L93.6244 47.332C93.2252 47.332 92.8926 47.0238 92.8926 46.6129V34.9068C92.8926 34.4052 93.2857 34.1816 93.7454 34.1816L100.489 34.1998C100.695 34.9673 100.695 35.5293 100.489 36.2908L95.5781 36.3149L95.56 39.4756L99.7395 39.5059C99.9754 40.2008 99.9754 40.8112 99.7395 41.5304L95.566 41.5546Z" fill="#BEBEBE"/>
<path d="M73.1927 47.102C71.2088 47.8755 68.9648 47.6882 67.2471 46.546C66.9628 46.0867 66.9083 44.5336 67.3075 44.3402C67.7551 44.1226 69.2068 45.8087 71.5717 45.2829C72.2673 45.1318 72.7451 44.6303 72.8419 43.9957C72.9387 43.3611 72.5758 42.6843 71.9105 42.3579L69.3338 41.0949C68.0576 40.4664 67.3015 39.2819 67.2592 37.8919C67.2168 36.3206 68.0031 34.9186 69.5032 34.3505C71.2028 33.7099 73.1746 33.8005 74.7291 34.7856C74.9407 35.3658 74.9286 36.1756 74.7835 36.7799C74.6323 37.4205 73.3016 35.8371 71.3298 36.0728C70.6645 36.1514 70.1503 36.5563 70.0415 37.0942C69.9024 37.7468 70.1927 38.4177 70.8338 38.7319L73.5677 40.0615C74.7895 40.6598 75.5879 41.7596 75.6605 43.1073C75.7573 44.8478 74.9226 46.4251 73.2048 47.0959L73.1927 47.102Z" fill="#BEBEBE"/>
<path d="M77.1668 27.932C76.3805 31.129 72.951 31.8421 70.2352 31.0927C68.8622 30.712 67.8582 29.7027 67.4953 28.3309C66.7755 25.6053 67.4832 22.2029 70.6586 21.4233C73.0478 20.8371 76.2837 21.2783 77.1003 24.0945C77.4632 25.3515 77.4874 26.6629 77.1729 27.932H77.1668ZM72.3341 29.2978C73.3623 29.328 74.1305 28.7177 74.3966 27.7991C74.6869 26.7959 74.6748 25.6899 74.3966 24.6928C74.1184 23.6956 73.2655 23.194 72.2675 23.2242C71.2695 23.2544 70.5498 23.75 70.2534 24.6807C69.9207 25.7141 69.9268 26.8744 70.2534 27.926C70.5377 28.8204 71.3179 29.3643 72.3341 29.3039V29.2978Z" fill="#BEBEBE"/>
<path d="M95.3366 27.8539C94.5987 31.081 91.2055 31.8365 88.4413 31.1112C87.0622 30.7486 86.034 29.7515 85.659 28.3857C84.9271 25.7024 85.5804 22.3242 88.659 21.466C89.9353 21.1095 91.2901 21.1216 92.5724 21.466C95.4273 22.2396 95.887 25.4426 95.3426 27.8539H95.3366ZM92.5603 27.7693C92.8506 26.7479 92.8265 25.6299 92.5361 24.6569C92.2458 23.6839 91.4595 23.2247 90.5038 23.2247C89.5482 23.2247 88.7014 23.7202 88.3989 24.6871C88.0723 25.7447 88.0784 26.9232 88.4231 27.9747C88.7135 28.8631 89.4756 29.3043 90.3768 29.3164C91.393 29.3345 92.2639 28.8329 92.5603 27.7693Z" fill="#BEBEBE"/>
<path d="M87.0014 51.7188C87.2977 51.598 87.8239 51.6342 88.2231 51.7853C85.8279 53.8884 83.3118 55.647 80.6625 57.3754L75.6907 60.6086C73.7854 61.8475 71.741 62.6634 69.5394 63.2314L62.2993 65.0989C57.4968 66.3377 52.6641 66.3438 47.9099 64.8269C40.7243 62.5304 33.944 57.9012 29.3955 51.7007C29.831 51.6644 30.2121 51.6644 30.6113 51.6826C37.2767 60.3488 49.9967 67.2503 61.0654 64.4703L68.7349 62.5425C71.5233 61.8415 74.0515 60.7355 76.4407 59.134L82.7251 54.9399C84.2372 53.9307 85.5739 52.855 87.0074 51.7249L87.0014 51.7188Z" fill="#BEBEBE"/>
<path d="M26.2988 12.4191C28.3856 12.6124 29.8251 11.5428 30.055 11.9114C30.2243 12.1834 30.2606 13.3679 29.9521 13.6942C28.313 14.4194 26.5529 14.5645 24.823 14.2019C21.6415 13.531 21.2846 9.86876 21.95 7.3668C22.5064 5.26975 24.3089 4.09734 26.444 4.16381C27.8352 4.20612 29.1598 4.64124 29.9279 5.85596C30.5328 6.8229 30.6296 7.94696 30.6114 9.0952C30.5993 9.59076 30.3453 9.95941 29.807 9.95941H24.3512C24.2182 11.2346 24.9561 12.2982 26.2988 12.4191ZM28.1134 8.27935C28.1134 7.34263 27.9319 6.90146 27.4964 6.38777C26.8553 5.92243 25.9843 5.84991 25.3069 6.24878C24.6718 6.61742 24.3391 7.3668 24.327 8.28539H28.1134V8.27935Z" fill="#BEBEBE"/>
<path d="M82.1871 51.7376C82.4956 51.5261 83.1911 51.653 83.6387 51.7558C82.6347 52.5777 81.6367 53.2908 80.554 54.0099L75.6063 57.3096C73.695 58.5848 71.7474 59.6303 69.5276 60.2104L62.0093 62.1806C57.6786 63.3167 53.2935 63.2503 48.999 61.8542C43.0715 59.9264 37.7851 56.4696 33.6479 51.7195C34.1258 51.6228 34.5794 51.6289 35.0935 51.7014C38.9343 55.9076 43.7792 59.0078 49.1926 60.8148C53.7108 62.3196 58.3439 62.1564 62.9166 60.9659L68.7655 59.4429C70.9672 58.8688 72.9571 57.9381 74.8563 56.6811L78.2979 54.3967L82.1931 51.7376H82.1871Z" fill="#BEBEBE"/>
<path d="M80.1847 62.7238C86.6505 59.9801 92.3119 57.2122 96.9511 51.8155C97.0721 51.6765 97.5015 51.7007 97.5801 51.8336C92.5659 57.7561 86.8622 60.3185 79.9367 63.3523C74.5475 65.7092 73.7309 67.3893 69.5091 69.9214C65.2872 72.4536 60.8779 73.5656 56.1298 73.759C50.7104 73.9826 45.4421 72.8102 40.5065 70.6104C37.0468 69.0693 33.8834 67.2503 30.7443 65.1532C25.5365 61.6783 20.861 57.5446 18.1997 51.7188C18.3691 51.6644 18.6594 51.6705 18.8408 51.743C20.9941 56.3722 24.7563 60.1795 28.8632 63.171C33.8955 66.8393 39.7686 70.1934 45.7808 71.9701C48.8353 72.8766 51.8475 73.2513 55.0592 73.2453C60.0855 73.2453 65.009 72.0668 69.3216 69.5044C73.6341 66.942 74.6321 65.0867 80.1968 62.7298L80.1847 62.7238Z" fill="#BEBEBE"/>
<path d="M98.3607 52.0331C98.5482 51.8035 98.7841 51.6826 99.032 51.87C97.2417 54.1 95.3667 56.0882 93.2557 57.9677C89.4633 61.3399 83.7717 63.8419 79.0902 65.8906C73.9913 68.1206 72.3522 70.4473 68.3118 72.7317C64.2714 75.0161 59.9769 76.0918 55.4043 76.267C46.0352 76.6297 38.0995 72.9311 30.4784 67.9091C25.8271 64.8451 21.7868 61.4668 18.8411 56.6926C17.8189 55.0367 16.8028 53.544 16.0044 51.7249C16.1435 51.6524 16.5185 51.6403 16.5669 51.7491C17.2685 53.272 18.2423 54.7043 19.1073 56.1487C22.071 61.0982 26.2808 64.5792 31.053 67.7096C34.4523 69.9336 37.912 71.8796 41.6984 73.3844C47.263 75.5962 53.2268 76.406 59.1543 75.4452C62.7532 74.865 66.1283 73.6865 69.1767 71.7466C73.2352 69.1661 74.3058 67.5283 79.199 65.4071C85.5137 62.6634 90.9452 60.1796 95.6691 55.0427C96.5945 54.0335 97.4534 53.127 98.3546 52.0392L98.3607 52.0331Z" fill="#BEBEBE"/>
<path d="M6.32679 11.9959C6.61712 12.3948 6.70785 13.4584 6.32074 13.8996C5.83081 14.4556 4.9054 14.3347 4.20982 14.3408C2.77633 14.3649 1.65131 13.3376 1.63921 11.8751L1.59082 6.52063L0.260153 6.43602C0.0363584 5.72291 0.0363584 5.08231 0.284347 4.42963L1.57268 4.38128L1.65131 2.07875C2.56463 1.90954 3.32069 1.89141 4.15538 2.12106L4.19772 4.38128L6.3026 4.42358C6.71994 4.97353 6.62317 5.83169 6.35703 6.47833L4.18562 6.51459L4.19772 11.0834C4.19772 11.4641 4.43361 12.008 4.79047 12.1289C5.2683 12.286 5.75218 12.1047 6.34494 12.002L6.32679 11.9959Z" fill="#BEBEBE"/>
<path d="M92.8624 51.7853C93.0075 51.6524 93.3463 51.7007 93.4128 51.8639C89.6385 55.7135 84.5578 58.0946 79.6767 60.2158C74.8258 62.325 74.4326 63.3282 70.4346 65.9933C67.5555 67.9151 64.3498 69.0996 60.9082 69.6918C51.5451 71.2873 43.422 68.1447 35.6678 63.1952C30.8835 60.1433 26.5346 56.7349 23.6011 51.743C23.9942 51.5134 24.212 51.7128 24.4055 52.021C26.0326 54.6318 28.0528 56.8557 30.4601 58.8198C34.1799 61.8476 38.2263 64.3797 42.5691 66.4284C46.6519 68.3563 50.8858 69.4682 55.398 69.5831C60.267 69.7039 65.0091 68.7128 69.2007 66.2532C70.7975 65.3164 72.1947 64.2286 73.6705 63.1287C75.5455 61.7327 77.4508 60.6872 79.5859 59.7686C82.0053 58.7231 84.3098 57.6353 86.6143 56.3602C88.9127 55.0911 90.9208 53.6286 92.8503 51.7853H92.8624Z" fill="#BEBEBE"/>
<path d="M72.2979 51.6951C72.8664 51.6407 73.3443 51.6407 73.8826 51.6951C71.4571 53.4174 70.0357 54.1426 67.199 54.8799L62.6384 56.0644C56.6565 57.6176 50.8318 55.3634 45.999 51.7011C46.6281 51.6165 47.2208 51.6226 47.8015 51.6709C52.737 54.9102 57.5456 56.427 63.4005 54.8437L67.6284 53.7015C69.2857 53.2543 70.7918 52.6439 72.2979 51.689V51.6951Z" fill="#BEBEBE"/>
<path d="M79.1687 51.9309C79.5739 51.659 80.0034 51.52 80.3784 51.7919L74.5174 55.708C72.3641 57.1464 70.0718 58.1012 67.5737 58.7418L63.1825 59.8719C60.9083 60.4581 58.6704 60.9356 56.2872 60.9053C49.0532 60.8207 41.7043 56.8079 36.6841 51.7255C36.926 51.6167 37.4159 51.5744 37.6337 51.7799C41.4745 55.4663 46.0653 58.2281 51.2368 59.6121C55.0775 60.6394 58.997 60.3373 62.8015 59.3582L67.7491 58.0831C70.2532 57.4364 72.5093 56.3909 74.6505 54.9526L79.1747 51.9189L79.1687 51.9309Z" fill="#BEBEBE"/>
<path d="M67.6038 51.7739L63.8235 52.8073C60.2186 53.7924 56.5109 53.4842 53.1177 51.7316C53.5834 51.647 54.2246 51.5503 54.66 51.7135C57.7629 52.8919 60.9444 53.0249 64.132 52.0761C65.263 51.7377 66.3639 51.4415 67.6038 51.7739Z" fill="#BEBEBE"/>
<path d="M71.082 51.6583C70.1324 52.3049 68.9469 52.6555 67.7614 52.9637L62.1484 54.4201C58.108 55.4656 53.0515 53.9004 49.5312 51.6643C49.997 51.622 50.4627 51.8033 50.9164 52.0572C55.2168 54.4564 60.0677 54.825 64.7553 53.4774L71.082 51.6583Z" fill="#BEBEBE"/>
</g>
<defs>
<clipPath id="clip0_558_35">
<rect width="115" height="85" fill="white"/>
</clipPath>
</defs>
</svg>
