<svg width="230" height="76" viewBox="0 0 230 76" fill="none" xmlns="http://www.w3.org/2000/svg">
<path d="M50.889 67.8594C42.9169 66.6692 28.1657 61.1875 22.1306 50.3776V50.3716C16.7843 40.7854 20.0594 28.5418 20.8644 25.8891C20.8812 25.8387 20.898 25.7944 20.9087 25.75C20.9926 25.4992 21.0369 25.366 21.0369 25.366L28.7994 2.37012C26.3401 31.3613 49.1017 37.1609 49.1017 37.1609C42.9888 36.6774 36.877 39.1298 31.2528 42.8934C34.2224 57.9565 50.889 67.8594 50.889 67.8594Z" fill="#2EADB3"/>
<path d="M22.1318 50.3721C12.7605 59.4303 6.18749 69.8947 5.81494 70.4946L20.8656 25.8896C20.0606 28.5435 16.7855 40.7872 22.1318 50.3721Z" fill="#6F7273"/>
<path d="M53.7534 4.93772H67.3546V6.36665C63.3811 6.72298 62.6683 7.08051 62.6683 11.6216V20.3967C63.6865 20.2947 64.8593 19.4789 66.3363 18.05C69.1886 15.3457 72.6026 11.8772 74.9458 9.22329C76.4731 7.48843 76.321 6.82496 74.13 6.51902L72.7045 6.36545V4.93652H85.0825V6.36545C81.2624 6.82376 79.9375 7.07931 76.5246 10.5994C74.9961 12.0787 71.0226 15.9564 67.7619 19.1706C71.6335 23.7621 77.2877 30.2936 79.9375 33.0986C82.5358 35.9049 83.1982 36.3128 86.3559 36.6703V38.0981H78.2053C74.2833 33.6601 70.1565 28.7111 65.5206 23.3025C64.349 21.8736 63.4829 21.7716 62.6683 21.8232V31.5173C62.6683 35.9565 63.1271 36.3128 67.3546 36.6703V38.0981H53.7534V36.6703C57.9306 36.3128 58.3378 35.9565 58.3378 31.5173V11.6216C58.3378 7.03012 57.9809 6.67259 53.7534 6.36665V4.93772Z" fill="#6F7273"/>
<path d="M211.612 38.1019V36.6742C214.962 36.2663 215.374 35.7552 214.653 33.8163C213.983 31.8259 212.554 28.0899 211.472 24.8757L201.062 24.8073C200.238 27.1037 199.143 30.3478 198.422 32.439C197.289 35.7552 198.01 36.1631 202.235 36.6742V38.1019H190.333V36.6742C193.579 36.2663 194.403 35.9087 196.206 31.3172L206.871 4.53125L209.613 4.56964C212.859 13.2943 215.321 22.5925 218.567 31.4192C220.216 35.8571 220.679 36.2663 224.338 36.6742V38.1019H211.612ZM206.685 10.9092C205.116 14.8864 203.447 19.094 201.976 22.7461H211.149L206.685 10.9092Z" fill="#2EADB3"/>
<path d="M106.352 38.1019V36.6742C109.701 36.2663 110.113 35.7552 109.392 33.8163C108.722 31.8259 107.293 28.0899 106.211 24.8757L95.8015 24.8073C94.9774 27.1037 93.8825 30.3478 93.1613 32.439C92.0281 35.7552 92.7492 36.1631 96.9743 36.6742V38.1019H85.0718V36.6742C88.3181 36.2663 89.1423 35.9087 90.9452 31.3172L101.61 4.53125L104.352 4.56964C107.599 13.2943 110.06 22.5925 113.307 31.4192C114.955 35.8571 115.419 36.2663 119.077 36.6742V38.1019H106.352ZM101.425 10.9092C99.8553 14.8864 98.1866 19.094 96.7155 22.7461H105.888L101.425 10.9092Z" fill="#6F7273"/>
<path d="M76.5698 71.8626C76.2056 71.8626 75.7552 71.8446 75.2209 71.8074C74.6866 71.7702 74.1931 71.7522 73.7439 71.7522C73.3306 71.7522 72.9329 71.7582 72.5495 71.7702C72.1674 71.7822 71.8224 71.7882 71.5193 71.7882C71.4942 71.7882 71.4834 71.7522 71.4834 71.6791C71.4834 71.6059 71.4954 71.5699 71.5193 71.5699C71.9446 71.5699 72.2668 71.5399 72.4861 71.4787C72.7041 71.4175 72.8502 71.2963 72.9233 71.1128C72.9964 70.9304 73.0323 70.6629 73.0323 70.3089V61.8542C73.0323 61.5014 72.9964 61.2363 72.9233 61.0599C72.8502 60.8836 72.7077 60.7612 72.4944 60.694C72.2812 60.6268 71.9686 60.5932 71.5553 60.5932C71.5193 60.5932 71.5002 60.5572 71.5002 60.484C71.5002 60.4109 71.5181 60.3749 71.5553 60.3749C71.8595 60.3749 72.1962 60.3845 72.5675 60.4025C72.9377 60.4205 73.3294 60.4301 73.7439 60.4301C74.1571 60.4301 74.604 60.4145 75.0843 60.3845C75.5647 60.3545 75.9744 60.3389 76.3158 60.3389C77.6048 60.3389 78.726 60.5824 79.6807 61.0695C80.6355 61.5566 81.3794 62.2201 81.9149 63.0599C82.4503 63.8998 82.7175 64.844 82.7175 65.8914C82.7175 66.8056 82.5557 67.6299 82.2335 68.3665C81.9113 69.1032 81.4644 69.7306 80.893 70.2477C80.3216 70.7648 79.6652 71.1644 78.9237 71.4439C78.1798 71.7234 77.3963 71.8626 76.5698 71.8626ZM76.3865 71.5339C77.2981 71.5339 78.1031 71.3335 78.8027 70.9316C79.5023 70.5297 80.0521 69.9358 80.4534 69.1512C80.8547 68.3665 81.0548 67.4127 81.0548 66.2921C81.0548 65.2327 80.8667 64.2801 80.4893 63.4331C80.112 62.5872 79.5873 61.9118 78.9117 61.4055C78.2373 60.9004 77.4311 60.6472 76.4955 60.6472C75.766 60.6472 75.2473 60.7204 74.937 60.8668C74.6267 61.0131 74.4722 61.3539 74.4722 61.8902V70.1086C74.4722 70.5957 74.5932 70.9544 74.8364 71.186C75.0795 71.4187 75.597 71.5339 76.3865 71.5339Z" fill="#060606"/>
<path d="M87.4013 70.3103C87.4013 70.663 87.4348 70.9317 87.5019 71.1141C87.5678 71.2977 87.7079 71.4189 87.9212 71.48C88.1344 71.5412 88.453 71.5712 88.8783 71.5712C88.9034 71.5712 88.9154 71.6072 88.9154 71.6804C88.9154 71.7536 88.9034 71.7896 88.8783 71.7896C88.574 71.7896 88.2374 71.7836 87.866 71.7716C87.4947 71.7596 87.091 71.7536 86.6538 71.7536C86.2285 71.7536 85.8272 71.7596 85.4499 71.7716C85.0725 71.7836 84.7323 71.7896 84.4292 71.7896C84.4041 71.7896 84.3921 71.7536 84.3921 71.6804C84.3921 71.6072 84.4041 71.5712 84.4292 71.5712C84.8545 71.5712 85.1767 71.5412 85.3959 71.48C85.614 71.4189 85.7601 71.2977 85.8332 71.1141C85.9063 70.9317 85.9422 70.6642 85.9422 70.3103V61.8543C85.9422 61.5016 85.9051 61.2364 85.8332 61.0601C85.7601 60.8837 85.614 60.7613 85.3959 60.6941C85.1779 60.627 84.8545 60.5934 84.4292 60.5934C84.4041 60.5934 84.3921 60.5574 84.3921 60.4842C84.3921 60.411 84.4041 60.375 84.4292 60.375C84.7323 60.375 85.0737 60.3846 85.4499 60.4026C85.8272 60.4206 86.2285 60.4302 86.6538 60.4302C87.091 60.4302 87.4983 60.4206 87.8756 60.4026C88.2518 60.3846 88.586 60.375 88.8783 60.375C88.9034 60.375 88.9154 60.4122 88.9154 60.4842C88.9154 60.5574 88.9034 60.5934 88.8783 60.5934C88.453 60.5934 88.1368 60.6294 87.9307 60.7025C87.7235 60.7757 87.5845 60.9029 87.5115 61.0853C87.4384 61.2676 87.4025 61.5364 87.4025 61.8891V70.3103H87.4013Z" fill="#060606"/>
<path d="M101.899 60.3752C101.935 60.3752 101.955 60.4124 101.955 60.4844C101.955 60.5576 101.937 60.5936 101.899 60.5936C101.486 60.5936 101.112 60.7244 100.778 60.9859C100.444 61.2487 100.161 61.671 99.93 62.2553L96.2093 71.7706C96.1973 71.8186 96.1326 71.8438 96.0176 71.8438C95.9014 71.8438 95.832 71.8186 95.808 71.7706L91.2308 61.8893C91.0235 61.4382 90.8079 61.1095 90.5839 60.9031C90.3599 60.6968 90.076 60.5924 89.7358 60.5924C89.6998 60.5924 89.6807 60.5564 89.6807 60.4832C89.6807 60.41 89.6986 60.374 89.7358 60.374C89.8939 60.374 90.0388 60.38 90.173 60.3932C90.3072 60.4052 90.4521 60.4148 90.6102 60.4208C90.7684 60.4268 90.9624 60.4304 91.1936 60.4304C91.6548 60.4304 92.0513 60.428 92.3796 60.4208C92.7078 60.4148 92.9869 60.4064 93.2181 60.3932C93.4481 60.3812 93.6553 60.374 93.8386 60.374C93.8746 60.374 93.8937 60.4112 93.8937 60.4832C93.8937 60.5564 93.8758 60.5924 93.8386 60.5924C93.3523 60.5924 93.0181 60.6992 92.836 60.9127C92.6539 61.1263 92.6719 61.4694 92.8911 61.9445L96.6298 70.0909L95.9733 71.1503L99.4928 62.1641C99.6869 61.665 99.6905 61.2786 99.5012 61.0039C99.3131 60.7304 98.8962 60.5936 98.2518 60.5936C98.2158 60.5936 98.1966 60.5576 98.1966 60.4844C98.1966 60.4112 98.2146 60.3752 98.2518 60.3752C98.568 60.3752 98.8687 60.3848 99.155 60.4028C99.4401 60.4208 99.8138 60.4304 100.276 60.4304C100.628 60.4304 100.911 60.4208 101.124 60.4028C101.336 60.3848 101.595 60.3752 101.899 60.3752Z" fill="#060606"/>
<path d="M105.62 70.3103C105.62 70.663 105.653 70.9317 105.72 71.1141C105.786 71.2977 105.926 71.4189 106.139 71.48C106.353 71.5412 106.671 71.5712 107.097 71.5712C107.122 71.5712 107.134 71.6072 107.134 71.6804C107.134 71.7536 107.122 71.7896 107.097 71.7896C106.792 71.7896 106.456 71.7836 106.084 71.7716C105.713 71.7596 105.309 71.7536 104.872 71.7536C104.447 71.7536 104.045 71.7596 103.668 71.7716C103.291 71.7836 102.951 71.7896 102.647 71.7896C102.622 71.7896 102.61 71.7536 102.61 71.6804C102.61 71.6072 102.622 71.5712 102.647 71.5712C103.073 71.5712 103.395 71.5412 103.614 71.48C103.832 71.4189 103.978 71.2977 104.051 71.1141C104.125 70.9317 104.16 70.6642 104.16 70.3103V61.8543C104.16 61.5016 104.123 61.2364 104.051 61.0601C103.978 60.8837 103.832 60.7613 103.614 60.6941C103.396 60.627 103.073 60.5934 102.647 60.5934C102.622 60.5934 102.61 60.5574 102.61 60.4842C102.61 60.411 102.622 60.375 102.647 60.375C102.951 60.375 103.292 60.3846 103.668 60.4026C104.044 60.4206 104.447 60.4302 104.872 60.4302C105.309 60.4302 105.717 60.4206 106.094 60.4026C106.47 60.3846 106.804 60.375 107.097 60.375C107.122 60.375 107.134 60.4122 107.134 60.4842C107.134 60.5574 107.122 60.5934 107.097 60.5934C106.671 60.5934 106.355 60.6294 106.149 60.7025C105.942 60.7757 105.803 60.9029 105.73 61.0853C105.657 61.2676 105.621 61.5364 105.621 61.8891V70.3103H105.62Z" fill="#060606"/>
<path d="M119.387 72.0291C119.387 72.0531 119.359 72.0687 119.305 72.0747C119.25 72.0807 119.211 72.0771 119.187 72.0663L110.598 61.8755C110.171 61.3764 109.805 61.038 109.494 60.8617C109.184 60.6853 108.877 60.5965 108.573 60.5965C108.548 60.5965 108.537 60.5605 108.537 60.4873C108.537 60.4142 108.549 60.3782 108.573 60.3782C108.804 60.3782 109.035 60.3842 109.267 60.3974C109.498 60.4094 109.71 60.4153 109.905 60.4153C110.197 60.4153 110.465 60.4094 110.708 60.3974C110.951 60.3854 111.133 60.3782 111.254 60.3782C111.412 60.3782 111.527 60.4489 111.601 60.5881C111.674 60.7285 111.851 60.9744 112.13 61.3284L119.242 69.9127L119.387 72.0291ZM110.159 69.7087V60.7957L110.633 60.8329V69.7087C110.633 70.3422 110.748 70.8113 110.98 71.1149C111.211 71.4196 111.575 71.572 112.075 71.572C112.099 71.572 112.11 71.608 112.11 71.6812C112.11 71.7543 112.099 71.7903 112.075 71.7903C111.819 71.7903 111.561 71.7843 111.3 71.7723C111.038 71.7603 110.744 71.7543 110.415 71.7543C110.099 71.7543 109.789 71.7603 109.485 71.7723C109.182 71.7843 108.895 71.7903 108.628 71.7903C108.603 71.7903 108.591 71.7543 108.591 71.6812C108.591 71.608 108.603 71.572 108.628 71.572C109.162 71.572 109.552 71.4196 109.795 71.1149C110.038 70.8113 110.159 70.3422 110.159 69.7087ZM119.387 62.4765V72.0291L118.93 71.4628V62.4765C118.93 61.8431 118.818 61.3716 118.592 61.0608C118.367 60.7501 118.005 60.5953 117.507 60.5953C117.482 60.5953 117.471 60.5593 117.471 60.4861C117.471 60.413 117.483 60.377 117.507 60.377C117.762 60.377 118.023 60.3866 118.292 60.4046C118.559 60.4225 118.851 60.4321 119.166 60.4321C119.471 60.4321 119.768 60.4225 120.06 60.4046C120.352 60.3866 120.625 60.377 120.88 60.377C120.904 60.377 120.916 60.4141 120.916 60.4861C120.916 60.5593 120.904 60.5953 120.88 60.5953C120.37 60.5953 119.993 60.7501 119.75 61.0608C119.509 61.3716 119.387 61.8431 119.387 62.4765Z" fill="#060606"/>
<path d="M129.801 71.7908H122.032C121.996 71.7908 121.977 71.7548 121.977 71.6816C121.977 71.6084 121.995 71.5724 122.032 71.5724C122.445 71.5724 122.759 71.5424 122.971 71.4812C123.185 71.42 123.327 71.2989 123.4 71.1153C123.473 70.9329 123.509 70.6654 123.509 70.3115V61.8543C123.509 61.5016 123.473 61.2364 123.4 61.0601C123.327 60.8837 123.185 60.7613 122.971 60.6941C122.758 60.627 122.445 60.5934 122.032 60.5934C121.996 60.5934 121.977 60.5574 121.977 60.4842C121.977 60.411 121.995 60.375 122.032 60.375H129.472C129.593 60.375 129.654 60.4302 129.654 60.5394L129.692 62.8405C129.692 62.8765 129.658 62.8981 129.591 62.9041C129.524 62.9101 129.484 62.8945 129.472 62.8585C129.387 62.189 129.15 61.6804 128.761 61.3336C128.372 60.9869 127.861 60.8129 127.229 60.8129H126.299C125.934 60.8129 125.655 60.8429 125.461 60.9041C125.267 60.9653 125.132 61.0781 125.059 61.2424C124.986 61.4068 124.95 61.6348 124.95 61.9275V70.2383C124.95 70.531 124.984 70.759 125.051 70.9234C125.118 71.0877 125.243 71.2029 125.425 71.2701C125.607 71.3373 125.862 71.3709 126.19 71.3709H127.394C128.088 71.3709 128.659 71.1669 129.108 70.759C129.557 70.3511 129.868 69.7692 130.038 69.0145C130.038 68.9785 130.074 68.9665 130.147 68.9785C130.22 68.9905 130.256 69.0145 130.256 69.0517C130.207 69.3804 130.165 69.7764 130.129 70.2395C130.092 70.7014 130.074 71.1285 130.074 71.5172C130.074 71.6984 129.983 71.7908 129.801 71.7908ZM128.78 67.5892C128.78 67.0661 128.63 66.6786 128.333 66.429C128.035 66.1795 127.558 66.0547 126.902 66.0547H124.258V65.6348H126.957C127.577 65.6348 128.033 65.528 128.325 65.3144C128.616 65.1009 128.762 64.7698 128.762 64.3186C128.762 64.2946 128.796 64.2826 128.863 64.2826C128.929 64.2826 128.963 64.2946 128.963 64.3186C128.963 64.6966 128.96 64.9881 128.954 65.1957C128.948 65.4032 128.945 65.6216 128.945 65.8531C128.945 66.1339 128.954 66.4134 128.973 66.693C128.992 66.9725 129 67.2713 129 67.588C129 67.6132 128.964 67.624 128.891 67.624C128.816 67.6264 128.78 67.6144 128.78 67.5892Z" fill="#060606"/>
<path d="M139.046 70.2388C139.046 70.6035 139.091 70.8807 139.183 71.0702C139.274 71.2586 139.465 71.3894 139.756 71.4625C140.049 71.5357 140.486 71.5717 141.069 71.5717C141.105 71.5717 141.124 71.6077 141.124 71.6809C141.124 71.7541 141.106 71.7901 141.069 71.7901C140.68 71.7901 140.258 71.7841 139.802 71.7721C139.345 71.7601 138.851 71.7541 138.315 71.7541C137.914 71.7541 137.522 71.7601 137.139 71.7721C136.757 71.7841 136.412 71.7901 136.109 71.7901C136.084 71.7901 136.073 71.7541 136.073 71.6809C136.073 71.6077 136.085 71.5717 136.109 71.5717C136.534 71.5717 136.853 71.5417 137.066 71.4805C137.278 71.4194 137.418 71.2982 137.485 71.1146C137.551 70.9322 137.586 70.6647 137.586 70.3108V61.8548C137.586 61.5021 137.552 61.2369 137.485 61.0606C137.418 60.8842 137.278 60.7618 137.066 60.6946C136.853 60.6275 136.534 60.5939 136.109 60.5939C136.084 60.5939 136.073 60.5579 136.073 60.4847C136.073 60.4115 136.085 60.3755 136.109 60.3755C136.412 60.3755 136.753 60.3851 137.131 60.4031C137.507 60.4211 137.896 60.4307 138.297 60.4307C138.614 60.4307 138.999 60.4127 139.456 60.3755C139.912 60.3395 140.371 60.3203 140.832 60.3203C141.538 60.3203 142.173 60.4247 142.738 60.631C143.303 60.8386 143.756 61.1613 144.096 61.5993C144.437 62.0372 144.613 62.6095 144.626 63.3161C144.626 63.9496 144.51 64.4979 144.28 64.9598C144.048 65.4229 143.736 65.8068 143.341 66.1104C142.945 66.4151 142.508 66.6395 142.028 66.7859C141.547 66.9322 141.076 67.0054 140.614 67.0054C140.468 67.0054 140.319 66.9994 140.167 66.9874C140.015 66.9754 139.873 66.9514 139.738 66.9142C139.689 66.9022 139.675 66.8566 139.693 66.7775C139.711 66.6983 139.738 66.6647 139.774 66.6767C139.883 66.7019 139.996 66.7199 140.112 66.7319C140.227 66.7439 140.328 66.7499 140.413 66.7499C140.874 66.7499 141.3 66.6407 141.689 66.4211C142.078 66.2028 142.393 65.8644 142.637 65.4073C142.881 64.9502 143.001 64.3815 143.001 63.7001C143.001 63.0426 142.889 62.4883 142.664 62.0384C142.438 61.5873 142.126 61.2405 141.725 60.997C141.323 60.7534 140.861 60.631 140.339 60.631C139.998 60.631 139.734 60.6562 139.546 60.7042C139.357 60.7534 139.227 60.8686 139.154 61.051C139.081 61.2333 139.045 61.5141 139.045 61.8908V70.2388H139.046Z" fill="#060606"/>
<path d="M155.786 62.4758C155.786 61.8663 155.649 61.4008 155.376 61.0781C155.103 60.7553 154.698 60.5934 154.164 60.5934C154.128 60.5934 154.108 60.5574 154.108 60.4842C154.108 60.411 154.126 60.375 154.164 60.375C154.443 60.375 154.735 60.3846 155.039 60.4026C155.342 60.4206 155.672 60.4302 156.024 60.4302C156.327 60.4302 156.628 60.4206 156.926 60.4026C157.224 60.3846 157.501 60.375 157.756 60.375C157.78 60.375 157.793 60.4122 157.793 60.4842C157.793 60.5574 157.781 60.5934 157.756 60.5934C157.27 60.5934 156.902 60.7553 156.653 61.0781C156.404 61.4008 156.279 61.8663 156.279 62.4758V67.6444C156.279 68.5574 156.097 69.3433 155.733 70.0007C155.368 70.6582 154.857 71.1609 154.201 71.5076C153.544 71.8544 152.779 72.0283 151.903 72.0283C151.003 72.0283 150.213 71.8544 149.532 71.5076C148.852 71.1597 148.323 70.6642 147.945 70.0187C147.568 69.3732 147.38 68.6066 147.38 67.7176V61.8543C147.38 61.5016 147.343 61.2364 147.271 61.0601C147.198 60.8837 147.055 60.7613 146.842 60.6941C146.629 60.627 146.316 60.5934 145.903 60.5934C145.866 60.5934 145.848 60.5574 145.848 60.4842C145.848 60.411 145.866 60.375 145.903 60.375C146.206 60.375 146.541 60.3846 146.905 60.4026C147.271 60.4206 147.665 60.4302 148.091 60.4302C148.529 60.4302 148.933 60.4206 149.304 60.4026C149.675 60.3846 150 60.375 150.279 60.375C150.315 60.375 150.334 60.4122 150.334 60.4842C150.334 60.5574 150.316 60.5934 150.279 60.5934C149.865 60.5934 149.552 60.6294 149.34 60.7025C149.126 60.7757 148.987 60.9029 148.92 61.0853C148.853 61.2676 148.82 61.5364 148.82 61.8891V67.0757C148.82 68.537 149.136 69.63 149.768 70.3547C150.4 71.0793 151.275 71.4417 152.394 71.4417C153.464 71.4417 154.297 71.1105 154.893 70.4458C155.488 69.7824 155.787 68.8538 155.787 67.6612V62.4758H155.786Z" fill="#060606"/>
<path d="M163.7 60.3203C164.722 60.3203 165.503 60.5363 166.045 60.9682C166.586 61.4001 166.856 61.976 166.856 62.6946C166.856 63.3761 166.66 63.9856 166.272 64.5207C165.883 65.057 165.375 65.4769 164.75 65.7817C164.123 66.0864 163.452 66.2388 162.735 66.2388C162.589 66.2388 162.436 66.2364 162.278 66.2292C162.12 66.2232 161.974 66.2136 161.841 66.2016V70.3108C161.841 70.6635 161.875 70.9322 161.942 71.1146C162.009 71.2982 162.149 71.4194 162.361 71.4805C162.574 71.5417 162.893 71.5717 163.318 71.5717C163.354 71.5717 163.373 71.6077 163.373 71.6809C163.373 71.7541 163.355 71.7901 163.318 71.7901C163.014 71.7901 162.68 71.7841 162.315 71.7721C161.951 71.7601 161.55 71.7541 161.111 71.7541C160.698 71.7541 160.303 71.7601 159.926 71.7721C159.548 71.7841 159.208 71.7901 158.904 71.7901C158.868 71.7901 158.849 71.7541 158.849 71.6809C158.849 71.6077 158.867 71.5717 158.904 71.5717C159.317 71.5717 159.631 71.5417 159.843 71.4805C160.056 71.4194 160.201 71.2982 160.28 71.1146C160.359 70.9322 160.399 70.6647 160.399 70.3108V61.8548C160.399 61.5021 160.363 61.2369 160.29 61.0606C160.217 60.8842 160.076 60.7618 159.87 60.6946C159.663 60.6275 159.347 60.5939 158.922 60.5939C158.898 60.5939 158.886 60.5579 158.886 60.4847C158.886 60.4115 158.898 60.3755 158.922 60.3755C159.226 60.3755 159.563 60.3851 159.934 60.4031C160.304 60.4211 160.696 60.4307 161.11 60.4307C161.5 60.4307 161.937 60.4127 162.423 60.3755C162.91 60.3383 163.336 60.3203 163.7 60.3203ZM165.361 63.2801C165.361 62.5987 165.269 62.066 165.087 61.682C164.905 61.2981 164.647 61.0282 164.312 60.8698C163.978 60.7114 163.585 60.6322 163.136 60.6322C162.674 60.6322 162.343 60.7138 162.142 60.8782C161.94 61.0426 161.841 61.3809 161.841 61.892V65.7457C162.011 65.7577 162.197 65.7708 162.397 65.7828C162.598 65.7948 162.771 65.8008 162.917 65.8008C163.816 65.8008 164.449 65.5933 164.813 65.1794C165.177 64.7654 165.361 64.132 165.361 63.2801ZM168.077 71.7913C167.883 71.7913 167.563 71.5573 167.12 71.0882C166.676 70.6191 166.145 69.9496 165.525 69.0786C164.904 68.2088 164.206 67.1698 163.427 65.9652L164.649 65.5813C165.671 67.0546 166.537 68.2292 167.247 69.1062C167.958 69.9832 168.588 70.6131 169.135 70.997C169.683 71.381 170.205 71.5729 170.703 71.5729C170.74 71.5729 170.758 71.6089 170.758 71.6821C170.758 71.7553 170.74 71.7913 170.703 71.7913C170.023 71.7913 169.466 71.7913 169.035 71.7913C168.603 71.7913 168.283 71.7913 168.077 71.7913Z" fill="#060606"/>
<path d="M174.332 70.3103C174.332 70.663 174.365 70.9317 174.433 71.1141C174.498 71.2977 174.639 71.4189 174.852 71.48C175.065 71.5412 175.384 71.5712 175.809 71.5712C175.834 71.5712 175.846 71.6072 175.846 71.6804C175.846 71.7536 175.834 71.7896 175.809 71.7896C175.505 71.7896 175.168 71.7836 174.797 71.7716C174.425 71.7596 174.022 71.7536 173.584 71.7536C173.159 71.7536 172.758 71.7596 172.381 71.7716C172.003 71.7836 171.663 71.7896 171.36 71.7896C171.335 71.7896 171.323 71.7536 171.323 71.6804C171.323 71.6072 171.335 71.5712 171.36 71.5712C171.785 71.5712 172.107 71.5412 172.327 71.48C172.545 71.4189 172.691 71.2977 172.764 71.1141C172.837 70.9317 172.873 70.6642 172.873 70.3103V61.8543C172.873 61.5016 172.836 61.2364 172.764 61.0601C172.691 60.8837 172.545 60.7613 172.327 60.6941C172.109 60.627 171.785 60.5934 171.36 60.5934C171.335 60.5934 171.323 60.5574 171.323 60.4842C171.323 60.411 171.335 60.375 171.36 60.375C171.663 60.375 172.004 60.3846 172.381 60.4026C172.758 60.4206 173.159 60.4302 173.584 60.4302C174.022 60.4302 174.429 60.4206 174.806 60.4026C175.182 60.3846 175.517 60.375 175.809 60.375C175.834 60.375 175.846 60.4122 175.846 60.4842C175.846 60.5574 175.834 60.5934 175.809 60.5934C175.384 60.5934 175.067 60.6294 174.861 60.7025C174.654 60.7757 174.515 60.9029 174.442 61.0853C174.369 61.2676 174.333 61.5364 174.333 61.8891V70.3103H174.332Z" fill="#060606"/>
<path d="M180.277 60.7415C179.523 60.7415 178.933 60.9514 178.508 61.3714C178.082 61.7913 177.766 62.4643 177.56 63.3894C177.548 63.4146 177.509 63.4254 177.441 63.4254C177.374 63.4254 177.341 63.4074 177.341 63.3702C177.365 63.2118 177.392 62.9862 177.422 62.6947C177.452 62.402 177.48 62.0864 177.504 61.7457C177.528 61.405 177.549 61.0762 177.567 60.7595C177.585 60.4427 177.595 60.1812 177.595 59.9748C177.595 59.9136 177.632 59.8836 177.704 59.8836C177.777 59.8836 177.813 59.9136 177.813 59.9748C177.813 60.096 177.873 60.1848 177.995 60.24C178.116 60.2952 178.256 60.3312 178.414 60.3492C178.572 60.3672 178.706 60.3768 178.815 60.3768C179.861 60.4139 181.083 60.4319 182.481 60.4319C183.332 60.4319 184.013 60.4223 184.524 60.4043C185.034 60.3864 185.526 60.3768 186.001 60.3768C186.414 60.3768 186.732 60.3492 186.958 60.2952C187.182 60.24 187.325 60.1164 187.387 59.9208C187.399 59.8728 187.438 59.8477 187.505 59.8477C187.572 59.8477 187.606 59.8728 187.606 59.9208C187.581 60.1044 187.56 60.3588 187.542 60.6887C187.524 61.0174 187.505 61.3582 187.487 61.7109C187.469 62.0636 187.454 62.3936 187.442 62.6971C187.43 63.0018 187.424 63.2274 187.424 63.3726C187.424 63.4086 187.39 63.4278 187.323 63.4278C187.256 63.4278 187.222 63.4098 187.222 63.3726C187.137 62.4224 186.894 61.7469 186.493 61.345C186.092 60.943 185.496 60.7427 184.706 60.7427C184.28 60.7427 183.961 60.7703 183.748 60.8243C183.535 60.8795 183.396 60.9862 183.329 61.1446C183.262 61.303 183.229 61.5525 183.229 61.8933V70.3132C183.229 70.6659 183.268 70.9347 183.347 71.1171C183.426 71.3006 183.584 71.4218 183.822 71.483C184.059 71.5442 184.426 71.5742 184.925 71.5742C184.949 71.5742 184.961 71.6102 184.961 71.6833C184.961 71.7565 184.949 71.7925 184.925 71.7925C184.597 71.7925 184.229 71.7865 183.822 71.7745C183.414 71.7625 182.967 71.7565 182.481 71.7565C182.019 71.7565 181.585 71.7625 181.178 71.7745C180.77 71.7865 180.397 71.7925 180.056 71.7925C180.021 71.7925 180.001 71.7565 180.001 71.6833C180.001 71.6102 180.019 71.5742 180.056 71.5742C180.531 71.5742 180.893 71.5442 181.142 71.483C181.391 71.4218 181.557 71.3006 181.644 71.1171C181.729 70.9347 181.771 70.6671 181.771 70.3132V61.8549C181.771 61.5261 181.735 61.2802 181.662 61.1158C181.589 60.9514 181.442 60.8483 181.224 60.8051C181.006 60.7619 180.69 60.7415 180.277 60.7415Z" fill="#060606"/>
<path d="M193.39 66.8226L190.271 62.1471C189.87 61.5508 189.524 61.1429 189.232 60.9233C188.941 60.7049 188.624 60.5946 188.284 60.5946C188.248 60.5946 188.229 60.5586 188.229 60.4854C188.229 60.4122 188.247 60.3762 188.284 60.3762C188.478 60.3762 188.685 60.3858 188.905 60.4038C189.124 60.4218 189.33 60.4314 189.525 60.4314C189.865 60.4314 190.2 60.429 190.528 60.4218C190.856 60.4158 191.169 60.4074 191.467 60.3942C191.765 60.3822 192.023 60.375 192.242 60.375C192.266 60.375 192.278 60.4122 192.278 60.4842C192.278 60.5574 192.266 60.5934 192.242 60.5934C191.805 60.5934 191.534 60.6785 191.431 60.8489C191.327 61.0193 191.38 61.2508 191.586 61.5424L194.54 65.9803L193.39 66.8226ZM193.17 66.1279L194.629 65.9635V70.3103C194.629 70.663 194.663 70.9317 194.73 71.1141C194.797 71.2977 194.934 71.4189 195.14 71.48C195.347 71.5412 195.662 71.5712 196.089 71.5712C196.124 71.5712 196.144 71.6072 196.144 71.6804C196.144 71.7536 196.126 71.7896 196.089 71.7896C195.796 71.7896 195.466 71.7836 195.094 71.7716C194.723 71.7596 194.319 71.7536 193.882 71.7536C193.469 71.7536 193.071 71.7596 192.688 71.7716C192.306 71.7836 191.968 71.7896 191.675 71.7896C191.639 71.7896 191.62 71.7536 191.62 71.6804C191.62 71.6072 191.638 71.5712 191.675 71.5712C192.101 71.5712 192.421 71.5412 192.633 71.48C192.846 71.4189 192.988 71.2977 193.061 71.1141C193.134 70.9317 193.17 70.6642 193.17 70.3103V66.1279ZM193.845 66.585L196.435 62.5118C196.799 61.9035 196.933 61.4308 196.836 61.0961C196.738 60.7613 196.417 60.5934 195.869 60.5934C195.833 60.5934 195.814 60.5574 195.814 60.4842C195.814 60.411 195.832 60.375 195.869 60.375C196.221 60.375 196.553 60.3846 196.864 60.4026C197.174 60.4206 197.585 60.4302 198.095 60.4302C198.398 60.4302 198.645 60.4206 198.833 60.4026C199.021 60.3846 199.25 60.375 199.517 60.375C199.541 60.375 199.553 60.4122 199.553 60.4842C199.553 60.5574 199.541 60.5934 199.517 60.5934C199.25 60.5934 198.958 60.6749 198.641 60.8393C198.325 61.0037 198.018 61.2352 197.72 61.534C197.422 61.8327 197.146 62.1879 196.89 62.6018L194.191 66.8753L193.845 66.585Z" fill="#060606"/>
<mask id="mask0_560_296" style="mask-type:luminance" maskUnits="userSpaceOnUse" x="118" y="4" width="40" height="35">
<path d="M143.737 4.53125V5.97577C148.051 6.23372 149.291 6.95717 149.454 9.27872C149.615 10.8264 149.723 13.046 149.723 17.8451V30.4882L126.86 4.53125H118.771V5.97577C121.414 6.23372 122.546 6.54326 123.57 7.83301C124.541 8.96798 124.65 9.79343 124.65 11.2391V24.3982C124.65 29.0941 124.542 31.4168 124.379 33.0677C124.163 35.5956 122.87 36.3694 119.526 36.6286V38.0731H132.629V36.6286C128.747 36.3191 127.399 35.5452 127.291 32.9129C127.183 31.4168 127.022 29.0941 127.022 24.4498V11.5499L148.824 38.5386H152.15V17.8451C152.15 13.046 152.258 10.8792 152.311 9.22713C152.474 6.8528 153.606 6.3381 157.057 5.97577V4.53125H143.737Z" fill="white"/>
</mask>
<g mask="url(#mask0_560_296)">
<path d="M157.057 4.53125H118.77V38.5386H157.057V4.53125Z" fill="url(#paint0_linear_560_296)"/>
</g>
<path d="M188.279 12.9496C187.797 11.3167 187.153 9.63346 186.563 8.71564C185.705 7.33831 185.168 6.98077 182.22 6.98077H176.859V31.8279C176.859 35.8076 177.287 36.369 182.381 36.675V38.1039H166.778V36.675C171.765 36.369 172.194 35.8591 172.194 31.8279V6.98077H167.314C164.364 6.98077 163.507 7.28671 162.595 8.81761C161.952 9.83742 161.523 11.0624 160.826 12.9496H159.217C159.539 9.83742 159.86 6.62325 160.021 3.7666H161.254C162.059 4.99036 162.649 4.93997 164.15 4.93997H185.383C186.884 4.93997 187.313 4.73601 188.118 3.7666H189.404C189.404 6.16493 189.619 9.83742 189.887 12.7972L188.279 12.9496Z" fill="#2EADB3"/>
<path d="M62.9041 52.3308C62.8142 52.7195 62.4105 54.2612 62.262 54.7112H54.999V54.2924C56.3886 54.1881 56.494 54.0525 56.494 52.8251V46.9127C56.494 45.5809 56.3299 45.5053 55.2087 45.401V44.9823H59.7823C61.1875 44.9823 61.7697 44.9679 61.9493 44.9523C61.9637 45.3266 62.0236 46.4496 62.0835 47.2426L61.6355 47.317C61.5013 46.8083 61.3516 46.494 61.1875 46.1796C60.9479 45.6853 60.6041 45.5809 59.708 45.5809H58.2885C57.8249 45.5809 57.795 45.6253 57.795 46.0596V49.3674H59.4541C60.5753 49.3674 60.6496 49.143 60.8293 48.1244H61.2929V51.2078H60.8293C60.6352 50.1305 60.5154 49.9805 59.4397 49.9805H57.7962V52.9595C57.7962 54.0069 58.1244 54.0969 58.8719 54.1125H60.2615C61.1731 54.1125 61.3228 53.9781 61.6511 53.5882C61.935 53.2738 62.2488 52.6596 62.4585 52.2108L62.9041 52.3308ZM74.2771 45.401C73.3212 45.5053 73.0073 45.6553 72.9618 46.344C72.9474 46.8227 72.9175 47.4514 72.9175 48.8443V54.8467H72.3497L65.9528 47.0183V50.7603C65.9528 52.1077 65.9971 52.7807 66.027 53.215C66.057 53.9781 66.4307 54.2025 67.5065 54.2924V54.7112H63.8744V54.2924C64.8016 54.2181 65.1598 53.9925 65.2196 53.2594C65.264 52.7807 65.2939 52.1065 65.2939 50.7447V46.9283C65.2939 46.5096 65.264 46.2696 64.9944 45.9409C64.7105 45.5665 64.3967 45.4766 63.6648 45.4022V44.9835H65.9061L72.243 52.512V48.8443C72.243 47.4526 72.2131 46.8083 72.1688 46.3596C72.1244 45.6865 71.7806 45.4766 70.5851 45.4022V44.9835H74.2771V45.401ZM83.4519 47.3314C83.3178 46.8527 83.1381 46.3584 82.974 46.0884C82.7344 45.6841 82.5858 45.5797 81.7629 45.5797H80.2679V52.8695C80.2679 54.0369 80.3877 54.2013 81.8072 54.2912V54.71H77.4576V54.2912C78.8471 54.2013 78.9669 54.0513 78.9669 52.8695V45.5797H77.6073C76.7855 45.5797 76.546 45.6697 76.292 46.1184C76.1123 46.4184 75.9925 46.7771 75.7985 47.3314H75.3504C75.4403 46.4184 75.5301 45.4754 75.5744 44.6367H75.9182C76.1423 44.9954 76.3064 44.9811 76.7256 44.9811H82.6445C83.0626 44.9811 83.1824 44.9211 83.4064 44.6367H83.7646C83.7646 45.3398 83.8245 46.4184 83.8988 47.2858L83.4519 47.3314ZM92.8807 52.3308C92.7909 52.7195 92.3872 54.2612 92.2387 54.7112H84.9757V54.2924C86.3653 54.1881 86.4707 54.0525 86.4707 52.8251V46.9127C86.4707 45.5809 86.3066 45.5053 85.1853 45.401V44.9823H89.759C91.1641 44.9823 91.7463 44.9679 91.926 44.9523C91.9404 45.3266 92.0003 46.4496 92.0602 47.2426L91.6121 47.317C91.478 46.8083 91.3282 46.494 91.1641 46.1796C90.9245 45.6853 90.5807 45.5809 89.6847 45.5809H88.2628C87.7992 45.5809 87.7692 45.6253 87.7692 46.0596V49.3674H89.4283C90.5496 49.3674 90.6239 49.143 90.8036 48.1244H91.2671V51.2078H90.8036C90.6095 50.1305 90.4897 49.9805 89.414 49.9805H87.7704V52.9595C87.7704 54.0069 88.0987 54.0969 88.8462 54.1125H90.2357C91.1474 54.1125 91.2971 53.9781 91.6253 53.5882C91.9092 53.2738 92.2231 52.6596 92.4327 52.2108L92.8807 52.3308ZM102.789 54.8311C102.595 54.8311 102.431 54.8167 102.235 54.8011C101.144 54.7268 100.562 54.4424 99.9041 53.5138C99.3507 52.7507 98.8128 51.8077 98.3349 51.0435C98.0354 50.5648 97.8413 50.4748 97.0794 50.4748H96.556V52.8251C96.556 54.0969 96.7201 54.1725 97.9156 54.2924V54.7112H93.9253V54.2924C95.1664 54.1581 95.2706 54.0981 95.2706 52.8251V46.8527C95.2706 45.5809 95.1065 45.5353 93.9253 45.401V44.9823H97.7359C98.8272 44.9823 99.5591 45.1166 100.127 45.491C100.74 45.8797 101.143 46.5539 101.143 47.467C101.143 48.7543 100.321 49.563 99.2153 50.0417C99.4849 50.506 100.127 51.509 100.575 52.1821C101.128 52.9751 101.412 53.3494 101.756 53.7238C102.16 54.1581 102.504 54.3224 102.847 54.4124L102.789 54.8311ZM97.2735 49.9661C98.051 49.9661 98.5433 49.8461 98.917 49.5318C99.5004 49.0975 99.7388 48.4988 99.7388 47.6901C99.7388 46.0884 98.6775 45.5042 97.5275 45.5042C97.0938 45.5042 96.8399 45.5641 96.7356 45.6541C96.6015 45.7585 96.556 45.9085 96.556 46.2972V49.9649H97.2735V49.9661ZM107.228 44.9823C108.29 44.9823 109.141 45.1766 109.753 45.6253C110.337 46.0596 110.739 46.7627 110.739 47.7513C110.739 49.9373 108.871 50.8203 107.451 50.8203C107.287 50.8203 107.137 50.8059 107.047 50.7903L106.016 50.5204V52.8551C106.016 54.1125 106.12 54.1425 107.495 54.2924V54.7112H103.371V54.2924C104.656 54.1581 104.716 54.0681 104.716 52.8251V46.8827C104.716 45.5509 104.552 45.5209 103.371 45.401V44.9823H107.228ZM106.017 49.9961C106.197 50.0861 106.6 50.1904 107.108 50.1904C108.11 50.1904 109.35 49.6817 109.35 47.7957C109.35 46.1496 108.274 45.491 107.019 45.491C106.585 45.491 106.271 45.5653 106.181 45.6709C106.061 45.7753 106.017 45.9553 106.017 46.3596V49.9961ZM120.843 54.8311C120.648 54.8311 120.484 54.8167 120.289 54.8011C119.198 54.7268 118.616 54.4424 117.958 53.5138C117.404 52.7507 116.867 51.8077 116.389 51.0435C116.089 50.5648 115.895 50.4748 115.133 50.4748H114.61V52.8251C114.61 54.0969 114.774 54.1725 115.969 54.2924V54.7112H111.979V54.2924C113.22 54.1581 113.324 54.0981 113.324 52.8251V46.8527C113.324 45.5809 113.16 45.5353 111.979 45.401V44.9823H115.79C116.881 44.9823 117.613 45.1166 118.181 45.491C118.794 45.8797 119.197 46.5539 119.197 47.467C119.197 48.7543 118.375 49.563 117.269 50.0417C117.539 50.506 118.181 51.509 118.629 52.1821C119.182 52.9751 119.466 53.3494 119.81 53.7238C120.214 54.1581 120.557 54.3224 120.901 54.4124L120.843 54.8311ZM115.327 49.9661C116.105 49.9661 116.597 49.8461 116.971 49.5318C117.554 49.0975 117.793 48.4988 117.793 47.6901C117.793 46.0884 116.731 45.5042 115.581 45.5042C115.148 45.5042 114.894 45.5641 114.789 45.6541C114.655 45.7585 114.61 45.9085 114.61 46.2972V49.9649H115.327V49.9661ZM121.424 54.7112V54.2924C122.649 54.1581 122.769 54.0981 122.769 52.8251V46.8827C122.769 45.5953 122.649 45.5353 121.424 45.401V44.9823H125.429V45.401C124.188 45.5353 124.07 45.5953 124.07 46.8827V52.8251C124.07 54.1125 124.189 54.1569 125.429 54.2924V54.7112H121.424ZM131.855 47.257C131.601 46.2696 131.183 45.2966 129.778 45.2966C128.612 45.2966 128.209 46.1496 128.209 46.9283C128.209 47.9613 128.866 48.4856 130.106 49.1286C131.899 50.0573 132.677 50.7447 132.677 52.1677C132.677 53.7393 131.317 54.9367 129.388 54.9367C128.491 54.9367 127.715 54.6824 127.102 54.4424C126.982 54.0237 126.802 53.0051 126.698 52.1976L127.162 52.0777C127.461 53.0807 128.117 54.3824 129.672 54.3824C130.748 54.3824 131.406 53.6338 131.406 52.6608C131.406 51.5078 130.792 51.0447 129.478 50.326C127.909 49.473 127.027 48.7543 127.027 47.3626C127.027 46.0309 128.133 44.7735 130.106 44.7735C130.943 44.7735 131.765 44.9978 132.079 45.0578C132.139 45.5965 132.199 46.1952 132.319 47.1682L131.855 47.257ZM141.719 52.3308C141.629 52.7195 141.225 54.2612 141.077 54.7112H133.814V54.2924C135.203 54.1881 135.309 54.0525 135.309 52.8251V46.9127C135.309 45.5809 135.144 45.5053 134.023 45.401V44.9823H138.597C140.002 44.9823 140.584 44.9679 140.764 44.9523C140.778 45.3266 140.838 46.4496 140.898 47.2426L140.45 47.317C140.316 46.8083 140.166 46.494 140.002 46.1796C139.762 45.6853 139.419 45.5809 138.523 45.5809H137.103C136.639 45.5809 136.609 45.6253 136.609 46.0596V49.3674H138.269C139.39 49.3674 139.464 49.143 139.644 48.1244H140.107V51.2078H139.644C139.45 50.1305 139.33 49.9805 138.254 49.9805H136.611V52.9595C136.611 54.0069 136.939 54.0969 137.686 54.1125H139.076C139.988 54.1125 140.137 53.9781 140.466 53.5882C140.749 53.2738 141.063 52.6596 141.273 52.2108L141.719 52.3308ZM147.949 47.257C147.695 46.2696 147.277 45.2966 145.872 45.2966C144.706 45.2966 144.303 46.1496 144.303 46.9283C144.303 47.9613 144.96 48.4856 146.2 49.1286C147.993 50.0573 148.771 50.7447 148.771 52.1677C148.771 53.7393 147.411 54.9367 145.482 54.9367C144.585 54.9367 143.809 54.6824 143.196 54.4424C143.076 54.0237 142.896 53.0051 142.792 52.1976L143.256 52.0777C143.555 53.0807 144.211 54.3824 145.766 54.3824C146.842 54.3824 147.5 53.6338 147.5 52.6608C147.5 51.5078 146.886 51.0447 145.572 50.326C144.003 49.473 143.121 48.7543 143.121 47.3626C143.121 46.0309 144.227 44.7735 146.2 44.7735C147.037 44.7735 147.859 44.9978 148.173 45.0578C148.233 45.5965 148.293 46.1952 148.413 47.1682L147.949 47.257ZM157.453 44.9823C158.515 44.9823 159.366 45.1766 159.978 45.6253C160.562 46.0596 160.964 46.7627 160.964 47.7513C160.964 49.9373 159.096 50.8203 157.676 50.8203C157.512 50.8203 157.362 50.8059 157.272 50.7903L156.241 50.5204V52.8551C156.241 54.1125 156.345 54.1425 157.72 54.2924V54.7112H153.596V54.2924C154.881 54.1581 154.941 54.0681 154.941 52.8251V46.8827C154.941 45.5509 154.777 45.5209 153.596 45.401V44.9823H157.453ZM156.243 49.9961C156.423 50.0861 156.827 50.1904 157.335 50.1904C158.336 50.1904 159.576 49.6817 159.576 47.7957C159.576 46.1496 158.5 45.491 157.245 45.491C156.811 45.491 156.497 45.5653 156.407 45.6709C156.288 45.7753 156.243 45.9553 156.243 46.3596V49.9961ZM171.859 45.401C170.858 45.5353 170.604 45.6709 170.066 47.0171C169.662 48.0045 167.6 53.0195 166.868 54.8755H166.374C165.492 52.4652 164.207 48.9631 163.355 46.7471C162.937 45.6397 162.683 45.4898 161.772 45.3998V44.9811H165.568V45.3998C164.462 45.5198 164.402 45.6997 164.612 46.2528C164.986 47.3458 166.077 50.3248 167.019 52.8095C167.81 50.8791 168.798 48.4388 169.499 46.5527C169.828 45.6841 169.649 45.5497 168.424 45.3998V44.9811H171.862V45.401H171.859ZM180.795 47.3314C180.66 46.8527 180.481 46.3584 180.317 46.0884C180.077 45.6841 179.929 45.5797 179.106 45.5797H177.611V52.8695C177.611 54.0369 177.73 54.2013 179.15 54.2912V54.71H174.8V54.2912C176.19 54.2013 176.31 54.0513 176.31 52.8695V45.5797H174.95C174.128 45.5797 173.889 45.6697 173.635 46.1184C173.455 46.4184 173.335 46.7771 173.141 47.3314H172.693C172.783 46.4184 172.873 45.4754 172.917 44.6367H173.261C173.485 44.9954 173.649 44.9811 174.068 44.9811H179.987C180.405 44.9811 180.525 44.9211 180.749 44.6367H181.107C181.107 45.3398 181.167 46.4184 181.241 47.2858L180.795 47.3314ZM182.033 54.9211C181.495 54.9211 181.122 54.5324 181.122 53.9637C181.122 53.425 181.495 53.0063 182.033 53.0063C182.571 53.0063 182.975 53.425 182.975 53.9637C182.975 54.5312 182.572 54.9211 182.033 54.9211ZM195.305 52.2264C195.215 52.6908 194.767 54.2469 194.617 54.7112H187.668V54.2924C189.028 54.1581 189.148 54.0825 189.148 52.8107V46.8683C189.148 45.5965 188.998 45.5209 187.802 45.401V44.9823H191.808V45.401C190.613 45.5209 190.449 45.5809 190.449 46.8683V52.9607C190.449 53.8737 190.568 54.0837 191.42 54.0981C191.435 54.0981 192.511 54.1125 192.601 54.1125C193.363 54.1125 193.587 54.0225 193.931 53.6482C194.305 53.2594 194.619 52.6608 194.843 52.1065L195.305 52.2264ZM202.836 47.3314C202.702 46.8527 202.522 46.3584 202.358 46.0884C202.119 45.6841 201.97 45.5797 201.147 45.5797H199.652V52.8695C199.652 54.0369 199.772 54.2013 201.192 54.2912V54.71H196.842V54.2912C198.232 54.2013 198.351 54.0513 198.351 52.8695V45.5797H196.992C196.17 45.5797 195.93 45.6697 195.676 46.1184C195.497 46.4184 195.377 46.7771 195.183 47.3314H194.735C194.825 46.4184 194.914 45.4754 194.959 44.6367H195.303C195.527 44.9954 195.691 44.9811 196.11 44.9811H202.029C202.447 44.9811 202.567 44.9211 202.791 44.6367H203.149C203.149 45.3398 203.209 46.4184 203.283 47.2858L202.836 47.3314ZM208.663 44.9823C210.77 44.9823 212.101 45.401 213.027 46.284C213.759 47.0027 214.297 48.0501 214.297 49.4874C214.297 51.239 213.579 52.6608 212.428 53.5294C211.292 54.3824 209.843 54.7124 208.004 54.7124H204.507V54.2936C205.793 54.1737 205.853 54.0693 205.853 52.8419V46.8695C205.853 45.5821 205.673 45.5221 204.507 45.4022V44.9835H208.663V44.9823ZM207.154 52.7207C207.154 53.8437 207.632 54.1581 208.753 54.1581C211.443 54.1581 212.819 52.3164 212.819 49.6973C212.819 48.0656 212.265 46.8239 211.085 46.1052C210.398 45.6709 209.53 45.5065 208.53 45.5065C207.858 45.5065 207.499 45.5965 207.349 45.7165C207.215 45.8065 207.155 45.9709 207.155 46.5552V52.7207H207.154ZM216.15 54.9211C215.612 54.9211 215.238 54.5324 215.238 53.9637C215.238 53.425 215.612 53.0063 216.15 53.0063C216.688 53.0063 217.092 53.425 217.092 53.9637C217.092 54.5312 216.688 54.9211 216.15 54.9211Z" fill="#211E1F"/>
<defs>
<linearGradient id="paint0_linear_560_296" x1="118.772" y1="21.5335" x2="157.058" y2="21.5335" gradientUnits="userSpaceOnUse">
<stop stop-color="#6F7273"/>
<stop offset="0.0922" stop-color="#6F7273"/>
<stop offset="0.0963" stop-color="#6F7273"/>
<stop offset="0.1648" stop-color="#6F7273"/>
<stop offset="0.1711" stop-color="#6F7273"/>
<stop offset="0.2598" stop-color="#6F7273"/>
<stop offset="0.27" stop-color="#6F7273"/>
<stop offset="0.3324" stop-color="#6F7273"/>
<stop offset="0.3437" stop-color="#6F7273"/>
<stop offset="0.4112" stop-color="#6F7273"/>
<stop offset="0.423" stop-color="#6A8A8D"/>
<stop offset="0.4366" stop-color="#669EA3"/>
<stop offset="0.4528" stop-color="#63ADB4"/>
<stop offset="0.4727" stop-color="#61B8BF"/>
<stop offset="0.5006" stop-color="#5FBEC6"/>
<stop offset="0.5782" stop-color="#5FC0C8"/>
<stop offset="0.6844" stop-color="#5FC0C8"/>
<stop offset="0.7849" stop-color="#5FC0C8"/>
<stop offset="0.8983" stop-color="#5FC0C8"/>
<stop offset="1" stop-color="#5FC0C8"/>
</linearGradient>
</defs>
</svg>
