<svg width="331" height="52" viewBox="0 0 331 52" fill="none" xmlns="http://www.w3.org/2000/svg">
<g clip-path="url(#clip0_557_14)">
<path d="M226.723 51.9999H223.517C221.749 51.9999 220.012 51.4731 218.386 50.6203C215.786 49.2541 214.129 46.5218 214.356 43.4947C215.55 49.1202 220.595 50.8212 225.765 50.0578C231.577 48.955 233.229 42.8518 232.975 37.646V0.950894L238.831 0.9375L238.755 37.8782C238.751 40.9409 237.419 43.968 235.879 46.4593C233.812 49.7944 230.459 51.607 226.723 51.9999Z" fill="#38785D"/>
<path d="M0 32.2173V30.8288C0.0623453 30.8511 0.222662 31.0476 0.236021 31.1413C0.583374 33.3156 1.87481 35.0658 3.7897 36.1105C6.35031 37.499 9.32953 37.6196 12.1707 37.2177C14.3839 36.9007 16.0851 35.5971 17.1761 33.7085C18.089 32.1325 18.334 30.3912 17.6214 28.6634C16.5794 26.1364 14.05 23.8237 11.6764 22.6004L8.35872 20.8904C6.22562 19.7921 4.32409 18.4438 2.81444 16.5686C0.00890646 13.0907 0.418604 7.94736 2.97921 4.52296C5.53982 1.09856 9.7036 0.227948 13.6759 0.210089C19.3359 0.187766 23.0054 3.08534 23.2236 8.91619L22.9965 8.97423C22.9342 8.98763 22.8095 8.751 22.8006 8.65724C22.5779 5.66591 20.093 3.11212 17.2607 2.13436C12.665 0.549404 6.48391 2.06293 5.30826 7.31338C4.87629 9.23765 5.37951 11.0637 6.64868 12.5415C8.98217 15.256 13.137 17.6312 16.2766 19.435C19.5675 21.3235 25.3656 25.1095 25.0583 29.4403C24.7778 33.3603 22.3686 36.6909 18.7481 38.1732C15.1276 39.6554 10.425 39.6376 6.67985 38.7357C3.19742 37.8964 0.436417 35.8694 0.00445323 32.2173H0Z" fill="#38785D"/>
<path d="M166.809 38.7933C166.306 38.8826 165.901 38.8781 165.34 38.8692L140.397 8.0094L140.388 38.8558L138.122 38.8469V0.874862L142.254 0.852539L164.342 28.7478L164.351 0.915044C165.153 0.848074 165.941 0.852539 166.805 0.888256V38.7978L166.809 38.7933Z" fill="#38785D"/>
<path d="M329.579 38.8833L304.614 7.99671L304.61 38.8565L302.339 38.8476V0.871094L306.512 0.880023L328.595 28.7708L328.6 0.875558L331 0.880023V38.8386L329.579 38.8833Z" fill="#38785D"/>
<path d="M95.7624 9.64848C95.9049 14.4123 94.1681 18.676 89.6303 20.6807C87.6976 21.5334 85.6491 22.1094 83.4982 22.1228L75.5091 22.1674V38.8697H70.2275V1.00488L83.2265 1.03167C85.6357 1.03614 87.8757 1.83978 90.0801 2.63895C93.0459 3.97389 95.66 6.16158 95.7668 9.65295L95.7624 9.64848ZM89.844 10.5861C89.4477 8.02781 88.1073 5.71511 86.1746 4.06765C85.1013 3.17471 83.9569 2.85326 82.6031 2.97827C80.2251 3.19257 77.9094 3.53635 75.5091 4.01407V20.5333L82.5897 20.5423C87.1276 19.502 90.5788 15.332 89.844 10.5905V10.5861Z" fill="#38785D"/>
<path d="M121.604 28.5288H104.553L100.46 38.869L97.125 38.8511L114.136 0.0978024C114.225 -0.098643 114.804 0.0397617 114.916 0.13352L131.834 38.8243L126.075 38.869L121.604 28.5244V28.5288ZM120.732 26.484L113.125 7.83507L105.408 26.4974L120.732 26.484Z" fill="#38785D"/>
<path d="M197.225 28.5292H180.173L176.081 38.8605L172.741 38.8471L189.725 0.151774C189.881 -0.0134188 190.255 -2.48089e-05 190.505 0.0848039L207.445 38.8247L201.691 38.8738L197.22 28.5292H197.225ZM196.352 26.4844L188.746 7.83993L181.028 26.4978L196.347 26.4844H196.352Z" fill="#38785D"/>
<path d="M53.9375 28.529H36.8861L32.7935 38.8603L29.4536 38.8469L46.4427 0.147117C46.5763 -0.0314694 46.986 0.00871266 47.2265 0.0935414L64.1755 38.8469L58.413 38.8737L53.9419 28.529H53.9375ZM53.0647 26.4842L45.463 7.83974L37.7455 26.4976L53.0647 26.4842Z" fill="#38785D"/>
<path d="M270.222 28.5252H253.184L249.092 38.843C247.996 38.8877 246.883 38.9011 245.761 38.8118L262.754 0.107551C263.057 -0.0174599 263.36 -0.030854 263.56 0.187915L280.469 38.8519L274.711 38.8832L270.222 28.5252ZM269.363 26.4848L261.757 7.84482L254.044 26.4937L269.367 26.4804L269.363 26.4848Z" fill="#38785D"/>
<path d="M291.816 0.991211H286.503V38.8695H291.816V0.991211Z" fill="#38785D"/>
</g>
<defs>
<clipPath id="clip0_557_14">
<rect width="331" height="52" fill="white"/>
</clipPath>
</defs>
</svg>
