<svg width="229" height="82" viewBox="0 0 229 82" fill="none" xmlns="http://www.w3.org/2000/svg">
<path d="M50.6674 70.8286C42.73 69.6454 28.043 64.1959 22.0341 53.4496V53.4437C16.711 43.9139 19.9719 31.7423 20.7734 29.1053C20.7901 29.0552 20.8068 29.011 20.8175 28.9669C20.901 28.7176 20.9452 28.5853 20.9452 28.5853L28.6739 5.72461C26.2253 34.5452 48.8879 40.3108 48.8879 40.3108C42.8015 39.8301 36.7163 42.268 31.1166 46.0095C34.0733 60.984 50.6674 70.8286 50.6674 70.8286Z" fill="#BEBEBE"/>
<path d="M22.0354 53.4439C12.7049 62.4488 6.16048 72.8516 5.78955 73.448L20.7747 29.1055C19.9732 31.7437 16.7124 43.9153 22.0354 53.4439Z" fill="#6F7273"/>
<path d="M53.519 8.27854H67.0611V9.69905C63.1048 10.0533 62.3952 10.4087 62.3952 14.9231V23.6466C63.409 23.5452 64.5766 22.7342 66.0473 21.3136C68.8871 18.6253 72.2863 15.1772 74.6192 12.5389C76.1399 10.8142 75.9885 10.1547 73.807 9.85053L72.3877 9.69786V8.27734H84.7119V9.69786C80.9084 10.1535 79.5893 10.4075 76.1912 13.9069C74.6693 15.3775 70.7131 19.2324 67.4666 22.4276C71.3214 26.9921 76.951 33.4852 79.5893 36.2738C82.1762 39.0635 82.8358 39.4691 85.9798 39.8245V41.2438H77.8646C73.9597 36.832 69.8508 31.9121 65.235 26.5353C64.0685 25.1148 63.2062 25.0134 62.3952 25.0647V34.7018C62.3952 39.1148 62.852 39.4691 67.0611 39.8245V41.2438H53.519V39.8245C57.678 39.4691 58.0835 39.1148 58.0835 34.7018V14.9231C58.0835 10.3586 57.7281 10.0032 53.519 9.69905V8.27854Z" fill="#6F7273"/>
<path d="M210.692 41.2462V39.8269C214.027 39.4214 214.437 38.9133 213.719 36.9859C213.053 35.0072 211.63 31.2931 210.553 28.0978L200.188 28.0298C199.367 30.3127 198.277 33.5377 197.559 35.6166C196.431 38.9133 197.149 39.3188 201.356 39.8269V41.2462H189.505V39.8269C192.737 39.4214 193.558 39.0659 195.353 34.5015L205.971 7.87305L208.702 7.91121C211.934 16.5846 214.385 25.8281 217.617 34.6028C219.258 39.0147 219.72 39.4214 223.362 39.8269V41.2462H210.692ZM205.787 14.2135C204.224 18.1673 202.563 22.3501 201.098 25.9807H210.231L205.787 14.2135Z" fill="#BEBEBE"/>
<path d="M105.888 41.2462V39.8269C109.223 39.4214 109.634 38.9133 108.916 36.9859C108.249 35.0072 106.826 31.2931 105.749 28.0978L95.3843 28.0298C94.5637 30.3127 93.4735 33.5377 92.7555 35.6166C91.6272 38.9133 92.3452 39.3188 96.5519 39.8269V41.2462H84.7012V39.8269C87.9334 39.4214 88.754 39.0659 90.549 34.5015L101.168 7.87305L103.898 7.91121C107.13 16.5846 109.581 25.8281 112.813 34.6028C114.454 39.0147 114.916 39.4214 118.559 39.8269V41.2462H105.888ZM100.983 14.2135C99.4204 18.1673 97.7589 22.3501 96.2943 25.9807H105.427L100.983 14.2135Z" fill="#6F7273"/>
<path d="M76.2366 74.8095C75.874 74.8095 75.4256 74.7916 74.8936 74.7546C74.3617 74.7176 73.8703 74.6998 73.423 74.6998C73.0115 74.6998 72.6155 74.7057 72.2339 74.7176C71.8534 74.7296 71.5099 74.7355 71.2082 74.7355C71.1831 74.7355 71.1724 74.6998 71.1724 74.627C71.1724 74.5542 71.1843 74.5185 71.2082 74.5185C71.6316 74.5185 71.9524 74.4886 72.1707 74.4278C72.3877 74.367 72.5332 74.2465 72.606 74.064C72.6788 73.8827 72.7145 73.6168 72.7145 73.2649V64.8599C72.7145 64.5093 72.6788 64.2457 72.606 64.0703C72.5332 63.895 72.3913 63.7734 72.179 63.7066C71.9667 63.6398 71.6554 63.6064 71.2439 63.6064C71.2081 63.6064 71.1891 63.5706 71.1891 63.4978C71.1891 63.4251 71.207 63.3893 71.2439 63.3893C71.5469 63.3893 71.882 63.3988 72.2518 63.4167C72.6203 63.4346 73.0103 63.4442 73.423 63.4442C73.8345 63.4442 74.2794 63.4287 74.7576 63.3988C75.2359 63.369 75.6438 63.3535 75.9838 63.3535C77.2671 63.3535 78.3835 63.5956 79.3341 64.0799C80.2847 64.5641 81.0253 65.2237 81.5585 66.0586C82.0916 66.8935 82.3576 67.8321 82.3576 68.8734C82.3576 69.7822 82.1966 70.6016 81.8757 71.3339C81.5549 72.0663 81.11 72.69 80.5411 73.2041C79.9722 73.7182 79.3186 74.1153 78.5803 74.3932C77.8396 74.6711 77.0596 74.8095 76.2366 74.8095ZM76.0541 74.4827C76.9618 74.4827 77.7633 74.2835 78.4598 73.8839C79.1564 73.4844 79.7038 72.894 80.1034 72.114C80.5029 71.3339 80.7021 70.3857 80.7021 69.2717C80.7021 68.2186 80.5148 67.2716 80.1391 66.4295C79.7634 65.5887 79.241 64.9172 78.5683 64.4138C77.8969 63.9117 77.0942 63.66 76.1627 63.66C75.4363 63.66 74.9199 63.7328 74.6109 63.8783C74.302 64.0238 74.1482 64.3625 74.1482 64.8957V73.0657C74.1482 73.55 74.2686 73.9066 74.5108 74.1368C74.7529 74.3682 75.2681 74.4827 76.0541 74.4827Z" fill="#BEBEBE"/>
<path d="M87.021 73.2655C87.021 73.6162 87.0544 73.8833 87.1212 74.0646C87.1868 74.2471 87.3263 74.3676 87.5386 74.4284C87.7509 74.4892 88.0682 74.519 88.4916 74.519C88.5166 74.519 88.5286 74.5548 88.5286 74.6276C88.5286 74.7003 88.5166 74.7361 88.4916 74.7361C88.1886 74.7361 87.8535 74.7301 87.4838 74.7182C87.114 74.7063 86.7121 74.7003 86.2767 74.7003C85.8533 74.7003 85.4538 74.7063 85.0781 74.7182C84.7024 74.7301 84.3636 74.7361 84.0619 74.7361C84.0368 74.7361 84.0249 74.7003 84.0249 74.6276C84.0249 74.5548 84.0368 74.519 84.0619 74.519C84.4853 74.519 84.8061 74.4892 85.0244 74.4284C85.2415 74.3676 85.387 74.2471 85.4597 74.0646C85.5325 73.8833 85.5683 73.6173 85.5683 73.2655V64.8593C85.5683 64.5086 85.5313 64.245 85.4597 64.0697C85.387 63.8944 85.2415 63.7727 85.0244 63.7059C84.8073 63.6391 84.4853 63.6057 84.0619 63.6057C84.0368 63.6057 84.0249 63.57 84.0249 63.4972C84.0249 63.4245 84.0368 63.3887 84.0619 63.3887C84.3636 63.3887 84.7036 63.3982 85.0781 63.4161C85.4538 63.434 85.8533 63.4435 86.2767 63.4435C86.7121 63.4435 87.1176 63.434 87.4933 63.4161C87.8678 63.3982 88.2006 63.3887 88.4916 63.3887C88.5166 63.3887 88.5286 63.4256 88.5286 63.4972C88.5286 63.57 88.5166 63.6057 88.4916 63.6057C88.0682 63.6057 87.7533 63.6415 87.5482 63.7143C87.3418 63.787 87.2035 63.9135 87.1307 64.0948C87.058 64.2761 87.0222 64.5432 87.0222 64.8939V73.2655H87.021Z" fill="#BEBEBE"/>
<path d="M101.457 63.3889C101.492 63.3889 101.512 63.4259 101.512 63.4974C101.512 63.5702 101.494 63.606 101.457 63.606C101.045 63.606 100.673 63.736 100.34 63.996C100.008 64.2572 99.726 64.677 99.4958 65.2579L95.7913 74.7172C95.7793 74.7649 95.7149 74.79 95.6004 74.79C95.4847 74.79 95.4156 74.7649 95.3917 74.7172L90.8344 64.8941C90.628 64.4456 90.4134 64.1188 90.1903 63.9137C89.9673 63.7085 89.6846 63.6048 89.3459 63.6048C89.3101 63.6048 89.291 63.569 89.291 63.4962C89.291 63.4235 89.3089 63.3877 89.3459 63.3877C89.5033 63.3877 89.6476 63.3937 89.7812 63.4068C89.9148 63.4187 90.0591 63.4282 90.2166 63.4342C90.374 63.4402 90.5672 63.4437 90.7974 63.4437C91.2566 63.4437 91.6514 63.4414 91.9782 63.4342C92.305 63.4282 92.5829 63.4199 92.8131 63.4068C93.0421 63.3948 93.2484 63.3877 93.4309 63.3877C93.4667 63.3877 93.4858 63.4247 93.4858 63.4962C93.4858 63.569 93.4679 63.6048 93.4309 63.6048C92.9467 63.6048 92.6139 63.7109 92.4326 63.9232C92.2513 64.1355 92.2692 64.4766 92.4875 64.9489L96.2099 73.0474L95.5563 74.1006L99.0605 65.1672C99.2537 64.671 99.2573 64.287 99.0688 64.0139C98.8816 63.7419 98.4665 63.606 97.8248 63.606C97.7891 63.606 97.77 63.5702 97.77 63.4974C97.77 63.4247 97.7879 63.3889 97.8248 63.3889C98.1397 63.3889 98.4391 63.3984 98.7241 63.4163C99.008 63.4342 99.3801 63.4437 99.8405 63.4437C100.191 63.4437 100.473 63.4342 100.685 63.4163C100.896 63.3984 101.154 63.3889 101.457 63.3889Z" fill="#BEBEBE"/>
<path d="M105.16 73.2655C105.16 73.6162 105.194 73.8833 105.26 74.0646C105.326 74.2471 105.465 74.3676 105.678 74.4284C105.89 74.4892 106.207 74.519 106.631 74.519C106.656 74.519 106.668 74.5548 106.668 74.6276C106.668 74.7003 106.656 74.7361 106.631 74.7361C106.328 74.7361 105.993 74.7301 105.623 74.7182C105.253 74.7063 104.851 74.7003 104.416 74.7003C103.992 74.7003 103.593 74.7063 103.217 74.7182C102.842 74.7301 102.503 74.7361 102.201 74.7361C102.176 74.7361 102.164 74.7003 102.164 74.6276C102.164 74.5548 102.176 74.519 102.201 74.519C102.624 74.519 102.945 74.4892 103.164 74.4284C103.381 74.3676 103.526 74.2471 103.599 74.0646C103.672 73.8833 103.707 73.6173 103.707 73.2655V64.8593C103.707 64.5086 103.67 64.245 103.599 64.0697C103.526 63.8944 103.381 63.7727 103.164 63.7059C102.946 63.6391 102.624 63.6057 102.201 63.6057C102.176 63.6057 102.164 63.57 102.164 63.4972C102.164 63.4245 102.176 63.3887 102.201 63.3887C102.503 63.3887 102.843 63.3982 103.217 63.4161C103.592 63.434 103.992 63.4435 104.416 63.4435C104.851 63.4435 105.257 63.434 105.632 63.4161C106.007 63.3982 106.34 63.3887 106.631 63.3887C106.656 63.3887 106.668 63.4256 106.668 63.4972C106.668 63.57 106.656 63.6057 106.631 63.6057C106.207 63.6057 105.892 63.6415 105.687 63.7143C105.481 63.787 105.343 63.9135 105.27 64.0948C105.197 64.2761 105.161 64.5432 105.161 64.8939V73.2655H105.16Z" fill="#BEBEBE"/>
<path d="M118.868 74.9732C118.868 74.9971 118.84 75.0126 118.787 75.0186C118.732 75.0245 118.692 75.0209 118.669 75.0102L110.117 64.8793C109.692 64.3832 109.327 64.0468 109.018 63.8715C108.709 63.6962 108.404 63.6079 108.101 63.6079C108.076 63.6079 108.065 63.5721 108.065 63.4994C108.065 63.4266 108.077 63.3908 108.101 63.3908C108.331 63.3908 108.562 63.3968 108.792 63.4099C109.022 63.4219 109.233 63.4278 109.428 63.4278C109.719 63.4278 109.984 63.4219 110.227 63.4099C110.469 63.398 110.65 63.3908 110.77 63.3908C110.928 63.3908 111.042 63.4612 111.116 63.5996C111.189 63.7391 111.364 63.9836 111.642 64.3355L118.723 72.8693L118.868 74.9732ZM109.68 72.6665V63.8059L110.153 63.8429V72.6665C110.153 73.2963 110.267 73.7626 110.497 74.0644C110.728 74.3673 111.09 74.5188 111.588 74.5188C111.611 74.5188 111.623 74.5546 111.623 74.6273C111.623 74.7001 111.611 74.7359 111.588 74.7359C111.333 74.7359 111.076 74.7299 110.816 74.718C110.556 74.7061 110.262 74.7001 109.936 74.7001C109.621 74.7001 109.312 74.7061 109.009 74.718C108.707 74.7299 108.422 74.7359 108.156 74.7359C108.131 74.7359 108.119 74.7001 108.119 74.6273C108.119 74.5546 108.131 74.5188 108.156 74.5188C108.688 74.5188 109.076 74.3673 109.318 74.0644C109.56 73.7626 109.68 73.2963 109.68 72.6665ZM118.868 65.4769V74.9732L118.413 74.4103V65.4769C118.413 64.8471 118.301 64.3784 118.077 64.0695C117.853 63.7606 117.493 63.6067 116.996 63.6067C116.971 63.6067 116.961 63.5709 116.961 63.4982C116.961 63.4254 116.973 63.3896 116.996 63.3896C117.25 63.3896 117.51 63.3992 117.778 63.4171C118.044 63.435 118.335 63.4445 118.648 63.4445C118.951 63.4445 119.247 63.435 119.538 63.4171C119.829 63.3992 120.101 63.3896 120.355 63.3896C120.379 63.3896 120.391 63.4266 120.391 63.4982C120.391 63.5709 120.379 63.6067 120.355 63.6067C119.847 63.6067 119.471 63.7606 119.229 64.0695C118.989 64.3784 118.868 64.8471 118.868 65.4769Z" fill="#BEBEBE"/>
<path d="M129.236 74.7373H121.501C121.465 74.7373 121.446 74.7015 121.446 74.6288C121.446 74.556 121.464 74.5202 121.501 74.5202C121.913 74.5202 122.225 74.4904 122.436 74.4296C122.649 74.3687 122.79 74.2483 122.863 74.0658C122.936 73.8845 122.972 73.6185 122.972 73.2667V64.8593C122.972 64.5086 122.936 64.245 122.863 64.0697C122.79 63.8944 122.649 63.7727 122.436 63.7059C122.224 63.6391 121.913 63.6057 121.501 63.6057C121.465 63.6057 121.446 63.57 121.446 63.4972C121.446 63.4245 121.464 63.3887 121.501 63.3887H128.909C129.03 63.3887 129.09 63.4435 129.09 63.5521L129.127 65.8397C129.127 65.8755 129.094 65.8969 129.027 65.9029C128.96 65.9089 128.921 65.8934 128.909 65.8576C128.824 65.192 128.588 64.6863 128.201 64.3417C127.813 63.997 127.305 63.824 126.675 63.824H125.75C125.386 63.824 125.108 63.8538 124.915 63.9147C124.721 63.9755 124.588 64.0876 124.515 64.251C124.442 64.4144 124.407 64.641 124.407 64.932V73.1939C124.407 73.485 124.44 73.7116 124.507 73.875C124.574 74.0384 124.698 74.1529 124.879 74.2197C125.06 74.2865 125.314 74.3198 125.641 74.3198H126.84C127.53 74.3198 128.099 74.1171 128.546 73.7116C128.994 73.306 129.303 72.7276 129.472 71.9774C129.472 71.9416 129.508 71.9297 129.581 71.9416C129.653 71.9535 129.689 71.9774 129.689 72.0143C129.64 72.3411 129.598 72.7347 129.563 73.1951C129.526 73.6543 129.508 74.0789 129.508 74.4654C129.508 74.6455 129.417 74.7373 129.236 74.7373ZM128.22 70.5604C128.22 70.0404 128.071 69.6552 127.775 69.4071C127.478 69.159 127.003 69.035 126.35 69.035H123.717V68.6175H126.404C127.022 68.6175 127.475 68.5114 127.766 68.2991C128.056 68.0868 128.202 67.7576 128.202 67.3091C128.202 67.2853 128.235 67.2733 128.302 67.2733C128.368 67.2733 128.402 67.2853 128.402 67.3091C128.402 67.6848 128.399 67.9746 128.393 68.181C128.387 68.3873 128.384 68.6044 128.384 68.8346C128.384 69.1137 128.393 69.3916 128.412 69.6695C128.431 69.9474 128.439 70.2444 128.439 70.5592C128.439 70.5843 128.403 70.595 128.331 70.595C128.255 70.5974 128.22 70.5855 128.22 70.5604Z" fill="#BEBEBE"/>
<path d="M138.441 73.1941C138.441 73.5567 138.487 73.8322 138.577 74.0206C138.668 74.2079 138.859 74.3379 139.149 74.4107C139.44 74.4834 139.875 74.5192 140.456 74.5192C140.492 74.5192 140.511 74.555 140.511 74.6277C140.511 74.7005 140.493 74.7363 140.456 74.7363C140.068 74.7363 139.648 74.7303 139.194 74.7184C138.739 74.7065 138.247 74.7005 137.714 74.7005C137.314 74.7005 136.924 74.7065 136.542 74.7184C136.162 74.7303 135.818 74.7363 135.517 74.7363C135.492 74.7363 135.481 74.7005 135.481 74.6277C135.481 74.555 135.493 74.5192 135.517 74.5192C135.94 74.5192 136.257 74.4894 136.47 74.4286C136.681 74.3677 136.82 74.2473 136.887 74.0648C136.953 73.8835 136.987 73.6175 136.987 73.2657V64.8595C136.987 64.5088 136.954 64.2452 136.887 64.0699C136.82 63.8946 136.681 63.7729 136.47 63.7061C136.257 63.6393 135.94 63.6059 135.517 63.6059C135.492 63.6059 135.481 63.5701 135.481 63.4974C135.481 63.4246 135.493 63.3888 135.517 63.3888C135.818 63.3888 136.158 63.3984 136.534 63.4163C136.909 63.4342 137.296 63.4437 137.696 63.4437C138.011 63.4437 138.395 63.4258 138.849 63.3888C139.304 63.3531 139.76 63.334 140.22 63.334C140.922 63.334 141.554 63.4377 142.117 63.6429C142.68 63.8492 143.131 64.1701 143.47 64.6054C143.808 65.0407 143.984 65.6097 143.997 66.3122C143.997 66.9419 143.881 67.487 143.652 67.9462C143.422 68.4066 143.111 68.7882 142.717 69.09C142.324 69.3929 141.888 69.616 141.41 69.7615C140.932 69.907 140.463 69.9798 140.003 69.9798C139.857 69.9798 139.709 69.9738 139.558 69.9619C139.406 69.9499 139.264 69.9261 139.131 69.8891C139.082 69.8772 139.067 69.8319 139.085 69.7531C139.103 69.6744 139.131 69.641 139.166 69.653C139.275 69.678 139.387 69.6959 139.503 69.7078C139.617 69.7197 139.717 69.7257 139.802 69.7257C140.261 69.7257 140.686 69.6172 141.072 69.3989C141.46 69.1818 141.774 68.8455 142.017 68.3911C142.259 67.9366 142.38 67.3713 142.38 66.6938C142.38 66.0402 142.267 65.4892 142.043 65.0419C141.819 64.5935 141.508 64.2488 141.108 64.0067C140.709 63.7646 140.248 63.6429 139.728 63.6429C139.389 63.6429 139.126 63.6679 138.939 63.7157C138.751 63.7646 138.621 63.879 138.549 64.0603C138.476 64.2416 138.44 64.5207 138.44 64.8952V73.1941H138.441Z" fill="#BEBEBE"/>
<path d="M155.108 65.4771C155.108 64.8712 154.972 64.4084 154.7 64.0876C154.428 63.7668 154.025 63.6057 153.493 63.6057C153.457 63.6057 153.438 63.57 153.438 63.4972C153.438 63.4245 153.456 63.3887 153.493 63.3887C153.771 63.3887 154.062 63.3982 154.365 63.4161C154.667 63.434 154.995 63.4435 155.345 63.4435C155.647 63.4435 155.947 63.434 156.244 63.4161C156.541 63.3982 156.816 63.3887 157.07 63.3887C157.094 63.3887 157.107 63.4256 157.107 63.4972C157.107 63.57 157.095 63.6057 157.07 63.6057C156.586 63.6057 156.22 63.7668 155.972 64.0876C155.724 64.4084 155.599 64.8712 155.599 65.4771V70.6153C155.599 71.5229 155.418 72.3042 155.056 72.9578C154.692 73.6114 154.184 74.1111 153.53 74.4558C152.877 74.8005 152.114 74.9734 151.243 74.9734C150.347 74.9734 149.56 74.8005 148.882 74.4558C148.205 74.1099 147.678 73.6173 147.302 72.9757C146.926 72.334 146.739 71.5718 146.739 70.688V64.8593C146.739 64.5086 146.702 64.245 146.63 64.0697C146.558 63.8944 146.416 63.7727 146.203 63.7059C145.991 63.6391 145.68 63.6057 145.268 63.6057C145.231 63.6057 145.213 63.57 145.213 63.4972C145.213 63.4245 145.231 63.3887 145.268 63.3887C145.57 63.3887 145.904 63.3982 146.267 63.4161C146.63 63.434 147.023 63.4435 147.447 63.4435C147.883 63.4435 148.286 63.434 148.654 63.4161C149.024 63.3982 149.347 63.3887 149.625 63.3887C149.661 63.3887 149.68 63.4256 149.68 63.4972C149.68 63.57 149.662 63.6057 149.625 63.6057C149.214 63.6057 148.901 63.6415 148.69 63.7143C148.478 63.787 148.339 63.9135 148.273 64.0948C148.206 64.2761 148.172 64.5432 148.172 64.8939V70.05C148.172 71.5027 148.487 72.5892 149.117 73.3096C149.746 74.03 150.618 74.3902 151.732 74.3902C152.797 74.3902 153.626 74.061 154.22 73.4003C154.812 72.7407 155.109 71.8175 155.109 70.632V65.4771H155.108Z" fill="#BEBEBE"/>
<path d="M162.989 63.334C164.006 63.334 164.784 63.5487 165.323 63.978C165.862 64.4074 166.13 64.9799 166.13 65.6944C166.13 66.3718 165.936 66.9777 165.549 67.5097C165.162 68.0428 164.656 68.4602 164.033 68.7632C163.41 69.0661 162.742 69.2176 162.027 69.2176C161.882 69.2176 161.73 69.2152 161.573 69.2081C161.415 69.2021 161.27 69.1926 161.138 69.1806V73.2657C161.138 73.6163 161.171 73.8835 161.238 74.0648C161.305 74.2473 161.444 74.3677 161.655 74.4286C161.868 74.4894 162.185 74.5192 162.608 74.5192C162.644 74.5192 162.663 74.555 162.663 74.6277C162.663 74.7005 162.645 74.7363 162.608 74.7363C162.305 74.7363 161.972 74.7303 161.61 74.7184C161.247 74.7065 160.848 74.7005 160.411 74.7005C160 74.7005 159.606 74.7065 159.23 74.7184C158.855 74.7303 158.516 74.7363 158.213 74.7363C158.177 74.7363 158.158 74.7005 158.158 74.6277C158.158 74.555 158.176 74.5192 158.213 74.5192C158.625 74.5192 158.937 74.4894 159.148 74.4286C159.36 74.3677 159.505 74.2473 159.583 74.0648C159.662 73.8835 159.702 73.6175 159.702 73.2657V64.8595C159.702 64.5088 159.666 64.2452 159.593 64.0699C159.52 63.8946 159.381 63.7729 159.176 63.7061C158.969 63.6393 158.654 63.6059 158.231 63.6059C158.207 63.6059 158.195 63.5701 158.195 63.4974C158.195 63.4246 158.207 63.3888 158.231 63.3888C158.534 63.3888 158.869 63.3984 159.239 63.4163C159.607 63.4342 159.997 63.4437 160.41 63.4437C160.798 63.4437 161.233 63.4258 161.717 63.3888C162.201 63.3519 162.626 63.334 162.989 63.334ZM164.642 66.2764C164.642 65.5989 164.551 65.0694 164.37 64.6877C164.189 64.306 163.931 64.0377 163.598 63.8802C163.265 63.7228 162.874 63.6441 162.427 63.6441C161.967 63.6441 161.637 63.7252 161.437 63.8886C161.237 64.052 161.138 64.3883 161.138 64.8964V68.7274C161.307 68.7393 161.492 68.7525 161.691 68.7644C161.891 68.7763 162.063 68.7823 162.209 68.7823C163.104 68.7823 163.734 68.5759 164.097 68.1645C164.459 67.753 164.642 67.1232 164.642 66.2764ZM167.347 74.7375C167.154 74.7375 166.835 74.5049 166.394 74.0385C165.951 73.5722 165.423 72.9067 164.805 72.0408C164.187 71.176 163.492 70.1432 162.717 68.9457L163.933 68.564C164.951 70.0287 165.813 71.1963 166.52 72.0682C167.228 72.9401 167.855 73.5662 168.4 73.9479C168.945 74.3296 169.465 74.5204 169.961 74.5204C169.998 74.5204 170.016 74.5562 170.016 74.6289C170.016 74.7017 169.998 74.7375 169.961 74.7375C169.284 74.7375 168.729 74.7375 168.3 74.7375C167.87 74.7375 167.552 74.7375 167.347 74.7375Z" fill="#BEBEBE"/>
<path d="M173.574 73.2655C173.574 73.6162 173.607 73.8833 173.674 74.0646C173.74 74.2471 173.879 74.3676 174.091 74.4284C174.304 74.4892 174.621 74.519 175.044 74.519C175.069 74.519 175.081 74.5548 175.081 74.6276C175.081 74.7003 175.069 74.7361 175.044 74.7361C174.741 74.7361 174.406 74.7301 174.036 74.7182C173.667 74.7063 173.265 74.7003 172.829 74.7003C172.406 74.7003 172.006 74.7063 171.631 74.7182C171.255 74.7301 170.916 74.7361 170.615 74.7361C170.59 74.7361 170.578 74.7003 170.578 74.6276C170.578 74.5548 170.59 74.519 170.615 74.519C171.038 74.519 171.359 74.4892 171.577 74.4284C171.794 74.3676 171.94 74.2471 172.012 74.0646C172.085 73.8833 172.121 73.6173 172.121 73.2655V64.8593C172.121 64.5086 172.084 64.245 172.012 64.0697C171.94 63.8944 171.794 63.7727 171.577 63.7059C171.36 63.6391 171.038 63.6057 170.615 63.6057C170.59 63.6057 170.578 63.57 170.578 63.4972C170.578 63.4245 170.59 63.3887 170.615 63.3887C170.916 63.3887 171.256 63.3982 171.631 63.4161C172.006 63.434 172.406 63.4435 172.829 63.4435C173.265 63.4435 173.67 63.434 174.046 63.4161C174.421 63.3982 174.753 63.3887 175.044 63.3887C175.069 63.3887 175.081 63.4256 175.081 63.4972C175.081 63.57 175.069 63.6057 175.044 63.6057C174.621 63.6057 174.306 63.6415 174.101 63.7143C173.895 63.787 173.756 63.9135 173.683 64.0948C173.611 64.2761 173.575 64.5432 173.575 64.8939V73.2655H173.574Z" fill="#BEBEBE"/>
<path d="M179.493 63.7528C178.743 63.7528 178.155 63.9616 177.732 64.379C177.308 64.7964 176.993 65.4656 176.788 66.3851C176.776 66.4102 176.737 66.4209 176.67 66.4209C176.603 66.4209 176.57 66.403 176.57 66.366C176.594 66.2086 176.621 65.9844 176.651 65.6946C176.681 65.4035 176.708 65.0899 176.732 64.7511C176.756 64.4124 176.777 64.0856 176.795 63.7707C176.813 63.4558 176.823 63.1958 176.823 62.9907C176.823 62.9299 176.86 62.9 176.931 62.9C177.004 62.9 177.04 62.9299 177.04 62.9907C177.04 63.1111 177.099 63.1994 177.221 63.2543C177.342 63.3091 177.481 63.3449 177.638 63.3628C177.796 63.3807 177.93 63.3902 178.038 63.3902C179.079 63.4272 180.296 63.4451 181.688 63.4451C182.535 63.4451 183.213 63.4356 183.721 63.4177C184.229 63.3998 184.72 63.3902 185.192 63.3902C185.603 63.3902 185.921 63.3628 186.145 63.3091C186.368 63.2543 186.511 63.1314 186.572 62.937C186.584 62.8893 186.623 62.8643 186.69 62.8643C186.757 62.8643 186.79 62.8893 186.79 62.937C186.765 63.1195 186.745 63.3724 186.727 63.7003C186.709 64.0271 186.69 64.3659 186.672 64.7165C186.654 65.0672 186.639 65.3952 186.627 65.6969C186.615 65.9999 186.609 66.2241 186.609 66.3684C186.609 66.4042 186.575 66.4233 186.509 66.4233C186.442 66.4233 186.408 66.4054 186.408 66.3684C186.324 65.4238 186.082 64.7523 185.682 64.3528C185.283 63.9532 184.69 63.754 183.903 63.754C183.479 63.754 183.161 63.7815 182.95 63.8351C182.737 63.89 182.599 63.9961 182.532 64.1536C182.465 64.311 182.432 64.5591 182.432 64.8978V73.2683C182.432 73.6189 182.471 73.8861 182.55 74.0674C182.629 74.2499 182.786 74.3703 183.022 74.4311C183.259 74.492 183.625 74.5218 184.121 74.5218C184.145 74.5218 184.157 74.5576 184.157 74.6303C184.157 74.7031 184.145 74.7389 184.121 74.7389C183.794 74.7389 183.428 74.7329 183.022 74.721C182.617 74.709 182.172 74.7031 181.688 74.7031C181.227 74.7031 180.796 74.709 180.39 74.721C179.985 74.7329 179.612 74.7389 179.274 74.7389C179.238 74.7389 179.219 74.7031 179.219 74.6303C179.219 74.5576 179.237 74.5218 179.274 74.5218C179.746 74.5218 180.106 74.492 180.354 74.4311C180.602 74.3703 180.768 74.2499 180.854 74.0674C180.939 73.8861 180.98 73.6201 180.98 73.2683V64.8597C180.98 64.5329 180.945 64.2884 180.872 64.125C180.799 63.9616 180.654 63.859 180.437 63.816C180.22 63.7731 179.905 63.7528 179.493 63.7528Z" fill="#BEBEBE"/>
<path d="M192.548 69.7983L189.444 65.1503C189.044 64.5575 188.699 64.152 188.408 63.9337C188.119 63.7167 187.804 63.6069 187.465 63.6069C187.429 63.6069 187.41 63.5712 187.41 63.4984C187.41 63.4257 187.428 63.3899 187.465 63.3899C187.658 63.3899 187.865 63.3994 188.083 63.4173C188.301 63.4352 188.506 63.4447 188.701 63.4447C189.039 63.4447 189.372 63.4423 189.699 63.4352C190.026 63.4292 190.337 63.4209 190.634 63.4078C190.931 63.3958 191.187 63.3887 191.406 63.3887C191.43 63.3887 191.442 63.4256 191.442 63.4972C191.442 63.57 191.43 63.6057 191.406 63.6057C190.97 63.6057 190.701 63.6904 190.598 63.8598C190.494 64.0292 190.547 64.2594 190.752 64.5492L193.693 68.961L192.548 69.7983ZM192.33 69.1077L193.783 68.9443V73.2655C193.783 73.6162 193.816 73.8833 193.883 74.0646C193.95 74.2471 194.086 74.3676 194.291 74.4284C194.497 74.4892 194.811 74.519 195.236 74.519C195.271 74.519 195.29 74.5548 195.29 74.6276C195.29 74.7003 195.272 74.7361 195.236 74.7361C194.944 74.7361 194.615 74.7301 194.246 74.7182C193.876 74.7063 193.474 74.7003 193.039 74.7003C192.627 74.7003 192.231 74.7063 191.849 74.7182C191.469 74.7301 191.133 74.7361 190.842 74.7361C190.806 74.7361 190.787 74.7003 190.787 74.6276C190.787 74.5548 190.805 74.519 190.842 74.519C191.265 74.519 191.583 74.4892 191.795 74.4284C192.007 74.3676 192.149 74.2471 192.222 74.0646C192.294 73.8833 192.33 73.6173 192.33 73.2655V69.1077ZM193.002 69.5621L195.58 65.5129C195.943 64.9082 196.076 64.4383 195.98 64.1055C195.882 63.7727 195.562 63.6057 195.017 63.6057C194.981 63.6057 194.962 63.57 194.962 63.4972C194.962 63.4245 194.98 63.3887 195.017 63.3887C195.368 63.3887 195.698 63.3982 196.007 63.4161C196.316 63.434 196.725 63.4435 197.233 63.4435C197.535 63.4435 197.781 63.434 197.968 63.4161C198.155 63.3982 198.383 63.3887 198.649 63.3887C198.673 63.3887 198.685 63.4256 198.685 63.4972C198.685 63.57 198.673 63.6057 198.649 63.6057C198.383 63.6057 198.092 63.6869 197.777 63.8503C197.462 64.0137 197.157 64.2438 196.86 64.5408C196.563 64.8378 196.289 65.1909 196.033 65.6023L193.346 69.8508L193.002 69.5621Z" fill="#BEBEBE"/>
<mask id="mask0_559_142" style="mask-type:luminance" maskUnits="userSpaceOnUse" x="118" y="7" width="39" height="35">
<path d="M143.112 7.87305V9.30907C147.407 9.5655 148.642 10.2847 148.804 12.5926C148.965 14.1312 149.072 16.3377 149.072 21.1085V33.6773L126.308 7.87305H118.255V9.30907C120.886 9.5655 122.013 9.87322 123.033 11.1554C123.999 12.2837 124.108 13.1043 124.108 14.5415V27.6231C124.108 32.2914 124 34.6004 123.838 36.2416C123.623 38.7546 122.335 39.5239 119.006 39.7816V41.2176H132.052V39.7816C128.187 39.4738 126.845 38.7046 126.737 36.0878C126.63 34.6004 126.469 32.2914 126.469 27.6744V14.8504L148.176 41.6804H151.489V21.1085C151.489 16.3377 151.596 14.1837 151.648 12.5413C151.811 10.1809 152.938 9.66926 156.374 9.30907V7.87305H143.112Z" fill="white"/>
</mask>
<g mask="url(#mask0_559_142)">
<path d="M156.374 7.87305H118.253V41.6804H156.374V7.87305Z" fill="url(#paint0_linear_559_142)"/>
</g>
<path d="M187.46 16.2423C186.98 14.619 186.339 12.9456 185.751 12.0332C184.897 10.664 184.363 10.3085 181.428 10.3085H176.089V35.0095C176.089 38.9657 176.516 39.5239 181.587 39.8281V41.2486H166.052V39.8281C171.018 39.5239 171.445 39.017 171.445 35.0095V10.3085H166.585C163.649 10.3085 162.795 10.6127 161.887 12.1346C161.247 13.1484 160.82 14.3661 160.126 16.2423H158.524C158.845 13.1484 159.164 9.95312 159.324 7.11328H160.553C161.354 8.32984 161.941 8.27975 163.436 8.27975H184.576C186.071 8.27975 186.498 8.07699 187.299 7.11328H188.58C188.58 9.49751 188.794 13.1484 189.061 16.0908L187.46 16.2423Z" fill="#BEBEBE"/>
<path d="M62.6304 55.392C62.541 55.7784 62.1391 57.3111 61.9912 57.7583H54.7598V57.3421C56.1433 57.2383 56.2483 57.1035 56.2483 55.8834V50.0057C56.2483 48.6818 56.0849 48.6067 54.9685 48.5029V48.0867H59.5222C60.9213 48.0867 61.501 48.0724 61.6799 48.0568C61.6942 48.429 61.7538 49.5454 61.8134 50.3337L61.3674 50.4077C61.2338 49.902 61.0847 49.5895 60.9213 49.277C60.6828 48.7856 60.3404 48.6818 59.4483 48.6818H58.0349C57.5734 48.6818 57.5435 48.726 57.5435 49.1577V52.446H59.1954C60.3118 52.446 60.3858 52.223 60.5647 51.2104H61.0263V54.2756H60.5647C60.3715 53.2046 60.2522 53.0555 59.1811 53.0555H57.5447V56.017C57.5447 57.0582 57.8715 57.1477 58.6158 57.1632H59.9993C60.907 57.1632 61.0561 57.0296 61.3829 56.642C61.6656 56.3295 61.978 55.7188 62.1868 55.2727L62.6304 55.392ZM73.954 48.5029C73.0022 48.6067 72.6898 48.7558 72.6444 49.4404C72.6301 49.9163 72.6003 50.5413 72.6003 51.926V57.8931H72.035L65.6659 50.1107V53.8308C65.6659 55.1702 65.71 55.8393 65.7398 56.271C65.7697 57.0296 66.1418 57.2526 67.2128 57.3421V57.7583H63.5965V57.3421C64.5197 57.2681 64.8763 57.0439 64.936 56.3152C64.9801 55.8393 65.0099 55.169 65.0099 53.8152V50.0212C65.0099 49.605 64.9801 49.3664 64.7117 49.0396C64.4291 48.6675 64.1166 48.5781 63.3878 48.5041V48.0879H65.6194L71.9288 55.5721V51.926C71.9288 50.5425 71.899 49.902 71.8549 49.4559C71.8107 48.7868 71.4684 48.5781 70.2781 48.5041V48.0879H73.954V48.5029ZM83.089 50.422C82.9554 49.9461 82.7765 49.4547 82.6131 49.1863C82.3745 48.7844 82.2266 48.6806 81.4073 48.6806H79.9188V55.9275C79.9188 57.088 80.038 57.2514 81.4514 57.3409V57.7571H77.1207V57.3409C78.5042 57.2514 78.6235 57.1023 78.6235 55.9275V48.6806H77.2697C76.4516 48.6806 76.213 48.7701 75.9602 49.2162C75.7813 49.5143 75.662 49.871 75.4688 50.422H75.0227C75.1121 49.5143 75.2016 48.5769 75.2457 47.7432H75.588C75.8111 48.0998 75.9745 48.0855 76.3919 48.0855H82.2851C82.7013 48.0855 82.8206 48.0258 83.0437 47.7432H83.4003C83.4003 48.4421 83.4599 49.5143 83.5339 50.3767L83.089 50.422ZM92.4768 55.392C92.3873 55.7784 91.9854 57.3111 91.8375 57.7583H84.6061V57.3421C85.9896 57.2383 86.0946 57.1035 86.0946 55.8834V50.0057C86.0946 48.6818 85.9312 48.6067 84.8148 48.5029V48.0867H89.3686C90.7676 48.0867 91.3473 48.0724 91.5262 48.0568C91.5405 48.429 91.6001 49.5454 91.6598 50.3337L91.2137 50.4077C91.0801 49.902 90.931 49.5895 90.7676 49.277C90.5291 48.7856 90.1868 48.6818 89.2946 48.6818H87.8789C87.4173 48.6818 87.3875 48.726 87.3875 49.1577V52.446H89.0394C90.1558 52.446 90.2297 52.223 90.4086 51.2104H90.8702V54.2756H90.4086C90.2154 53.2046 90.0961 53.0555 89.0251 53.0555H87.3887V56.017C87.3887 57.0582 87.7155 57.1477 88.4597 57.1632H89.8433C90.7509 57.1632 90.9 57.0296 91.2268 56.642C91.5095 56.3295 91.822 55.7188 92.0307 55.2727L92.4768 55.392ZM102.342 57.8776C102.148 57.8776 101.985 57.8633 101.791 57.8478C100.704 57.7738 100.124 57.4912 99.4696 56.568C98.9186 55.8095 98.3831 54.872 97.9072 54.1122C97.609 53.6363 97.4158 53.5469 96.6572 53.5469H96.136V55.8834C96.136 57.1477 96.2994 57.2228 97.4897 57.3421V57.7583H93.5168V57.3421C94.7525 57.2085 94.8562 57.1489 94.8562 55.8834V49.9461C94.8562 48.6818 94.6928 48.6365 93.5168 48.5029V48.0867H97.3108C98.3974 48.0867 99.1261 48.2202 99.6915 48.5924C100.302 48.9788 100.703 49.6491 100.703 50.5568C100.703 51.8365 99.8847 52.6404 98.7838 53.1163C99.0522 53.5779 99.6915 54.575 100.138 55.2441C100.689 56.0325 100.971 56.4046 101.314 56.7767C101.716 57.2085 102.058 57.3719 102.4 57.4614L102.342 57.8776ZM96.8504 53.0412C97.6245 53.0412 98.1147 52.9219 98.4868 52.6094C99.0677 52.1777 99.305 51.5825 99.305 50.7786C99.305 49.1863 98.2483 48.6055 97.1033 48.6055C96.6715 48.6055 96.4187 48.6651 96.3149 48.7546C96.1813 48.8584 96.136 49.0074 96.136 49.3939V53.04H96.8504V53.0412ZM106.762 48.0867C107.819 48.0867 108.667 48.2799 109.276 48.726C109.857 49.1577 110.258 49.8566 110.258 50.8394C110.258 53.0126 108.397 53.8904 106.984 53.8904C106.82 53.8904 106.671 53.8761 106.582 53.8606L105.555 53.5922V55.9132C105.555 57.1632 105.659 57.193 107.028 57.3421V57.7583H102.921V57.3421C104.201 57.2085 104.261 57.119 104.261 55.8834V49.9759C104.261 48.652 104.097 48.6222 102.921 48.5029V48.0867H106.762ZM105.556 53.071C105.735 53.1605 106.137 53.2642 106.643 53.2642C107.64 53.2642 108.874 52.7585 108.874 50.8836C108.874 49.2472 107.803 48.5924 106.553 48.5924C106.121 48.5924 105.809 48.6663 105.719 48.7713C105.6 48.875 105.556 49.054 105.556 49.4559V53.071ZM120.317 57.8776C120.124 57.8776 119.96 57.8633 119.766 57.8478C118.679 57.7738 118.1 57.4912 117.445 56.568C116.894 55.8095 116.358 54.872 115.882 54.1122C115.584 53.6363 115.391 53.5469 114.633 53.5469H114.111V55.8834C114.111 57.1477 114.275 57.2228 115.465 57.3421V57.7583H111.492V57.3421C112.728 57.2085 112.832 57.1489 112.832 55.8834V49.9461C112.832 48.6818 112.668 48.6365 111.492 48.5029V48.0867H115.286C116.373 48.0867 117.101 48.2202 117.667 48.5924C118.277 48.9788 118.678 49.6491 118.678 50.5568C118.678 51.8365 117.86 52.6404 116.759 53.1163C117.027 53.5779 117.667 54.575 118.113 55.2441C118.664 56.0325 118.947 56.4046 119.289 56.7767C119.691 57.2085 120.033 57.3719 120.375 57.4614L120.317 57.8776ZM114.826 53.0412C115.6 53.0412 116.09 52.9219 116.462 52.6094C117.043 52.1777 117.28 51.5825 117.28 50.7786C117.28 49.1863 116.224 48.6055 115.079 48.6055C114.647 48.6055 114.394 48.6651 114.29 48.7546C114.157 48.8584 114.111 49.0074 114.111 49.3939V53.04H114.826V53.0412ZM120.895 57.7583V57.3421C122.116 57.2085 122.235 57.1489 122.235 55.8834V49.9759C122.235 48.6961 122.116 48.6365 120.895 48.5029V48.0867H124.884V48.5029C123.648 48.6365 123.53 48.6961 123.53 49.9759V55.8834C123.53 57.1632 123.649 57.2073 124.884 57.3421V57.7583H120.895ZM131.282 50.348C131.029 49.3664 130.612 48.3992 129.213 48.3992C128.053 48.3992 127.651 49.2472 127.651 50.0212C127.651 51.0482 128.306 51.5694 129.54 52.2087C131.326 53.1318 132.1 53.8152 132.1 55.2298C132.1 56.7922 130.746 57.9826 128.826 57.9826C127.932 57.9826 127.16 57.7297 126.549 57.4912C126.43 57.0749 126.251 56.0623 126.147 55.2596L126.609 55.1403C126.907 56.1374 127.56 57.4315 129.108 57.4315C130.179 57.4315 130.834 56.6873 130.834 55.72C130.834 54.5738 130.224 54.1134 128.915 53.399C127.353 52.551 126.475 51.8365 126.475 50.453C126.475 49.1291 127.576 47.8791 129.54 47.8791C130.374 47.8791 131.192 48.1022 131.505 48.1618C131.564 48.6973 131.624 49.2925 131.743 50.2598L131.282 50.348ZM141.102 55.392C141.013 55.7784 140.611 57.3111 140.463 57.7583H133.232V57.3421C134.615 57.2383 134.72 57.1035 134.72 55.8834V50.0057C134.72 48.6818 134.557 48.6067 133.44 48.5029V48.0867H137.994C139.393 48.0867 139.973 48.0724 140.152 48.0568C140.166 48.429 140.226 49.5454 140.285 50.3337L139.839 50.4077C139.706 49.902 139.557 49.5895 139.393 49.277C139.155 48.7856 138.812 48.6818 137.92 48.6818H136.507C136.045 48.6818 136.015 48.726 136.015 49.1577V52.446H137.667C138.784 52.446 138.858 52.223 139.037 51.2104H139.498V54.2756H139.037C138.843 53.2046 138.724 53.0555 137.653 53.0555H136.017V56.017C136.017 57.0582 136.343 57.1477 137.088 57.1632H138.471C139.379 57.1632 139.528 57.0296 139.855 56.642C140.137 56.3295 140.45 55.7188 140.659 55.2727L141.102 55.392ZM147.306 50.348C147.053 49.3664 146.636 48.3992 145.237 48.3992C144.077 48.3992 143.675 49.2472 143.675 50.0212C143.675 51.0482 144.33 51.5694 145.564 52.2087C147.35 53.1318 148.124 53.8152 148.124 55.2298C148.124 56.7922 146.77 57.9826 144.85 57.9826C143.956 57.9826 143.184 57.7297 142.573 57.4912C142.454 57.0749 142.275 56.0623 142.171 55.2596L142.633 55.1403C142.931 56.1374 143.584 57.4315 145.132 57.4315C146.204 57.4315 146.858 56.6873 146.858 55.72C146.858 54.5738 146.248 54.1134 144.939 53.399C143.377 52.551 142.499 51.8365 142.499 50.453C142.499 49.1291 143.6 47.8791 145.564 47.8791C146.398 47.8791 147.216 48.1022 147.529 48.1618C147.588 48.6973 147.648 49.2925 147.767 50.2598L147.306 50.348ZM156.769 48.0867C157.825 48.0867 158.673 48.2799 159.283 48.726C159.864 49.1577 160.264 49.8566 160.264 50.8394C160.264 53.0126 158.404 53.8904 156.99 53.8904C156.827 53.8904 156.678 53.8761 156.588 53.8606L155.562 53.5922V55.9132C155.562 57.1632 155.665 57.193 157.035 57.3421V57.7583H152.928V57.3421C154.208 57.2085 154.267 57.119 154.267 55.8834V49.9759C154.267 48.652 154.104 48.6222 152.928 48.5029V48.0867H156.769ZM155.564 53.071C155.743 53.1605 156.145 53.2642 156.65 53.2642C157.648 53.2642 158.882 52.7585 158.882 50.8836C158.882 49.2472 157.811 48.5924 156.561 48.5924C156.129 48.5924 155.817 48.6663 155.727 48.7713C155.608 48.875 155.564 49.054 155.564 49.4559V53.071ZM171.112 48.5029C170.115 48.6365 169.862 48.7713 169.327 50.1095C168.925 51.0911 166.871 56.0766 166.142 57.9217H165.651C164.773 55.5256 163.493 52.0441 162.645 49.8411C162.229 48.7403 161.976 48.5912 161.068 48.5017V48.0855H164.848V48.5017C163.747 48.621 163.687 48.7999 163.896 49.3497C164.268 50.4363 165.355 53.3978 166.292 55.8679C167.081 53.9488 168.063 51.5229 168.762 49.6479C169.089 48.7844 168.911 48.6508 167.691 48.5017V48.0855H171.114V48.5029H171.112ZM180.008 50.422C179.875 49.9461 179.696 49.4547 179.533 49.1863C179.294 48.7844 179.146 48.6806 178.327 48.6806H176.838V55.9275C176.838 57.088 176.958 57.2514 178.371 57.3409V57.7571H174.04V57.3409C175.424 57.2514 175.543 57.1023 175.543 55.9275V48.6806H174.189C173.371 48.6806 173.132 48.7701 172.88 49.2162C172.701 49.5143 172.581 49.871 172.388 50.422H171.942C172.032 49.5143 172.121 48.5769 172.165 47.7432H172.508C172.731 48.0998 172.894 48.0855 173.311 48.0855H179.205C179.621 48.0855 179.74 48.0258 179.963 47.7432H180.32C180.32 48.4421 180.379 49.5143 180.453 50.3767L180.008 50.422ZM181.242 57.9671C180.706 57.9671 180.334 57.5806 180.334 57.0153C180.334 56.4798 180.706 56.0635 181.242 56.0635C181.777 56.0635 182.179 56.4798 182.179 57.0153C182.179 57.5794 181.778 57.9671 181.242 57.9671ZM194.456 55.2882C194.366 55.7498 193.92 57.2968 193.771 57.7583H186.852V57.3421C188.206 57.2085 188.325 57.1334 188.325 55.8691V49.9616C188.325 48.6973 188.176 48.6222 186.986 48.5029V48.0867H190.974V48.5029C189.784 48.6222 189.62 48.6818 189.62 49.9616V56.0182C189.62 56.9258 189.74 57.1346 190.588 57.1489C190.602 57.1489 191.674 57.1632 191.764 57.1632C192.522 57.1632 192.745 57.0737 193.088 56.7016C193.46 56.3152 193.772 55.72 193.995 55.169L194.456 55.2882ZM201.954 50.422C201.821 49.9461 201.642 49.4547 201.478 49.1863C201.24 48.7844 201.092 48.6806 200.273 48.6806H198.784V55.9275C198.784 57.088 198.903 57.2514 200.317 57.3409V57.7571H195.986V57.3409C197.37 57.2514 197.489 57.1023 197.489 55.9275V48.6806H196.135C195.317 48.6806 195.078 48.7701 194.825 49.2162C194.647 49.5143 194.527 49.871 194.334 50.422H193.888C193.977 49.5143 194.067 48.5769 194.111 47.7432H194.453C194.676 48.0998 194.84 48.0855 195.257 48.0855H201.15C201.567 48.0855 201.686 48.0258 201.909 47.7432H202.266C202.266 48.4421 202.325 49.5143 202.399 50.3767L201.954 50.422ZM207.756 48.0867C209.854 48.0867 211.179 48.5029 212.101 49.3808C212.829 50.0952 213.365 51.1364 213.365 52.5653C213.365 54.3066 212.651 55.72 211.504 56.5835C210.374 57.4315 208.93 57.7595 207.1 57.7595H203.618V57.3433C204.898 57.224 204.958 57.1202 204.958 55.9001V49.9628C204.958 48.683 204.779 48.6234 203.618 48.5041V48.0879H207.756V48.0867ZM206.253 55.7796C206.253 56.896 206.729 57.2085 207.845 57.2085C210.524 57.2085 211.893 55.3777 211.893 52.774C211.893 51.1519 211.342 49.9175 210.167 49.203C209.483 48.7713 208.619 48.6079 207.623 48.6079C206.954 48.6079 206.596 48.6973 206.447 48.8166C206.314 48.9061 206.254 49.0695 206.254 49.6503V55.7796H206.253ZM215.21 57.9671C214.675 57.9671 214.302 57.5806 214.302 57.0153C214.302 56.4798 214.675 56.0635 215.21 56.0635C215.746 56.0635 216.148 56.4798 216.148 57.0153C216.148 57.5794 215.746 57.9671 215.21 57.9671Z" fill="#211E1F"/>
<defs>
<linearGradient id="paint0_linear_559_142" x1="118.255" y1="24.7752" x2="156.375" y2="24.7752" gradientUnits="userSpaceOnUse">
<stop stop-color="#6F7273"/>
<stop offset="0.0922" stop-color="#6F7273"/>
<stop offset="0.0963" stop-color="#6F7273"/>
<stop offset="0.1648" stop-color="#6F7273"/>
<stop offset="0.1711" stop-color="#6F7273"/>
<stop offset="0.2598" stop-color="#6F7273"/>
<stop offset="0.27" stop-color="#6F7273"/>
<stop offset="0.3324" stop-color="#6F7273"/>
<stop offset="0.3437" stop-color="#6F7273"/>
<stop offset="0.4112" stop-color="#6F7273"/>
<stop offset="0.423" stop-color="#BEBEBE"/>
<stop offset="0.528646" stop-color="#BEBEBE"/>
<stop offset="0.528746" stop-color="#BFBFBF"/>
<stop offset="0.557692" stop-color="#BEBEBE"/>
<stop offset="0.5782" stop-color="#BEBEBE"/>
<stop offset="0.6844" stop-color="#BEBEBE"/>
<stop offset="0.7849" stop-color="#BEBEBE"/>
<stop offset="0.8983" stop-color="#BEBEBE"/>
<stop offset="1" stop-color="#BEBEBE"/>
</linearGradient>
</defs>
</svg>
