<svg width="64" height="73" viewBox="0 0 64 73" fill="none" xmlns="http://www.w3.org/2000/svg">
<g clip-path="url(#clip0_562_585)">
<path d="M46.0054 28.849C46.1049 29.0449 46.193 29.2465 46.2782 29.4537C45.3745 22.4444 39.3667 17.0107 32.1084 17.0107C24.2278 17.0107 17.8164 23.4153 17.8164 31.2848V36.3069L18.1063 36.0343V31.2848C18.1063 23.5743 24.3869 17.3003 32.1084 17.3003C38.8807 17.3003 44.5418 22.1265 45.832 28.514L46.0054 28.849Z" fill="#5E692F"/>
<path d="M1.09414 73.0002C0.781528 73.0002 0.525755 72.9094 0.332504 72.7305C0.110835 72.529 0 72.2366 0 71.859V69.1705C0 68.7986 0.110835 68.5062 0.332504 68.299C0.525755 68.1201 0.778686 68.0293 1.09414 68.0293C1.40959 68.0293 1.65968 68.1201 1.86146 68.299C2.08313 68.5062 2.19396 68.7958 2.19396 69.1705V69.6134H1.60568V69.1705C1.60568 68.9803 1.56306 68.8412 1.48064 68.7532C1.39822 68.6624 1.2675 68.6198 1.09414 68.6198C0.920782 68.6198 0.790053 68.6652 0.71048 68.7532C0.630906 68.8441 0.588277 68.9832 0.588277 69.1705V71.859C0.588277 72.0492 0.628064 72.1883 0.71048 72.2763C0.790053 72.3672 0.91794 72.4126 1.09414 72.4126C1.27034 72.4126 1.39822 72.3672 1.48064 72.2763C1.56306 72.1855 1.60568 72.0464 1.60568 71.859V71.2089H2.19396V71.859C2.19396 72.2366 2.08313 72.5261 1.86146 72.7305C1.65968 72.9094 1.40107 73.0002 1.09414 73.0002Z" fill="#5E692F"/>
<path d="M9.97216 73.0004C9.66239 73.0004 9.40661 72.9096 9.20484 72.7307C8.98885 72.5292 8.88086 72.2368 8.88086 71.8592V69.1764C8.88086 68.8045 8.98885 68.5121 9.20484 68.3049C9.40661 68.126 9.66239 68.0352 9.97216 68.0352C10.2819 68.0352 10.5377 68.126 10.7395 68.3049C10.9555 68.5121 11.0635 68.8017 11.0635 69.1764V71.8592C11.0635 72.2368 10.9555 72.5263 10.7395 72.7307C10.5377 72.9096 10.2791 73.0004 9.97216 73.0004ZM9.97216 68.6228C9.79596 68.6228 9.66807 68.6682 9.5885 68.7562C9.50892 68.8471 9.46629 68.9862 9.46629 69.1736V71.8563C9.46629 72.0466 9.50608 72.1857 9.5885 72.2737C9.66807 72.3645 9.79596 72.4099 9.97216 72.4099C10.1484 72.4099 10.2762 72.3645 10.3558 72.2737C10.4354 72.1828 10.478 72.0437 10.478 71.8563V69.1736C10.478 68.9834 10.4382 68.8443 10.3558 68.7562C10.2762 68.6654 10.1484 68.6228 9.97216 68.6228Z" fill="#5E692F"/>
<path d="M18.3871 72.938H17.7988V68.0977H18.1228L19.4727 71.0217V68.0977H20.061V72.938H19.737L18.3871 70.0196V72.938Z" fill="#5E692F"/>
<path d="M27.8881 73.0002C27.5755 73.0002 27.3197 72.9094 27.1264 72.7305C26.9048 72.529 26.7939 72.2366 26.7939 71.859V69.1705C26.7939 68.7986 26.9048 68.5062 27.1264 68.299C27.3197 68.1201 27.5726 68.0293 27.8881 68.0293C28.2035 68.0293 28.4536 68.1201 28.6554 68.299C28.8771 68.5062 28.9879 68.7958 28.9879 69.1705V69.6134H28.3996V69.1705C28.3996 68.9803 28.357 68.8412 28.2746 68.7532C28.1922 68.6624 28.0614 68.6198 27.8881 68.6198C27.7147 68.6198 27.584 68.6652 27.5044 68.7532C27.4249 68.8441 27.3822 68.9832 27.3822 69.1705V71.859C27.3822 72.0492 27.422 72.1883 27.5044 72.2763C27.584 72.3672 27.7119 72.4126 27.8881 72.4126C28.0643 72.4126 28.1922 72.3672 28.2746 72.2763C28.357 72.1855 28.3996 72.0464 28.3996 71.859V71.2089H28.9879V71.859C28.9879 72.2366 28.8771 72.5261 28.6554 72.7305C28.4536 72.9094 28.195 73.0002 27.8881 73.0002Z" fill="#5E692F"/>
<path d="M36.2914 68.6852V70.1643H37.2122V70.752H36.2914V72.3474H37.6129V72.9351H35.7031V68.0947H37.6129V68.6824H36.2914V68.6852Z" fill="#5E692F"/>
<path d="M44.9193 72.938H44.3311V68.0977H45.4252C45.735 68.0977 45.9907 68.1885 46.1925 68.3674C46.4085 68.5689 46.5165 68.8613 46.5165 69.2389V69.784C46.5165 70.1559 46.4085 70.4454 46.1925 70.647C45.9993 70.8259 45.7435 70.9167 45.4252 70.9167H44.9193V72.9352V72.938ZM44.9193 70.3319H45.4252C45.6014 70.3319 45.7293 70.2893 45.8089 70.2013C45.8884 70.1133 45.9311 69.977 45.9311 69.7868V69.2417C45.9311 69.0515 45.8913 68.9124 45.8089 68.8244C45.7293 68.7336 45.6014 68.691 45.4252 68.691H44.9193V70.3376V70.3319Z" fill="#5E692F"/>
<path d="M55.21 68.6931H54.3943V72.9373H53.806V68.6931H52.9961V68.1055H55.21V68.6931Z" fill="#5E692F"/>
<path d="M62.8012 73.0006C62.6477 73.0006 62.5084 72.9779 62.3749 72.9325C62.2413 72.8871 62.1305 72.8189 62.0395 72.7309C61.8179 72.5293 61.707 72.2369 61.707 71.8594V71.2036H62.2953V71.8594C62.2953 72.0496 62.3351 72.1887 62.4175 72.2767C62.4971 72.3675 62.625 72.413 62.8012 72.413C62.9774 72.413 63.1053 72.3675 63.1877 72.2767C63.2701 72.1858 63.3127 72.0467 63.3127 71.8594V71.5414C63.3127 71.408 63.2957 71.3001 63.2616 71.2178C63.2275 71.1354 63.1848 71.0645 63.1337 71.0048C63.0825 70.9452 63.02 70.8913 62.9461 70.8459C62.8722 70.8004 62.7756 70.7408 62.6562 70.6727C62.5085 70.5904 62.3862 70.5166 62.2925 70.4513C62.1987 70.386 62.1106 70.3093 62.0339 70.2241C61.8179 69.9885 61.7099 69.6847 61.7099 69.3129V69.1823C61.7099 68.8104 61.8207 68.518 62.0424 68.3107C62.1333 68.2227 62.247 68.1574 62.3777 68.1092C62.5085 68.0609 62.6505 68.041 62.804 68.041C63.1223 68.041 63.3781 68.1319 63.5713 68.3107C63.793 68.518 63.9038 68.8075 63.9038 69.1823V69.6251H63.3156V69.1823C63.3156 68.9921 63.2729 68.8529 63.1905 68.7649C63.1081 68.6741 62.9774 68.6315 62.804 68.6315C62.6307 68.6315 62.4999 68.6769 62.4204 68.7649C62.3408 68.8558 62.2982 68.9949 62.2982 69.1823V69.3129C62.2982 69.5286 62.355 69.7018 62.4715 69.8324C62.5227 69.892 62.5823 69.9431 62.6505 69.9885C62.7188 70.0311 62.8154 70.0907 62.9404 70.1645C63.0797 70.2383 63.1962 70.3093 63.2957 70.3774C63.3951 70.4456 63.4861 70.5279 63.5685 70.6188C63.7902 70.8572 63.901 71.1667 63.901 71.5442V71.8622C63.901 72.2398 63.7902 72.5294 63.5685 72.7338C63.3752 72.9126 63.1195 73.0034 62.8012 73.0034V73.0006Z" fill="#5E692F"/>
<path d="M53.2718 54.9871H52.9109V30.6406C52.9109 19.1827 43.578 9.85966 32.1052 9.85966C20.6323 9.85966 11.3023 19.1827 11.3023 30.6406V54.9843H10.9414V30.6406C10.9414 18.9839 20.4363 9.50195 32.1052 9.50195C43.7741 9.50195 53.2689 18.9839 53.2689 30.6406V54.9871H53.2718Z" fill="#5E692F"/>
<path d="M8.27303 54.9871H7.91211V30.6433C7.91211 17.3174 18.7654 6.47559 32.1054 6.47559C45.4453 6.47559 56.2986 17.3174 56.2986 30.6433V54.9871H55.9377V30.6433C55.9377 17.5161 45.2464 6.83613 32.1025 6.83613C18.9586 6.83613 8.27303 17.5133 8.27303 30.6405V54.9842V54.9871Z" fill="#5E692F"/>
<path d="M59.7542 54.9871H59.3933V30.6405C59.3933 15.6113 47.1531 3.38407 32.108 3.38407C17.0629 3.38407 4.81991 15.6113 4.81991 30.6405V54.9843H4.45898V30.6405C4.46183 15.4154 16.864 3.02637 32.108 3.02637C47.3521 3.02637 59.7542 15.4154 59.7542 30.6405V54.9871Z" fill="#5E692F"/>
<path d="M1.79061 54.987H1.42969V30.6433C1.43253 13.7461 15.1931 0 32.1082 0C49.0233 0 62.7839 13.7461 62.7839 30.6405V54.9842H62.4229V30.6405C62.4229 13.9419 48.8244 0.357704 32.1082 0.357704C15.392 0.357704 1.79061 13.9448 1.79061 30.6405V54.9842V54.987Z" fill="#5E692F"/>
<path d="M14.7555 54.9871H14.3945V30.6433C14.3945 20.8888 22.3405 12.9512 32.1082 12.9512C41.8759 12.9512 49.8219 20.8888 49.8219 30.6433V54.9871H49.461V30.6433C49.461 21.0875 41.6769 13.3117 32.1082 13.3117C22.5395 13.3117 14.7555 21.0875 14.7555 30.6433V54.9871Z" fill="#5E692F"/>
<path d="M63.9998 58.2715H0.21582V58.6434H63.9998V58.2715Z" fill="#5E692F"/>
<path d="M63.9998 61.4053H0.21582V61.7772H63.9998V61.4053Z" fill="#5E692F"/>
<path d="M63.9998 64.54H0.21582V64.9119H63.9998V64.54Z" fill="#5E692F"/>
<path d="M46.4711 48.3438H17.7422V48.7157H46.4711V48.3438Z" fill="#5E692F"/>
<path d="M46.4711 51.4805H17.7422V51.8524H46.4711V51.4805Z" fill="#5E692F"/>
<path d="M46.4711 54.6152H17.7422V54.9871H46.4711V54.6152Z" fill="#5E692F"/>
<path d="M28.5786 39.8384C28.5786 38.5297 28.1381 37.4395 27.2543 36.5651C26.3704 35.6907 25.2734 35.2535 23.9662 35.2535H23.4461V33.553L25.3871 31.7333H25.9299C25.8816 31.2592 25.6685 30.8703 25.2905 30.5637C24.9125 30.257 24.4692 30.1037 23.9662 30.1037H23.4461V28.4487L25.3871 26.6289H25.9072C26.9331 26.6289 27.7999 26.9525 28.5104 27.597C29.2209 28.2443 29.5761 29.0533 29.5761 30.0328C29.5761 31.0122 29.2067 31.7503 28.4649 32.3976C29.6159 32.8064 30.5395 33.5048 31.2329 34.4899C31.9264 35.475 32.2731 36.6276 32.2731 37.9534C32.2731 39.8441 31.4205 41.5843 29.7182 43.177L28.4393 44.358C27.2713 45.4453 25.7821 45.9875 23.969 45.9875C22.1559 45.9875 20.6837 45.3686 19.51 44.1308C18.3363 42.8931 17.748 41.3232 17.748 39.4154L19.6891 37.5957H21.4397C21.4397 38.9498 21.8774 40.0996 22.7527 41.0478C23.628 41.9931 24.7051 42.4672 25.9811 42.4672C26.7541 42.4672 27.4475 42.3026 28.0642 41.9704C28.4109 41.309 28.5843 40.5992 28.5843 39.8441L28.5786 39.8384ZM30.8749 37.9477C30.8749 39.3018 30.406 40.4516 29.4681 41.3998C28.5303 42.3452 27.3651 42.8193 25.9782 42.8193C24.5914 42.8193 23.4262 42.3452 22.4884 41.3998C21.5505 40.4544 21.0816 39.3047 21.0816 37.9477H20.0415C20.0415 39.634 20.6127 41.0307 21.758 42.1436C22.9004 43.2536 24.31 43.8101 25.9811 43.8101C27.6521 43.8101 29.0219 43.2338 30.1814 42.084C31.3409 40.9342 31.9207 39.5545 31.9207 37.9477C31.9207 36.5623 31.5171 35.3785 30.7129 34.4019C29.9086 33.4253 28.8599 32.795 27.5669 32.5111C28.0386 32.3067 28.4337 31.9888 28.7491 31.5544C29.0646 31.1201 29.2237 30.6119 29.2237 30.0299C29.2237 29.147 28.9054 28.4203 28.266 27.844C27.6266 27.2677 26.8422 26.9809 25.9129 26.9809H25.748V27.9263H25.9839C26.5978 27.9263 27.1264 28.1222 27.5697 28.5168C28.0102 28.9114 28.2319 29.4082 28.2319 30.0044C28.2319 30.6346 28.0187 31.1399 27.5925 31.5175C27.1662 31.8951 26.6546 32.0853 26.055 32.0853H25.748V33.0789H25.9839C27.3878 33.0789 28.5559 33.5445 29.4852 34.4728C30.4145 35.404 30.8806 36.5594 30.8806 37.9477H30.8749Z" fill="#5E692F"/>
<path d="M35.8513 26.7685H37.0591C39.7873 26.7685 42.0381 27.552 43.8143 29.1191C45.5877 30.6862 46.4772 32.7785 46.4772 35.3931C46.4772 38.0077 45.4598 40.2306 43.425 42.1526L42.1234 43.3818C41.2879 44.1682 40.2449 44.7757 39.0001 45.2016C37.7554 45.6274 36.4367 45.8403 35.0499 45.8403H33.9131V28.5854L35.8541 26.7656L35.8513 26.7685ZM37.0562 27.1233H36.2037V43.6686H37.0562C39.6737 43.6686 41.8392 42.9134 43.55 41.4003C45.2609 39.8871 46.1163 37.8857 46.1163 35.3959C46.1163 32.9062 45.2609 30.8849 43.55 29.3803C41.8392 27.8756 39.6737 27.1233 37.0562 27.1233ZM37.2467 42.6749V28.117C39.5173 28.117 41.3902 28.7841 42.8651 30.1127C44.3401 31.4442 45.0761 33.2043 45.0761 35.3959C45.0761 37.5876 44.3372 39.3278 42.8651 40.6678C41.3902 42.0078 39.5173 42.6778 37.2467 42.6778V42.6749ZM42.7827 37.2867C42.7827 35.6003 42.3081 34.1695 41.3618 32.9971C40.4154 31.8246 39.1621 31.024 37.5991 30.5982V42.3201C39.1763 42.2576 40.5717 41.8233 41.788 41.0198C42.4502 39.9496 42.7827 38.7033 42.7827 37.2867Z" fill="#5E692F"/>
<path d="M45.0244 35.1312C44.925 35.0687 44.9761 34.9325 45.0642 34.9154C44.9619 32.9481 44.2315 31.3469 42.8646 30.112C41.3896 28.7805 39.5168 28.1162 37.2461 28.1162V42.6742C39.5168 42.6742 41.3896 42.0042 42.8646 40.6642C44.3395 39.3243 45.0756 37.567 45.0756 35.3924C45.0756 35.3157 45.0727 35.2391 45.0699 35.1653C45.0528 35.1539 45.0386 35.1425 45.0216 35.1312H45.0244ZM41.7875 41.0191C40.574 41.8225 39.1758 42.2569 37.5985 42.3193V30.5974C39.1587 31.0233 40.4148 31.8238 41.3612 32.9963C42.3075 34.1716 42.7821 35.5996 42.7821 37.2859C42.7821 38.7054 42.4496 39.9488 41.7875 41.0191Z" fill="#5E692F"/>
</g>
<defs>
<clipPath id="clip0_562_585">
<rect width="64" height="73" fill="white"/>
</clipPath>
</defs>
</svg>
