<svg viewBox="0 0 404 101" fill="none" xmlns="http://www.w3.org/2000/svg">
<g id="Layer_1" clip-path="url(#clip0_0_4)">
<path id="Vector" d="M215.273 0L215.275 32.7754L217.49 29.7811C230.778 15.3733 255.369 22.6956 255.061 43.5196L255.063 79.2837H246.06L245.716 78.5198C245.169 67.3634 246.482 55.463 245.736 44.3939C245.283 37.6604 242.08 31.729 234.922 30.5849C223.51 28.7605 215.526 37.5149 215.263 48.3802L215.273 79.2837H205.936V0H215.273Z" fill="var(--fill-0, white)"/>
<path id="Vector_2" d="M121.686 0H112.35V79.2841H121.686V0Z" fill="var(--fill-0, white)"/>
<path id="Vector_3" d="M144.805 0C144.511 11.4954 128.028 11.4173 127.466 0H144.805Z" fill="var(--fill-0, white)"/>
<path id="Vector_4" d="M402.027 98.7696C401.002 101.116 397.64 101.587 395.699 100.096C394.642 99.2826 393.946 97.2491 395.892 97.9135C396.222 98.026 396.32 98.7486 396.683 99.1158C397.824 100.268 400.794 99.6897 400.438 97.8278C400.101 96.0719 395.515 96.5963 394.967 94.1877C394.037 90.1026 401.535 89.656 401.803 93.6805C400 93.8887 400.573 93.6499 399.914 92.8031C398.697 91.2375 395.53 92.4287 396.682 94.1966C397.04 94.7462 400.05 95.2313 400.993 95.9278C401.554 96.3417 401.603 96.7563 402.027 97.2212V98.7696Z" fill="var(--fill-0, white)"/>
<path id="Vector_5" d="M348.65 52.487H305.302C305.401 64.7848 314.503 73.5756 327.099 71.212C330.849 70.5084 334.36 68.1895 336.43 65.006C337.117 63.9493 337.515 62.7302 338.313 61.7884H347.094C346.768 64.4623 345.272 67.1972 343.718 69.388C334.004 83.0835 311.893 82.7473 301.876 69.5205C293.976 59.0897 293.922 40.558 302.419 30.4579C312.794 18.1233 333.992 17.9633 343.718 31.1567C348.178 37.2066 349.496 45.1234 348.649 52.487H348.65ZM339.536 45.4001C339.11 23.456 306.529 24.2749 305.302 45.4001H339.536Z" fill="var(--fill-0, white)"/>
<path id="Vector_6" d="M52.6522 52.487H9.3047C9.40366 64.7848 18.5053 73.5756 31.1011 71.212C34.8515 70.5084 38.3623 68.1895 40.4323 65.006C41.1196 63.9493 41.5172 62.7302 42.3155 61.7884H51.096C50.7701 64.4623 49.2746 67.1972 47.7204 69.388C38.006 83.0835 15.8952 82.7473 5.87807 69.5205C-2.02143 59.0897 -2.07522 40.558 6.42118 30.4579C16.7969 18.1233 37.9947 17.9633 47.7204 31.1567C52.1802 37.2066 53.4985 45.1234 52.6519 52.487H52.6522ZM43.5379 45.4001C43.1117 23.456 10.5313 24.2749 9.30435 45.4001H43.5379Z" fill="var(--fill-0, white)"/>
<path id="Vector_7" d="M363.988 79.2841H354.652V23.6965H363.099L363.546 33.2182L366.097 29.4518C380.002 15.9872 401.499 21.7163 403.554 42.1907C404.729 53.8926 403.132 66.6945 403.79 78.5198L403.445 79.2837H394.553L394.22 78.9517V43.5175C394.22 37.4474 389.372 31.6374 383.383 30.6176C372.962 28.8431 365.296 35.9365 364.212 45.9561L363.987 79.2841H363.988Z" fill="var(--fill-0, white)"/>
<path id="Vector_8" d="M104.347 79.2841H95.3443L95.0108 78.952V43.7391C95.0108 37.5875 90.271 31.656 84.1737 30.6176C72.8713 28.6927 65.2722 37.0156 64.7808 47.7275L64.7787 79.2841H55.4423V23.6965H63.8894L64.3363 32.998C65.3084 31.8398 66.0026 30.4892 66.996 29.3382C78.9091 15.534 104.294 22.8597 104.344 42.1918L104.347 79.2841Z" fill="var(--fill-0, white)"/>
<path id="Vector_9" d="M278.182 23.6965H294.187V31.6691H278.182V64.9995C278.182 65.2369 278.674 66.9026 278.807 67.2557C279.523 69.1568 280.728 70.1306 282.673 70.7131C283.451 70.9464 285.547 71.3108 286.296 71.3108H293.521V79.2834C284.812 79.1722 273.58 80.8655 269.952 70.7623C269.587 69.7459 268.846 67.0816 268.846 66.1064V31.6688H259.065V23.6962C265.579 24.1803 268.603 19.2337 269.675 13.5596C269.874 12.5087 269.643 11.0584 270.291 10.1872H277.85L278.183 10.5192V23.6962L278.182 23.6965Z" fill="var(--fill-0, white)"/>
<path id="Vector_10" d="M140.804 23.6965H131.467V79.2841H140.804V23.6965Z" fill="var(--fill-0, white)"/>
<path id="Vector_11" d="M236.269 91.0272C238.969 91.4253 239.418 94.6708 237.268 96.1122C239.113 96.651 238.06 99.2575 238.6 100.76L237.044 100.762C237.318 97.2632 236.763 96.1425 233.049 96.5578V100.761H231.495V91.3593L231.828 91.0275C233.21 91.171 234.94 90.8314 236.269 91.0275V91.0272ZM233.049 95.2303H236.269C236.336 95.2303 236.942 94.5982 237 94.411C237.775 91.8744 234.612 92.3444 233.048 92.3533L233.049 95.2303Z" fill="var(--fill-0, white)"/>
<path id="Vector_12" d="M262.581 91.0272V92.3544H257.696V95.009H262.359V96.3362H257.696V99.4334H262.803V100.761H256.142V91.0272H262.581Z" fill="var(--fill-0, white)"/>
<path id="Vector_13" d="M377.823 91.0272V92.3544H372.716V95.009H377.601V96.3362H372.716V99.4334H378.046L377.823 100.761H371.384V91.0272H377.823Z" fill="var(--fill-0, white)"/>
<path id="Vector_14" d="M288.116 100.759L286.553 100.659L285.649 98.1323L281.652 98.2373C281.111 99.54 281.368 101.182 279.458 100.759C279.818 99.5844 282.353 91.4109 282.779 91.1291C283.108 90.9109 284.413 90.925 284.679 91.2447L288.116 100.759L288.116 100.759ZM285.008 96.7777C285.151 96.6318 284.103 93.5473 283.906 93.12C283.805 92.9008 283.771 92.6011 283.456 92.5756L282.343 96.7773H285.008V96.7777Z" fill="var(--fill-0, white)"/>
<path id="Vector_15" d="M214.397 93.9007C212.232 94.41 212.867 92.4628 210.898 92.1809C206.405 91.5385 206.417 100.254 210.936 99.6453C212.791 99.3955 212.327 97.1954 214.394 97.9927C212.129 103.269 205.465 101.108 205.963 95.3425C206.396 90.3229 212.918 89.0201 214.397 93.9007Z" fill="var(--fill-0, white)"/>
<path id="Vector_16" d="M349.848 99.2107L352.84 91.245L354.508 91.0293L350.636 100.775L348.979 100.738L345.628 91.0282L347.296 91.245L349.848 99.2107Z" fill="var(--fill-0, white)"/>
<path id="Vector_17" d="M310.543 91.0272V92.3544H307.435V100.761H305.88V92.3544H302.771V91.0272H310.543Z" fill="var(--fill-0, white)"/>
<path id="Vector_18" d="M328.751 91.0272V100.761H327.197V91.3593C327.557 90.8596 328.211 91.0434 328.751 91.0276V91.0272Z" fill="var(--fill-0, white)"/>
<path id="Vector_19" d="M181.587 22.5975C172.371 19.9955 161.492 20.9861 155.037 28.6862C148.638 36.3202 149.331 49.3819 157.253 55.697L147.74 65.2665C147.715 65.9213 147.582 66.807 147.701 67.4301C147.821 68.066 150.566 70.0583 151.271 70.5166C152.312 71.1938 153.364 71.6783 154.499 72.1776C154.711 72.2705 154.888 72.0489 154.807 72.5268C148.27 77.0299 145.908 84.4578 147.822 90.8386H158.156C156.198 88.44 155.572 85.2093 157.213 81.1267C158.121 78.8691 161.177 75.3989 163.639 74.9055C164.933 74.6461 167.863 75.3821 169.37 75.5173C177.307 76.2292 189.328 75.5221 187.905 87.1214C187.733 88.5253 187.182 89.7634 186.347 90.8386H196.321C197.095 88.6544 197.459 86.1793 197.276 83.3722C196.176 66.5176 176.236 69.2776 164.584 66.998C163.729 66.8307 158.586 65.6006 158.817 64.5728L164.248 59.6568C175.888 62.9645 190.068 59.5935 193.647 46.7775C195.212 41.1715 194.44 35.0178 191.264 30.1221L201.712 29.6768V22.5899L181.587 22.5978L181.587 22.5975ZM167.603 52.4746C159.2 50.1027 156.951 38.3981 162.667 32.6326C168.96 26.2841 183.594 28.2062 185.241 38.446C187.067 49.8003 177.927 55.3887 167.603 52.4746Z" fill="var(--fill-0, white)"/>
</g>
<defs>
<clipPath id="clip0_0_4">
<rect width="404" height="101" fill="white"/>
</clipPath>
</defs>
</svg>
