<svg width="1001" height="226" viewBox="0 0 1001 226" fill="none" xmlns="http://www.w3.org/2000/svg">
<g clip-path="url(#clip0_773_90)">
<path d="M533.386 0L533.392 81.4516L538.879 74.0104C571.803 38.2049 632.733 56.4018 631.971 108.153L631.976 197.032H609.67L608.815 195.133C607.46 167.408 610.713 137.834 608.866 110.326C607.742 93.5917 599.806 78.8512 582.072 76.0079C553.795 71.4741 534.014 93.23 533.363 120.232L533.386 197.032H510.253V0H533.386Z" fill="#303030"/>
<path d="M301.505 0H278.372V197.033H301.505V0Z" fill="#303030"/>
<path d="M358.787 0C358.059 28.5678 317.217 28.3736 315.825 0H358.787Z" fill="#303030"/>
<path d="M863.857 130.438H756.454C756.699 161 779.251 182.846 810.459 176.972C819.752 175.224 828.451 169.461 833.58 161.549C835.283 158.923 836.268 155.894 838.246 153.553H860.001C859.194 160.198 855.488 166.995 851.638 172.439C827.568 206.475 772.784 205.639 747.964 172.769C728.391 146.847 728.258 100.793 749.31 75.6923C775.018 45.0389 827.54 44.6413 851.638 77.429C862.688 92.4637 865.954 112.138 863.856 130.438H863.857ZM841.275 112.826C840.219 58.2915 759.494 60.3267 756.454 112.826H841.275Z" fill="#303030"/>
<path d="M130.458 130.438H23.0545C23.2997 161 45.8509 182.846 77.0598 176.972C86.3524 175.224 95.0511 169.461 100.18 161.549C101.883 158.923 102.868 155.894 104.846 153.553H126.602C125.794 160.198 122.089 166.995 118.238 172.439C94.1685 206.475 39.3839 205.639 14.5642 172.769C-5.00851 146.847 -5.1418 100.793 15.9099 75.6923C41.6182 45.0389 94.1403 44.6413 118.238 77.429C129.288 92.4637 132.554 112.138 130.457 130.438H130.458ZM107.875 112.826C106.819 58.2915 26.0936 60.3267 23.0536 112.826H107.875Z" fill="#303030"/>
<path d="M901.862 197.033H878.729V58.8895H899.658L900.765 82.5523L907.087 73.1921C941.539 39.7306 994.803 53.9683 999.895 104.85C1002.81 133.931 998.85 165.746 1000.48 195.134L999.625 197.032H977.594L976.767 196.207V108.148C976.767 93.0625 964.755 78.6239 949.916 76.0893C924.097 71.6794 905.102 89.3077 902.417 114.208L901.86 197.033H901.862Z" fill="#303030"/>
<path d="M258.543 197.033H236.237L235.41 196.208V108.698C235.41 93.4104 223.667 78.6699 208.559 76.0892C180.555 71.3057 161.726 91.9892 160.509 118.61L160.504 197.033H137.371V58.8894H158.3L159.407 82.0049C161.816 79.1266 163.536 75.7702 165.997 72.9099C195.515 38.6043 258.411 56.8097 258.537 104.853L258.543 197.033Z" fill="#303030"/>
<path d="M689.259 58.8901H728.915V78.7032H689.259V161.534C689.259 162.124 690.478 166.264 690.808 167.141C692.58 171.866 695.567 174.286 700.385 175.733C702.312 176.313 707.505 177.219 709.363 177.219H727.263V197.032C705.686 196.756 677.856 200.964 668.867 175.856C667.962 173.33 666.126 166.708 666.126 164.285V78.7023H641.892V58.8893C658.032 60.0924 665.524 47.7993 668.18 33.6984C668.672 31.0869 668.1 27.4825 669.707 25.3174H688.434L689.26 26.1426V58.8893L689.259 58.8901Z" fill="#303030"/>
<path d="M348.872 58.8896H325.739V197.033H348.872V58.8896Z" fill="#303030"/>
<path d="M449.922 56.1585C427.087 49.6921 400.132 52.154 384.139 71.2898C368.283 90.2615 370.002 122.722 389.628 138.416L366.059 162.197C365.996 163.825 365.668 166.026 365.961 167.574C366.259 169.155 373.061 174.106 374.808 175.245C377.388 176.928 379.993 178.132 382.807 179.372C383.33 179.603 383.769 179.053 383.568 180.24C367.373 191.431 361.519 209.891 366.261 225.748H391.867C387.016 219.787 385.463 211.758 389.531 201.612C391.78 196.002 399.352 187.378 405.451 186.152C408.658 185.507 415.917 187.336 419.653 187.672C439.317 189.441 469.103 187.684 465.577 216.51C465.151 219.999 463.784 223.076 461.716 225.748H486.428C488.347 220.32 489.248 214.169 488.794 207.193C486.069 165.307 436.663 172.165 407.794 166.5C405.676 166.085 392.933 163.028 393.505 160.473L406.96 148.256C435.802 156.477 470.935 148.099 479.802 116.249C483.681 102.318 481.767 87.0249 473.9 74.8582L499.787 73.7517V56.1397L449.921 56.1594L449.922 56.1585ZM415.273 130.408C394.454 124.513 388.881 95.4255 403.042 81.0972C418.635 65.3203 454.895 70.0969 458.975 95.5444C463.5 123.762 440.854 137.65 415.273 130.408Z" fill="#303030"/>
</g>
<defs>
<clipPath id="clip0_773_90">
<rect width="1001" height="226" fill="white"/>
</clipPath>
</defs>
</svg>
