<svg preserveAspectRatio="xMidYMid meet" width="100%" height="100%" overflow="visible" style="display: block;" viewBox="0 0 1750 437" fill="none" xmlns="http://www.w3.org/2000/svg">
<g id="Layer_1" clip-path="url(#clip0_0_4)">
<path id="Vector" d="M932.492 0L932.503 141.81L942.097 128.855C999.656 66.5161 1106.18 98.1976 1104.85 188.298L1104.85 343.039H1065.86L1064.36 339.734C1061.99 291.463 1067.68 239.974 1064.45 192.081C1062.49 162.947 1048.61 137.283 1017.61 132.333C968.173 124.439 933.59 162.317 932.452 209.328L932.492 343.039H892.05V0H932.492Z" fill="#111111"/>
<path id="Vector_2" d="M527.106 0H486.664V343.041H527.106V0Z" fill="#111111"/>
<path id="Vector_3" d="M627.25 0C625.977 49.7375 554.576 49.3995 552.142 0H627.25Z" fill="#111111"/>
<path id="Vector_4" d="M1741.45 427.35C1737.02 437.502 1722.45 439.54 1714.04 433.088C1709.46 429.57 1706.45 420.771 1714.88 423.646C1716.31 424.133 1716.73 427.259 1718.31 428.848C1723.25 433.834 1736.11 431.331 1734.57 423.275C1733.11 415.678 1713.25 417.947 1710.87 407.525C1706.85 389.85 1739.32 387.918 1740.49 405.331C1732.67 406.231 1735.15 405.198 1732.3 401.534C1727.03 394.76 1713.31 399.914 1718.3 407.564C1719.85 409.941 1732.89 412.041 1736.98 415.054C1739.41 416.845 1739.62 418.639 1741.45 420.65V427.35Z" fill="#111111"/>
<path id="Vector_5" d="M1510.24 227.097H1322.47C1322.9 280.306 1362.33 318.342 1416.89 308.115C1433.13 305.071 1448.34 295.038 1457.31 281.263C1460.28 276.691 1462.01 271.416 1465.46 267.342H1503.5C1502.09 278.911 1495.61 290.744 1488.88 300.223C1446.8 359.48 1351.02 358.025 1307.63 300.796C1273.41 255.665 1273.18 175.483 1309.98 131.783C1354.93 78.4142 1446.75 77.7219 1488.88 134.807C1508.2 160.982 1513.91 195.237 1510.24 227.097H1510.24ZM1470.76 196.434C1468.91 101.487 1327.79 105.031 1322.47 196.434H1470.76Z" fill="#111111"/>
<path id="Vector_6" d="M228.073 227.097H40.3049C40.7336 280.306 80.1588 318.342 134.72 308.115C150.966 305.071 166.173 295.038 175.14 281.263C178.117 276.691 179.839 271.416 183.297 267.342H221.332C219.92 278.911 213.442 290.744 206.71 300.223C164.63 359.48 68.8529 358.025 25.4618 300.796C-8.75626 255.665 -8.98928 175.483 27.8144 131.783C72.7589 78.4142 164.581 77.7219 206.71 134.807C226.028 160.982 231.738 195.237 228.071 227.097H228.073ZM188.592 196.434C186.746 101.487 45.6181 105.031 40.3034 196.434H188.592Z" fill="#111111"/>
<path id="Vector_7" d="M1576.68 343.041H1536.24V102.528H1572.83L1574.76 143.726L1585.82 127.43C1646.05 69.1721 1739.17 93.9605 1748.07 182.548C1753.16 233.179 1746.24 288.569 1749.09 339.734L1747.6 343.039H1709.08L1707.64 341.603V188.289C1707.64 162.025 1686.63 136.887 1660.69 132.474C1615.55 124.796 1582.35 155.488 1577.65 198.84L1576.68 343.041H1576.68Z" fill="#111111"/>
<path id="Vector_8" d="M451.999 343.041H413.001L411.557 341.605V189.248C411.557 162.631 391.025 136.967 364.614 132.474C315.655 124.146 282.738 160.157 280.61 206.504L280.601 343.041H240.158V102.529H276.749L278.684 142.774C282.895 137.762 285.902 131.919 290.205 126.939C341.809 67.2117 451.768 98.9081 451.987 182.553L451.999 343.041Z" fill="#111111"/>
<path id="Vector_9" d="M1205 102.528H1274.33V137.024H1205V281.235C1205 282.263 1207.13 289.47 1207.71 290.997C1210.81 299.223 1216.03 303.436 1224.45 305.957C1227.82 306.966 1236.9 308.543 1240.14 308.543H1271.44V343.038C1233.72 342.557 1185.06 349.883 1169.35 306.17C1167.77 301.772 1164.56 290.244 1164.56 286.025V137.022H1122.19V102.527C1150.41 104.622 1163.5 83.2189 1168.15 58.6687C1169.01 54.122 1168.01 47.8467 1170.82 44.0771H1203.56L1205 45.5138V102.527L1205 102.528Z" fill="#111111"/>
<path id="Vector_10" d="M609.916 102.528H569.474V343.041H609.916V102.528Z" fill="#111111"/>
<path id="Vector_11" d="M1023.44 393.85C1035.14 395.573 1037.08 409.615 1027.77 415.851C1035.76 418.183 1031.2 429.46 1033.54 435.96L1026.8 435.969C1027.99 420.831 1025.58 415.982 1009.49 417.779V435.965H1002.76V395.287L1004.2 393.852C1010.19 394.472 1017.69 393.003 1023.44 393.852V393.85ZM1009.49 412.036H1023.44C1023.73 412.036 1026.36 409.301 1026.61 408.491C1029.97 397.515 1016.27 399.549 1009.49 399.588L1009.49 412.036Z" fill="#111111"/>
<path id="Vector_12" d="M1137.42 393.85V399.593H1116.26V411.079H1136.46V416.821H1116.26V430.222H1138.38V435.964H1109.52V393.85H1137.42Z" fill="#111111"/>
<path id="Vector_13" d="M1636.61 393.85V399.593H1614.49V411.079H1635.65V416.821H1614.49V430.222H1637.57L1636.61 435.964H1608.72V393.85H1636.61Z" fill="#111111"/>
<path id="Vector_14" d="M1248.03 435.958L1241.26 435.527L1237.34 424.593L1220.03 425.047C1217.69 430.683 1218.79 437.787 1210.52 435.96C1212.08 430.876 1223.06 395.511 1224.91 394.292C1226.34 393.348 1231.99 393.409 1233.14 394.792L1248.03 435.96L1248.03 435.958ZM1234.57 418.732C1235.19 418.1 1230.64 404.755 1229.79 402.906C1229.35 401.957 1229.2 400.661 1227.84 400.55L1223.02 418.73H1234.57V418.732Z" fill="#111111"/>
<path id="Vector_15" d="M928.698 406.284C919.321 408.487 922.072 400.062 913.542 398.843C894.08 396.063 894.134 433.773 913.709 431.139C921.744 430.058 919.732 420.539 928.688 423.988C918.876 446.817 890.008 437.469 892.165 412.522C894.043 390.803 922.295 385.167 928.698 406.284Z" fill="#111111"/>
<path id="Vector_16" d="M1515.43 429.258L1528.39 394.792L1535.62 393.859L1518.84 436.024L1511.67 435.867L1497.15 393.854L1504.37 394.792L1515.43 429.258Z" fill="#111111"/>
<path id="Vector_17" d="M1345.18 393.85V399.593H1331.71V435.964H1324.98V399.593H1311.51V393.85H1345.18Z" fill="#111111"/>
<path id="Vector_18" d="M1424.05 393.85V435.965H1417.31V395.287C1418.87 393.125 1421.71 393.92 1424.05 393.852V393.85Z" fill="#111111"/>
<path id="Vector_19" d="M786.577 97.7736C746.656 86.5153 699.532 90.8016 671.573 124.118C643.852 157.148 646.856 213.662 681.168 240.986L639.964 282.391C639.854 285.224 639.28 289.056 639.792 291.752C640.314 294.504 652.205 303.124 655.258 305.107C659.769 308.037 664.324 310.133 669.243 312.293C670.158 312.695 670.924 311.736 670.573 313.804C642.26 333.288 632.027 365.427 640.317 393.035H685.082C676.602 382.656 673.887 368.678 680.998 351.014C684.93 341.246 698.168 326.231 708.831 324.096C714.437 322.974 727.129 326.158 733.659 326.743C768.037 329.824 820.111 326.764 813.946 376.951C813.201 383.026 810.811 388.382 807.196 393.035H850.399C853.754 383.584 855.328 372.875 854.535 360.73C849.772 287.804 763.398 299.746 712.926 289.883C709.223 289.159 686.946 283.837 687.945 279.39L711.468 258.119C761.892 272.431 823.314 257.845 838.815 202.394C845.597 178.138 842.251 151.513 828.497 130.33L873.753 128.404V97.7408L786.576 97.775L786.577 97.7736ZM726.002 227.044C689.605 216.781 679.863 166.139 704.62 141.193C731.88 113.724 795.271 122.041 802.405 166.346C810.315 215.473 770.724 239.652 726.002 227.044Z" fill="#111111"/>
</g>
<defs>
<clipPath id="clip0_0_4">
<rect width="1750" height="437" fill="white"/>
</clipPath>
</defs>
</svg>
