<svg preserveAspectRatio="none" width="100%" height="100%" overflow="visible" style="display: block;" viewBox="0 0 54 54" fill="none" xmlns="http://www.w3.org/2000/svg">
<g id="Frame 1261152345">
<circle id="Ellipse 3" cx="27" cy="27" r="26.5" stroke="var(--stroke-0, #383838)"/>
<g id="Plus">
<path id="Vector" d="M36 27C36 27.1989 35.921 27.3897 35.7803 27.5303C35.6397 27.671 35.4489 27.75 35.25 27.75H27.75V35.25C27.75 35.4489 27.671 35.6397 27.5303 35.7803C27.3897 35.921 27.1989 36 27 36C26.8011 36 26.6103 35.921 26.4697 35.7803C26.329 35.6397 26.25 35.4489 26.25 35.25V27.75H18.75C18.5511 27.75 18.3603 27.671 18.2197 27.5303C18.079 27.3897 18 27.1989 18 27C18 26.8011 18.079 26.6103 18.2197 26.4697C18.3603 26.329 18.5511 26.25 18.75 26.25H26.25V18.75C26.25 18.5511 26.329 18.3603 26.4697 18.2197C26.6103 18.079 26.8011 18 27 18C27.1989 18 27.3897 18.079 27.5303 18.2197C27.671 18.3603 27.75 18.5511 27.75 18.75V26.25H35.25C35.4489 26.25 35.6397 26.329 35.7803 26.4697C35.921 26.6103 36 26.8011 36 27Z" fill="var(--fill-0, #787878)"/>
</g>
</g>
</svg>
